<?xml version="1.0" encoding="utf-8" standalone="no"?>
<!DOCTYPE svg PUBLIC "-//W3C//DTD SVG 1.1//EN"
  "http://www.w3.org/Graphics/SVG/1.1/DTD/svg11.dtd">
<!-- Created with matplotlib (http://matplotlib.org/) -->
<svg height="216pt" version="1.1" viewBox="0 0 468 216" width="468pt" xmlns="http://www.w3.org/2000/svg" xmlns:xlink="http://www.w3.org/1999/xlink">
 <defs>
  <style type="text/css">
*{stroke-linecap:butt;stroke-linejoin:round;}
  </style>
 </defs>
 <g id="figure_1">
  <g id="patch_1">
   <path d="M 0 216 
L 468 216 
L 468 0 
L 0 0 
z
" style="fill:none;opacity:0;"/>
  </g>
  <g id="axes_1">
   <g id="patch_2">
    <path d="M 30.37 176.828 
L 465.56 176.828 
L 465.56 12.76 
L 30.37 12.76 
z
" style="fill:#ffffff;"/>
   </g>
   <g id="patch_3">
    <path clip-path="url(#p950b2a1db4)" d="M 36.627634 79.470437 
L 41.178641 79.470437 
L 41.178641 62.334709 
L 36.627634 62.334709 
z
" style="fill:#4d59a7;"/>
   </g>
   <g id="patch_4">
    <path clip-path="url(#p950b2a1db4)" d="M 65.071425 79.470437 
L 69.622431 79.470437 
L 69.622431 46.124345 
L 65.071425 46.124345 
z
" style="fill:#4d59a7;"/>
   </g>
   <g id="patch_5">
    <path clip-path="url(#p950b2a1db4)" d="M 99.203974 79.470437 
L 103.75498 79.470437 
L 103.75498 109.367153 
L 99.203974 109.367153 
z
" style="fill:#4d59a7;"/>
   </g>
   <g id="patch_6">
    <path clip-path="url(#p950b2a1db4)" d="M 127.647765 79.470437 
L 132.198771 79.470437 
L 132.198771 105.121561 
L 127.647765 105.121561 
z
" style="fill:#4d59a7;"/>
   </g>
   <g id="patch_7">
    <path clip-path="url(#p950b2a1db4)" d="M 161.780314 79.470437 
L 166.33132 79.470437 
L 166.33132 115.545783 
L 161.780314 115.545783 
z
" style="fill:#4d59a7;"/>
   </g>
   <g id="patch_8">
    <path clip-path="url(#p950b2a1db4)" d="M 190.224105 79.470437 
L 194.775111 79.470437 
L 194.775111 155.966261 
L 190.224105 155.966261 
z
" style="fill:#4d59a7;"/>
   </g>
   <g id="patch_9">
    <path clip-path="url(#p950b2a1db4)" d="M 224.356654 79.470437 
L 228.90766 79.470437 
L 228.90766 104.884233 
L 224.356654 104.884233 
z
" style="fill:#4d59a7;"/>
   </g>
   <g id="patch_10">
    <path clip-path="url(#p950b2a1db4)" d="M 252.800444 79.470437 
L 257.351451 79.470437 
L 257.351451 160.692423 
L 252.800444 160.692423 
z
" style="fill:#4d59a7;"/>
   </g>
   <g id="patch_11">
    <path clip-path="url(#p950b2a1db4)" d="M 286.932993 79.470437 
L 291.484 79.470437 
L 291.484 80.041827 
L 286.932993 80.041827 
z
" style="fill:#4d59a7;"/>
   </g>
   <g id="patch_12">
    <path clip-path="url(#p950b2a1db4)" d="M 315.376784 79.470437 
L 319.927791 79.470437 
L 319.927791 67.250132 
L 315.376784 67.250132 
z
" style="fill:#4d59a7;"/>
   </g>
   <g id="patch_13">
    <path clip-path="url(#p950b2a1db4)" d="M 349.509333 79.470437 
L 354.06034 79.470437 
L 354.06034 85.741444 
L 349.509333 85.741444 
z
" style="fill:#4d59a7;"/>
   </g>
   <g id="patch_14">
    <path clip-path="url(#p950b2a1db4)" d="M 377.953124 79.470437 
L 382.504131 79.470437 
L 382.504131 56.206094 
L 377.953124 56.206094 
z
" style="fill:#4d59a7;"/>
   </g>
   <g id="patch_15">
    <path clip-path="url(#p950b2a1db4)" d="M 412.085673 79.470437 
L 416.63668 79.470437 
L 416.63668 100.460872 
L 412.085673 100.460872 
z
" style="fill:#4d59a7;"/>
   </g>
   <g id="patch_16">
    <path clip-path="url(#p950b2a1db4)" d="M 440.529464 79.470437 
L 445.080471 79.470437 
L 445.080471 115.230903 
L 440.529464 115.230903 
z
" style="fill:#4d59a7;"/>
   </g>
   <g id="patch_17">
    <path clip-path="url(#p950b2a1db4)" d="M 42.316392 79.470437 
L 46.867399 79.470437 
L 46.867399 96.686007 
L 42.316392 96.686007 
z
" style="fill:#fcd71a;"/>
   </g>
   <g id="patch_18">
    <path clip-path="url(#p950b2a1db4)" d="M 70.760183 79.470437 
L 75.31119 79.470437 
L 75.31119 109.297846 
L 70.760183 109.297846 
z
" style="fill:#fcd71a;"/>
   </g>
   <g id="patch_19">
    <path clip-path="url(#p950b2a1db4)" d="M 104.892732 79.470437 
L 109.443739 79.470437 
L 109.443739 76.54448 
L 104.892732 76.54448 
z
" style="fill:#fcd71a;"/>
   </g>
   <g id="patch_20">
    <path clip-path="url(#p950b2a1db4)" d="M 133.336523 79.470437 
L 137.887529 79.470437 
L 137.887529 100.339262 
L 133.336523 100.339262 
z
" style="fill:#fcd71a;"/>
   </g>
   <g id="patch_21">
    <path clip-path="url(#p950b2a1db4)" d="M 167.469072 79.470437 
L 172.020078 79.470437 
L 172.020078 69.794758 
L 167.469072 69.794758 
z
" style="fill:#fcd71a;"/>
   </g>
   <g id="patch_22">
    <path clip-path="url(#p950b2a1db4)" d="M 195.912863 79.470437 
L 200.463869 79.470437 
L 200.463869 85.716862 
L 195.912863 85.716862 
z
" style="fill:#fcd71a;"/>
   </g>
   <g id="patch_23">
    <path clip-path="url(#p950b2a1db4)" d="M 230.045412 79.470437 
L 234.596418 79.470437 
L 234.596418 78.432903 
L 230.045412 78.432903 
z
" style="fill:#fcd71a;"/>
   </g>
   <g id="patch_24">
    <path clip-path="url(#p950b2a1db4)" d="M 258.489203 79.470437 
L 263.040209 79.470437 
L 263.040209 83.064412 
L 258.489203 83.064412 
z
" style="fill:#fcd71a;"/>
   </g>
   <g id="patch_25">
    <path clip-path="url(#p950b2a1db4)" d="M 292.621752 79.470437 
L 297.172758 79.470437 
L 297.172758 60.998348 
L 292.621752 60.998348 
z
" style="fill:#fcd71a;"/>
   </g>
   <g id="patch_26">
    <path clip-path="url(#p950b2a1db4)" d="M 321.065542 79.470437 
L 325.616549 79.470437 
L 325.616549 40.331154 
L 321.065542 40.331154 
z
" style="fill:#fcd71a;"/>
   </g>
   <g id="patch_27">
    <path clip-path="url(#p950b2a1db4)" d="M 355.198092 79.470437 
L 359.749098 79.470437 
L 359.749098 69.076208 
L 355.198092 69.076208 
z
" style="fill:#fcd71a;"/>
   </g>
   <g id="patch_28">
    <path clip-path="url(#p950b2a1db4)" d="M 383.641882 79.470437 
L 388.192889 79.470437 
L 388.192889 48.581995 
L 383.641882 48.581995 
z
" style="fill:#fcd71a;"/>
   </g>
   <g id="patch_29">
    <path clip-path="url(#p950b2a1db4)" d="M 417.774431 79.470437 
L 422.325438 79.470437 
L 422.325438 88.440612 
L 417.774431 88.440612 
z
" style="fill:#fcd71a;"/>
   </g>
   <g id="patch_30">
    <path clip-path="url(#p950b2a1db4)" d="M 446.218222 79.470437 
L 450.769229 79.470437 
L 450.769229 108.51471 
L 446.218222 108.51471 
z
" style="fill:#fcd71a;"/>
   </g>
   <g id="patch_31">
    <path clip-path="url(#p950b2a1db4)" d="M 48.00515 79.470437 
L 52.556157 79.470437 
L 52.556157 74.358262 
L 48.00515 74.358262 
z
" style="fill:#f0514b;"/>
   </g>
   <g id="patch_32">
    <path clip-path="url(#p950b2a1db4)" d="M 76.448941 79.470437 
L 80.999948 79.470437 
L 80.999948 67.595067 
L 76.448941 67.595067 
z
" style="fill:#f0514b;"/>
   </g>
   <g id="patch_33">
    <path clip-path="url(#p950b2a1db4)" d="M 110.58149 79.470437 
L 115.132497 79.470437 
L 115.132497 66.166423 
L 110.58149 66.166423 
z
" style="fill:#f0514b;"/>
   </g>
   <g id="patch_34">
    <path clip-path="url(#p950b2a1db4)" d="M 139.025281 79.470437 
L 143.576288 79.470437 
L 143.576288 46.579212 
L 139.025281 46.579212 
z
" style="fill:#f0514b;"/>
   </g>
   <g id="patch_35">
    <path clip-path="url(#p950b2a1db4)" d="M 173.15783 79.470437 
L 177.708837 79.470437 
L 177.708837 69.726809 
L 173.15783 69.726809 
z
" style="fill:#f0514b;"/>
   </g>
   <g id="patch_36">
    <path clip-path="url(#p950b2a1db4)" d="M 201.601621 79.470437 
L 206.152627 79.470437 
L 206.152627 36.832546 
L 201.601621 36.832546 
z
" style="fill:#f0514b;"/>
   </g>
   <g id="patch_37">
    <path clip-path="url(#p950b2a1db4)" d="M 235.73417 79.470437 
L 240.285176 79.470437 
L 240.285176 66.655311 
L 235.73417 66.655311 
z
" style="fill:#f0514b;"/>
   </g>
   <g id="patch_38">
    <path clip-path="url(#p950b2a1db4)" d="M 264.177961 79.470437 
L 268.728967 79.470437 
L 268.728967 35.812311 
L 264.177961 35.812311 
z
" style="fill:#f0514b;"/>
   </g>
   <g id="patch_39">
    <path clip-path="url(#p950b2a1db4)" d="M 298.31051 79.470437 
L 302.861516 79.470437 
L 302.861516 97.737599 
L 298.31051 97.737599 
z
" style="fill:#f0514b;"/>
   </g>
   <g id="patch_40">
    <path clip-path="url(#p950b2a1db4)" d="M 326.754301 79.470437 
L 331.305307 79.470437 
L 331.305307 132.512364 
L 326.754301 132.512364 
z
" style="fill:#f0514b;"/>
   </g>
   <g id="patch_41">
    <path clip-path="url(#p950b2a1db4)" d="M 360.88685 79.470437 
L 365.437856 79.470437 
L 365.437856 85.21657 
L 360.88685 85.21657 
z
" style="fill:#f0514b;"/>
   </g>
   <g id="patch_42">
    <path clip-path="url(#p950b2a1db4)" d="M 389.330641 79.470437 
L 393.881647 79.470437 
L 393.881647 130.917622 
L 389.330641 130.917622 
z
" style="fill:#f0514b;"/>
   </g>
   <g id="patch_43">
    <path clip-path="url(#p950b2a1db4)" d="M 423.46319 79.470437 
L 428.014196 79.470437 
L 428.014196 53.785306 
L 423.46319 53.785306 
z
" style="fill:#f0514b;"/>
   </g>
   <g id="patch_44">
    <path clip-path="url(#p950b2a1db4)" d="M 451.90698 79.470437 
L 456.457987 79.470437 
L 456.457987 21.845893 
L 451.90698 21.845893 
z
" style="fill:#f0514b;"/>
   </g>
   <g id="matplotlib.axis_1">
    <g id="xtick_1">
     <g id="line2d_1"/>
     <g id="text_1">
      <!-- LL -->
      <defs>
       <path d="M 9.8125 72.90625 
L 19.671875 72.90625 
L 19.671875 8.296875 
L 55.171875 8.296875 
L 55.171875 0 
L 9.8125 0 
z
" id="DejaVuSans-4c"/>
      </defs>
      <g transform="translate(39.02002 187.926437)scale(0.1 -0.1)">
       <use xlink:href="#DejaVuSans-4c"/>
       <use x="55.712891" xlink:href="#DejaVuSans-4c"/>
      </g>
     </g>
    </g>
    <g id="xtick_2">
     <g id="line2d_2"/>
     <g id="text_2">
      <!-- LH -->
      <defs>
       <path d="M 9.8125 72.90625 
L 19.671875 72.90625 
L 19.671875 43.015625 
L 55.515625 43.015625 
L 55.515625 72.90625 
L 65.375 72.90625 
L 65.375 0 
L 55.515625 0 
L 55.515625 34.71875 
L 19.671875 34.71875 
L 19.671875 0 
L 9.8125 0 
z
" id="DejaVuSans-48"/>
      </defs>
      <g transform="translate(66.489593 187.926437)scale(0.1 -0.1)">
       <use xlink:href="#DejaVuSans-4c"/>
       <use x="55.712891" xlink:href="#DejaVuSans-48"/>
      </g>
     </g>
    </g>
    <g id="xtick_3">
     <g id="line2d_3"/>
     <g id="text_3">
      <!-- LL -->
      <g transform="translate(101.59636 187.926437)scale(0.1 -0.1)">
       <use xlink:href="#DejaVuSans-4c"/>
       <use x="55.712891" xlink:href="#DejaVuSans-4c"/>
      </g>
     </g>
    </g>
    <g id="xtick_4">
     <g id="line2d_4"/>
     <g id="text_4">
      <!-- LH -->
      <g transform="translate(129.065932 187.926437)scale(0.1 -0.1)">
       <use xlink:href="#DejaVuSans-4c"/>
       <use x="55.712891" xlink:href="#DejaVuSans-48"/>
      </g>
     </g>
    </g>
    <g id="xtick_5">
     <g id="line2d_5"/>
     <g id="text_5">
      <!-- LL -->
      <g transform="translate(164.1727 187.926437)scale(0.1 -0.1)">
       <use xlink:href="#DejaVuSans-4c"/>
       <use x="55.712891" xlink:href="#DejaVuSans-4c"/>
      </g>
     </g>
    </g>
    <g id="xtick_6">
     <g id="line2d_6"/>
     <g id="text_6">
      <!-- LH -->
      <g transform="translate(191.642272 187.926437)scale(0.1 -0.1)">
       <use xlink:href="#DejaVuSans-4c"/>
       <use x="55.712891" xlink:href="#DejaVuSans-48"/>
      </g>
     </g>
    </g>
    <g id="xtick_7">
     <g id="line2d_7"/>
     <g id="text_7">
      <!-- LL -->
      <g transform="translate(226.74904 187.926437)scale(0.1 -0.1)">
       <use xlink:href="#DejaVuSans-4c"/>
       <use x="55.712891" xlink:href="#DejaVuSans-4c"/>
      </g>
     </g>
    </g>
    <g id="xtick_8">
     <g id="line2d_8"/>
     <g id="text_8">
      <!-- LH -->
      <g transform="translate(254.218612 187.926437)scale(0.1 -0.1)">
       <use xlink:href="#DejaVuSans-4c"/>
       <use x="55.712891" xlink:href="#DejaVuSans-48"/>
      </g>
     </g>
    </g>
    <g id="xtick_9">
     <g id="line2d_9"/>
     <g id="text_9">
      <!-- LL -->
      <g transform="translate(289.32538 187.926437)scale(0.1 -0.1)">
       <use xlink:href="#DejaVuSans-4c"/>
       <use x="55.712891" xlink:href="#DejaVuSans-4c"/>
      </g>
     </g>
    </g>
    <g id="xtick_10">
     <g id="line2d_10"/>
     <g id="text_10">
      <!-- LH -->
      <g transform="translate(316.794952 187.926437)scale(0.1 -0.1)">
       <use xlink:href="#DejaVuSans-4c"/>
       <use x="55.712891" xlink:href="#DejaVuSans-48"/>
      </g>
     </g>
    </g>
    <g id="xtick_11">
     <g id="line2d_11"/>
     <g id="text_11">
      <!-- LL -->
      <g transform="translate(351.90172 187.926437)scale(0.1 -0.1)">
       <use xlink:href="#DejaVuSans-4c"/>
       <use x="55.712891" xlink:href="#DejaVuSans-4c"/>
      </g>
     </g>
    </g>
    <g id="xtick_12">
     <g id="line2d_12"/>
     <g id="text_12">
      <!-- LH -->
      <g transform="translate(379.371292 187.926437)scale(0.1 -0.1)">
       <use xlink:href="#DejaVuSans-4c"/>
       <use x="55.712891" xlink:href="#DejaVuSans-48"/>
      </g>
     </g>
    </g>
    <g id="xtick_13">
     <g id="line2d_13"/>
     <g id="text_13">
      <!-- LL -->
      <g transform="translate(414.47806 187.926437)scale(0.1 -0.1)">
       <use xlink:href="#DejaVuSans-4c"/>
       <use x="55.712891" xlink:href="#DejaVuSans-4c"/>
      </g>
     </g>
    </g>
    <g id="xtick_14">
     <g id="line2d_14"/>
     <g id="text_14">
      <!-- LH -->
      <g transform="translate(441.947632 187.926437)scale(0.1 -0.1)">
       <use xlink:href="#DejaVuSans-4c"/>
       <use x="55.712891" xlink:href="#DejaVuSans-48"/>
      </g>
     </g>
    </g>
    <g id="xtick_15">
     <g id="line2d_15"/>
     <g id="text_15">
      <!--  -->
      <g transform="translate(61.65817 187.926437)scale(0.1 -0.1)"/>
      <!-- $\delta$mshB -->
      <defs>
       <path d="M 54.25 63.328125 
Q 49.953125 66.75 38.28125 66.75 
Q 25.921875 66.75 24.8125 61.03125 
Q 23.921875 56.546875 36.375 54.203125 
Q 46.140625 52.390625 50.828125 46.921875 
Q 56.5 40.328125 53.859375 26.8125 
Q 51.3125 13.875 43.171875 6.25 
Q 34.96875 -1.421875 23.25 -1.421875 
Q 11.578125 -1.421875 6.34375 6.25 
Q 1.125 13.875 3.765625 27.296875 
Q 5.671875 37.25 13.921875 45.3125 
Q 17.140625 48.4375 21.140625 50.203125 
Q 14.265625 54.046875 15.625 60.9375 
Q 18.21875 74.21875 39.75 74.21875 
Q 50.53125 74.21875 55.71875 70.796875 
z
M 27.390625 47.75 
Q 23.828125 46.34375 20.40625 42.78125 
Q 15.140625 37.25 13.234375 27.296875 
Q 11.28125 17.390625 14.359375 11.8125 
Q 17.484375 6.203125 24.75 6.203125 
Q 31.9375 6.203125 37.203125 11.859375 
Q 42.53125 17.53125 44.34375 26.8125 
Q 46.1875 36.53125 42.671875 41.21875 
Q 38.921875 46.234375 32.859375 46.78125 
Q 29.78125 47.078125 27.390625 47.75 
z
" id="DejaVuSans-Oblique-3b4"/>
       <path d="M 52 44.1875 
Q 55.375 50.25 60.0625 53.125 
Q 64.75 56 71.09375 56 
Q 79.640625 56 84.28125 50.015625 
Q 88.921875 44.046875 88.921875 33.015625 
L 88.921875 0 
L 79.890625 0 
L 79.890625 32.71875 
Q 79.890625 40.578125 77.09375 44.375 
Q 74.3125 48.1875 68.609375 48.1875 
Q 61.625 48.1875 57.5625 43.546875 
Q 53.515625 38.921875 53.515625 30.90625 
L 53.515625 0 
L 44.484375 0 
L 44.484375 32.71875 
Q 44.484375 40.625 41.703125 44.40625 
Q 38.921875 48.1875 33.109375 48.1875 
Q 26.21875 48.1875 22.15625 43.53125 
Q 18.109375 38.875 18.109375 30.90625 
L 18.109375 0 
L 9.078125 0 
L 9.078125 54.6875 
L 18.109375 54.6875 
L 18.109375 46.1875 
Q 21.1875 51.21875 25.484375 53.609375 
Q 29.78125 56 35.6875 56 
Q 41.65625 56 45.828125 52.96875 
Q 50 49.953125 52 44.1875 
z
" id="DejaVuSans-6d"/>
       <path d="M 44.28125 53.078125 
L 44.28125 44.578125 
Q 40.484375 46.53125 36.375 47.5 
Q 32.28125 48.484375 27.875 48.484375 
Q 21.1875 48.484375 17.84375 46.4375 
Q 14.5 44.390625 14.5 40.28125 
Q 14.5 37.15625 16.890625 35.375 
Q 19.28125 33.59375 26.515625 31.984375 
L 29.59375 31.296875 
Q 39.15625 29.25 43.1875 25.515625 
Q 47.21875 21.78125 47.21875 15.09375 
Q 47.21875 7.46875 41.1875 3.015625 
Q 35.15625 -1.421875 24.609375 -1.421875 
Q 20.21875 -1.421875 15.453125 -0.5625 
Q 10.6875 0.296875 5.421875 2 
L 5.421875 11.28125 
Q 10.40625 8.6875 15.234375 7.390625 
Q 20.0625 6.109375 24.8125 6.109375 
Q 31.15625 6.109375 34.5625 8.28125 
Q 37.984375 10.453125 37.984375 14.40625 
Q 37.984375 18.0625 35.515625 20.015625 
Q 33.0625 21.96875 24.703125 23.78125 
L 21.578125 24.515625 
Q 13.234375 26.265625 9.515625 29.90625 
Q 5.8125 33.546875 5.8125 39.890625 
Q 5.8125 47.609375 11.28125 51.796875 
Q 16.75 56 26.8125 56 
Q 31.78125 56 36.171875 55.265625 
Q 40.578125 54.546875 44.28125 53.078125 
z
" id="DejaVuSans-73"/>
       <path d="M 54.890625 33.015625 
L 54.890625 0 
L 45.90625 0 
L 45.90625 32.71875 
Q 45.90625 40.484375 42.875 44.328125 
Q 39.84375 48.1875 33.796875 48.1875 
Q 26.515625 48.1875 22.3125 43.546875 
Q 18.109375 38.921875 18.109375 30.90625 
L 18.109375 0 
L 9.078125 0 
L 9.078125 75.984375 
L 18.109375 75.984375 
L 18.109375 46.1875 
Q 21.34375 51.125 25.703125 53.5625 
Q 30.078125 56 35.796875 56 
Q 45.21875 56 50.046875 50.171875 
Q 54.890625 44.34375 54.890625 33.015625 
z
" id="DejaVuSans-68"/>
       <path d="M 19.671875 34.8125 
L 19.671875 8.109375 
L 35.5 8.109375 
Q 43.453125 8.109375 47.28125 11.40625 
Q 51.125 14.703125 51.125 21.484375 
Q 51.125 28.328125 47.28125 31.5625 
Q 43.453125 34.8125 35.5 34.8125 
z
M 19.671875 64.796875 
L 19.671875 42.828125 
L 34.28125 42.828125 
Q 41.5 42.828125 45.03125 45.53125 
Q 48.578125 48.25 48.578125 53.8125 
Q 48.578125 59.328125 45.03125 62.0625 
Q 41.5 64.796875 34.28125 64.796875 
z
M 9.8125 72.90625 
L 35.015625 72.90625 
Q 46.296875 72.90625 52.390625 68.21875 
Q 58.5 63.53125 58.5 54.890625 
Q 58.5 48.1875 55.375 44.234375 
Q 52.25 40.28125 46.1875 39.3125 
Q 53.46875 37.75 57.5 32.78125 
Q 61.53125 27.828125 61.53125 20.40625 
Q 61.53125 10.640625 54.890625 5.3125 
Q 48.25 0 35.984375 0 
L 9.8125 0 
z
" id="DejaVuSans-42"/>
      </defs>
      <g transform="translate(44.50817 199.12425)scale(0.1 -0.1)">
       <use transform="translate(0 0.015625)" xlink:href="#DejaVuSans-Oblique-3b4"/>
       <use transform="translate(61.181641 0.015625)" xlink:href="#DejaVuSans-6d"/>
       <use transform="translate(158.59375 0.015625)" xlink:href="#DejaVuSans-73"/>
       <use transform="translate(210.693359 0.015625)" xlink:href="#DejaVuSans-68"/>
       <use transform="translate(274.072266 0.015625)" xlink:href="#DejaVuSans-42"/>
      </g>
     </g>
    </g>
    <g id="xtick_16">
     <g id="line2d_16"/>
     <g id="text_16">
      <!--  -->
      <g transform="translate(124.23451 187.906125)scale(0.1 -0.1)"/>
      <!-- $\delta$wbpQ -->
      <defs>
       <path d="M 4.203125 54.6875 
L 13.1875 54.6875 
L 24.421875 12.015625 
L 35.59375 54.6875 
L 46.1875 54.6875 
L 57.421875 12.015625 
L 68.609375 54.6875 
L 77.59375 54.6875 
L 63.28125 0 
L 52.6875 0 
L 40.921875 44.828125 
L 29.109375 0 
L 18.5 0 
z
" id="DejaVuSans-77"/>
       <path d="M 48.6875 27.296875 
Q 48.6875 37.203125 44.609375 42.84375 
Q 40.53125 48.484375 33.40625 48.484375 
Q 26.265625 48.484375 22.1875 42.84375 
Q 18.109375 37.203125 18.109375 27.296875 
Q 18.109375 17.390625 22.1875 11.75 
Q 26.265625 6.109375 33.40625 6.109375 
Q 40.53125 6.109375 44.609375 11.75 
Q 48.6875 17.390625 48.6875 27.296875 
z
M 18.109375 46.390625 
Q 20.953125 51.265625 25.265625 53.625 
Q 29.59375 56 35.59375 56 
Q 45.5625 56 51.78125 48.09375 
Q 58.015625 40.1875 58.015625 27.296875 
Q 58.015625 14.40625 51.78125 6.484375 
Q 45.5625 -1.421875 35.59375 -1.421875 
Q 29.59375 -1.421875 25.265625 0.953125 
Q 20.953125 3.328125 18.109375 8.203125 
L 18.109375 0 
L 9.078125 0 
L 9.078125 75.984375 
L 18.109375 75.984375 
z
" id="DejaVuSans-62"/>
       <path d="M 18.109375 8.203125 
L 18.109375 -20.796875 
L 9.078125 -20.796875 
L 9.078125 54.6875 
L 18.109375 54.6875 
L 18.109375 46.390625 
Q 20.953125 51.265625 25.265625 53.625 
Q 29.59375 56 35.59375 56 
Q 45.5625 56 51.78125 48.09375 
Q 58.015625 40.1875 58.015625 27.296875 
Q 58.015625 14.40625 51.78125 6.484375 
Q 45.5625 -1.421875 35.59375 -1.421875 
Q 29.59375 -1.421875 25.265625 0.953125 
Q 20.953125 3.328125 18.109375 8.203125 
z
M 48.6875 27.296875 
Q 48.6875 37.203125 44.609375 42.84375 
Q 40.53125 48.484375 33.40625 48.484375 
Q 26.265625 48.484375 22.1875 42.84375 
Q 18.109375 37.203125 18.109375 27.296875 
Q 18.109375 17.390625 22.1875 11.75 
Q 26.265625 6.109375 33.40625 6.109375 
Q 40.53125 6.109375 44.609375 11.75 
Q 48.6875 17.390625 48.6875 27.296875 
z
" id="DejaVuSans-70"/>
       <path d="M 39.40625 66.21875 
Q 28.65625 66.21875 22.328125 58.203125 
Q 16.015625 50.203125 16.015625 36.375 
Q 16.015625 22.609375 22.328125 14.59375 
Q 28.65625 6.59375 39.40625 6.59375 
Q 50.140625 6.59375 56.421875 14.59375 
Q 62.703125 22.609375 62.703125 36.375 
Q 62.703125 50.203125 56.421875 58.203125 
Q 50.140625 66.21875 39.40625 66.21875 
z
M 53.21875 1.3125 
L 66.21875 -12.890625 
L 54.296875 -12.890625 
L 43.5 -1.21875 
Q 41.890625 -1.3125 41.03125 -1.359375 
Q 40.1875 -1.421875 39.40625 -1.421875 
Q 24.03125 -1.421875 14.8125 8.859375 
Q 5.609375 19.140625 5.609375 36.375 
Q 5.609375 53.65625 14.8125 63.9375 
Q 24.03125 74.21875 39.40625 74.21875 
Q 54.734375 74.21875 63.90625 63.9375 
Q 73.09375 53.65625 73.09375 36.375 
Q 73.09375 23.6875 67.984375 14.640625 
Q 62.890625 5.609375 53.21875 1.3125 
z
" id="DejaVuSans-51"/>
      </defs>
      <g transform="translate(106.78451 199.105813)scale(0.1 -0.1)">
       <use transform="translate(0 0.015625)" xlink:href="#DejaVuSans-Oblique-3b4"/>
       <use transform="translate(61.181641 0.015625)" xlink:href="#DejaVuSans-77"/>
       <use transform="translate(142.96875 0.015625)" xlink:href="#DejaVuSans-62"/>
       <use transform="translate(206.445312 0.015625)" xlink:href="#DejaVuSans-70"/>
       <use transform="translate(269.921875 0.015625)" xlink:href="#DejaVuSans-51"/>
      </g>
     </g>
    </g>
    <g id="xtick_17">
     <g id="line2d_17"/>
     <g id="text_17">
      <!--  -->
      <g transform="translate(186.81085 187.906125)scale(0.1 -0.1)"/>
      <!-- $\delta$wbnJ -->
      <defs>
       <path d="M 54.890625 33.015625 
L 54.890625 0 
L 45.90625 0 
L 45.90625 32.71875 
Q 45.90625 40.484375 42.875 44.328125 
Q 39.84375 48.1875 33.796875 48.1875 
Q 26.515625 48.1875 22.3125 43.546875 
Q 18.109375 38.921875 18.109375 30.90625 
L 18.109375 0 
L 9.078125 0 
L 9.078125 54.6875 
L 18.109375 54.6875 
L 18.109375 46.1875 
Q 21.34375 51.125 25.703125 53.5625 
Q 30.078125 56 35.796875 56 
Q 45.21875 56 50.046875 50.171875 
Q 54.890625 44.34375 54.890625 33.015625 
z
" id="DejaVuSans-6e"/>
       <path d="M 9.8125 72.90625 
L 19.671875 72.90625 
L 19.671875 5.078125 
Q 19.671875 -8.109375 14.671875 -14.0625 
Q 9.671875 -20.015625 -1.421875 -20.015625 
L -5.171875 -20.015625 
L -5.171875 -11.71875 
L -2.09375 -11.71875 
Q 4.4375 -11.71875 7.125 -8.046875 
Q 9.8125 -4.390625 9.8125 5.078125 
z
" id="DejaVuSans-4a"/>
      </defs>
      <g transform="translate(171.81085 199.105813)scale(0.1 -0.1)">
       <use transform="translate(0 0.015625)" xlink:href="#DejaVuSans-Oblique-3b4"/>
       <use transform="translate(61.181641 0.015625)" xlink:href="#DejaVuSans-77"/>
       <use transform="translate(142.96875 0.015625)" xlink:href="#DejaVuSans-62"/>
       <use transform="translate(206.445312 0.015625)" xlink:href="#DejaVuSans-6e"/>
       <use transform="translate(269.824219 0.015625)" xlink:href="#DejaVuSans-4a"/>
      </g>
     </g>
    </g>
    <g id="xtick_18">
     <g id="line2d_18"/>
     <g id="text_18">
      <!--  -->
      <g transform="translate(249.38719 187.926437)scale(0.1 -0.1)"/>
      <!-- $\delta$3183 -->
      <defs>
       <path d="M 40.578125 39.3125 
Q 47.65625 37.796875 51.625 33 
Q 55.609375 28.21875 55.609375 21.1875 
Q 55.609375 10.40625 48.1875 4.484375 
Q 40.765625 -1.421875 27.09375 -1.421875 
Q 22.515625 -1.421875 17.65625 -0.515625 
Q 12.796875 0.390625 7.625 2.203125 
L 7.625 11.71875 
Q 11.71875 9.328125 16.59375 8.109375 
Q 21.484375 6.890625 26.8125 6.890625 
Q 36.078125 6.890625 40.9375 10.546875 
Q 45.796875 14.203125 45.796875 21.1875 
Q 45.796875 27.640625 41.28125 31.265625 
Q 36.765625 34.90625 28.71875 34.90625 
L 20.21875 34.90625 
L 20.21875 43.015625 
L 29.109375 43.015625 
Q 36.375 43.015625 40.234375 45.921875 
Q 44.09375 48.828125 44.09375 54.296875 
Q 44.09375 59.90625 40.109375 62.90625 
Q 36.140625 65.921875 28.71875 65.921875 
Q 24.65625 65.921875 20.015625 65.03125 
Q 15.375 64.15625 9.8125 62.3125 
L 9.8125 71.09375 
Q 15.4375 72.65625 20.34375 73.4375 
Q 25.25 74.21875 29.59375 74.21875 
Q 40.828125 74.21875 47.359375 69.109375 
Q 53.90625 64.015625 53.90625 55.328125 
Q 53.90625 49.265625 50.4375 45.09375 
Q 46.96875 40.921875 40.578125 39.3125 
z
" id="DejaVuSans-33"/>
       <path d="M 12.40625 8.296875 
L 28.515625 8.296875 
L 28.515625 63.921875 
L 10.984375 60.40625 
L 10.984375 69.390625 
L 28.421875 72.90625 
L 38.28125 72.90625 
L 38.28125 8.296875 
L 54.390625 8.296875 
L 54.390625 0 
L 12.40625 0 
z
" id="DejaVuSans-31"/>
       <path d="M 31.78125 34.625 
Q 24.75 34.625 20.71875 30.859375 
Q 16.703125 27.09375 16.703125 20.515625 
Q 16.703125 13.921875 20.71875 10.15625 
Q 24.75 6.390625 31.78125 6.390625 
Q 38.8125 6.390625 42.859375 10.171875 
Q 46.921875 13.96875 46.921875 20.515625 
Q 46.921875 27.09375 42.890625 30.859375 
Q 38.875 34.625 31.78125 34.625 
z
M 21.921875 38.8125 
Q 15.578125 40.375 12.03125 44.71875 
Q 8.5 49.078125 8.5 55.328125 
Q 8.5 64.0625 14.71875 69.140625 
Q 20.953125 74.21875 31.78125 74.21875 
Q 42.671875 74.21875 48.875 69.140625 
Q 55.078125 64.0625 55.078125 55.328125 
Q 55.078125 49.078125 51.53125 44.71875 
Q 48 40.375 41.703125 38.8125 
Q 48.828125 37.15625 52.796875 32.3125 
Q 56.78125 27.484375 56.78125 20.515625 
Q 56.78125 9.90625 50.3125 4.234375 
Q 43.84375 -1.421875 31.78125 -1.421875 
Q 19.734375 -1.421875 13.25 4.234375 
Q 6.78125 9.90625 6.78125 20.515625 
Q 6.78125 27.484375 10.78125 32.3125 
Q 14.796875 37.15625 21.921875 38.8125 
z
M 18.3125 54.390625 
Q 18.3125 48.734375 21.84375 45.5625 
Q 25.390625 42.390625 31.78125 42.390625 
Q 38.140625 42.390625 41.71875 45.5625 
Q 45.3125 48.734375 45.3125 54.390625 
Q 45.3125 60.0625 41.71875 63.234375 
Q 38.140625 66.40625 31.78125 66.40625 
Q 25.390625 66.40625 21.84375 63.234375 
Q 18.3125 60.0625 18.3125 54.390625 
z
" id="DejaVuSans-38"/>
      </defs>
      <g transform="translate(233.58719 199.12425)scale(0.1 -0.1)">
       <use transform="translate(0 0.78125)" xlink:href="#DejaVuSans-Oblique-3b4"/>
       <use transform="translate(61.181641 0.78125)" xlink:href="#DejaVuSans-33"/>
       <use transform="translate(124.804688 0.78125)" xlink:href="#DejaVuSans-31"/>
       <use transform="translate(188.427734 0.78125)" xlink:href="#DejaVuSans-38"/>
       <use transform="translate(252.050781 0.78125)" xlink:href="#DejaVuSans-33"/>
      </g>
     </g>
    </g>
    <g id="xtick_19">
     <g id="line2d_19"/>
     <g id="text_19">
      <!--  -->
      <g transform="translate(311.963529 187.906125)scale(0.1 -0.1)"/>
      <!-- $\delta$wbpA -->
      <defs>
       <path d="M 34.1875 63.1875 
L 20.796875 26.90625 
L 47.609375 26.90625 
z
M 28.609375 72.90625 
L 39.796875 72.90625 
L 67.578125 0 
L 57.328125 0 
L 50.6875 18.703125 
L 17.828125 18.703125 
L 11.1875 0 
L 0.78125 0 
z
" id="DejaVuSans-41"/>
      </defs>
      <g transform="translate(295.013529 199.105813)scale(0.1 -0.1)">
       <use transform="translate(0 0.015625)" xlink:href="#DejaVuSans-Oblique-3b4"/>
       <use transform="translate(61.181641 0.015625)" xlink:href="#DejaVuSans-77"/>
       <use transform="translate(142.96875 0.015625)" xlink:href="#DejaVuSans-62"/>
       <use transform="translate(206.445312 0.015625)" xlink:href="#DejaVuSans-70"/>
       <use transform="translate(269.921875 0.015625)" xlink:href="#DejaVuSans-41"/>
      </g>
     </g>
    </g>
    <g id="xtick_20">
     <g id="line2d_20"/>
     <g id="text_20">
      <!--  -->
      <g transform="translate(374.539869 187.926437)scale(0.1 -0.1)"/>
      <!-- $\delta$wzz -->
      <defs>
       <path d="M 5.515625 54.6875 
L 48.1875 54.6875 
L 48.1875 46.484375 
L 14.40625 7.171875 
L 48.1875 7.171875 
L 48.1875 0 
L 4.296875 0 
L 4.296875 8.203125 
L 38.09375 47.515625 
L 5.515625 47.515625 
z
" id="DejaVuSans-7a"/>
      </defs>
      <g transform="translate(362.139869 199.12425)scale(0.1 -0.1)">
       <use transform="translate(0 0.78125)" xlink:href="#DejaVuSans-Oblique-3b4"/>
       <use transform="translate(61.181641 0.78125)" xlink:href="#DejaVuSans-77"/>
       <use transform="translate(142.96875 0.78125)" xlink:href="#DejaVuSans-7a"/>
       <use transform="translate(195.458984 0.78125)" xlink:href="#DejaVuSans-7a"/>
      </g>
     </g>
    </g>
    <g id="xtick_21">
     <g id="line2d_21"/>
     <g id="text_21">
      <!--  -->
      <g transform="translate(437.116209 187.906125)scale(0.1 -0.1)"/>
      <!-- $\delta$pyrD -->
      <defs>
       <path d="M 32.171875 -5.078125 
Q 28.375 -14.84375 24.75 -17.8125 
Q 21.140625 -20.796875 15.09375 -20.796875 
L 7.90625 -20.796875 
L 7.90625 -13.28125 
L 13.1875 -13.28125 
Q 16.890625 -13.28125 18.9375 -11.515625 
Q 21 -9.765625 23.484375 -3.21875 
L 25.09375 0.875 
L 2.984375 54.6875 
L 12.5 54.6875 
L 29.59375 11.921875 
L 46.6875 54.6875 
L 56.203125 54.6875 
z
" id="DejaVuSans-79"/>
       <path d="M 41.109375 46.296875 
Q 39.59375 47.171875 37.8125 47.578125 
Q 36.03125 48 33.890625 48 
Q 26.265625 48 22.1875 43.046875 
Q 18.109375 38.09375 18.109375 28.8125 
L 18.109375 0 
L 9.078125 0 
L 9.078125 54.6875 
L 18.109375 54.6875 
L 18.109375 46.1875 
Q 20.953125 51.171875 25.484375 53.578125 
Q 30.03125 56 36.53125 56 
Q 37.453125 56 38.578125 55.875 
Q 39.703125 55.765625 41.0625 55.515625 
z
" id="DejaVuSans-72"/>
       <path d="M 19.671875 64.796875 
L 19.671875 8.109375 
L 31.59375 8.109375 
Q 46.6875 8.109375 53.6875 14.9375 
Q 60.6875 21.78125 60.6875 36.53125 
Q 60.6875 51.171875 53.6875 57.984375 
Q 46.6875 64.796875 31.59375 64.796875 
z
M 9.8125 72.90625 
L 30.078125 72.90625 
Q 51.265625 72.90625 61.171875 64.09375 
Q 71.09375 55.28125 71.09375 36.53125 
Q 71.09375 17.671875 61.125 8.828125 
Q 51.171875 0 30.078125 0 
L 9.8125 0 
z
" id="DejaVuSans-44"/>
      </defs>
      <g transform="translate(422.016209 199.103938)scale(0.1 -0.1)">
       <use transform="translate(0 0.78125)" xlink:href="#DejaVuSans-Oblique-3b4"/>
       <use transform="translate(61.181641 0.78125)" xlink:href="#DejaVuSans-70"/>
       <use transform="translate(124.658203 0.78125)" xlink:href="#DejaVuSans-79"/>
       <use transform="translate(183.837891 0.78125)" xlink:href="#DejaVuSans-72"/>
       <use transform="translate(224.951172 0.78125)" xlink:href="#DejaVuSans-44"/>
      </g>
     </g>
    </g>
    <g id="text_22">
     <!-- Strain -->
     <defs>
      <path d="M 59.90625 70.609375 
L 59.90625 55.171875 
Q 53.90625 57.859375 48.1875 59.21875 
Q 42.484375 60.59375 37.40625 60.59375 
Q 30.671875 60.59375 27.4375 58.734375 
Q 24.21875 56.890625 24.21875 52.984375 
Q 24.21875 50.046875 26.390625 48.40625 
Q 28.5625 46.78125 34.28125 45.609375 
L 42.28125 44 
Q 54.4375 41.546875 59.5625 36.5625 
Q 64.703125 31.59375 64.703125 22.40625 
Q 64.703125 10.359375 57.546875 4.46875 
Q 50.390625 -1.421875 35.6875 -1.421875 
Q 28.765625 -1.421875 21.78125 -0.09375 
Q 14.796875 1.21875 7.8125 3.8125 
L 7.8125 19.671875 
Q 14.796875 15.96875 21.3125 14.078125 
Q 27.828125 12.203125 33.890625 12.203125 
Q 40.046875 12.203125 43.3125 14.25 
Q 46.578125 16.3125 46.578125 20.125 
Q 46.578125 23.53125 44.359375 25.390625 
Q 42.140625 27.25 35.5 28.71875 
L 28.21875 30.328125 
Q 17.28125 32.671875 12.21875 37.796875 
Q 7.171875 42.921875 7.171875 51.609375 
Q 7.171875 62.5 14.203125 68.359375 
Q 21.234375 74.21875 34.421875 74.21875 
Q 40.4375 74.21875 46.78125 73.3125 
Q 53.125 72.40625 59.90625 70.609375 
z
" id="DejaVuSans-Bold-53"/>
      <path d="M 27.484375 70.21875 
L 27.484375 54.6875 
L 45.515625 54.6875 
L 45.515625 42.1875 
L 27.484375 42.1875 
L 27.484375 19 
Q 27.484375 15.1875 29 13.84375 
Q 30.515625 12.5 35.015625 12.5 
L 44 12.5 
L 44 0 
L 29 0 
Q 18.65625 0 14.328125 4.3125 
Q 10.015625 8.640625 10.015625 19 
L 10.015625 42.1875 
L 1.3125 42.1875 
L 1.3125 54.6875 
L 10.015625 54.6875 
L 10.015625 70.21875 
z
" id="DejaVuSans-Bold-74"/>
      <path d="M 49.03125 39.796875 
Q 46.734375 40.875 44.453125 41.375 
Q 42.1875 41.890625 39.890625 41.890625 
Q 33.15625 41.890625 29.515625 37.5625 
Q 25.875 33.25 25.875 25.203125 
L 25.875 0 
L 8.40625 0 
L 8.40625 54.6875 
L 25.875 54.6875 
L 25.875 45.703125 
Q 29.25 51.078125 33.609375 53.53125 
Q 37.984375 56 44.09375 56 
Q 44.96875 56 45.984375 55.921875 
Q 47.015625 55.859375 48.96875 55.609375 
z
" id="DejaVuSans-Bold-72"/>
      <path d="M 32.90625 24.609375 
Q 27.4375 24.609375 24.671875 22.75 
Q 21.921875 20.90625 21.921875 17.28125 
Q 21.921875 13.96875 24.140625 12.078125 
Q 26.375 10.203125 30.328125 10.203125 
Q 35.25 10.203125 38.625 13.734375 
Q 42 17.28125 42 22.609375 
L 42 24.609375 
z
M 59.625 31.203125 
L 59.625 0 
L 42 0 
L 42 8.109375 
Q 38.484375 3.125 34.078125 0.84375 
Q 29.6875 -1.421875 23.390625 -1.421875 
Q 14.890625 -1.421875 9.59375 3.53125 
Q 4.296875 8.5 4.296875 16.40625 
Q 4.296875 26.03125 10.90625 30.515625 
Q 17.53125 35.015625 31.6875 35.015625 
L 42 35.015625 
L 42 36.375 
Q 42 40.53125 38.71875 42.453125 
Q 35.453125 44.390625 28.515625 44.390625 
Q 22.90625 44.390625 18.0625 43.265625 
Q 13.234375 42.140625 9.078125 39.890625 
L 9.078125 53.21875 
Q 14.703125 54.59375 20.359375 55.296875 
Q 26.03125 56 31.6875 56 
Q 46.484375 56 53.046875 50.171875 
Q 59.625 44.34375 59.625 31.203125 
z
" id="DejaVuSans-Bold-61"/>
      <path d="M 8.40625 54.6875 
L 25.875 54.6875 
L 25.875 0 
L 8.40625 0 
z
M 8.40625 75.984375 
L 25.875 75.984375 
L 25.875 61.71875 
L 8.40625 61.71875 
z
" id="DejaVuSans-Bold-69"/>
      <path d="M 63.375 33.296875 
L 63.375 0 
L 45.796875 0 
L 45.796875 5.421875 
L 45.796875 25.484375 
Q 45.796875 32.5625 45.484375 35.25 
Q 45.171875 37.9375 44.390625 39.203125 
Q 43.359375 40.921875 41.59375 41.875 
Q 39.84375 42.828125 37.59375 42.828125 
Q 32.125 42.828125 29 38.59375 
Q 25.875 34.375 25.875 26.90625 
L 25.875 0 
L 8.40625 0 
L 8.40625 54.6875 
L 25.875 54.6875 
L 25.875 46.6875 
Q 29.828125 51.46875 34.265625 53.734375 
Q 38.71875 56 44.09375 56 
Q 53.5625 56 58.46875 50.1875 
Q 63.375 44.390625 63.375 33.296875 
z
" id="DejaVuSans-Bold-6e"/>
     </defs>
     <g transform="translate(235.992266 210.524719)scale(0.07 -0.07)">
      <use xlink:href="#DejaVuSans-Bold-53"/>
      <use x="72.021484" xlink:href="#DejaVuSans-Bold-74"/>
      <use x="119.824219" xlink:href="#DejaVuSans-Bold-72"/>
      <use x="169.140625" xlink:href="#DejaVuSans-Bold-61"/>
      <use x="236.621094" xlink:href="#DejaVuSans-Bold-69"/>
      <use x="270.898438" xlink:href="#DejaVuSans-Bold-6e"/>
     </g>
    </g>
   </g>
   <g id="matplotlib.axis_2">
    <g id="ytick_1">
     <g id="line2d_22">
      <path clip-path="url(#p950b2a1db4)" d="M 30.37 158.988895 
L 465.56 158.988895 
" style="fill:none;stroke:#b0b0b0;stroke-dasharray:2.96,1.28;stroke-dashoffset:0;stroke-width:0.8;"/>
     </g>
     <g id="line2d_23"/>
     <g id="text_23">
      <!-- −4 -->
      <defs>
       <path d="M 10.59375 35.5 
L 73.1875 35.5 
L 73.1875 27.203125 
L 10.59375 27.203125 
z
" id="DejaVuSans-2212"/>
       <path d="M 37.796875 64.3125 
L 12.890625 25.390625 
L 37.796875 25.390625 
z
M 35.203125 72.90625 
L 47.609375 72.90625 
L 47.609375 25.390625 
L 58.015625 25.390625 
L 58.015625 17.1875 
L 47.609375 17.1875 
L 47.609375 0 
L 37.796875 0 
L 37.796875 17.1875 
L 4.890625 17.1875 
L 4.890625 26.703125 
z
" id="DejaVuSans-34"/>
      </defs>
      <g transform="translate(12.127813 162.788114)scale(0.1 -0.1)">
       <use xlink:href="#DejaVuSans-2212"/>
       <use x="83.789062" xlink:href="#DejaVuSans-34"/>
      </g>
     </g>
    </g>
    <g id="ytick_2">
     <g id="line2d_24">
      <path clip-path="url(#p950b2a1db4)" d="M 30.37 119.229666 
L 465.56 119.229666 
" style="fill:none;stroke:#b0b0b0;stroke-dasharray:2.96,1.28;stroke-dashoffset:0;stroke-width:0.8;"/>
     </g>
     <g id="line2d_25"/>
     <g id="text_24">
      <!-- −2 -->
      <defs>
       <path d="M 19.1875 8.296875 
L 53.609375 8.296875 
L 53.609375 0 
L 7.328125 0 
L 7.328125 8.296875 
Q 12.9375 14.109375 22.625 23.890625 
Q 32.328125 33.6875 34.8125 36.53125 
Q 39.546875 41.84375 41.421875 45.53125 
Q 43.3125 49.21875 43.3125 52.78125 
Q 43.3125 58.59375 39.234375 62.25 
Q 35.15625 65.921875 28.609375 65.921875 
Q 23.96875 65.921875 18.8125 64.3125 
Q 13.671875 62.703125 7.8125 59.421875 
L 7.8125 69.390625 
Q 13.765625 71.78125 18.9375 73 
Q 24.125 74.21875 28.421875 74.21875 
Q 39.75 74.21875 46.484375 68.546875 
Q 53.21875 62.890625 53.21875 53.421875 
Q 53.21875 48.921875 51.53125 44.890625 
Q 49.859375 40.875 45.40625 35.40625 
Q 44.1875 33.984375 37.640625 27.21875 
Q 31.109375 20.453125 19.1875 8.296875 
z
" id="DejaVuSans-32"/>
      </defs>
      <g transform="translate(12.127813 123.028885)scale(0.1 -0.1)">
       <use xlink:href="#DejaVuSans-2212"/>
       <use x="83.789062" xlink:href="#DejaVuSans-32"/>
      </g>
     </g>
    </g>
    <g id="ytick_3">
     <g id="line2d_26">
      <path clip-path="url(#p950b2a1db4)" d="M 30.37 79.470437 
L 465.56 79.470437 
" style="fill:none;stroke:#b0b0b0;stroke-dasharray:2.96,1.28;stroke-dashoffset:0;stroke-width:0.8;"/>
     </g>
     <g id="line2d_27"/>
     <g id="text_25">
      <!-- 0 -->
      <defs>
       <path d="M 31.78125 66.40625 
Q 24.171875 66.40625 20.328125 58.90625 
Q 16.5 51.421875 16.5 36.375 
Q 16.5 21.390625 20.328125 13.890625 
Q 24.171875 6.390625 31.78125 6.390625 
Q 39.453125 6.390625 43.28125 13.890625 
Q 47.125 21.390625 47.125 36.375 
Q 47.125 51.421875 43.28125 58.90625 
Q 39.453125 66.40625 31.78125 66.40625 
z
M 31.78125 74.21875 
Q 44.046875 74.21875 50.515625 64.515625 
Q 56.984375 54.828125 56.984375 36.375 
Q 56.984375 17.96875 50.515625 8.265625 
Q 44.046875 -1.421875 31.78125 -1.421875 
Q 19.53125 -1.421875 13.0625 8.265625 
Q 6.59375 17.96875 6.59375 36.375 
Q 6.59375 54.828125 13.0625 64.515625 
Q 19.53125 74.21875 31.78125 74.21875 
z
" id="DejaVuSans-30"/>
      </defs>
      <g transform="translate(20.5075 83.269656)scale(0.1 -0.1)">
       <use xlink:href="#DejaVuSans-30"/>
      </g>
     </g>
    </g>
    <g id="ytick_4">
     <g id="line2d_28">
      <path clip-path="url(#p950b2a1db4)" d="M 30.37 39.711208 
L 465.56 39.711208 
" style="fill:none;stroke:#b0b0b0;stroke-dasharray:2.96,1.28;stroke-dashoffset:0;stroke-width:0.8;"/>
     </g>
     <g id="line2d_29"/>
     <g id="text_26">
      <!-- 2 -->
      <g transform="translate(20.5075 43.510427)scale(0.1 -0.1)">
       <use xlink:href="#DejaVuSans-32"/>
      </g>
     </g>
    </g>
    <g id="text_27">
     <!-- % Relative Change in Biosorption -->
     <defs>
      <path d="M 77.484375 30.078125 
Q 74.03125 30.078125 72.125 27.078125 
Q 70.21875 24.078125 70.21875 18.5 
Q 70.21875 12.890625 72.09375 9.890625 
Q 73.96875 6.890625 77.484375 6.890625 
Q 81 6.890625 82.859375 9.890625 
Q 84.71875 12.890625 84.71875 18.5 
Q 84.71875 24.078125 82.828125 27.078125 
Q 80.953125 30.078125 77.484375 30.078125 
z
M 77.484375 38.28125 
Q 86.578125 38.28125 91.796875 33 
Q 97.015625 27.734375 97.015625 18.5 
Q 97.015625 9.28125 91.796875 3.921875 
Q 86.578125 -1.421875 77.484375 -1.421875 
Q 68.40625 -1.421875 63.15625 3.921875 
Q 57.90625 9.28125 57.90625 18.5 
Q 57.90625 27.6875 63.15625 32.984375 
Q 68.40625 38.28125 77.484375 38.28125 
z
M 32.71875 -1.421875 
L 21.921875 -1.421875 
L 67.484375 74.21875 
L 78.328125 74.21875 
z
M 22.703125 74.21875 
Q 31.78125 74.21875 36.984375 68.921875 
Q 42.1875 63.625 42.1875 54.390625 
Q 42.1875 45.171875 36.984375 39.84375 
Q 31.78125 34.515625 22.703125 34.515625 
Q 13.625 34.515625 8.421875 39.84375 
Q 3.21875 45.171875 3.21875 54.390625 
Q 3.21875 63.625 8.421875 68.921875 
Q 13.625 74.21875 22.703125 74.21875 
z
M 22.703125 66.015625 
Q 19.1875 66.015625 17.28125 62.984375 
Q 15.375 59.96875 15.375 54.390625 
Q 15.375 48.78125 17.28125 45.71875 
Q 19.1875 42.671875 22.703125 42.671875 
Q 26.21875 42.671875 28.09375 45.71875 
Q 29.984375 48.78125 29.984375 54.390625 
Q 29.984375 59.96875 28.078125 62.984375 
Q 26.171875 66.015625 22.703125 66.015625 
z
" id="DejaVuSans-Bold-25"/>
      <path id="DejaVuSans-Bold-20"/>
      <path d="M 35.890625 40.578125 
Q 41.796875 40.578125 44.359375 42.765625 
Q 46.921875 44.96875 46.921875 50 
Q 46.921875 54.984375 44.359375 57.125 
Q 41.796875 59.28125 35.890625 59.28125 
L 27.984375 59.28125 
L 27.984375 40.578125 
z
M 27.984375 27.59375 
L 27.984375 0 
L 9.1875 0 
L 9.1875 72.90625 
L 37.890625 72.90625 
Q 52.296875 72.90625 59 68.0625 
Q 65.71875 63.234375 65.71875 52.78125 
Q 65.71875 45.5625 62.21875 40.921875 
Q 58.734375 36.28125 51.703125 34.078125 
Q 55.5625 33.203125 58.609375 30.09375 
Q 61.671875 27 64.796875 20.703125 
L 75 0 
L 54.984375 0 
L 46.09375 18.109375 
Q 43.40625 23.578125 40.640625 25.578125 
Q 37.890625 27.59375 33.296875 27.59375 
z
" id="DejaVuSans-Bold-52"/>
      <path d="M 62.984375 27.484375 
L 62.984375 22.515625 
L 22.125 22.515625 
Q 22.75 16.359375 26.5625 13.28125 
Q 30.375 10.203125 37.203125 10.203125 
Q 42.71875 10.203125 48.5 11.84375 
Q 54.296875 13.484375 60.40625 16.796875 
L 60.40625 3.328125 
Q 54.203125 0.984375 48 -0.21875 
Q 41.796875 -1.421875 35.59375 -1.421875 
Q 20.75 -1.421875 12.515625 6.125 
Q 4.296875 13.671875 4.296875 27.296875 
Q 4.296875 40.671875 12.375 48.328125 
Q 20.453125 56 34.625 56 
Q 47.515625 56 55.25 48.234375 
Q 62.984375 40.484375 62.984375 27.484375 
z
M 45.015625 33.296875 
Q 45.015625 38.28125 42.109375 41.328125 
Q 39.203125 44.390625 34.515625 44.390625 
Q 29.4375 44.390625 26.265625 41.53125 
Q 23.09375 38.671875 22.3125 33.296875 
z
" id="DejaVuSans-Bold-65"/>
      <path d="M 8.40625 75.984375 
L 25.875 75.984375 
L 25.875 0 
L 8.40625 0 
z
" id="DejaVuSans-Bold-6c"/>
      <path d="M 1.515625 54.6875 
L 19 54.6875 
L 32.625 16.890625 
L 46.1875 54.6875 
L 63.71875 54.6875 
L 42.1875 0 
L 23 0 
z
" id="DejaVuSans-Bold-76"/>
      <path d="M 67 4 
Q 61.8125 1.3125 56.203125 -0.046875 
Q 50.59375 -1.421875 44.484375 -1.421875 
Q 26.265625 -1.421875 15.625 8.765625 
Q 4.984375 18.953125 4.984375 36.375 
Q 4.984375 53.859375 15.625 64.03125 
Q 26.265625 74.21875 44.484375 74.21875 
Q 50.59375 74.21875 56.203125 72.84375 
Q 61.8125 71.484375 67 68.796875 
L 67 53.71875 
Q 61.765625 57.28125 56.6875 58.9375 
Q 51.609375 60.59375 46 60.59375 
Q 35.9375 60.59375 30.171875 54.140625 
Q 24.421875 47.703125 24.421875 36.375 
Q 24.421875 25.09375 30.171875 18.640625 
Q 35.9375 12.203125 46 12.203125 
Q 51.609375 12.203125 56.6875 13.859375 
Q 61.765625 15.53125 67 19.09375 
z
" id="DejaVuSans-Bold-43"/>
      <path d="M 63.375 33.296875 
L 63.375 0 
L 45.796875 0 
L 45.796875 5.421875 
L 45.796875 25.390625 
Q 45.796875 32.5625 45.484375 35.25 
Q 45.171875 37.9375 44.390625 39.203125 
Q 43.359375 40.921875 41.59375 41.875 
Q 39.84375 42.828125 37.59375 42.828125 
Q 32.125 42.828125 29 38.59375 
Q 25.875 34.375 25.875 26.90625 
L 25.875 0 
L 8.40625 0 
L 8.40625 75.984375 
L 25.875 75.984375 
L 25.875 46.6875 
Q 29.828125 51.46875 34.265625 53.734375 
Q 38.71875 56 44.09375 56 
Q 53.5625 56 58.46875 50.1875 
Q 63.375 44.390625 63.375 33.296875 
z
" id="DejaVuSans-Bold-68"/>
      <path d="M 45.609375 9.28125 
Q 42 4.5 37.640625 2.25 
Q 33.296875 0 27.59375 0 
Q 17.578125 0 11.03125 7.875 
Q 4.5 15.765625 4.5 27.984375 
Q 4.5 40.234375 11.03125 48.0625 
Q 17.578125 55.90625 27.59375 55.90625 
Q 33.296875 55.90625 37.640625 53.65625 
Q 42 51.421875 45.609375 46.578125 
L 45.609375 54.6875 
L 63.1875 54.6875 
L 63.1875 5.515625 
Q 63.1875 -7.671875 54.859375 -14.625 
Q 46.53125 -21.578125 30.71875 -21.578125 
Q 25.59375 -21.578125 20.796875 -20.796875 
Q 16.015625 -20.015625 11.1875 -18.40625 
L 11.1875 -4.78125 
Q 15.765625 -7.421875 20.15625 -8.71875 
Q 24.5625 -10.015625 29 -10.015625 
Q 37.59375 -10.015625 41.59375 -6.25 
Q 45.609375 -2.484375 45.609375 5.515625 
z
M 34.078125 43.3125 
Q 28.65625 43.3125 25.625 39.296875 
Q 22.609375 35.296875 22.609375 27.984375 
Q 22.609375 20.453125 25.53125 16.578125 
Q 28.46875 12.703125 34.078125 12.703125 
Q 39.546875 12.703125 42.578125 16.703125 
Q 45.609375 20.703125 45.609375 27.984375 
Q 45.609375 35.296875 42.578125 39.296875 
Q 39.546875 43.3125 34.078125 43.3125 
z
" id="DejaVuSans-Bold-67"/>
      <path d="M 38.375 44.671875 
Q 42.828125 44.671875 45.109375 46.625 
Q 47.40625 48.578125 47.40625 52.390625 
Q 47.40625 56.15625 45.109375 58.125 
Q 42.828125 60.109375 38.375 60.109375 
L 27.984375 60.109375 
L 27.984375 44.671875 
z
M 39.015625 12.796875 
Q 44.671875 12.796875 47.53125 15.1875 
Q 50.390625 17.578125 50.390625 22.40625 
Q 50.390625 27.15625 47.5625 29.515625 
Q 44.734375 31.890625 39.015625 31.890625 
L 27.984375 31.890625 
L 27.984375 12.796875 
z
M 56.5 39.015625 
Q 62.546875 37.25 65.859375 32.515625 
Q 69.1875 27.78125 69.1875 20.90625 
Q 69.1875 10.359375 62.0625 5.171875 
Q 54.9375 0 40.375 0 
L 9.1875 0 
L 9.1875 72.90625 
L 37.40625 72.90625 
Q 52.59375 72.90625 59.40625 68.3125 
Q 66.21875 63.71875 66.21875 53.609375 
Q 66.21875 48.296875 63.71875 44.5625 
Q 61.234375 40.828125 56.5 39.015625 
z
" id="DejaVuSans-Bold-42"/>
      <path d="M 34.421875 43.5 
Q 28.609375 43.5 25.5625 39.328125 
Q 22.515625 35.15625 22.515625 27.296875 
Q 22.515625 19.4375 25.5625 15.25 
Q 28.609375 11.078125 34.421875 11.078125 
Q 40.140625 11.078125 43.15625 15.25 
Q 46.1875 19.4375 46.1875 27.296875 
Q 46.1875 35.15625 43.15625 39.328125 
Q 40.140625 43.5 34.421875 43.5 
z
M 34.421875 56 
Q 48.53125 56 56.46875 48.375 
Q 64.40625 40.765625 64.40625 27.296875 
Q 64.40625 13.8125 56.46875 6.1875 
Q 48.53125 -1.421875 34.421875 -1.421875 
Q 20.265625 -1.421875 12.28125 6.1875 
Q 4.296875 13.8125 4.296875 27.296875 
Q 4.296875 40.765625 12.28125 48.375 
Q 20.265625 56 34.421875 56 
z
" id="DejaVuSans-Bold-6f"/>
      <path d="M 51.125 52.984375 
L 51.125 39.703125 
Q 45.515625 42.046875 40.28125 43.21875 
Q 35.0625 44.390625 30.421875 44.390625 
Q 25.4375 44.390625 23.015625 43.140625 
Q 20.609375 41.890625 20.609375 39.3125 
Q 20.609375 37.203125 22.4375 36.078125 
Q 24.265625 34.96875 29 34.421875 
L 32.078125 33.984375 
Q 45.515625 32.28125 50.140625 28.375 
Q 54.78125 24.46875 54.78125 16.109375 
Q 54.78125 7.375 48.328125 2.96875 
Q 41.890625 -1.421875 29.109375 -1.421875 
Q 23.6875 -1.421875 17.890625 -0.5625 
Q 12.109375 0.296875 6 2 
L 6 15.28125 
Q 11.234375 12.75 16.71875 11.46875 
Q 22.21875 10.203125 27.875 10.203125 
Q 33.015625 10.203125 35.59375 11.609375 
Q 38.1875 13.03125 38.1875 15.828125 
Q 38.1875 18.171875 36.40625 19.3125 
Q 34.625 20.453125 29.296875 21.09375 
L 26.21875 21.484375 
Q 14.546875 22.953125 9.859375 26.90625 
Q 5.171875 30.859375 5.171875 38.921875 
Q 5.171875 47.609375 11.125 51.796875 
Q 17.09375 56 29.390625 56 
Q 34.234375 56 39.546875 55.265625 
Q 44.875 54.546875 51.125 52.984375 
z
" id="DejaVuSans-Bold-73"/>
      <path d="M 25.875 7.90625 
L 25.875 -20.796875 
L 8.40625 -20.796875 
L 8.40625 54.6875 
L 25.875 54.6875 
L 25.875 46.6875 
Q 29.5 51.46875 33.890625 53.734375 
Q 38.28125 56 44 56 
Q 54.109375 56 60.59375 47.96875 
Q 67.09375 39.9375 67.09375 27.296875 
Q 67.09375 14.65625 60.59375 6.609375 
Q 54.109375 -1.421875 44 -1.421875 
Q 38.28125 -1.421875 33.890625 0.84375 
Q 29.5 3.125 25.875 7.90625 
z
M 37.5 43.3125 
Q 31.890625 43.3125 28.875 39.1875 
Q 25.875 35.0625 25.875 27.296875 
Q 25.875 19.53125 28.875 15.40625 
Q 31.890625 11.28125 37.5 11.28125 
Q 43.109375 11.28125 46.0625 15.375 
Q 49.03125 19.484375 49.03125 27.296875 
Q 49.03125 35.109375 46.0625 39.203125 
Q 43.109375 43.3125 37.5 43.3125 
z
" id="DejaVuSans-Bold-70"/>
     </defs>
     <g transform="translate(6.617344 160.578141)rotate(-90)scale(0.07 -0.07)">
      <use xlink:href="#DejaVuSans-Bold-25"/>
      <use x="100.195312" xlink:href="#DejaVuSans-Bold-20"/>
      <use x="135.009766" xlink:href="#DejaVuSans-Bold-52"/>
      <use x="212.011719" xlink:href="#DejaVuSans-Bold-65"/>
      <use x="279.833984" xlink:href="#DejaVuSans-Bold-6c"/>
      <use x="314.111328" xlink:href="#DejaVuSans-Bold-61"/>
      <use x="381.591797" xlink:href="#DejaVuSans-Bold-74"/>
      <use x="429.394531" xlink:href="#DejaVuSans-Bold-69"/>
      <use x="463.671875" xlink:href="#DejaVuSans-Bold-76"/>
      <use x="528.857422" xlink:href="#DejaVuSans-Bold-65"/>
      <use x="596.679688" xlink:href="#DejaVuSans-Bold-20"/>
      <use x="631.494141" xlink:href="#DejaVuSans-Bold-43"/>
      <use x="704.882812" xlink:href="#DejaVuSans-Bold-68"/>
      <use x="776.074219" xlink:href="#DejaVuSans-Bold-61"/>
      <use x="843.554688" xlink:href="#DejaVuSans-Bold-6e"/>
      <use x="914.746094" xlink:href="#DejaVuSans-Bold-67"/>
      <use x="986.328125" xlink:href="#DejaVuSans-Bold-65"/>
      <use x="1054.150391" xlink:href="#DejaVuSans-Bold-20"/>
      <use x="1088.964844" xlink:href="#DejaVuSans-Bold-69"/>
      <use x="1123.242188" xlink:href="#DejaVuSans-Bold-6e"/>
      <use x="1194.433594" xlink:href="#DejaVuSans-Bold-20"/>
      <use x="1229.248047" xlink:href="#DejaVuSans-Bold-42"/>
      <use x="1305.46875" xlink:href="#DejaVuSans-Bold-69"/>
      <use x="1339.746094" xlink:href="#DejaVuSans-Bold-6f"/>
      <use x="1408.447266" xlink:href="#DejaVuSans-Bold-73"/>
      <use x="1467.96875" xlink:href="#DejaVuSans-Bold-6f"/>
      <use x="1536.669922" xlink:href="#DejaVuSans-Bold-72"/>
      <use x="1585.986328" xlink:href="#DejaVuSans-Bold-70"/>
      <use x="1657.568359" xlink:href="#DejaVuSans-Bold-74"/>
      <use x="1705.371094" xlink:href="#DejaVuSans-Bold-69"/>
      <use x="1739.648438" xlink:href="#DejaVuSans-Bold-6f"/>
      <use x="1808.349609" xlink:href="#DejaVuSans-Bold-6e"/>
     </g>
    </g>
   </g>
   <g id="LineCollection_1">
    <path clip-path="url(#p950b2a1db4)" d="M 38.903137 63.314616 
L 38.903137 61.354803 
" style="fill:none;stroke:#000000;stroke-width:1.5;"/>
    <path clip-path="url(#p950b2a1db4)" d="M 67.346928 50.714597 
L 67.346928 41.534092 
" style="fill:none;stroke:#000000;stroke-width:1.5;"/>
    <path clip-path="url(#p950b2a1db4)" d="M 101.479477 115.118319 
L 101.479477 103.615988 
" style="fill:none;stroke:#000000;stroke-width:1.5;"/>
    <path clip-path="url(#p950b2a1db4)" d="M 129.923268 122.346401 
L 129.923268 87.896721 
" style="fill:none;stroke:#000000;stroke-width:1.5;"/>
    <path clip-path="url(#p950b2a1db4)" d="M 164.055817 119.917379 
L 164.055817 111.174187 
" style="fill:none;stroke:#000000;stroke-width:1.5;"/>
    <path clip-path="url(#p950b2a1db4)" d="M 192.499608 162.950186 
L 192.499608 148.982336 
" style="fill:none;stroke:#000000;stroke-width:1.5;"/>
    <path clip-path="url(#p950b2a1db4)" d="M 226.632157 108.254957 
L 226.632157 101.513508 
" style="fill:none;stroke:#000000;stroke-width:1.5;"/>
    <path clip-path="url(#p950b2a1db4)" d="M 255.075948 169.370364 
L 255.075948 152.014483 
" style="fill:none;stroke:#000000;stroke-width:1.5;"/>
    <path clip-path="url(#p950b2a1db4)" d="M 289.208497 83.173493 
L 289.208497 76.910161 
" style="fill:none;stroke:#000000;stroke-width:1.5;"/>
    <path clip-path="url(#p950b2a1db4)" d="M 317.652288 76.499009 
L 317.652288 58.001255 
" style="fill:none;stroke:#000000;stroke-width:1.5;"/>
    <path clip-path="url(#p950b2a1db4)" d="M 351.784837 88.491433 
L 351.784837 82.991454 
" style="fill:none;stroke:#000000;stroke-width:1.5;"/>
    <path clip-path="url(#p950b2a1db4)" d="M 380.228627 67.662847 
L 380.228627 44.749342 
" style="fill:none;stroke:#000000;stroke-width:1.5;"/>
    <path clip-path="url(#p950b2a1db4)" d="M 414.361176 104.10167 
L 414.361176 96.820075 
" style="fill:none;stroke:#000000;stroke-width:1.5;"/>
    <path clip-path="url(#p950b2a1db4)" d="M 442.804967 117.816409 
L 442.804967 112.645397 
" style="fill:none;stroke:#000000;stroke-width:1.5;"/>
   </g>
   <g id="LineCollection_2">
    <path clip-path="url(#p950b2a1db4)" d="M 44.591895 101.221788 
L 44.591895 92.150227 
" style="fill:none;stroke:#000000;stroke-width:1.5;"/>
    <path clip-path="url(#p950b2a1db4)" d="M 73.035686 115.69404 
L 73.035686 102.901653 
" style="fill:none;stroke:#000000;stroke-width:1.5;"/>
    <path clip-path="url(#p950b2a1db4)" d="M 107.168235 78.335593 
L 107.168235 74.753367 
" style="fill:none;stroke:#000000;stroke-width:1.5;"/>
    <path clip-path="url(#p950b2a1db4)" d="M 135.612026 101.301552 
L 135.612026 99.376973 
" style="fill:none;stroke:#000000;stroke-width:1.5;"/>
    <path clip-path="url(#p950b2a1db4)" d="M 169.744575 71.679506 
L 169.744575 67.910011 
" style="fill:none;stroke:#000000;stroke-width:1.5;"/>
    <path clip-path="url(#p950b2a1db4)" d="M 198.188366 87.584865 
L 198.188366 83.848859 
" style="fill:none;stroke:#000000;stroke-width:1.5;"/>
    <path clip-path="url(#p950b2a1db4)" d="M 232.320915 81.758682 
L 232.320915 75.107124 
" style="fill:none;stroke:#000000;stroke-width:1.5;"/>
    <path clip-path="url(#p950b2a1db4)" d="M 260.764706 86.154201 
L 260.764706 79.974624 
" style="fill:none;stroke:#000000;stroke-width:1.5;"/>
    <path clip-path="url(#p950b2a1db4)" d="M 294.897255 63.845853 
L 294.897255 58.150842 
" style="fill:none;stroke:#000000;stroke-width:1.5;"/>
    <path clip-path="url(#p950b2a1db4)" d="M 323.341046 46.345814 
L 323.341046 34.316494 
" style="fill:none;stroke:#000000;stroke-width:1.5;"/>
    <path clip-path="url(#p950b2a1db4)" d="M 357.473595 73.236464 
L 357.473595 64.915952 
" style="fill:none;stroke:#000000;stroke-width:1.5;"/>
    <path clip-path="url(#p950b2a1db4)" d="M 385.917386 51.276428 
L 385.917386 45.887561 
" style="fill:none;stroke:#000000;stroke-width:1.5;"/>
    <path clip-path="url(#p950b2a1db4)" d="M 420.049935 89.205507 
L 420.049935 87.675717 
" style="fill:none;stroke:#000000;stroke-width:1.5;"/>
    <path clip-path="url(#p950b2a1db4)" d="M 448.493725 111.494014 
L 448.493725 105.535406 
" style="fill:none;stroke:#000000;stroke-width:1.5;"/>
   </g>
   <g id="LineCollection_3">
    <path clip-path="url(#p950b2a1db4)" d="M 50.280654 79.168043 
L 50.280654 69.54848 
" style="fill:none;stroke:#000000;stroke-width:1.5;"/>
    <path clip-path="url(#p950b2a1db4)" d="M 78.724444 74.763375 
L 78.724444 60.426759 
" style="fill:none;stroke:#000000;stroke-width:1.5;"/>
    <path clip-path="url(#p950b2a1db4)" d="M 112.856993 67.499604 
L 112.856993 64.833242 
" style="fill:none;stroke:#000000;stroke-width:1.5;"/>
    <path clip-path="url(#p950b2a1db4)" d="M 141.300784 55.270317 
L 141.300784 37.888108 
" style="fill:none;stroke:#000000;stroke-width:1.5;"/>
    <path clip-path="url(#p950b2a1db4)" d="M 175.433333 72.923375 
L 175.433333 66.530242 
" style="fill:none;stroke:#000000;stroke-width:1.5;"/>
    <path clip-path="url(#p950b2a1db4)" d="M 203.877124 41.636263 
L 203.877124 32.028828 
" style="fill:none;stroke:#000000;stroke-width:1.5;"/>
    <path clip-path="url(#p950b2a1db4)" d="M 238.009673 67.9833 
L 238.009673 65.327322 
" style="fill:none;stroke:#000000;stroke-width:1.5;"/>
    <path clip-path="url(#p950b2a1db4)" d="M 266.453464 36.863578 
L 266.453464 34.761044 
" style="fill:none;stroke:#000000;stroke-width:1.5;"/>
    <path clip-path="url(#p950b2a1db4)" d="M 300.586013 101.518244 
L 300.586013 93.956954 
" style="fill:none;stroke:#000000;stroke-width:1.5;"/>
    <path clip-path="url(#p950b2a1db4)" d="M 329.029804 137.078703 
L 329.029804 127.946025 
" style="fill:none;stroke:#000000;stroke-width:1.5;"/>
    <path clip-path="url(#p950b2a1db4)" d="M 363.162353 91.428414 
L 363.162353 79.004726 
" style="fill:none;stroke:#000000;stroke-width:1.5;"/>
    <path clip-path="url(#p950b2a1db4)" d="M 391.606144 139.375732 
L 391.606144 122.459511 
" style="fill:none;stroke:#000000;stroke-width:1.5;"/>
    <path clip-path="url(#p950b2a1db4)" d="M 425.738693 55.902919 
L 425.738693 51.667693 
" style="fill:none;stroke:#000000;stroke-width:1.5;"/>
    <path clip-path="url(#p950b2a1db4)" d="M 454.182484 23.474149 
L 454.182484 20.217636 
" style="fill:none;stroke:#000000;stroke-width:1.5;"/>
   </g>
   <g id="line2d_30">
    <path clip-path="url(#p950b2a1db4)" d="M 90.101961 176.828 
L 90.101961 12.76 
" style="fill:none;opacity:0.75;stroke:#000000;stroke-linecap:square;stroke-width:1.5;"/>
   </g>
   <g id="line2d_31">
    <path clip-path="url(#p950b2a1db4)" d="M 152.678301 176.828 
L 152.678301 12.76 
" style="fill:none;opacity:0.75;stroke:#000000;stroke-linecap:square;stroke-width:1.5;"/>
   </g>
   <g id="line2d_32">
    <path clip-path="url(#p950b2a1db4)" d="M 215.254641 176.828 
L 215.254641 12.76 
" style="fill:none;opacity:0.75;stroke:#000000;stroke-linecap:square;stroke-width:1.5;"/>
   </g>
   <g id="line2d_33">
    <path clip-path="url(#p950b2a1db4)" d="M 277.83098 176.828 
L 277.83098 12.76 
" style="fill:none;opacity:0.75;stroke:#000000;stroke-linecap:square;stroke-width:1.5;"/>
   </g>
   <g id="line2d_34">
    <path clip-path="url(#p950b2a1db4)" d="M 340.40732 176.828 
L 340.40732 12.76 
" style="fill:none;opacity:0.75;stroke:#000000;stroke-linecap:square;stroke-width:1.5;"/>
   </g>
   <g id="line2d_35">
    <path clip-path="url(#p950b2a1db4)" d="M 402.98366 176.828 
L 402.98366 12.76 
" style="fill:none;opacity:0.75;stroke:#000000;stroke-linecap:square;stroke-width:1.5;"/>
   </g>
   <g id="line2d_36">
    <path clip-path="url(#p950b2a1db4)" d="M 58.813791 176.828 
L 58.813791 12.76 
" style="fill:none;opacity:0.5;stroke:#000000;stroke-linecap:square;stroke-width:0.9;"/>
   </g>
   <g id="line2d_37">
    <path clip-path="url(#p950b2a1db4)" d="M 121.390131 176.828 
L 121.390131 12.76 
" style="fill:none;opacity:0.5;stroke:#000000;stroke-linecap:square;stroke-width:0.9;"/>
   </g>
   <g id="line2d_38">
    <path clip-path="url(#p950b2a1db4)" d="M 183.966471 176.828 
L 183.966471 12.76 
" style="fill:none;opacity:0.5;stroke:#000000;stroke-linecap:square;stroke-width:0.9;"/>
   </g>
   <g id="line2d_39">
    <path clip-path="url(#p950b2a1db4)" d="M 246.54281 176.828 
L 246.54281 12.76 
" style="fill:none;opacity:0.5;stroke:#000000;stroke-linecap:square;stroke-width:0.9;"/>
   </g>
   <g id="line2d_40">
    <path clip-path="url(#p950b2a1db4)" d="M 309.11915 176.828 
L 309.11915 12.76 
" style="fill:none;opacity:0.5;stroke:#000000;stroke-linecap:square;stroke-width:0.9;"/>
   </g>
   <g id="line2d_41">
    <path clip-path="url(#p950b2a1db4)" d="M 371.69549 176.828 
L 371.69549 12.76 
" style="fill:none;opacity:0.5;stroke:#000000;stroke-linecap:square;stroke-width:0.9;"/>
   </g>
   <g id="line2d_42">
    <path clip-path="url(#p950b2a1db4)" d="M 434.27183 176.828 
L 434.27183 12.76 
" style="fill:none;opacity:0.5;stroke:#000000;stroke-linecap:square;stroke-width:0.9;"/>
   </g>
   <g id="line2d_43">
    <path clip-path="url(#p950b2a1db4)" d="M 30.37 79.470437 
L 465.56 79.470437 
" style="fill:none;stroke:#000000;stroke-linecap:square;stroke-width:0.5;"/>
   </g>
   <g id="patch_45">
    <path d="M 30.37 176.828 
L 30.37 12.76 
" style="fill:none;stroke:#000000;stroke-linecap:square;stroke-linejoin:miter;stroke-width:0.8;"/>
   </g>
   <g id="patch_46">
    <path d="M 465.56 176.828 
L 465.56 12.76 
" style="fill:none;stroke:#000000;stroke-linecap:square;stroke-linejoin:miter;stroke-width:0.8;"/>
   </g>
   <g id="patch_47">
    <path d="M 30.37 176.828 
L 465.56 176.828 
" style="fill:none;stroke:#000000;stroke-linecap:square;stroke-linejoin:miter;stroke-width:0.8;"/>
   </g>
   <g id="patch_48">
    <path d="M 30.37 12.76 
L 465.56 12.76 
" style="fill:none;stroke:#000000;stroke-linecap:square;stroke-linejoin:miter;stroke-width:0.8;"/>
   </g>
   <g id="text_28">
    <!-- ** -->
    <defs>
     <path d="M 50.296875 59.421875 
L 34.1875 50.984375 
L 50.296875 42.484375 
L 46.578125 35.59375 
L 30.328125 44.578125 
L 30.328125 27.78125 
L 22.015625 27.78125 
L 22.015625 44.578125 
L 5.71875 35.59375 
L 2 42.484375 
L 18.3125 50.984375 
L 2 59.421875 
L 5.71875 66.3125 
L 22.015625 57.421875 
L 22.015625 74.21875 
L 30.328125 74.21875 
L 30.328125 57.421875 
L 46.578125 66.3125 
z
" id="DejaVuSans-Bold-2a"/>
    </defs>
    <g transform="translate(34.719387 60.637461)scale(0.08 -0.08)">
     <use xlink:href="#DejaVuSans-Bold-2a"/>
     <use x="52.294922" xlink:href="#DejaVuSans-Bold-2a"/>
    </g>
   </g>
   <g id="text_29">
    <!-- * -->
    <g transform="translate(65.255053 38.173794)scale(0.08 -0.08)">
     <use xlink:href="#DejaVuSans-Bold-2a"/>
    </g>
   </g>
   <g id="text_30">
    <!-- * -->
    <g transform="translate(110.765118 63.857286)scale(0.08 -0.08)">
     <use xlink:href="#DejaVuSans-Bold-2a"/>
    </g>
   </g>
   <g id="text_31">
    <!-- ** -->
    <g transform="translate(131.428276 111.945805)scale(0.08 -0.08)">
     <use xlink:href="#DejaVuSans-Bold-2a"/>
     <use x="52.294922" xlink:href="#DejaVuSans-Bold-2a"/>
    </g>
   </g>
   <g id="text_32">
    <!-- * -->
    <g transform="translate(161.963942 133.057417)scale(0.08 -0.08)">
     <use xlink:href="#DejaVuSans-Bold-2a"/>
    </g>
   </g>
   <g id="text_33">
    <!-- * -->
    <g transform="translate(201.785249 28.512263)scale(0.08 -0.08)">
     <use xlink:href="#DejaVuSans-Bold-2a"/>
    </g>
   </g>
   <g id="text_34">
    <!-- * -->
    <g transform="translate(224.540282 120.662306)scale(0.08 -0.08)">
     <use xlink:href="#DejaVuSans-Bold-2a"/>
    </g>
   </g>
   <g id="text_35">
    <!-- * -->
    <g transform="translate(235.917798 64.355166)scale(0.08 -0.08)">
     <use xlink:href="#DejaVuSans-Bold-2a"/>
    </g>
   </g>
   <g id="text_36">
    <!-- *** -->
    <g transform="translate(260.177839 33.991464)scale(0.08 -0.08)">
     <use xlink:href="#DejaVuSans-Bold-2a"/>
     <use x="52.294922" xlink:href="#DejaVuSans-Bold-2a"/>
     <use x="104.589844" xlink:href="#DejaVuSans-Bold-2a"/>
    </g>
   </g>
   <g id="text_37">
    <!-- * -->
    <g transform="translate(292.80538 56.066324)scale(0.08 -0.08)">
     <use xlink:href="#DejaVuSans-Bold-2a"/>
    </g>
   </g>
   <g id="text_38">
    <!-- * -->
    <g transform="translate(321.249171 29.913458)scale(0.08 -0.08)">
     <use xlink:href="#DejaVuSans-Bold-2a"/>
    </g>
   </g>
   <g id="text_39">
    <!-- * -->
    <g transform="translate(326.937929 150.361303)scale(0.08 -0.08)">
     <use xlink:href="#DejaVuSans-Bold-2a"/>
    </g>
   </g>
   <g id="text_40">
    <!-- * -->
    <g transform="translate(383.825511 43.915099)scale(0.08 -0.08)">
     <use xlink:href="#DejaVuSans-Bold-2a"/>
    </g>
   </g>
   <g id="text_41">
    <!-- * -->
    <g transform="translate(389.514269 155.507306)scale(0.08 -0.08)">
     <use xlink:href="#DejaVuSans-Bold-2a"/>
    </g>
   </g>
   <g id="text_42">
    <!-- * -->
    <g transform="translate(412.269301 116.706726)scale(0.08 -0.08)">
     <use xlink:href="#DejaVuSans-Bold-2a"/>
    </g>
   </g>
   <g id="text_43">
    <!-- * -->
    <g transform="translate(417.95806 99.705256)scale(0.08 -0.08)">
     <use xlink:href="#DejaVuSans-Bold-2a"/>
    </g>
   </g>
   <g id="text_44">
    <!-- * -->
    <g transform="translate(423.646818 50.117493)scale(0.08 -0.08)">
     <use xlink:href="#DejaVuSans-Bold-2a"/>
    </g>
   </g>
   <g id="text_45">
    <!-- ** -->
    <g transform="translate(438.621217 129.648938)scale(0.08 -0.08)">
     <use xlink:href="#DejaVuSans-Bold-2a"/>
     <use x="52.294922" xlink:href="#DejaVuSans-Bold-2a"/>
    </g>
   </g>
   <g id="text_46">
    <!-- * -->
    <g transform="translate(446.40185 123.614823)scale(0.08 -0.08)">
     <use xlink:href="#DejaVuSans-Bold-2a"/>
    </g>
   </g>
   <g id="text_47">
    <!-- ** -->
    <g transform="translate(449.998734 19.02567)scale(0.08 -0.08)">
     <use xlink:href="#DejaVuSans-Bold-2a"/>
     <use x="52.294922" xlink:href="#DejaVuSans-Bold-2a"/>
    </g>
   </g>
   <g id="text_48">
    <!-- E: Seven Mutants Produced Robust Biosorption Changes -->
    <defs>
     <path d="M 9.1875 72.90625 
L 59.90625 72.90625 
L 59.90625 58.6875 
L 27.984375 58.6875 
L 27.984375 45.125 
L 58.015625 45.125 
L 58.015625 30.90625 
L 27.984375 30.90625 
L 27.984375 14.203125 
L 60.984375 14.203125 
L 60.984375 0 
L 9.1875 0 
z
" id="DejaVuSans-Bold-45"/>
     <path d="M 11.1875 54.6875 
L 28.8125 54.6875 
L 28.8125 35.796875 
L 11.1875 35.796875 
z
M 11.1875 18.890625 
L 28.8125 18.890625 
L 28.8125 0 
L 11.1875 0 
z
" id="DejaVuSans-Bold-3a"/>
     <path d="M 9.1875 72.90625 
L 33.109375 72.90625 
L 49.703125 33.890625 
L 66.40625 72.90625 
L 90.28125 72.90625 
L 90.28125 0 
L 72.515625 0 
L 72.515625 53.328125 
L 55.71875 14.015625 
L 43.796875 14.015625 
L 27 53.328125 
L 27 0 
L 9.1875 0 
z
" id="DejaVuSans-Bold-4d"/>
     <path d="M 7.8125 21.296875 
L 7.8125 54.6875 
L 25.390625 54.6875 
L 25.390625 49.21875 
Q 25.390625 44.78125 25.34375 38.0625 
Q 25.296875 31.34375 25.296875 29.109375 
Q 25.296875 22.515625 25.640625 19.609375 
Q 25.984375 16.703125 26.8125 15.375 
Q 27.875 13.671875 29.609375 12.734375 
Q 31.34375 11.8125 33.59375 11.8125 
Q 39.0625 11.8125 42.1875 16.015625 
Q 45.3125 20.21875 45.3125 27.6875 
L 45.3125 54.6875 
L 62.796875 54.6875 
L 62.796875 0 
L 45.3125 0 
L 45.3125 7.90625 
Q 41.359375 3.125 36.9375 0.84375 
Q 32.515625 -1.421875 27.203125 -1.421875 
Q 17.71875 -1.421875 12.765625 4.390625 
Q 7.8125 10.203125 7.8125 21.296875 
z
" id="DejaVuSans-Bold-75"/>
     <path d="M 9.1875 72.90625 
L 40.375 72.90625 
Q 54.296875 72.90625 61.734375 66.71875 
Q 69.1875 60.546875 69.1875 49.125 
Q 69.1875 37.640625 61.734375 31.46875 
Q 54.296875 25.296875 40.375 25.296875 
L 27.984375 25.296875 
L 27.984375 0 
L 9.1875 0 
z
M 27.984375 59.28125 
L 27.984375 38.921875 
L 38.375 38.921875 
Q 43.84375 38.921875 46.828125 41.578125 
Q 49.8125 44.234375 49.8125 49.125 
Q 49.8125 54 46.828125 56.640625 
Q 43.84375 59.28125 38.375 59.28125 
z
" id="DejaVuSans-Bold-50"/>
     <path d="M 45.609375 46.6875 
L 45.609375 75.984375 
L 63.1875 75.984375 
L 63.1875 0 
L 45.609375 0 
L 45.609375 7.90625 
Q 42 3.078125 37.640625 0.828125 
Q 33.296875 -1.421875 27.59375 -1.421875 
Q 17.484375 -1.421875 10.984375 6.609375 
Q 4.5 14.65625 4.5 27.296875 
Q 4.5 39.9375 10.984375 47.96875 
Q 17.484375 56 27.59375 56 
Q 33.25 56 37.625 53.734375 
Q 42 51.46875 45.609375 46.6875 
z
M 34.078125 11.28125 
Q 39.703125 11.28125 42.65625 15.375 
Q 45.609375 19.484375 45.609375 27.296875 
Q 45.609375 35.109375 42.65625 39.203125 
Q 39.703125 43.3125 34.078125 43.3125 
Q 28.515625 43.3125 25.5625 39.203125 
Q 22.609375 35.109375 22.609375 27.296875 
Q 22.609375 19.484375 25.5625 15.375 
Q 28.515625 11.28125 34.078125 11.28125 
z
" id="DejaVuSans-Bold-64"/>
     <path d="M 52.59375 52.984375 
L 52.59375 38.71875 
Q 49.03125 41.15625 45.4375 42.328125 
Q 41.84375 43.5 37.984375 43.5 
Q 30.671875 43.5 26.59375 39.234375 
Q 22.515625 34.96875 22.515625 27.296875 
Q 22.515625 19.625 26.59375 15.34375 
Q 30.671875 11.078125 37.984375 11.078125 
Q 42.09375 11.078125 45.78125 12.296875 
Q 49.46875 13.53125 52.59375 15.921875 
L 52.59375 1.609375 
Q 48.484375 0.09375 44.265625 -0.65625 
Q 40.046875 -1.421875 35.796875 -1.421875 
Q 21 -1.421875 12.640625 6.171875 
Q 4.296875 13.765625 4.296875 27.296875 
Q 4.296875 40.828125 12.640625 48.40625 
Q 21 56 35.796875 56 
Q 40.09375 56 44.265625 55.25 
Q 48.4375 54.5 52.59375 52.984375 
z
" id="DejaVuSans-Bold-63"/>
     <path d="M 37.5 11.28125 
Q 43.109375 11.28125 46.0625 15.375 
Q 49.03125 19.484375 49.03125 27.296875 
Q 49.03125 35.109375 46.0625 39.203125 
Q 43.109375 43.3125 37.5 43.3125 
Q 31.890625 43.3125 28.875 39.1875 
Q 25.875 35.0625 25.875 27.296875 
Q 25.875 19.53125 28.875 15.40625 
Q 31.890625 11.28125 37.5 11.28125 
z
M 25.875 46.6875 
Q 29.5 51.46875 33.890625 53.734375 
Q 38.28125 56 44 56 
Q 54.109375 56 60.59375 47.96875 
Q 67.09375 39.9375 67.09375 27.296875 
Q 67.09375 14.65625 60.59375 6.609375 
Q 54.109375 -1.421875 44 -1.421875 
Q 38.28125 -1.421875 33.890625 0.84375 
Q 29.5 3.125 25.875 7.90625 
L 25.875 0 
L 8.40625 0 
L 8.40625 75.984375 
L 25.875 75.984375 
z
" id="DejaVuSans-Bold-62"/>
    </defs>
    <g transform="translate(136.430391 6.76)scale(0.07 -0.07)">
     <use xlink:href="#DejaVuSans-Bold-45"/>
     <use x="68.310547" xlink:href="#DejaVuSans-Bold-3a"/>
     <use x="108.300781" xlink:href="#DejaVuSans-Bold-20"/>
     <use x="143.115234" xlink:href="#DejaVuSans-Bold-53"/>
     <use x="215.136719" xlink:href="#DejaVuSans-Bold-65"/>
     <use x="282.958984" xlink:href="#DejaVuSans-Bold-76"/>
     <use x="348.144531" xlink:href="#DejaVuSans-Bold-65"/>
     <use x="415.966797" xlink:href="#DejaVuSans-Bold-6e"/>
     <use x="487.158203" xlink:href="#DejaVuSans-Bold-20"/>
     <use x="521.972656" xlink:href="#DejaVuSans-Bold-4d"/>
     <use x="621.484375" xlink:href="#DejaVuSans-Bold-75"/>
     <use x="692.675781" xlink:href="#DejaVuSans-Bold-74"/>
     <use x="740.478516" xlink:href="#DejaVuSans-Bold-61"/>
     <use x="807.958984" xlink:href="#DejaVuSans-Bold-6e"/>
     <use x="879.150391" xlink:href="#DejaVuSans-Bold-74"/>
     <use x="926.953125" xlink:href="#DejaVuSans-Bold-73"/>
     <use x="986.474609" xlink:href="#DejaVuSans-Bold-20"/>
     <use x="1021.289062" xlink:href="#DejaVuSans-Bold-50"/>
     <use x="1094.580078" xlink:href="#DejaVuSans-Bold-72"/>
     <use x="1143.896484" xlink:href="#DejaVuSans-Bold-6f"/>
     <use x="1212.597656" xlink:href="#DejaVuSans-Bold-64"/>
     <use x="1284.179688" xlink:href="#DejaVuSans-Bold-75"/>
     <use x="1355.371094" xlink:href="#DejaVuSans-Bold-63"/>
     <use x="1414.648438" xlink:href="#DejaVuSans-Bold-65"/>
     <use x="1482.470703" xlink:href="#DejaVuSans-Bold-64"/>
     <use x="1554.052734" xlink:href="#DejaVuSans-Bold-20"/>
     <use x="1588.867188" xlink:href="#DejaVuSans-Bold-52"/>
     <use x="1665.869141" xlink:href="#DejaVuSans-Bold-6f"/>
     <use x="1734.570312" xlink:href="#DejaVuSans-Bold-62"/>
     <use x="1806.152344" xlink:href="#DejaVuSans-Bold-75"/>
     <use x="1877.34375" xlink:href="#DejaVuSans-Bold-73"/>
     <use x="1936.865234" xlink:href="#DejaVuSans-Bold-74"/>
     <use x="1984.667969" xlink:href="#DejaVuSans-Bold-20"/>
     <use x="2019.482422" xlink:href="#DejaVuSans-Bold-42"/>
     <use x="2095.703125" xlink:href="#DejaVuSans-Bold-69"/>
     <use x="2129.980469" xlink:href="#DejaVuSans-Bold-6f"/>
     <use x="2198.681641" xlink:href="#DejaVuSans-Bold-73"/>
     <use x="2258.203125" xlink:href="#DejaVuSans-Bold-6f"/>
     <use x="2326.904297" xlink:href="#DejaVuSans-Bold-72"/>
     <use x="2376.220703" xlink:href="#DejaVuSans-Bold-70"/>
     <use x="2447.802734" xlink:href="#DejaVuSans-Bold-74"/>
     <use x="2495.605469" xlink:href="#DejaVuSans-Bold-69"/>
     <use x="2529.882812" xlink:href="#DejaVuSans-Bold-6f"/>
     <use x="2598.583984" xlink:href="#DejaVuSans-Bold-6e"/>
     <use x="2669.775391" xlink:href="#DejaVuSans-Bold-20"/>
     <use x="2704.589844" xlink:href="#DejaVuSans-Bold-43"/>
     <use x="2777.978516" xlink:href="#DejaVuSans-Bold-68"/>
     <use x="2849.169922" xlink:href="#DejaVuSans-Bold-61"/>
     <use x="2916.650391" xlink:href="#DejaVuSans-Bold-6e"/>
     <use x="2987.841797" xlink:href="#DejaVuSans-Bold-67"/>
     <use x="3059.423828" xlink:href="#DejaVuSans-Bold-65"/>
     <use x="3127.246094" xlink:href="#DejaVuSans-Bold-73"/>
    </g>
   </g>
   <g id="legend_1">
    <g id="patch_49">
     <path d="M 362.4725 173.828 
L 461.36 173.828 
Q 462.56 173.828 462.56 172.628 
L 462.56 164.421125 
Q 462.56 163.221125 461.36 163.221125 
L 362.4725 163.221125 
Q 361.2725 163.221125 361.2725 164.421125 
L 361.2725 172.628 
Q 361.2725 173.828 362.4725 173.828 
z
" style="fill:#ffffff;opacity:0.8;stroke:#cccccc;stroke-linejoin:miter;"/>
    </g>
    <g id="patch_50">
     <path d="M 363.6725 170.180187 
L 375.6725 170.180187 
L 375.6725 165.980187 
L 363.6725 165.980187 
z
" style="fill:#4d59a7;"/>
    </g>
    <g id="text_49">
     <!-- La -->
     <defs>
      <path d="M 34.28125 27.484375 
Q 23.390625 27.484375 19.1875 25 
Q 14.984375 22.515625 14.984375 16.5 
Q 14.984375 11.71875 18.140625 8.90625 
Q 21.296875 6.109375 26.703125 6.109375 
Q 34.1875 6.109375 38.703125 11.40625 
Q 43.21875 16.703125 43.21875 25.484375 
L 43.21875 27.484375 
z
M 52.203125 31.203125 
L 52.203125 0 
L 43.21875 0 
L 43.21875 8.296875 
Q 40.140625 3.328125 35.546875 0.953125 
Q 30.953125 -1.421875 24.3125 -1.421875 
Q 15.921875 -1.421875 10.953125 3.296875 
Q 6 8.015625 6 15.921875 
Q 6 25.140625 12.171875 29.828125 
Q 18.359375 34.515625 30.609375 34.515625 
L 43.21875 34.515625 
L 43.21875 35.40625 
Q 43.21875 41.609375 39.140625 45 
Q 35.0625 48.390625 27.6875 48.390625 
Q 23 48.390625 18.546875 47.265625 
Q 14.109375 46.140625 10.015625 43.890625 
L 10.015625 52.203125 
Q 14.9375 54.109375 19.578125 55.046875 
Q 24.21875 56 28.609375 56 
Q 40.484375 56 46.34375 49.84375 
Q 52.203125 43.703125 52.203125 31.203125 
z
" id="DejaVuSans-61"/>
     </defs>
     <g transform="translate(380.4725 170.180187)scale(0.06 -0.06)">
      <use xlink:href="#DejaVuSans-4c"/>
      <use x="55.712891" xlink:href="#DejaVuSans-61"/>
     </g>
    </g>
    <g id="patch_51">
     <path d="M 399.4925 170.180187 
L 411.4925 170.180187 
L 411.4925 165.980187 
L 399.4925 165.980187 
z
" style="fill:#fcd71a;"/>
    </g>
    <g id="text_50">
     <!-- Eu -->
     <defs>
      <path d="M 9.8125 72.90625 
L 55.90625 72.90625 
L 55.90625 64.59375 
L 19.671875 64.59375 
L 19.671875 43.015625 
L 54.390625 43.015625 
L 54.390625 34.71875 
L 19.671875 34.71875 
L 19.671875 8.296875 
L 56.78125 8.296875 
L 56.78125 0 
L 9.8125 0 
z
" id="DejaVuSans-45"/>
      <path d="M 8.5 21.578125 
L 8.5 54.6875 
L 17.484375 54.6875 
L 17.484375 21.921875 
Q 17.484375 14.15625 20.5 10.265625 
Q 23.53125 6.390625 29.59375 6.390625 
Q 36.859375 6.390625 41.078125 11.03125 
Q 45.3125 15.671875 45.3125 23.6875 
L 45.3125 54.6875 
L 54.296875 54.6875 
L 54.296875 0 
L 45.3125 0 
L 45.3125 8.40625 
Q 42.046875 3.421875 37.71875 1 
Q 33.40625 -1.421875 27.6875 -1.421875 
Q 18.265625 -1.421875 13.375 4.4375 
Q 8.5 10.296875 8.5 21.578125 
z
M 31.109375 56 
z
" id="DejaVuSans-75"/>
     </defs>
     <g transform="translate(416.2925 170.180187)scale(0.06 -0.06)">
      <use xlink:href="#DejaVuSans-45"/>
      <use x="63.183594" xlink:href="#DejaVuSans-75"/>
     </g>
    </g>
    <g id="patch_52">
     <path d="M 435.88625 170.180187 
L 447.88625 170.180187 
L 447.88625 165.980187 
L 435.88625 165.980187 
z
" style="fill:#f0514b;"/>
    </g>
    <g id="text_51">
     <!-- Yb -->
     <defs>
      <path d="M -0.203125 72.90625 
L 10.40625 72.90625 
L 30.609375 42.921875 
L 50.6875 72.90625 
L 61.28125 72.90625 
L 35.5 34.71875 
L 35.5 0 
L 25.59375 0 
L 25.59375 34.71875 
z
" id="DejaVuSans-59"/>
     </defs>
     <g transform="translate(452.68625 170.180187)scale(0.06 -0.06)">
      <use xlink:href="#DejaVuSans-59"/>
      <use x="61.083984" xlink:href="#DejaVuSans-62"/>
     </g>
    </g>
   </g>
  </g>
 </g>
 <defs>
  <clipPath id="p950b2a1db4">
   <rect height="164.068" width="435.19" x="30.37" y="12.76"/>
  </clipPath>
 </defs>
</svg>
