<?xml version="1.0" encoding="utf-8" standalone="no"?>
<!DOCTYPE svg PUBLIC "-//W3C//DTD SVG 1.1//EN"
  "http://www.w3.org/Graphics/SVG/1.1/DTD/svg11.dtd">
<!-- Created with matplotlib (https://matplotlib.org/) -->
<svg height="144pt" version="1.1" viewBox="0 0 234 144" width="234pt" xmlns="http://www.w3.org/2000/svg" xmlns:xlink="http://www.w3.org/1999/xlink">
 <defs>
  <style type="text/css">
*{stroke-linecap:butt;stroke-linejoin:round;}
  </style>
 </defs>
 <g id="figure_1">
  <g id="patch_1">
   <path d="M 0 144 
L 234 144 
L 234 0 
L 0 0 
z
" style="fill:#ffffff;"/>
  </g>
  <g id="axes_1">
   <g id="patch_2">
    <path d="M 25 120.98 
L 233 120.98 
L 233 12.76 
L 25 12.76 
z
" style="fill:#ffffff;"/>
   </g>
   <g id="PathCollection_1">
    <defs>
     <path d="M 0 3 
C 0.795609 3 1.55874 2.683901 2.12132 2.12132 
C 2.683901 1.55874 3 0.795609 3 0 
C 3 -0.795609 2.683901 -1.55874 2.12132 -2.12132 
C 1.55874 -2.683901 0.795609 -3 0 -3 
C -0.795609 -3 -1.55874 -2.683901 -2.12132 -2.12132 
C -2.683901 -1.55874 -3 -0.795609 -3 0 
C -3 0.795609 -2.683901 1.55874 -2.12132 2.12132 
C -1.55874 2.683901 -0.795609 3 0 3 
z
" id="md88339aaec" style="stroke:#000000;stroke-opacity:0.1;"/>
    </defs>
    <g clip-path="url(#pdf9bd8ebb7)">
     <use style="fill-opacity:0.1;stroke:#000000;stroke-opacity:0.1;" x="91.406002" xlink:href="#md88339aaec" y="88.868581"/>
    </g>
   </g>
   <g id="PathCollection_2">
    <g clip-path="url(#pdf9bd8ebb7)">
     <use style="fill-opacity:0.1;stroke:#000000;stroke-opacity:0.1;" x="171.17643" xlink:href="#md88339aaec" y="57.759875"/>
    </g>
   </g>
   <g id="PathCollection_3">
    <g clip-path="url(#pdf9bd8ebb7)">
     <use style="fill-opacity:0.1;stroke:#000000;stroke-opacity:0.1;" x="148.004493" xlink:href="#md88339aaec" y="65.590812"/>
    </g>
   </g>
   <g id="PathCollection_4">
    <g clip-path="url(#pdf9bd8ebb7)">
     <use style="fill-opacity:0.1;stroke:#000000;stroke-opacity:0.1;" x="104.794526" xlink:href="#md88339aaec" y="90.63027"/>
    </g>
   </g>
   <g id="PathCollection_5">
    <g clip-path="url(#pdf9bd8ebb7)">
     <use style="fill-opacity:0.1;stroke:#000000;stroke-opacity:0.1;" x="57.014221" xlink:href="#md88339aaec" y="113.963616"/>
    </g>
   </g>
   <g id="PathCollection_6">
    <g clip-path="url(#pdf9bd8ebb7)">
     <use style="fill-opacity:0.1;stroke:#000000;stroke-opacity:0.1;" x="219.273287" xlink:href="#md88339aaec" y="20.170948"/>
    </g>
   </g>
   <g id="PathCollection_7">
    <g clip-path="url(#pdf9bd8ebb7)">
     <use style="fill-opacity:0.1;stroke:#000000;stroke-opacity:0.1;" x="169.063376" xlink:href="#md88339aaec" y="59.344466"/>
    </g>
   </g>
   <g id="PathCollection_8">
    <g clip-path="url(#pdf9bd8ebb7)">
     <use style="fill-opacity:0.1;stroke:#000000;stroke-opacity:0.1;" x="135.875249" xlink:href="#md88339aaec" y="79.464139"/>
    </g>
   </g>
   <g id="PathCollection_9">
    <g clip-path="url(#pdf9bd8ebb7)">
     <use style="fill-opacity:0.1;stroke:#000000;stroke-opacity:0.1;" x="118.568535" xlink:href="#md88339aaec" y="85.241782"/>
    </g>
   </g>
   <g id="PathCollection_10">
    <g clip-path="url(#pdf9bd8ebb7)">
     <use style="fill-opacity:0.1;stroke:#000000;stroke-opacity:0.1;" x="74.874258" xlink:href="#md88339aaec" y="104.02011"/>
    </g>
   </g>
   <g id="PathCollection_11">
    <g clip-path="url(#pdf9bd8ebb7)">
     <use style="fill-opacity:0.1;stroke:#000000;stroke-opacity:0.1;" x="134.514785" xlink:href="#md88339aaec" y="69.015043"/>
    </g>
   </g>
   <g id="PathCollection_12">
    <g clip-path="url(#pdf9bd8ebb7)">
     <use style="fill-opacity:0.1;stroke:#000000;stroke-opacity:0.1;" x="98.150774" xlink:href="#md88339aaec" y="82.672468"/>
    </g>
   </g>
   <g id="PathCollection_13">
    <g clip-path="url(#pdf9bd8ebb7)">
     <use style="fill-opacity:0.1;stroke:#000000;stroke-opacity:0.1;" x="107.171663" xlink:href="#md88339aaec" y="77.474769"/>
    </g>
   </g>
   <g id="PathCollection_14">
    <g clip-path="url(#pdf9bd8ebb7)">
     <use style="fill-opacity:0.1;stroke:#000000;stroke-opacity:0.1;" x="83.715069" xlink:href="#md88339aaec" y="87.930709"/>
    </g>
   </g>
   <g id="PathCollection_15">
    <g clip-path="url(#pdf9bd8ebb7)">
     <use style="fill-opacity:0.1;stroke:#000000;stroke-opacity:0.1;" x="51.629021" xlink:href="#md88339aaec" y="102.94772"/>
    </g>
   </g>
   <g id="PathCollection_16">
    <g clip-path="url(#pdf9bd8ebb7)">
     <use style="fill-opacity:0.1;stroke:#000000;stroke-opacity:0.1;" x="54.841025" xlink:href="#md88339aaec" y="99.855909"/>
    </g>
   </g>
   <g id="PathCollection_17">
    <g clip-path="url(#pdf9bd8ebb7)">
     <use style="fill-opacity:0.1;stroke:#000000;stroke-opacity:0.1;" x="107.376228" xlink:href="#md88339aaec" y="78.833857"/>
    </g>
   </g>
   <g id="PathCollection_18">
    <g clip-path="url(#pdf9bd8ebb7)">
     <use style="fill-opacity:0.1;stroke:#000000;stroke-opacity:0.1;" x="89.606097" xlink:href="#md88339aaec" y="89.325379"/>
    </g>
   </g>
   <g id="PathCollection_19">
    <g clip-path="url(#pdf9bd8ebb7)">
     <use style="fill-opacity:0.1;stroke:#000000;stroke-opacity:0.1;" x="92.066498" xlink:href="#md88339aaec" y="80.802207"/>
    </g>
   </g>
   <g id="PathCollection_20">
    <g clip-path="url(#pdf9bd8ebb7)">
     <use style="fill-opacity:0.1;stroke:#000000;stroke-opacity:0.1;" x="100.589388" xlink:href="#md88339aaec" y="82.575614"/>
    </g>
   </g>
   <g id="PathCollection_21">
    <g clip-path="url(#pdf9bd8ebb7)">
     <use style="fill-opacity:0.1;stroke:#000000;stroke-opacity:0.1;" x="98.591904" xlink:href="#md88339aaec" y="82.412451"/>
    </g>
   </g>
   <g id="PathCollection_22">
    <g clip-path="url(#pdf9bd8ebb7)">
     <use style="fill-opacity:0.1;stroke:#000000;stroke-opacity:0.1;" x="187.468541" xlink:href="#md88339aaec" y="51.449245"/>
    </g>
   </g>
   <g id="PathCollection_23">
    <g clip-path="url(#pdf9bd8ebb7)">
     <use style="fill-opacity:0.1;stroke:#000000;stroke-opacity:0.1;" x="160.29747" xlink:href="#md88339aaec" y="63.909886"/>
    </g>
   </g>
   <g id="PathCollection_24">
    <g clip-path="url(#pdf9bd8ebb7)">
     <use style="fill-opacity:0.1;stroke:#000000;stroke-opacity:0.1;" x="196.959909" xlink:href="#md88339aaec" y="42.805199"/>
    </g>
   </g>
   <g id="PathCollection_25">
    <g clip-path="url(#pdf9bd8ebb7)">
     <use style="fill-opacity:0.1;stroke:#000000;stroke-opacity:0.1;" x="147.80406" xlink:href="#md88339aaec" y="65.411132"/>
    </g>
   </g>
   <g id="PathCollection_26">
    <g clip-path="url(#pdf9bd8ebb7)">
     <use style="fill-opacity:0.1;stroke:#000000;stroke-opacity:0.1;" x="161.754635" xlink:href="#md88339aaec" y="61.520197"/>
    </g>
   </g>
   <g id="PathCollection_27">
    <g clip-path="url(#pdf9bd8ebb7)">
     <use style="fill-opacity:0.1;stroke:#000000;stroke-opacity:0.1;" x="147.104299" xlink:href="#md88339aaec" y="67.330637"/>
    </g>
   </g>
   <g id="PathCollection_28">
    <g clip-path="url(#pdf9bd8ebb7)">
     <use style="fill-opacity:0.1;stroke:#000000;stroke-opacity:0.1;" x="134.10346" xlink:href="#md88339aaec" y="72.998808"/>
    </g>
   </g>
   <g id="PathCollection_29">
    <g clip-path="url(#pdf9bd8ebb7)">
     <use style="fill-opacity:0.1;stroke:#000000;stroke-opacity:0.1;" x="115.649301" xlink:href="#md88339aaec" y="78.594914"/>
    </g>
   </g>
   <g id="PathCollection_30">
    <defs>
     <path d="M 0 3 
C 0.795609 3 1.55874 2.683901 2.12132 2.12132 
C 2.683901 1.55874 3 0.795609 3 0 
C 3 -0.795609 2.683901 -1.55874 2.12132 -2.12132 
C 1.55874 -2.683901 0.795609 -3 0 -3 
C -0.795609 -3 -1.55874 -2.683901 -2.12132 -2.12132 
C -2.683901 -1.55874 -3 -0.795609 -3 0 
C -3 0.795609 -2.683901 1.55874 -2.12132 2.12132 
C -1.55874 2.683901 -0.795609 3 0 3 
z
" id="m00b317fbb4" style="stroke:#ff0000;"/>
    </defs>
    <g clip-path="url(#pdf9bd8ebb7)">
     <use style="fill:#ff0000;stroke:#ff0000;" x="135.875249" xlink:href="#m00b317fbb4" y="79.464139"/>
    </g>
   </g>
   <g id="PathCollection_31">
    <defs>
     <path d="M 0 3 
C 0.795609 3 1.55874 2.683901 2.12132 2.12132 
C 2.683901 1.55874 3 0.795609 3 0 
C 3 -0.795609 2.683901 -1.55874 2.12132 -2.12132 
C 1.55874 -2.683901 0.795609 -3 0 -3 
C -0.795609 -3 -1.55874 -2.683901 -2.12132 -2.12132 
C -2.683901 -1.55874 -3 -0.795609 -3 0 
C -3 0.795609 -2.683901 1.55874 -2.12132 2.12132 
C -1.55874 2.683901 -0.795609 3 0 3 
z
" id="m951be74f23" style="stroke:#008000;"/>
    </defs>
    <g clip-path="url(#pdf9bd8ebb7)">
     <use style="fill:#008000;stroke:#008000;" x="118.568535" xlink:href="#m951be74f23" y="85.241782"/>
    </g>
   </g>
   <g id="PathCollection_32">
    <defs>
     <path d="M 0 3 
C 0.795609 3 1.55874 2.683901 2.12132 2.12132 
C 2.683901 1.55874 3 0.795609 3 0 
C 3 -0.795609 2.683901 -1.55874 2.12132 -2.12132 
C 1.55874 -2.683901 0.795609 -3 0 -3 
C -0.795609 -3 -1.55874 -2.683901 -2.12132 -2.12132 
C -2.683901 -1.55874 -3 -0.795609 -3 0 
C -3 0.795609 -2.683901 1.55874 -2.12132 2.12132 
C -1.55874 2.683901 -0.795609 3 0 3 
z
" id="mbf625d784e" style="stroke:#0000ff;"/>
    </defs>
    <g clip-path="url(#pdf9bd8ebb7)">
     <use style="fill:#0000ff;stroke:#0000ff;" x="104.794526" xlink:href="#mbf625d784e" y="90.63027"/>
    </g>
   </g>
   <g id="PathCollection_33">
    <defs>
     <path d="M 0 3 
C 0.795609 3 1.55874 2.683901 2.12132 2.12132 
C 2.683901 1.55874 3 0.795609 3 0 
C 3 -0.795609 2.683901 -1.55874 2.12132 -2.12132 
C 1.55874 -2.683901 0.795609 -3 0 -3 
C -0.795609 -3 -1.55874 -2.683901 -2.12132 -2.12132 
C -2.683901 -1.55874 -3 -0.795609 -3 0 
C -3 0.795609 -2.683901 1.55874 -2.12132 2.12132 
C -1.55874 2.683901 -0.795609 3 0 3 
z
" id="m949538e27c" style="stroke:#bfbf00;"/>
    </defs>
    <g clip-path="url(#pdf9bd8ebb7)">
     <use style="fill:#bfbf00;stroke:#bfbf00;" x="57.014221" xlink:href="#m949538e27c" y="113.963616"/>
    </g>
   </g>
   <g id="matplotlib.axis_1">
    <g id="xtick_1">
     <g id="line2d_1">
      <path clip-path="url(#pdf9bd8ebb7)" d="M 78.329821 120.98 
L 78.329821 12.76 
" style="fill:none;stroke:#b0b0b0;stroke-dasharray:2.96,1.28;stroke-dashoffset:0;stroke-width:0.8;"/>
     </g>
     <g id="line2d_2">
      <defs>
       <path d="M 0 0 
L 0 3 
" id="m38e6290a3c" style="stroke:#000000;stroke-width:0.8;"/>
      </defs>
      <g>
       <use style="stroke:#000000;stroke-width:0.8;" x="78.329821" xlink:href="#m38e6290a3c" y="120.98"/>
      </g>
     </g>
     <g id="text_1">
      <!-- 12 -->
      <defs>
       <path d="M 12.40625 8.296875 
L 28.515625 8.296875 
L 28.515625 63.921875 
L 10.984375 60.40625 
L 10.984375 69.390625 
L 28.421875 72.90625 
L 38.28125 72.90625 
L 38.28125 8.296875 
L 54.390625 8.296875 
L 54.390625 0 
L 12.40625 0 
z
" id="DejaVuSans-49"/>
       <path d="M 19.1875 8.296875 
L 53.609375 8.296875 
L 53.609375 0 
L 7.328125 0 
L 7.328125 8.296875 
Q 12.9375 14.109375 22.625 23.890625 
Q 32.328125 33.6875 34.8125 36.53125 
Q 39.546875 41.84375 41.421875 45.53125 
Q 43.3125 49.21875 43.3125 52.78125 
Q 43.3125 58.59375 39.234375 62.25 
Q 35.15625 65.921875 28.609375 65.921875 
Q 23.96875 65.921875 18.8125 64.3125 
Q 13.671875 62.703125 7.8125 59.421875 
L 7.8125 69.390625 
Q 13.765625 71.78125 18.9375 73 
Q 24.125 74.21875 28.421875 74.21875 
Q 39.75 74.21875 46.484375 68.546875 
Q 53.21875 62.890625 53.21875 53.421875 
Q 53.21875 48.921875 51.53125 44.890625 
Q 49.859375 40.875 45.40625 35.40625 
Q 44.1875 33.984375 37.640625 27.21875 
Q 31.109375 20.453125 19.1875 8.296875 
z
" id="DejaVuSans-50"/>
      </defs>
      <g transform="translate(75.148571 131.279219)scale(0.05 -0.05)">
       <use xlink:href="#DejaVuSans-49"/>
       <use x="63.623047" xlink:href="#DejaVuSans-50"/>
      </g>
     </g>
    </g>
    <g id="xtick_2">
     <g id="line2d_3">
      <path clip-path="url(#pdf9bd8ebb7)" d="M 147.501541 120.98 
L 147.501541 12.76 
" style="fill:none;stroke:#b0b0b0;stroke-dasharray:2.96,1.28;stroke-dashoffset:0;stroke-width:0.8;"/>
     </g>
     <g id="line2d_4">
      <g>
       <use style="stroke:#000000;stroke-width:0.8;" x="147.501541" xlink:href="#m38e6290a3c" y="120.98"/>
      </g>
     </g>
     <g id="text_2">
      <!-- 14 -->
      <defs>
       <path d="M 37.796875 64.3125 
L 12.890625 25.390625 
L 37.796875 25.390625 
z
M 35.203125 72.90625 
L 47.609375 72.90625 
L 47.609375 25.390625 
L 58.015625 25.390625 
L 58.015625 17.1875 
L 47.609375 17.1875 
L 47.609375 0 
L 37.796875 0 
L 37.796875 17.1875 
L 4.890625 17.1875 
L 4.890625 26.703125 
z
" id="DejaVuSans-52"/>
      </defs>
      <g transform="translate(144.320291 131.279219)scale(0.05 -0.05)">
       <use xlink:href="#DejaVuSans-49"/>
       <use x="63.623047" xlink:href="#DejaVuSans-52"/>
      </g>
     </g>
    </g>
    <g id="xtick_3">
     <g id="line2d_5">
      <path clip-path="url(#pdf9bd8ebb7)" d="M 216.673261 120.98 
L 216.673261 12.76 
" style="fill:none;stroke:#b0b0b0;stroke-dasharray:2.96,1.28;stroke-dashoffset:0;stroke-width:0.8;"/>
     </g>
     <g id="line2d_6">
      <g>
       <use style="stroke:#000000;stroke-width:0.8;" x="216.673261" xlink:href="#m38e6290a3c" y="120.98"/>
      </g>
     </g>
     <g id="text_3">
      <!-- 16 -->
      <defs>
       <path d="M 33.015625 40.375 
Q 26.375 40.375 22.484375 35.828125 
Q 18.609375 31.296875 18.609375 23.390625 
Q 18.609375 15.53125 22.484375 10.953125 
Q 26.375 6.390625 33.015625 6.390625 
Q 39.65625 6.390625 43.53125 10.953125 
Q 47.40625 15.53125 47.40625 23.390625 
Q 47.40625 31.296875 43.53125 35.828125 
Q 39.65625 40.375 33.015625 40.375 
z
M 52.59375 71.296875 
L 52.59375 62.3125 
Q 48.875 64.0625 45.09375 64.984375 
Q 41.3125 65.921875 37.59375 65.921875 
Q 27.828125 65.921875 22.671875 59.328125 
Q 17.53125 52.734375 16.796875 39.40625 
Q 19.671875 43.65625 24.015625 45.921875 
Q 28.375 48.1875 33.59375 48.1875 
Q 44.578125 48.1875 50.953125 41.515625 
Q 57.328125 34.859375 57.328125 23.390625 
Q 57.328125 12.15625 50.6875 5.359375 
Q 44.046875 -1.421875 33.015625 -1.421875 
Q 20.359375 -1.421875 13.671875 8.265625 
Q 6.984375 17.96875 6.984375 36.375 
Q 6.984375 53.65625 15.1875 63.9375 
Q 23.390625 74.21875 37.203125 74.21875 
Q 40.921875 74.21875 44.703125 73.484375 
Q 48.484375 72.75 52.59375 71.296875 
z
" id="DejaVuSans-54"/>
      </defs>
      <g transform="translate(213.492011 131.279219)scale(0.05 -0.05)">
       <use xlink:href="#DejaVuSans-49"/>
       <use x="63.623047" xlink:href="#DejaVuSans-54"/>
      </g>
     </g>
    </g>
    <g id="text_4">
     <!-- Eu Biosorption (nmols) -->
     <defs>
      <path d="M 9.1875 72.90625 
L 59.90625 72.90625 
L 59.90625 58.6875 
L 27.984375 58.6875 
L 27.984375 45.125 
L 58.015625 45.125 
L 58.015625 30.90625 
L 27.984375 30.90625 
L 27.984375 14.203125 
L 60.984375 14.203125 
L 60.984375 0 
L 9.1875 0 
z
" id="DejaVuSans-Bold-69"/>
      <path d="M 7.8125 21.296875 
L 7.8125 54.6875 
L 25.390625 54.6875 
L 25.390625 49.21875 
Q 25.390625 44.78125 25.34375 38.0625 
Q 25.296875 31.34375 25.296875 29.109375 
Q 25.296875 22.515625 25.640625 19.609375 
Q 25.984375 16.703125 26.8125 15.375 
Q 27.875 13.671875 29.609375 12.734375 
Q 31.34375 11.8125 33.59375 11.8125 
Q 39.0625 11.8125 42.1875 16.015625 
Q 45.3125 20.21875 45.3125 27.6875 
L 45.3125 54.6875 
L 62.796875 54.6875 
L 62.796875 0 
L 45.3125 0 
L 45.3125 7.90625 
Q 41.359375 3.125 36.9375 0.84375 
Q 32.515625 -1.421875 27.203125 -1.421875 
Q 17.71875 -1.421875 12.765625 4.390625 
Q 7.8125 10.203125 7.8125 21.296875 
z
" id="DejaVuSans-Bold-117"/>
      <path id="DejaVuSans-Bold-32"/>
      <path d="M 38.375 44.671875 
Q 42.828125 44.671875 45.109375 46.625 
Q 47.40625 48.578125 47.40625 52.390625 
Q 47.40625 56.15625 45.109375 58.125 
Q 42.828125 60.109375 38.375 60.109375 
L 27.984375 60.109375 
L 27.984375 44.671875 
z
M 39.015625 12.796875 
Q 44.671875 12.796875 47.53125 15.1875 
Q 50.390625 17.578125 50.390625 22.40625 
Q 50.390625 27.15625 47.5625 29.515625 
Q 44.734375 31.890625 39.015625 31.890625 
L 27.984375 31.890625 
L 27.984375 12.796875 
z
M 56.5 39.015625 
Q 62.546875 37.25 65.859375 32.515625 
Q 69.1875 27.78125 69.1875 20.90625 
Q 69.1875 10.359375 62.0625 5.171875 
Q 54.9375 0 40.375 0 
L 9.1875 0 
L 9.1875 72.90625 
L 37.40625 72.90625 
Q 52.59375 72.90625 59.40625 68.3125 
Q 66.21875 63.71875 66.21875 53.609375 
Q 66.21875 48.296875 63.71875 44.5625 
Q 61.234375 40.828125 56.5 39.015625 
z
" id="DejaVuSans-Bold-66"/>
      <path d="M 8.40625 54.6875 
L 25.875 54.6875 
L 25.875 0 
L 8.40625 0 
z
M 8.40625 75.984375 
L 25.875 75.984375 
L 25.875 61.71875 
L 8.40625 61.71875 
z
" id="DejaVuSans-Bold-105"/>
      <path d="M 34.421875 43.5 
Q 28.609375 43.5 25.5625 39.328125 
Q 22.515625 35.15625 22.515625 27.296875 
Q 22.515625 19.4375 25.5625 15.25 
Q 28.609375 11.078125 34.421875 11.078125 
Q 40.140625 11.078125 43.15625 15.25 
Q 46.1875 19.4375 46.1875 27.296875 
Q 46.1875 35.15625 43.15625 39.328125 
Q 40.140625 43.5 34.421875 43.5 
z
M 34.421875 56 
Q 48.53125 56 56.46875 48.375 
Q 64.40625 40.765625 64.40625 27.296875 
Q 64.40625 13.8125 56.46875 6.1875 
Q 48.53125 -1.421875 34.421875 -1.421875 
Q 20.265625 -1.421875 12.28125 6.1875 
Q 4.296875 13.8125 4.296875 27.296875 
Q 4.296875 40.765625 12.28125 48.375 
Q 20.265625 56 34.421875 56 
z
" id="DejaVuSans-Bold-111"/>
      <path d="M 51.125 52.984375 
L 51.125 39.703125 
Q 45.515625 42.046875 40.28125 43.21875 
Q 35.0625 44.390625 30.421875 44.390625 
Q 25.4375 44.390625 23.015625 43.140625 
Q 20.609375 41.890625 20.609375 39.3125 
Q 20.609375 37.203125 22.4375 36.078125 
Q 24.265625 34.96875 29 34.421875 
L 32.078125 33.984375 
Q 45.515625 32.28125 50.140625 28.375 
Q 54.78125 24.46875 54.78125 16.109375 
Q 54.78125 7.375 48.328125 2.96875 
Q 41.890625 -1.421875 29.109375 -1.421875 
Q 23.6875 -1.421875 17.890625 -0.5625 
Q 12.109375 0.296875 6 2 
L 6 15.28125 
Q 11.234375 12.75 16.71875 11.46875 
Q 22.21875 10.203125 27.875 10.203125 
Q 33.015625 10.203125 35.59375 11.609375 
Q 38.1875 13.03125 38.1875 15.828125 
Q 38.1875 18.171875 36.40625 19.3125 
Q 34.625 20.453125 29.296875 21.09375 
L 26.21875 21.484375 
Q 14.546875 22.953125 9.859375 26.90625 
Q 5.171875 30.859375 5.171875 38.921875 
Q 5.171875 47.609375 11.125 51.796875 
Q 17.09375 56 29.390625 56 
Q 34.234375 56 39.546875 55.265625 
Q 44.875 54.546875 51.125 52.984375 
z
" id="DejaVuSans-Bold-115"/>
      <path d="M 49.03125 39.796875 
Q 46.734375 40.875 44.453125 41.375 
Q 42.1875 41.890625 39.890625 41.890625 
Q 33.15625 41.890625 29.515625 37.5625 
Q 25.875 33.25 25.875 25.203125 
L 25.875 0 
L 8.40625 0 
L 8.40625 54.6875 
L 25.875 54.6875 
L 25.875 45.703125 
Q 29.25 51.078125 33.609375 53.53125 
Q 37.984375 56 44.09375 56 
Q 44.96875 56 45.984375 55.921875 
Q 47.015625 55.859375 48.96875 55.609375 
z
" id="DejaVuSans-Bold-114"/>
      <path d="M 25.875 7.90625 
L 25.875 -20.796875 
L 8.40625 -20.796875 
L 8.40625 54.6875 
L 25.875 54.6875 
L 25.875 46.6875 
Q 29.5 51.46875 33.890625 53.734375 
Q 38.28125 56 44 56 
Q 54.109375 56 60.59375 47.96875 
Q 67.09375 39.9375 67.09375 27.296875 
Q 67.09375 14.65625 60.59375 6.609375 
Q 54.109375 -1.421875 44 -1.421875 
Q 38.28125 -1.421875 33.890625 0.84375 
Q 29.5 3.125 25.875 7.90625 
z
M 37.5 43.3125 
Q 31.890625 43.3125 28.875 39.1875 
Q 25.875 35.0625 25.875 27.296875 
Q 25.875 19.53125 28.875 15.40625 
Q 31.890625 11.28125 37.5 11.28125 
Q 43.109375 11.28125 46.0625 15.375 
Q 49.03125 19.484375 49.03125 27.296875 
Q 49.03125 35.109375 46.0625 39.203125 
Q 43.109375 43.3125 37.5 43.3125 
z
" id="DejaVuSans-Bold-112"/>
      <path d="M 27.484375 70.21875 
L 27.484375 54.6875 
L 45.515625 54.6875 
L 45.515625 42.1875 
L 27.484375 42.1875 
L 27.484375 19 
Q 27.484375 15.1875 29 13.84375 
Q 30.515625 12.5 35.015625 12.5 
L 44 12.5 
L 44 0 
L 29 0 
Q 18.65625 0 14.328125 4.3125 
Q 10.015625 8.640625 10.015625 19 
L 10.015625 42.1875 
L 1.3125 42.1875 
L 1.3125 54.6875 
L 10.015625 54.6875 
L 10.015625 70.21875 
z
" id="DejaVuSans-Bold-116"/>
      <path d="M 63.375 33.296875 
L 63.375 0 
L 45.796875 0 
L 45.796875 5.421875 
L 45.796875 25.484375 
Q 45.796875 32.5625 45.484375 35.25 
Q 45.171875 37.9375 44.390625 39.203125 
Q 43.359375 40.921875 41.59375 41.875 
Q 39.84375 42.828125 37.59375 42.828125 
Q 32.125 42.828125 29 38.59375 
Q 25.875 34.375 25.875 26.90625 
L 25.875 0 
L 8.40625 0 
L 8.40625 54.6875 
L 25.875 54.6875 
L 25.875 46.6875 
Q 29.828125 51.46875 34.265625 53.734375 
Q 38.71875 56 44.09375 56 
Q 53.5625 56 58.46875 50.1875 
Q 63.375 44.390625 63.375 33.296875 
z
" id="DejaVuSans-Bold-110"/>
      <path d="M 37.703125 -13.1875 
L 23.1875 -13.1875 
Q 15.71875 -1.125 12.15625 9.734375 
Q 8.59375 20.609375 8.59375 31.296875 
Q 8.59375 42 12.171875 52.953125 
Q 15.765625 63.921875 23.1875 75.875 
L 37.703125 75.875 
Q 31.453125 64.3125 28.328125 53.25 
Q 25.203125 42.1875 25.203125 31.390625 
Q 25.203125 20.609375 28.296875 9.515625 
Q 31.390625 -1.5625 37.703125 -13.1875 
z
" id="DejaVuSans-Bold-40"/>
      <path d="M 59.078125 45.609375 
Q 62.40625 50.6875 66.96875 53.34375 
Q 71.53125 56 77 56 
Q 86.421875 56 91.359375 50.1875 
Q 96.296875 44.390625 96.296875 33.296875 
L 96.296875 0 
L 78.71875 0 
L 78.71875 28.515625 
Q 78.765625 29.15625 78.78125 29.828125 
Q 78.8125 30.515625 78.8125 31.78125 
Q 78.8125 37.59375 77.09375 40.203125 
Q 75.390625 42.828125 71.578125 42.828125 
Q 66.609375 42.828125 63.890625 38.71875 
Q 61.1875 34.625 61.078125 26.859375 
L 61.078125 0 
L 43.5 0 
L 43.5 28.515625 
Q 43.5 37.59375 41.9375 40.203125 
Q 40.375 42.828125 36.375 42.828125 
Q 31.34375 42.828125 28.609375 38.703125 
Q 25.875 34.578125 25.875 26.90625 
L 25.875 0 
L 8.296875 0 
L 8.296875 54.6875 
L 25.875 54.6875 
L 25.875 46.6875 
Q 29.109375 51.3125 33.28125 53.65625 
Q 37.453125 56 42.484375 56 
Q 48.140625 56 52.484375 53.265625 
Q 56.84375 50.53125 59.078125 45.609375 
z
" id="DejaVuSans-Bold-109"/>
      <path d="M 8.40625 75.984375 
L 25.875 75.984375 
L 25.875 0 
L 8.40625 0 
z
" id="DejaVuSans-Bold-108"/>
      <path d="M 8.015625 -13.1875 
Q 14.265625 -1.5625 17.390625 9.515625 
Q 20.515625 20.609375 20.515625 31.390625 
Q 20.515625 42.1875 17.390625 53.25 
Q 14.265625 64.3125 8.015625 75.875 
L 22.515625 75.875 
Q 29.9375 63.921875 33.515625 52.953125 
Q 37.109375 42 37.109375 31.296875 
Q 37.109375 20.609375 33.546875 9.734375 
Q 29.984375 -1.125 22.515625 -13.1875 
z
" id="DejaVuSans-Bold-41"/>
     </defs>
     <g transform="translate(83.895391 141.637969)scale(0.07 -0.07)">
      <use xlink:href="#DejaVuSans-Bold-69"/>
      <use x="68.310547" xlink:href="#DejaVuSans-Bold-117"/>
      <use x="139.501953" xlink:href="#DejaVuSans-Bold-32"/>
      <use x="174.316406" xlink:href="#DejaVuSans-Bold-66"/>
      <use x="250.537109" xlink:href="#DejaVuSans-Bold-105"/>
      <use x="284.814453" xlink:href="#DejaVuSans-Bold-111"/>
      <use x="353.515625" xlink:href="#DejaVuSans-Bold-115"/>
      <use x="413.037109" xlink:href="#DejaVuSans-Bold-111"/>
      <use x="481.738281" xlink:href="#DejaVuSans-Bold-114"/>
      <use x="531.054688" xlink:href="#DejaVuSans-Bold-112"/>
      <use x="602.636719" xlink:href="#DejaVuSans-Bold-116"/>
      <use x="650.439453" xlink:href="#DejaVuSans-Bold-105"/>
      <use x="684.716797" xlink:href="#DejaVuSans-Bold-111"/>
      <use x="753.417969" xlink:href="#DejaVuSans-Bold-110"/>
      <use x="824.609375" xlink:href="#DejaVuSans-Bold-32"/>
      <use x="859.423828" xlink:href="#DejaVuSans-Bold-40"/>
      <use x="905.126953" xlink:href="#DejaVuSans-Bold-110"/>
      <use x="976.318359" xlink:href="#DejaVuSans-Bold-109"/>
      <use x="1080.517578" xlink:href="#DejaVuSans-Bold-111"/>
      <use x="1149.21875" xlink:href="#DejaVuSans-Bold-108"/>
      <use x="1183.496094" xlink:href="#DejaVuSans-Bold-115"/>
      <use x="1243.017578" xlink:href="#DejaVuSans-Bold-41"/>
     </g>
    </g>
   </g>
   <g id="matplotlib.axis_2">
    <g id="ytick_1">
     <g id="line2d_7">
      <path clip-path="url(#pdf9bd8ebb7)" d="M 25 103.015533 
L 233 103.015533 
" style="fill:none;stroke:#b0b0b0;stroke-dasharray:2.96,1.28;stroke-dashoffset:0;stroke-width:0.8;"/>
     </g>
     <g id="line2d_8">
      <defs>
       <path d="M 0 0 
L -3 0 
" id="m037f175a97" style="stroke:#000000;stroke-width:0.8;"/>
      </defs>
      <g>
       <use style="stroke:#000000;stroke-width:0.8;" x="25" xlink:href="#m037f175a97" y="103.015533"/>
      </g>
     </g>
     <g id="text_5">
      <!-- 10 -->
      <defs>
       <path d="M 31.78125 66.40625 
Q 24.171875 66.40625 20.328125 58.90625 
Q 16.5 51.421875 16.5 36.375 
Q 16.5 21.390625 20.328125 13.890625 
Q 24.171875 6.390625 31.78125 6.390625 
Q 39.453125 6.390625 43.28125 13.890625 
Q 47.125 21.390625 47.125 36.375 
Q 47.125 51.421875 43.28125 58.90625 
Q 39.453125 66.40625 31.78125 66.40625 
z
M 31.78125 74.21875 
Q 44.046875 74.21875 50.515625 64.515625 
Q 56.984375 54.828125 56.984375 36.375 
Q 56.984375 17.96875 50.515625 8.265625 
Q 44.046875 -1.421875 31.78125 -1.421875 
Q 19.53125 -1.421875 13.0625 8.265625 
Q 6.59375 17.96875 6.59375 36.375 
Q 6.59375 54.828125 13.0625 64.515625 
Q 19.53125 74.21875 31.78125 74.21875 
z
" id="DejaVuSans-48"/>
      </defs>
      <g transform="translate(12.1375 104.915142)scale(0.05 -0.05)">
       <use xlink:href="#DejaVuSans-49"/>
       <use x="63.623047" xlink:href="#DejaVuSans-48"/>
      </g>
     </g>
    </g>
    <g id="ytick_2">
     <g id="line2d_9">
      <path clip-path="url(#pdf9bd8ebb7)" d="M 25 71.807443 
L 233 71.807443 
" style="fill:none;stroke:#b0b0b0;stroke-dasharray:2.96,1.28;stroke-dashoffset:0;stroke-width:0.8;"/>
     </g>
     <g id="line2d_10">
      <g>
       <use style="stroke:#000000;stroke-width:0.8;" x="25" xlink:href="#m037f175a97" y="71.807443"/>
      </g>
     </g>
     <g id="text_6">
      <!-- 12 -->
      <g transform="translate(12.1375 73.707053)scale(0.05 -0.05)">
       <use xlink:href="#DejaVuSans-49"/>
       <use x="63.623047" xlink:href="#DejaVuSans-50"/>
      </g>
     </g>
    </g>
    <g id="ytick_3">
     <g id="line2d_11">
      <path clip-path="url(#pdf9bd8ebb7)" d="M 25 40.599354 
L 233 40.599354 
" style="fill:none;stroke:#b0b0b0;stroke-dasharray:2.96,1.28;stroke-dashoffset:0;stroke-width:0.8;"/>
     </g>
     <g id="line2d_12">
      <g>
       <use style="stroke:#000000;stroke-width:0.8;" x="25" xlink:href="#m037f175a97" y="40.599354"/>
      </g>
     </g>
     <g id="text_7">
      <!-- 14 -->
      <g transform="translate(12.1375 42.498964)scale(0.05 -0.05)">
       <use xlink:href="#DejaVuSans-49"/>
       <use x="63.623047" xlink:href="#DejaVuSans-52"/>
      </g>
     </g>
    </g>
    <g id="text_8">
     <!-- Yb Biosorption (nmols) -->
     <defs>
      <path d="M -0.984375 72.90625 
L 19.578125 72.90625 
L 36.1875 46.921875 
L 52.78125 72.90625 
L 73.390625 72.90625 
L 45.609375 30.71875 
L 45.609375 0 
L 26.8125 0 
L 26.8125 30.71875 
z
" id="DejaVuSans-Bold-89"/>
      <path d="M 37.5 11.28125 
Q 43.109375 11.28125 46.0625 15.375 
Q 49.03125 19.484375 49.03125 27.296875 
Q 49.03125 35.109375 46.0625 39.203125 
Q 43.109375 43.3125 37.5 43.3125 
Q 31.890625 43.3125 28.875 39.1875 
Q 25.875 35.0625 25.875 27.296875 
Q 25.875 19.53125 28.875 15.40625 
Q 31.890625 11.28125 37.5 11.28125 
z
M 25.875 46.6875 
Q 29.5 51.46875 33.890625 53.734375 
Q 38.28125 56 44 56 
Q 54.109375 56 60.59375 47.96875 
Q 67.09375 39.9375 67.09375 27.296875 
Q 67.09375 14.65625 60.59375 6.609375 
Q 54.109375 -1.421875 44 -1.421875 
Q 38.28125 -1.421875 33.890625 0.84375 
Q 29.5 3.125 25.875 7.90625 
L 25.875 0 
L 8.40625 0 
L 8.40625 75.984375 
L 25.875 75.984375 
z
" id="DejaVuSans-Bold-98"/>
     </defs>
     <g transform="translate(6.681719 112.131563)rotate(-90)scale(0.07 -0.07)">
      <use xlink:href="#DejaVuSans-Bold-89"/>
      <use x="72.412109" xlink:href="#DejaVuSans-Bold-98"/>
      <use x="143.994141" xlink:href="#DejaVuSans-Bold-32"/>
      <use x="178.808594" xlink:href="#DejaVuSans-Bold-66"/>
      <use x="255.029297" xlink:href="#DejaVuSans-Bold-105"/>
      <use x="289.306641" xlink:href="#DejaVuSans-Bold-111"/>
      <use x="358.007812" xlink:href="#DejaVuSans-Bold-115"/>
      <use x="417.529297" xlink:href="#DejaVuSans-Bold-111"/>
      <use x="486.230469" xlink:href="#DejaVuSans-Bold-114"/>
      <use x="535.546875" xlink:href="#DejaVuSans-Bold-112"/>
      <use x="607.128906" xlink:href="#DejaVuSans-Bold-116"/>
      <use x="654.931641" xlink:href="#DejaVuSans-Bold-105"/>
      <use x="689.208984" xlink:href="#DejaVuSans-Bold-111"/>
      <use x="757.910156" xlink:href="#DejaVuSans-Bold-110"/>
      <use x="829.101562" xlink:href="#DejaVuSans-Bold-32"/>
      <use x="863.916016" xlink:href="#DejaVuSans-Bold-40"/>
      <use x="909.619141" xlink:href="#DejaVuSans-Bold-110"/>
      <use x="980.810547" xlink:href="#DejaVuSans-Bold-109"/>
      <use x="1085.009766" xlink:href="#DejaVuSans-Bold-111"/>
      <use x="1153.710938" xlink:href="#DejaVuSans-Bold-108"/>
      <use x="1187.988281" xlink:href="#DejaVuSans-Bold-115"/>
      <use x="1247.509766" xlink:href="#DejaVuSans-Bold-41"/>
     </g>
    </g>
   </g>
   <g id="line2d_13">
    <path clip-path="url(#pdf9bd8ebb7)" d="M 76.516774 94.036578 
L 106.29523 83.700584 
" style="fill:none;stroke:#000000;stroke-linecap:square;stroke-opacity:0.1;stroke-width:1.5;"/>
   </g>
   <g id="line2d_14">
    <path clip-path="url(#pdf9bd8ebb7)" d="M 93.622834 90.16863 
L 89.189171 87.568532 
" style="fill:none;stroke:#000000;stroke-linecap:square;stroke-opacity:0.1;stroke-width:1.5;"/>
   </g>
   <g id="line2d_15">
    <path clip-path="url(#pdf9bd8ebb7)" d="M 166.880592 56.731324 
L 175.472269 58.788425 
" style="fill:none;stroke:#000000;stroke-linecap:square;stroke-opacity:0.1;stroke-width:1.5;"/>
   </g>
   <g id="line2d_16">
    <path clip-path="url(#pdf9bd8ebb7)" d="M 163.468343 64.312963 
L 178.884518 51.206786 
" style="fill:none;stroke:#000000;stroke-linecap:square;stroke-opacity:0.1;stroke-width:1.5;"/>
   </g>
   <g id="line2d_17">
    <path clip-path="url(#pdf9bd8ebb7)" d="M 147.547602 65.500019 
L 148.461385 65.681606 
" style="fill:none;stroke:#000000;stroke-linecap:square;stroke-opacity:0.1;stroke-width:1.5;"/>
   </g>
   <g id="line2d_18">
    <path clip-path="url(#pdf9bd8ebb7)" d="M 142.770484 70.952095 
L 153.238502 60.22953 
" style="fill:none;stroke:#000000;stroke-linecap:square;stroke-opacity:0.1;stroke-width:1.5;"/>
   </g>
   <g id="line2d_19">
    <path clip-path="url(#pdf9bd8ebb7)" d="M 95.520253 93.821652 
L 114.0688 87.438888 
" style="fill:none;stroke:#000000;stroke-linecap:square;stroke-opacity:0.1;stroke-width:1.5;"/>
   </g>
   <g id="line2d_20">
    <path clip-path="url(#pdf9bd8ebb7)" d="M 105.437003 91.010315 
L 104.15205 90.250224 
" style="fill:none;stroke:#000000;stroke-linecap:square;stroke-opacity:0.1;stroke-width:1.5;"/>
   </g>
   <g id="line2d_21">
    <path clip-path="url(#pdf9bd8ebb7)" d="M 50.883886 113.477345 
L 63.144557 114.449886 
" style="fill:none;stroke:#000000;stroke-linecap:square;stroke-opacity:0.1;stroke-width:1.5;"/>
   </g>
   <g id="line2d_22">
    <path clip-path="url(#pdf9bd8ebb7)" d="M 56.394942 115.552784 
L 57.6335 112.374447 
" style="fill:none;stroke:#000000;stroke-linecap:square;stroke-opacity:0.1;stroke-width:1.5;"/>
   </g>
   <g id="line2d_23">
    <path clip-path="url(#pdf9bd8ebb7)" d="M 218.918837 20.047252 
L 219.627736 20.294644 
" style="fill:none;stroke:#000000;stroke-linecap:square;stroke-opacity:0.1;stroke-width:1.5;"/>
   </g>
   <g id="line2d_24">
    <path clip-path="url(#pdf9bd8ebb7)" d="M 215.001119 22.662805 
L 223.545455 17.679091 
" style="fill:none;stroke:#000000;stroke-linecap:square;stroke-opacity:0.1;stroke-width:1.5;"/>
   </g>
   <g id="line2d_25">
    <path clip-path="url(#pdf9bd8ebb7)" d="M 161.426219 61.472389 
L 176.700532 57.216543 
" style="fill:none;stroke:#000000;stroke-linecap:square;stroke-opacity:0.1;stroke-width:1.5;"/>
   </g>
   <g id="line2d_26">
    <path clip-path="url(#pdf9bd8ebb7)" d="M 170.124726 60.119841 
L 168.002025 58.569091 
" style="fill:none;stroke:#000000;stroke-linecap:square;stroke-opacity:0.1;stroke-width:1.5;"/>
   </g>
   <g id="line2d_27">
    <path clip-path="url(#pdf9bd8ebb7)" d="M 134.844514 79.010937 
L 136.905983 79.917341 
" style="fill:none;stroke:#000000;stroke-linecap:square;stroke-opacity:0.1;stroke-width:1.5;"/>
   </g>
   <g id="line2d_28">
    <path clip-path="url(#pdf9bd8ebb7)" d="M 123.011069 85.419588 
L 148.739429 73.508691 
" style="fill:none;stroke:#000000;stroke-linecap:square;stroke-opacity:0.1;stroke-width:1.5;"/>
   </g>
   <g id="line2d_29">
    <path clip-path="url(#pdf9bd8ebb7)" d="M 108.25854 87.689879 
L 128.87853 82.793685 
" style="fill:none;stroke:#000000;stroke-linecap:square;stroke-opacity:0.1;stroke-width:1.5;"/>
   </g>
   <g id="line2d_30">
    <path clip-path="url(#pdf9bd8ebb7)" d="M 118.738016 85.38707 
L 118.399054 85.096495 
" style="fill:none;stroke:#000000;stroke-linecap:square;stroke-opacity:0.1;stroke-width:1.5;"/>
   </g>
   <g id="line2d_31">
    <path clip-path="url(#pdf9bd8ebb7)" d="M 68.421338 106.060747 
L 81.327179 101.979474 
" style="fill:none;stroke:#000000;stroke-linecap:square;stroke-opacity:0.1;stroke-width:1.5;"/>
   </g>
   <g id="line2d_32">
    <path clip-path="url(#pdf9bd8ebb7)" d="M 75.328293 104.312362 
L 74.420223 103.727859 
" style="fill:none;stroke:#000000;stroke-linecap:square;stroke-opacity:0.1;stroke-width:1.5;"/>
   </g>
   <g id="line2d_33">
    <path clip-path="url(#pdf9bd8ebb7)" d="M 133.283143 68.547612 
L 135.746427 69.482474 
" style="fill:none;stroke:#000000;stroke-linecap:square;stroke-opacity:0.1;stroke-width:1.5;"/>
   </g>
   <g id="line2d_34">
    <path clip-path="url(#pdf9bd8ebb7)" d="M 118.734136 77.478908 
L 150.295434 60.551178 
" style="fill:none;stroke:#000000;stroke-linecap:square;stroke-opacity:0.1;stroke-width:1.5;"/>
   </g>
   <g id="line2d_35">
    <path clip-path="url(#pdf9bd8ebb7)" d="M 97.196672 82.391644 
L 99.104876 82.953293 
" style="fill:none;stroke:#000000;stroke-linecap:square;stroke-opacity:0.1;stroke-width:1.5;"/>
   </g>
   <g id="line2d_36">
    <path clip-path="url(#pdf9bd8ebb7)" d="M 93.413693 85.948495 
L 102.887856 79.396442 
" style="fill:none;stroke:#000000;stroke-linecap:square;stroke-opacity:0.1;stroke-width:1.5;"/>
   </g>
   <g id="line2d_37">
    <path clip-path="url(#pdf9bd8ebb7)" d="M 104.96579 76.496655 
L 109.377535 78.452883 
" style="fill:none;stroke:#000000;stroke-linecap:square;stroke-opacity:0.1;stroke-width:1.5;"/>
   </g>
   <g id="line2d_38">
    <path clip-path="url(#pdf9bd8ebb7)" d="M 90.279998 85.229033 
L 124.063328 69.720504 
" style="fill:none;stroke:#000000;stroke-linecap:square;stroke-opacity:0.1;stroke-width:1.5;"/>
   </g>
   <g id="line2d_39">
    <path clip-path="url(#pdf9bd8ebb7)" d="M 80.107124 86.622999 
L 87.323014 89.238418 
" style="fill:none;stroke:#000000;stroke-linecap:square;stroke-opacity:0.1;stroke-width:1.5;"/>
   </g>
   <g id="line2d_40">
    <path clip-path="url(#pdf9bd8ebb7)" d="M 76.149824 92.179336 
L 91.280313 83.682081 
" style="fill:none;stroke:#000000;stroke-linecap:square;stroke-opacity:0.1;stroke-width:1.5;"/>
   </g>
   <g id="line2d_41">
    <path clip-path="url(#pdf9bd8ebb7)" d="M 34.454545 110.008499 
L 68.803497 95.886942 
" style="fill:none;stroke:#000000;stroke-linecap:square;stroke-opacity:0.1;stroke-width:1.5;"/>
   </g>
   <g id="line2d_42">
    <path clip-path="url(#pdf9bd8ebb7)" d="M 56.24158 105.231478 
L 47.016463 100.663963 
" style="fill:none;stroke:#000000;stroke-linecap:square;stroke-opacity:0.1;stroke-width:1.5;"/>
   </g>
   <g id="line2d_43">
    <path clip-path="url(#pdf9bd8ebb7)" d="M 45.47931 101.866686 
L 64.202741 97.845132 
" style="fill:none;stroke:#000000;stroke-linecap:square;stroke-opacity:0.1;stroke-width:1.5;"/>
   </g>
   <g id="line2d_44">
    <path clip-path="url(#pdf9bd8ebb7)" d="M 55.13 100.129769 
L 54.55205 99.582049 
" style="fill:none;stroke:#000000;stroke-linecap:square;stroke-opacity:0.1;stroke-width:1.5;"/>
   </g>
   <g id="line2d_45">
    <path clip-path="url(#pdf9bd8ebb7)" d="M 96.107375 79.860387 
L 118.645081 77.807328 
" style="fill:none;stroke:#000000;stroke-linecap:square;stroke-opacity:0.1;stroke-width:1.5;"/>
   </g>
   <g id="line2d_46">
    <path clip-path="url(#pdf9bd8ebb7)" d="M 107.470794 79.045167 
L 107.281663 78.622547 
" style="fill:none;stroke:#000000;stroke-linecap:square;stroke-opacity:0.1;stroke-width:1.5;"/>
   </g>
   <g id="line2d_47">
    <path clip-path="url(#pdf9bd8ebb7)" d="M 88.542194 89.384562 
L 90.670001 89.266197 
" style="fill:none;stroke:#000000;stroke-linecap:square;stroke-opacity:0.1;stroke-width:1.5;"/>
   </g>
   <g id="line2d_48">
    <path clip-path="url(#pdf9bd8ebb7)" d="M 90.603029 92.973345 
L 88.609166 85.677413 
" style="fill:none;stroke:#000000;stroke-linecap:square;stroke-opacity:0.1;stroke-width:1.5;"/>
   </g>
   <g id="line2d_49">
    <path clip-path="url(#pdf9bd8ebb7)" d="M 82.526413 84.875607 
L 101.606583 76.728808 
" style="fill:none;stroke:#000000;stroke-linecap:square;stroke-opacity:0.1;stroke-width:1.5;"/>
   </g>
   <g id="line2d_50">
    <path clip-path="url(#pdf9bd8ebb7)" d="M 92.850116 81.175781 
L 91.28288 80.428633 
" style="fill:none;stroke:#000000;stroke-linecap:square;stroke-opacity:0.1;stroke-width:1.5;"/>
   </g>
   <g id="line2d_51">
    <path clip-path="url(#pdf9bd8ebb7)" d="M 97.58191 82.302005 
L 103.596866 82.849223 
" style="fill:none;stroke:#000000;stroke-linecap:square;stroke-opacity:0.1;stroke-width:1.5;"/>
   </g>
   <g id="line2d_52">
    <path clip-path="url(#pdf9bd8ebb7)" d="M 99.742246 84.471031 
L 101.436529 80.680196 
" style="fill:none;stroke:#000000;stroke-linecap:square;stroke-opacity:0.1;stroke-width:1.5;"/>
   </g>
   <g id="line2d_53">
    <path clip-path="url(#pdf9bd8ebb7)" d="M 93.049205 82.375497 
L 104.134603 82.449404 
" style="fill:none;stroke:#000000;stroke-linecap:square;stroke-opacity:0.1;stroke-width:1.5;"/>
   </g>
   <g id="line2d_54">
    <path clip-path="url(#pdf9bd8ebb7)" d="M 98.572424 83.007186 
L 98.611384 81.817715 
" style="fill:none;stroke:#000000;stroke-linecap:square;stroke-opacity:0.1;stroke-width:1.5;"/>
   </g>
   <g id="line2d_55">
    <path clip-path="url(#pdf9bd8ebb7)" d="M 180.235897 53.812342 
L 194.701185 49.086149 
" style="fill:none;stroke:#000000;stroke-linecap:square;stroke-opacity:0.1;stroke-width:1.5;"/>
   </g>
   <g id="line2d_56">
    <path clip-path="url(#pdf9bd8ebb7)" d="M 187.783148 51.645248 
L 187.153934 51.253243 
" style="fill:none;stroke:#000000;stroke-linecap:square;stroke-opacity:0.1;stroke-width:1.5;"/>
   </g>
   <g id="line2d_57">
    <path clip-path="url(#pdf9bd8ebb7)" d="M 148.036175 68.363762 
L 172.558765 59.456011 
" style="fill:none;stroke:#000000;stroke-linecap:square;stroke-opacity:0.1;stroke-width:1.5;"/>
   </g>
   <g id="line2d_58">
    <path clip-path="url(#pdf9bd8ebb7)" d="M 160.788622 64.185113 
L 159.806319 63.634659 
" style="fill:none;stroke:#000000;stroke-linecap:square;stroke-opacity:0.1;stroke-width:1.5;"/>
   </g>
   <g id="line2d_59">
    <path clip-path="url(#pdf9bd8ebb7)" d="M 196.48065 42.593606 
L 197.439169 43.016792 
" style="fill:none;stroke:#000000;stroke-linecap:square;stroke-opacity:0.1;stroke-width:1.5;"/>
   </g>
   <g id="line2d_60">
    <path clip-path="url(#pdf9bd8ebb7)" d="M 184.91039 48.360612 
L 209.009429 37.249786 
" style="fill:none;stroke:#000000;stroke-linecap:square;stroke-opacity:0.1;stroke-width:1.5;"/>
   </g>
   <g id="line2d_61">
    <path clip-path="url(#pdf9bd8ebb7)" d="M 146.011716 64.658699 
L 149.596404 66.163564 
" style="fill:none;stroke:#000000;stroke-linecap:square;stroke-opacity:0.1;stroke-width:1.5;"/>
   </g>
   <g id="line2d_62">
    <path clip-path="url(#pdf9bd8ebb7)" d="M 137.174873 70.564973 
L 158.433248 60.25729 
" style="fill:none;stroke:#000000;stroke-linecap:square;stroke-opacity:0.1;stroke-width:1.5;"/>
   </g>
   <g id="line2d_63">
    <path clip-path="url(#pdf9bd8ebb7)" d="M 159.6671 60.926656 
L 163.84217 62.113738 
" style="fill:none;stroke:#000000;stroke-linecap:square;stroke-opacity:0.1;stroke-width:1.5;"/>
   </g>
   <g id="line2d_64">
    <path clip-path="url(#pdf9bd8ebb7)" d="M 156.569509 65.232294 
L 166.939761 57.8081 
" style="fill:none;stroke:#000000;stroke-linecap:square;stroke-opacity:0.1;stroke-width:1.5;"/>
   </g>
   <g id="line2d_65">
    <path clip-path="url(#pdf9bd8ebb7)" d="M 147.00427 67.29527 
L 147.204328 67.366004 
" style="fill:none;stroke:#000000;stroke-linecap:square;stroke-opacity:0.1;stroke-width:1.5;"/>
   </g>
   <g id="line2d_66">
    <path clip-path="url(#pdf9bd8ebb7)" d="M 141.072229 70.803361 
L 153.136369 63.857913 
" style="fill:none;stroke:#000000;stroke-linecap:square;stroke-opacity:0.1;stroke-width:1.5;"/>
   </g>
   <g id="line2d_67">
    <path clip-path="url(#pdf9bd8ebb7)" d="M 133.641102 72.79028 
L 134.565819 73.207336 
" style="fill:none;stroke:#000000;stroke-linecap:square;stroke-opacity:0.1;stroke-width:1.5;"/>
   </g>
   <g id="line2d_68">
    <path clip-path="url(#pdf9bd8ebb7)" d="M 127.877346 75.808819 
L 140.329574 70.188796 
" style="fill:none;stroke:#000000;stroke-linecap:square;stroke-opacity:0.1;stroke-width:1.5;"/>
   </g>
   <g id="line2d_69">
    <path clip-path="url(#pdf9bd8ebb7)" d="M 113.234344 77.850068 
L 118.064259 79.33976 
" style="fill:none;stroke:#000000;stroke-linecap:square;stroke-opacity:0.1;stroke-width:1.5;"/>
   </g>
   <g id="line2d_70">
    <path clip-path="url(#pdf9bd8ebb7)" d="M 108.709359 83.175026 
L 122.589243 74.014802 
" style="fill:none;stroke:#000000;stroke-linecap:square;stroke-opacity:0.1;stroke-width:1.5;"/>
   </g>
   <g id="line2d_71">
    <path clip-path="url(#pdf9bd8ebb7)" d="M 134.844514 79.010937 
L 136.905983 79.917341 
" style="fill:none;stroke:#ff0000;stroke-linecap:square;stroke-width:1.5;"/>
   </g>
   <g id="line2d_72">
    <path clip-path="url(#pdf9bd8ebb7)" d="M 123.011069 85.419588 
L 148.739429 73.508691 
" style="fill:none;stroke:#ff0000;stroke-linecap:square;stroke-width:1.5;"/>
   </g>
   <g id="line2d_73">
    <path clip-path="url(#pdf9bd8ebb7)" d="M 108.25854 87.689879 
L 128.87853 82.793685 
" style="fill:none;stroke:#008000;stroke-linecap:square;stroke-width:1.5;"/>
   </g>
   <g id="line2d_74">
    <path clip-path="url(#pdf9bd8ebb7)" d="M 118.738016 85.38707 
L 118.399054 85.096495 
" style="fill:none;stroke:#008000;stroke-linecap:square;stroke-width:1.5;"/>
   </g>
   <g id="line2d_75">
    <path clip-path="url(#pdf9bd8ebb7)" d="M 95.520253 93.821652 
L 114.0688 87.438888 
" style="fill:none;stroke:#0000ff;stroke-linecap:square;stroke-width:1.5;"/>
   </g>
   <g id="line2d_76">
    <path clip-path="url(#pdf9bd8ebb7)" d="M 105.437003 91.010315 
L 104.15205 90.250224 
" style="fill:none;stroke:#0000ff;stroke-linecap:square;stroke-width:1.5;"/>
   </g>
   <g id="line2d_77">
    <path clip-path="url(#pdf9bd8ebb7)" d="M 50.883886 113.477345 
L 63.144557 114.449886 
" style="fill:none;stroke:#bfbf00;stroke-linecap:square;stroke-width:1.5;"/>
   </g>
   <g id="line2d_78">
    <path clip-path="url(#pdf9bd8ebb7)" d="M 56.394942 115.552784 
L 57.6335 112.374447 
" style="fill:none;stroke:#bfbf00;stroke-linecap:square;stroke-width:1.5;"/>
   </g>
   <g id="line2d_79">
    <path clip-path="url(#pdf9bd8ebb7)" d="M 42.623022 106.077797 
L 44.272599 105.438895 
L 45.922176 104.799993 
L 47.571753 104.161091 
L 49.22133 103.522189 
L 50.870908 102.883287 
L 52.520485 102.244385 
L 54.170062 101.605482 
L 55.819639 100.96658 
L 57.469216 100.327678 
L 59.118793 99.688776 
L 60.76837 99.049874 
L 62.417947 98.410972 
L 64.067525 97.77207 
L 65.717102 97.133167 
L 67.366679 96.494265 
L 69.016256 95.855363 
L 70.665833 95.216461 
L 72.31541 94.577559 
L 73.964987 93.938657 
L 75.614564 93.299755 
L 77.264142 92.660852 
L 78.913719 92.02195 
L 80.563296 91.383048 
L 82.212873 90.744146 
L 83.86245 90.105244 
L 85.512027 89.466342 
L 87.161604 88.82744 
L 88.811181 88.188538 
L 90.460759 87.549635 
L 92.110336 86.910733 
L 93.759913 86.271831 
L 95.40949 85.632929 
L 97.059067 84.994027 
L 98.708644 84.355125 
L 100.358221 83.716223 
L 102.007798 83.07732 
L 103.657376 82.438418 
L 105.306953 81.799516 
L 106.95653 81.160614 
L 108.606107 80.521712 
L 110.255684 79.88281 
L 111.905261 79.243908 
L 113.554838 78.605005 
L 115.204415 77.966103 
L 116.853993 77.327201 
L 118.50357 76.688299 
L 120.153147 76.049397 
L 121.802724 75.410495 
L 123.452301 74.771593 
L 125.101878 74.132691 
L 126.751455 73.493788 
L 128.401032 72.854886 
L 130.05061 72.215984 
L 131.700187 71.577082 
L 133.349764 70.93818 
L 134.999341 70.299278 
L 136.648918 69.660376 
L 138.298495 69.021473 
L 139.948072 68.382571 
L 141.597649 67.743669 
L 143.247227 67.104767 
L 144.896804 66.465865 
L 146.546381 65.826963 
L 148.195958 65.188061 
L 149.845535 64.549158 
L 151.495112 63.910256 
L 153.144689 63.271354 
L 154.794266 62.632452 
L 156.443844 61.99355 
L 158.093421 61.354648 
L 159.742998 60.715746 
L 161.392575 60.076843 
L 163.042152 59.437941 
L 164.691729 58.799039 
L 166.341306 58.160137 
L 167.990883 57.521235 
L 169.640461 56.882333 
L 171.290038 56.243431 
L 172.939615 55.604529 
L 174.589192 54.965626 
L 176.238769 54.326724 
L 177.888346 53.687822 
L 179.537923 53.04892 
L 181.1875 52.410018 
L 182.837078 51.771116 
L 184.486655 51.132214 
L 186.136232 50.493311 
L 187.785809 49.854409 
L 189.435386 49.215507 
L 191.084963 48.576605 
L 192.73454 47.937703 
L 194.384117 47.298801 
L 196.033695 46.659899 
L 197.683272 46.020996 
L 199.332849 45.382094 
L 200.982426 44.743192 
L 202.632003 44.10429 
L 204.28158 43.465388 
L 205.931157 42.826486 
" style="fill:none;stroke:#000000;stroke-dasharray:5.55,2.4;stroke-dashoffset:0;stroke-width:1.5;"/>
   </g>
   <g id="patch_3">
    <path d="M 25 120.98 
L 25 12.76 
" style="fill:none;stroke:#000000;stroke-linecap:square;stroke-linejoin:miter;stroke-width:0.8;"/>
   </g>
   <g id="patch_4">
    <path d="M 233 120.98 
L 233 12.76 
" style="fill:none;stroke:#000000;stroke-linecap:square;stroke-linejoin:miter;stroke-width:0.8;"/>
   </g>
   <g id="patch_5">
    <path d="M 25 120.98 
L 233 120.98 
" style="fill:none;stroke:#000000;stroke-linecap:square;stroke-linejoin:miter;stroke-width:0.8;"/>
   </g>
   <g id="patch_6">
    <path d="M 25 12.76 
L 233 12.76 
" style="fill:none;stroke:#000000;stroke-linecap:square;stroke-linejoin:miter;stroke-width:0.8;"/>
   </g>
   <g id="text_9">
    <!-- C: -->
    <defs>
     <path d="M 67 4 
Q 61.8125 1.3125 56.203125 -0.046875 
Q 50.59375 -1.421875 44.484375 -1.421875 
Q 26.265625 -1.421875 15.625 8.765625 
Q 4.984375 18.953125 4.984375 36.375 
Q 4.984375 53.859375 15.625 64.03125 
Q 26.265625 74.21875 44.484375 74.21875 
Q 50.59375 74.21875 56.203125 72.84375 
Q 61.8125 71.484375 67 68.796875 
L 67 53.71875 
Q 61.765625 57.28125 56.6875 58.9375 
Q 51.609375 60.59375 46 60.59375 
Q 35.9375 60.59375 30.171875 54.140625 
Q 24.421875 47.703125 24.421875 36.375 
Q 24.421875 25.09375 30.171875 18.640625 
Q 35.9375 12.203125 46 12.203125 
Q 51.609375 12.203125 56.6875 13.859375 
Q 61.765625 15.53125 67 19.09375 
z
" id="DejaVuSans-Bold-67"/>
     <path d="M 11.1875 54.6875 
L 28.8125 54.6875 
L 28.8125 35.796875 
L 11.1875 35.796875 
z
M 11.1875 18.890625 
L 28.8125 18.890625 
L 28.8125 0 
L 11.1875 0 
z
" id="DejaVuSans-Bold-58"/>
    </defs>
    <g transform="translate(125.031875 6.76)scale(0.07 -0.07)">
     <use xlink:href="#DejaVuSans-Bold-67"/>
     <use x="73.388672" xlink:href="#DejaVuSans-Bold-58"/>
    </g>
   </g>
   <g id="legend_1">
    <g id="patch_7">
     <path d="M 28.5 53.477188 
L 77.6125 53.477188 
Q 78.6125 53.477188 78.6125 52.477188 
L 78.6125 16.26 
Q 78.6125 15.26 77.6125 15.26 
L 28.5 15.26 
Q 27.5 15.26 27.5 16.26 
L 27.5 52.477188 
Q 27.5 53.477188 28.5 53.477188 
z
" style="fill:#ffffff;opacity:0.8;stroke:#cccccc;stroke-linejoin:miter;"/>
    </g>
    <g id="line2d_80">
     <path d="M 29.5 19.309219 
L 39.5 19.309219 
" style="fill:none;stroke:#000000;stroke-dasharray:5.55,2.4;stroke-dashoffset:0;stroke-width:1.5;"/>
    </g>
    <g id="line2d_81"/>
    <g id="text_10">
     <!-- best fit curve -->
     <defs>
      <path d="M 48.6875 27.296875 
Q 48.6875 37.203125 44.609375 42.84375 
Q 40.53125 48.484375 33.40625 48.484375 
Q 26.265625 48.484375 22.1875 42.84375 
Q 18.109375 37.203125 18.109375 27.296875 
Q 18.109375 17.390625 22.1875 11.75 
Q 26.265625 6.109375 33.40625 6.109375 
Q 40.53125 6.109375 44.609375 11.75 
Q 48.6875 17.390625 48.6875 27.296875 
z
M 18.109375 46.390625 
Q 20.953125 51.265625 25.265625 53.625 
Q 29.59375 56 35.59375 56 
Q 45.5625 56 51.78125 48.09375 
Q 58.015625 40.1875 58.015625 27.296875 
Q 58.015625 14.40625 51.78125 6.484375 
Q 45.5625 -1.421875 35.59375 -1.421875 
Q 29.59375 -1.421875 25.265625 0.953125 
Q 20.953125 3.328125 18.109375 8.203125 
L 18.109375 0 
L 9.078125 0 
L 9.078125 75.984375 
L 18.109375 75.984375 
z
" id="DejaVuSans-98"/>
      <path d="M 56.203125 29.59375 
L 56.203125 25.203125 
L 14.890625 25.203125 
Q 15.484375 15.921875 20.484375 11.0625 
Q 25.484375 6.203125 34.421875 6.203125 
Q 39.59375 6.203125 44.453125 7.46875 
Q 49.3125 8.734375 54.109375 11.28125 
L 54.109375 2.78125 
Q 49.265625 0.734375 44.1875 -0.34375 
Q 39.109375 -1.421875 33.890625 -1.421875 
Q 20.796875 -1.421875 13.15625 6.1875 
Q 5.515625 13.8125 5.515625 26.8125 
Q 5.515625 40.234375 12.765625 48.109375 
Q 20.015625 56 32.328125 56 
Q 43.359375 56 49.78125 48.890625 
Q 56.203125 41.796875 56.203125 29.59375 
z
M 47.21875 32.234375 
Q 47.125 39.59375 43.09375 43.984375 
Q 39.0625 48.390625 32.421875 48.390625 
Q 24.90625 48.390625 20.390625 44.140625 
Q 15.875 39.890625 15.1875 32.171875 
z
" id="DejaVuSans-101"/>
      <path d="M 44.28125 53.078125 
L 44.28125 44.578125 
Q 40.484375 46.53125 36.375 47.5 
Q 32.28125 48.484375 27.875 48.484375 
Q 21.1875 48.484375 17.84375 46.4375 
Q 14.5 44.390625 14.5 40.28125 
Q 14.5 37.15625 16.890625 35.375 
Q 19.28125 33.59375 26.515625 31.984375 
L 29.59375 31.296875 
Q 39.15625 29.25 43.1875 25.515625 
Q 47.21875 21.78125 47.21875 15.09375 
Q 47.21875 7.46875 41.1875 3.015625 
Q 35.15625 -1.421875 24.609375 -1.421875 
Q 20.21875 -1.421875 15.453125 -0.5625 
Q 10.6875 0.296875 5.421875 2 
L 5.421875 11.28125 
Q 10.40625 8.6875 15.234375 7.390625 
Q 20.0625 6.109375 24.8125 6.109375 
Q 31.15625 6.109375 34.5625 8.28125 
Q 37.984375 10.453125 37.984375 14.40625 
Q 37.984375 18.0625 35.515625 20.015625 
Q 33.0625 21.96875 24.703125 23.78125 
L 21.578125 24.515625 
Q 13.234375 26.265625 9.515625 29.90625 
Q 5.8125 33.546875 5.8125 39.890625 
Q 5.8125 47.609375 11.28125 51.796875 
Q 16.75 56 26.8125 56 
Q 31.78125 56 36.171875 55.265625 
Q 40.578125 54.546875 44.28125 53.078125 
z
" id="DejaVuSans-115"/>
      <path d="M 18.3125 70.21875 
L 18.3125 54.6875 
L 36.8125 54.6875 
L 36.8125 47.703125 
L 18.3125 47.703125 
L 18.3125 18.015625 
Q 18.3125 11.328125 20.140625 9.421875 
Q 21.96875 7.515625 27.59375 7.515625 
L 36.8125 7.515625 
L 36.8125 0 
L 27.59375 0 
Q 17.1875 0 13.234375 3.875 
Q 9.28125 7.765625 9.28125 18.015625 
L 9.28125 47.703125 
L 2.6875 47.703125 
L 2.6875 54.6875 
L 9.28125 54.6875 
L 9.28125 70.21875 
z
" id="DejaVuSans-116"/>
      <path id="DejaVuSans-32"/>
      <path d="M 37.109375 75.984375 
L 37.109375 68.5 
L 28.515625 68.5 
Q 23.6875 68.5 21.796875 66.546875 
Q 19.921875 64.59375 19.921875 59.515625 
L 19.921875 54.6875 
L 34.71875 54.6875 
L 34.71875 47.703125 
L 19.921875 47.703125 
L 19.921875 0 
L 10.890625 0 
L 10.890625 47.703125 
L 2.296875 47.703125 
L 2.296875 54.6875 
L 10.890625 54.6875 
L 10.890625 58.5 
Q 10.890625 67.625 15.140625 71.796875 
Q 19.390625 75.984375 28.609375 75.984375 
z
" id="DejaVuSans-102"/>
      <path d="M 9.421875 54.6875 
L 18.40625 54.6875 
L 18.40625 0 
L 9.421875 0 
z
M 9.421875 75.984375 
L 18.40625 75.984375 
L 18.40625 64.59375 
L 9.421875 64.59375 
z
" id="DejaVuSans-105"/>
      <path d="M 48.78125 52.59375 
L 48.78125 44.1875 
Q 44.96875 46.296875 41.140625 47.34375 
Q 37.3125 48.390625 33.40625 48.390625 
Q 24.65625 48.390625 19.8125 42.84375 
Q 14.984375 37.3125 14.984375 27.296875 
Q 14.984375 17.28125 19.8125 11.734375 
Q 24.65625 6.203125 33.40625 6.203125 
Q 37.3125 6.203125 41.140625 7.25 
Q 44.96875 8.296875 48.78125 10.40625 
L 48.78125 2.09375 
Q 45.015625 0.34375 40.984375 -0.53125 
Q 36.96875 -1.421875 32.421875 -1.421875 
Q 20.0625 -1.421875 12.78125 6.34375 
Q 5.515625 14.109375 5.515625 27.296875 
Q 5.515625 40.671875 12.859375 48.328125 
Q 20.21875 56 33.015625 56 
Q 37.15625 56 41.109375 55.140625 
Q 45.0625 54.296875 48.78125 52.59375 
z
" id="DejaVuSans-99"/>
      <path d="M 8.5 21.578125 
L 8.5 54.6875 
L 17.484375 54.6875 
L 17.484375 21.921875 
Q 17.484375 14.15625 20.5 10.265625 
Q 23.53125 6.390625 29.59375 6.390625 
Q 36.859375 6.390625 41.078125 11.03125 
Q 45.3125 15.671875 45.3125 23.6875 
L 45.3125 54.6875 
L 54.296875 54.6875 
L 54.296875 0 
L 45.3125 0 
L 45.3125 8.40625 
Q 42.046875 3.421875 37.71875 1 
Q 33.40625 -1.421875 27.6875 -1.421875 
Q 18.265625 -1.421875 13.375 4.4375 
Q 8.5 10.296875 8.5 21.578125 
z
M 31.109375 56 
z
" id="DejaVuSans-117"/>
      <path d="M 41.109375 46.296875 
Q 39.59375 47.171875 37.8125 47.578125 
Q 36.03125 48 33.890625 48 
Q 26.265625 48 22.1875 43.046875 
Q 18.109375 38.09375 18.109375 28.8125 
L 18.109375 0 
L 9.078125 0 
L 9.078125 54.6875 
L 18.109375 54.6875 
L 18.109375 46.1875 
Q 20.953125 51.171875 25.484375 53.578125 
Q 30.03125 56 36.53125 56 
Q 37.453125 56 38.578125 55.875 
Q 39.703125 55.765625 41.0625 55.515625 
z
" id="DejaVuSans-114"/>
      <path d="M 2.984375 54.6875 
L 12.5 54.6875 
L 29.59375 8.796875 
L 46.6875 54.6875 
L 56.203125 54.6875 
L 35.6875 0 
L 23.484375 0 
z
" id="DejaVuSans-118"/>
     </defs>
     <g transform="translate(43.5 21.059219)scale(0.05 -0.05)">
      <use xlink:href="#DejaVuSans-98"/>
      <use x="63.476562" xlink:href="#DejaVuSans-101"/>
      <use x="125" xlink:href="#DejaVuSans-115"/>
      <use x="177.099609" xlink:href="#DejaVuSans-116"/>
      <use x="216.308594" xlink:href="#DejaVuSans-32"/>
      <use x="248.095703" xlink:href="#DejaVuSans-102"/>
      <use x="283.300781" xlink:href="#DejaVuSans-105"/>
      <use x="311.083984" xlink:href="#DejaVuSans-116"/>
      <use x="350.292969" xlink:href="#DejaVuSans-32"/>
      <use x="382.080078" xlink:href="#DejaVuSans-99"/>
      <use x="437.060547" xlink:href="#DejaVuSans-117"/>
      <use x="500.439453" xlink:href="#DejaVuSans-114"/>
      <use x="541.552734" xlink:href="#DejaVuSans-118"/>
      <use x="600.732422" xlink:href="#DejaVuSans-101"/>
     </g>
    </g>
    <g id="PathCollection_34">
     <g>
      <use style="fill:#ff0000;stroke:#ff0000;" x="34.5" xlink:href="#m00b317fbb4" y="27.086563"/>
     </g>
    </g>
    <g id="text_11">
     <!-- $\delta$wbpA -->
     <defs>
      <path d="M 54.25 63.328125 
Q 49.953125 66.75 38.28125 66.75 
Q 25.921875 66.75 24.8125 61.03125 
Q 23.921875 56.546875 36.375 54.203125 
Q 46.140625 52.390625 50.828125 46.921875 
Q 56.5 40.328125 53.859375 26.8125 
Q 51.3125 13.875 43.171875 6.25 
Q 34.96875 -1.421875 23.25 -1.421875 
Q 11.578125 -1.421875 6.34375 6.25 
Q 1.125 13.875 3.765625 27.296875 
Q 5.671875 37.25 13.921875 45.3125 
Q 17.140625 48.4375 21.140625 50.203125 
Q 14.265625 54.046875 15.625 60.9375 
Q 18.21875 74.21875 39.75 74.21875 
Q 50.53125 74.21875 55.71875 70.796875 
z
M 27.390625 47.75 
Q 23.828125 46.34375 20.40625 42.78125 
Q 15.140625 37.25 13.234375 27.296875 
Q 11.28125 17.390625 14.359375 11.8125 
Q 17.484375 6.203125 24.75 6.203125 
Q 31.9375 6.203125 37.203125 11.859375 
Q 42.53125 17.53125 44.34375 26.8125 
Q 46.1875 36.53125 42.671875 41.21875 
Q 38.921875 46.234375 32.859375 46.78125 
Q 29.78125 47.078125 27.390625 47.75 
z
" id="DejaVuSans-Oblique-948"/>
      <path d="M 4.203125 54.6875 
L 13.1875 54.6875 
L 24.421875 12.015625 
L 35.59375 54.6875 
L 46.1875 54.6875 
L 57.421875 12.015625 
L 68.609375 54.6875 
L 77.59375 54.6875 
L 63.28125 0 
L 52.6875 0 
L 40.921875 44.828125 
L 29.109375 0 
L 18.5 0 
z
" id="DejaVuSans-119"/>
      <path d="M 18.109375 8.203125 
L 18.109375 -20.796875 
L 9.078125 -20.796875 
L 9.078125 54.6875 
L 18.109375 54.6875 
L 18.109375 46.390625 
Q 20.953125 51.265625 25.265625 53.625 
Q 29.59375 56 35.59375 56 
Q 45.5625 56 51.78125 48.09375 
Q 58.015625 40.1875 58.015625 27.296875 
Q 58.015625 14.40625 51.78125 6.484375 
Q 45.5625 -1.421875 35.59375 -1.421875 
Q 29.59375 -1.421875 25.265625 0.953125 
Q 20.953125 3.328125 18.109375 8.203125 
z
M 48.6875 27.296875 
Q 48.6875 37.203125 44.609375 42.84375 
Q 40.53125 48.484375 33.40625 48.484375 
Q 26.265625 48.484375 22.1875 42.84375 
Q 18.109375 37.203125 18.109375 27.296875 
Q 18.109375 17.390625 22.1875 11.75 
Q 26.265625 6.109375 33.40625 6.109375 
Q 40.53125 6.109375 44.609375 11.75 
Q 48.6875 17.390625 48.6875 27.296875 
z
" id="DejaVuSans-112"/>
      <path d="M 34.1875 63.1875 
L 20.796875 26.90625 
L 47.609375 26.90625 
z
M 28.609375 72.90625 
L 39.796875 72.90625 
L 67.578125 0 
L 57.328125 0 
L 50.6875 18.703125 
L 17.828125 18.703125 
L 11.1875 0 
L 0.78125 0 
z
" id="DejaVuSans-65"/>
     </defs>
     <g transform="translate(43.5 28.399063)scale(0.05 -0.05)">
      <use transform="translate(0 0.015625)" xlink:href="#DejaVuSans-Oblique-948"/>
      <use transform="translate(61.181641 0.015625)" xlink:href="#DejaVuSans-119"/>
      <use transform="translate(142.96875 0.015625)" xlink:href="#DejaVuSans-98"/>
      <use transform="translate(206.445312 0.015625)" xlink:href="#DejaVuSans-112"/>
      <use transform="translate(269.921875 0.015625)" xlink:href="#DejaVuSans-65"/>
     </g>
    </g>
    <g id="PathCollection_35">
     <g>
      <use style="fill:#008000;stroke:#008000;" x="34.5" xlink:href="#m951be74f23" y="34.435781"/>
     </g>
    </g>
    <g id="text_12">
     <!-- $\delta$wzz -->
     <defs>
      <path d="M 5.515625 54.6875 
L 48.1875 54.6875 
L 48.1875 46.484375 
L 14.40625 7.171875 
L 48.1875 7.171875 
L 48.1875 0 
L 4.296875 0 
L 4.296875 8.203125 
L 38.09375 47.515625 
L 5.515625 47.515625 
z
" id="DejaVuSans-122"/>
     </defs>
     <g transform="translate(43.5 35.748281)scale(0.05 -0.05)">
      <use transform="translate(0 0.78125)" xlink:href="#DejaVuSans-Oblique-948"/>
      <use transform="translate(61.181641 0.78125)" xlink:href="#DejaVuSans-119"/>
      <use transform="translate(142.96875 0.78125)" xlink:href="#DejaVuSans-122"/>
      <use transform="translate(195.458984 0.78125)" xlink:href="#DejaVuSans-122"/>
     </g>
    </g>
    <g id="PathCollection_36">
     <g>
      <use style="fill:#0000ff;stroke:#0000ff;" x="34.5" xlink:href="#mbf625d784e" y="41.775625"/>
     </g>
    </g>
    <g id="text_13">
     <!-- $\delta$mshJ -->
     <defs>
      <path d="M 52 44.1875 
Q 55.375 50.25 60.0625 53.125 
Q 64.75 56 71.09375 56 
Q 79.640625 56 84.28125 50.015625 
Q 88.921875 44.046875 88.921875 33.015625 
L 88.921875 0 
L 79.890625 0 
L 79.890625 32.71875 
Q 79.890625 40.578125 77.09375 44.375 
Q 74.3125 48.1875 68.609375 48.1875 
Q 61.625 48.1875 57.5625 43.546875 
Q 53.515625 38.921875 53.515625 30.90625 
L 53.515625 0 
L 44.484375 0 
L 44.484375 32.71875 
Q 44.484375 40.625 41.703125 44.40625 
Q 38.921875 48.1875 33.109375 48.1875 
Q 26.21875 48.1875 22.15625 43.53125 
Q 18.109375 38.875 18.109375 30.90625 
L 18.109375 0 
L 9.078125 0 
L 9.078125 54.6875 
L 18.109375 54.6875 
L 18.109375 46.1875 
Q 21.1875 51.21875 25.484375 53.609375 
Q 29.78125 56 35.6875 56 
Q 41.65625 56 45.828125 52.96875 
Q 50 49.953125 52 44.1875 
z
" id="DejaVuSans-109"/>
      <path d="M 54.890625 33.015625 
L 54.890625 0 
L 45.90625 0 
L 45.90625 32.71875 
Q 45.90625 40.484375 42.875 44.328125 
Q 39.84375 48.1875 33.796875 48.1875 
Q 26.515625 48.1875 22.3125 43.546875 
Q 18.109375 38.921875 18.109375 30.90625 
L 18.109375 0 
L 9.078125 0 
L 9.078125 75.984375 
L 18.109375 75.984375 
L 18.109375 46.1875 
Q 21.34375 51.125 25.703125 53.5625 
Q 30.078125 56 35.796875 56 
Q 45.21875 56 50.046875 50.171875 
Q 54.890625 44.34375 54.890625 33.015625 
z
" id="DejaVuSans-104"/>
      <path d="M 9.8125 72.90625 
L 19.671875 72.90625 
L 19.671875 5.078125 
Q 19.671875 -8.109375 14.671875 -14.0625 
Q 9.671875 -20.015625 -1.421875 -20.015625 
L -5.171875 -20.015625 
L -5.171875 -11.71875 
L -2.09375 -11.71875 
Q 4.4375 -11.71875 7.125 -8.046875 
Q 9.8125 -4.390625 9.8125 5.078125 
z
" id="DejaVuSans-74"/>
     </defs>
     <g transform="translate(43.5 43.088125)scale(0.05 -0.05)">
      <use transform="translate(0 0.015625)" xlink:href="#DejaVuSans-Oblique-948"/>
      <use transform="translate(61.181641 0.015625)" xlink:href="#DejaVuSans-109"/>
      <use transform="translate(158.59375 0.015625)" xlink:href="#DejaVuSans-115"/>
      <use transform="translate(210.693359 0.015625)" xlink:href="#DejaVuSans-104"/>
      <use transform="translate(274.072266 0.015625)" xlink:href="#DejaVuSans-74"/>
     </g>
    </g>
    <g id="PathCollection_37">
     <g>
      <use style="fill:#bfbf00;stroke:#bfbf00;" x="34.5" xlink:href="#m949538e27c" y="49.124844"/>
     </g>
    </g>
    <g id="text_14">
     <!-- $\delta$nusA -->
     <defs>
      <path d="M 54.890625 33.015625 
L 54.890625 0 
L 45.90625 0 
L 45.90625 32.71875 
Q 45.90625 40.484375 42.875 44.328125 
Q 39.84375 48.1875 33.796875 48.1875 
Q 26.515625 48.1875 22.3125 43.546875 
Q 18.109375 38.921875 18.109375 30.90625 
L 18.109375 0 
L 9.078125 0 
L 9.078125 54.6875 
L 18.109375 54.6875 
L 18.109375 46.1875 
Q 21.34375 51.125 25.703125 53.5625 
Q 30.078125 56 35.796875 56 
Q 45.21875 56 50.046875 50.171875 
Q 54.890625 44.34375 54.890625 33.015625 
z
" id="DejaVuSans-110"/>
     </defs>
     <g transform="translate(43.5 50.437344)scale(0.05 -0.05)">
      <use transform="translate(0 0.78125)" xlink:href="#DejaVuSans-Oblique-948"/>
      <use transform="translate(61.181641 0.78125)" xlink:href="#DejaVuSans-110"/>
      <use transform="translate(124.560547 0.78125)" xlink:href="#DejaVuSans-117"/>
      <use transform="translate(187.939453 0.78125)" xlink:href="#DejaVuSans-115"/>
      <use transform="translate(240.039062 0.78125)" xlink:href="#DejaVuSans-65"/>
     </g>
    </g>
   </g>
  </g>
 </g>
 <defs>
  <clipPath id="pdf9bd8ebb7">
   <rect height="108.22" width="208" x="25" y="12.76"/>
  </clipPath>
 </defs>
</svg>
