<?xml version="1.0" encoding="utf-8" standalone="no"?>
<!DOCTYPE svg PUBLIC "-//W3C//DTD SVG 1.1//EN"
  "http://www.w3.org/Graphics/SVG/1.1/DTD/svg11.dtd">
<!-- Created with matplotlib (http://matplotlib.org/) -->
<svg height="144pt" version="1.1" viewBox="0 0 234 144" width="234pt" xmlns="http://www.w3.org/2000/svg" xmlns:xlink="http://www.w3.org/1999/xlink">
 <defs>
  <style type="text/css">
*{stroke-linecap:butt;stroke-linejoin:round;}
  </style>
 </defs>
 <g id="figure_1">
  <g id="patch_1">
   <path d="M 0 144 
L 234 144 
L 234 0 
L 0 0 
z
" style="fill:none;opacity:0;"/>
  </g>
  <g id="axes_1">
   <g id="patch_2">
    <path d="M 25.09 120.98 
L 221.85988 120.98 
L 221.85988 23.83675 
L 25.09 23.83675 
z
" style="fill:#ffffff;"/>
   </g>
   <g id="PathCollection_1">
    <defs>
     <path d="M 0 3 
C 0.795609 3 1.55874 2.683901 2.12132 2.12132 
C 2.683901 1.55874 3 0.795609 3 0 
C 3 -0.795609 2.683901 -1.55874 2.12132 -2.12132 
C 1.55874 -2.683901 0.795609 -3 0 -3 
C -0.795609 -3 -1.55874 -2.683901 -2.12132 -2.12132 
C -2.683901 -1.55874 -3 -0.795609 -3 0 
C -3 0.795609 -2.683901 1.55874 -2.12132 2.12132 
C -1.55874 2.683901 -0.795609 3 0 3 
z
" id="m00e8f7ad31" style="stroke:#000000;stroke-opacity:0.1;"/>
    </defs>
    <g clip-path="url(#p2926aa499a)">
     <use style="fill-opacity:0.1;stroke:#000000;stroke-opacity:0.1;" x="86.515834" xlink:href="#m00e8f7ad31" y="92.059512"/>
    </g>
   </g>
   <g id="PathCollection_2">
    <g clip-path="url(#p2926aa499a)">
     <use style="fill-opacity:0.1;stroke:#000000;stroke-opacity:0.1;" x="153.375785" xlink:href="#m00e8f7ad31" y="64.016126"/>
    </g>
   </g>
   <g id="PathCollection_3">
    <g clip-path="url(#p2926aa499a)">
     <use style="fill-opacity:0.1;stroke:#000000;stroke-opacity:0.1;" x="135.694773" xlink:href="#m00e8f7ad31" y="71.075436"/>
    </g>
   </g>
   <g id="PathCollection_4">
    <g clip-path="url(#p2926aa499a)">
     <use style="fill-opacity:0.1;stroke:#000000;stroke-opacity:0.1;" x="88.506272" xlink:href="#m00e8f7ad31" y="93.647611"/>
    </g>
   </g>
   <g id="PathCollection_5">
    <g clip-path="url(#p2926aa499a)">
     <use style="fill-opacity:0.1;stroke:#000000;stroke-opacity:0.1;" x="46.757819" xlink:href="#m00e8f7ad31" y="114.681788"/>
    </g>
   </g>
   <g id="PathCollection_6">
    <g clip-path="url(#p2926aa499a)">
     <use style="fill-opacity:0.1;stroke:#000000;stroke-opacity:0.1;" x="209.279723" xlink:href="#m00e8f7ad31" y="30.131053"/>
    </g>
   </g>
   <g id="PathCollection_7">
    <g clip-path="url(#p2926aa499a)">
     <use style="fill-opacity:0.1;stroke:#000000;stroke-opacity:0.1;" x="156.028429" xlink:href="#m00e8f7ad31" y="65.444578"/>
    </g>
   </g>
   <g id="PathCollection_8">
    <g clip-path="url(#p2926aa499a)">
     <use style="fill-opacity:0.1;stroke:#000000;stroke-opacity:0.1;" x="117.695925" xlink:href="#m00e8f7ad31" y="83.581744"/>
    </g>
   </g>
   <g id="PathCollection_9">
    <g clip-path="url(#p2926aa499a)">
     <use style="fill-opacity:0.1;stroke:#000000;stroke-opacity:0.1;" x="103.826589" xlink:href="#m00e8f7ad31" y="88.790083"/>
    </g>
   </g>
   <g id="PathCollection_10">
    <g clip-path="url(#p2926aa499a)">
     <use style="fill-opacity:0.1;stroke:#000000;stroke-opacity:0.1;" x="63.328354" xlink:href="#m00e8f7ad31" y="105.718074"/>
    </g>
   </g>
   <g id="PathCollection_11">
    <g clip-path="url(#p2926aa499a)">
     <use style="fill-opacity:0.1;stroke:#000000;stroke-opacity:0.1;" x="126.1954" xlink:href="#m00e8f7ad31" y="74.162257"/>
    </g>
   </g>
   <g id="PathCollection_12">
    <g clip-path="url(#p2926aa499a)">
     <use style="fill-opacity:0.1;stroke:#000000;stroke-opacity:0.1;" x="94.480156" xlink:href="#m00e8f7ad31" y="86.473938"/>
    </g>
   </g>
   <g id="PathCollection_13">
    <g clip-path="url(#p2926aa499a)">
     <use style="fill-opacity:0.1;stroke:#000000;stroke-opacity:0.1;" x="105.61873" xlink:href="#m00e8f7ad31" y="81.788398"/>
    </g>
   </g>
   <g id="PathCollection_14">
    <g clip-path="url(#p2926aa499a)">
     <use style="fill-opacity:0.1;stroke:#000000;stroke-opacity:0.1;" x="82.221241" xlink:href="#m00e8f7ad31" y="91.214053"/>
    </g>
   </g>
   <g id="PathCollection_15">
    <g clip-path="url(#p2926aa499a)">
     <use style="fill-opacity:0.1;stroke:#000000;stroke-opacity:0.1;" x="50.25052" xlink:href="#m00e8f7ad31" y="104.751352"/>
    </g>
   </g>
   <g id="PathCollection_16">
    <g clip-path="url(#p2926aa499a)">
     <use style="fill-opacity:0.1;stroke:#000000;stroke-opacity:0.1;" x="57.429026" xlink:href="#m00e8f7ad31" y="101.964195"/>
    </g>
   </g>
   <g id="PathCollection_17">
    <g clip-path="url(#p2926aa499a)">
     <use style="fill-opacity:0.1;stroke:#000000;stroke-opacity:0.1;" x="101.694848" xlink:href="#m00e8f7ad31" y="83.013567"/>
    </g>
   </g>
   <g id="PathCollection_18">
    <g clip-path="url(#p2926aa499a)">
     <use style="fill-opacity:0.1;stroke:#000000;stroke-opacity:0.1;" x="82.787667" xlink:href="#m00e8f7ad31" y="92.471299"/>
    </g>
   </g>
   <g id="PathCollection_19">
    <g clip-path="url(#p2926aa499a)">
     <use style="fill-opacity:0.1;stroke:#000000;stroke-opacity:0.1;" x="91.809874" xlink:href="#m00e8f7ad31" y="84.787965"/>
    </g>
   </g>
   <g id="PathCollection_20">
    <g clip-path="url(#p2926aa499a)">
     <use style="fill-opacity:0.1;stroke:#000000;stroke-opacity:0.1;" x="95.052356" xlink:href="#m00e8f7ad31" y="86.386627"/>
    </g>
   </g>
   <g id="PathCollection_21">
    <g clip-path="url(#p2926aa499a)">
     <use style="fill-opacity:0.1;stroke:#000000;stroke-opacity:0.1;" x="93.869497" xlink:href="#m00e8f7ad31" y="86.239541"/>
    </g>
   </g>
   <g id="PathCollection_22">
    <g clip-path="url(#p2926aa499a)">
     <use style="fill-opacity:0.1;stroke:#000000;stroke-opacity:0.1;" x="173.902523" xlink:href="#m00e8f7ad31" y="58.327319"/>
    </g>
   </g>
   <g id="PathCollection_23">
    <g clip-path="url(#p2926aa499a)">
     <use style="fill-opacity:0.1;stroke:#000000;stroke-opacity:0.1;" x="146.646168" xlink:href="#m00e8f7ad31" y="69.560141"/>
    </g>
   </g>
   <g id="PathCollection_24">
    <g clip-path="url(#p2926aa499a)">
     <use style="fill-opacity:0.1;stroke:#000000;stroke-opacity:0.1;" x="184.977581" xlink:href="#m00e8f7ad31" y="50.535021"/>
    </g>
   </g>
   <g id="PathCollection_25">
    <g clip-path="url(#p2926aa499a)">
     <use style="fill-opacity:0.1;stroke:#000000;stroke-opacity:0.1;" x="137.63306" xlink:href="#m00e8f7ad31" y="70.91346"/>
    </g>
   </g>
   <g id="PathCollection_26">
    <g clip-path="url(#p2926aa499a)">
     <use style="fill-opacity:0.1;stroke:#000000;stroke-opacity:0.1;" x="151.245172" xlink:href="#m00e8f7ad31" y="67.405922"/>
    </g>
   </g>
   <g id="PathCollection_27">
    <g clip-path="url(#p2926aa499a)">
     <use style="fill-opacity:0.1;stroke:#000000;stroke-opacity:0.1;" x="135.607929" xlink:href="#m00e8f7ad31" y="72.643826"/>
    </g>
   </g>
   <g id="PathCollection_28">
    <g clip-path="url(#p2926aa499a)">
     <use style="fill-opacity:0.1;stroke:#000000;stroke-opacity:0.1;" x="125.086735" xlink:href="#m00e8f7ad31" y="77.753479"/>
    </g>
   </g>
   <g id="PathCollection_29">
    <g clip-path="url(#p2926aa499a)">
     <use style="fill-opacity:0.1;stroke:#000000;stroke-opacity:0.1;" x="108.540312" xlink:href="#m00e8f7ad31" y="82.798169"/>
    </g>
   </g>
   <g id="PathCollection_30">
    <defs>
     <path d="M 0 3 
C 0.795609 3 1.55874 2.683901 2.12132 2.12132 
C 2.683901 1.55874 3 0.795609 3 0 
C 3 -0.795609 2.683901 -1.55874 2.12132 -2.12132 
C 1.55874 -2.683901 0.795609 -3 0 -3 
C -0.795609 -3 -1.55874 -2.683901 -2.12132 -2.12132 
C -2.683901 -1.55874 -3 -0.795609 -3 0 
C -3 0.795609 -2.683901 1.55874 -2.12132 2.12132 
C -1.55874 2.683901 -0.795609 3 0 3 
z
" id="m4f5124dc35" style="stroke:#ff0000;"/>
    </defs>
    <g clip-path="url(#p2926aa499a)">
     <use style="fill:#ff0000;stroke:#ff0000;" x="91.809874" xlink:href="#m4f5124dc35" y="84.787965"/>
    </g>
   </g>
   <g id="PathCollection_31">
    <defs>
     <path d="M 0 3 
C 0.795609 3 1.55874 2.683901 2.12132 2.12132 
C 2.683901 1.55874 3 0.795609 3 0 
C 3 -0.795609 2.683901 -1.55874 2.12132 -2.12132 
C 1.55874 -2.683901 0.795609 -3 0 -3 
C -0.795609 -3 -1.55874 -2.683901 -2.12132 -2.12132 
C -2.683901 -1.55874 -3 -0.795609 -3 0 
C -3 0.795609 -2.683901 1.55874 -2.12132 2.12132 
C -1.55874 2.683901 -0.795609 3 0 3 
z
" id="m6c7463d048" style="stroke:#008000;"/>
    </defs>
    <g clip-path="url(#p2926aa499a)">
     <use style="fill:#008000;stroke:#008000;" x="209.279723" xlink:href="#m6c7463d048" y="30.131053"/>
    </g>
   </g>
   <g id="PathCollection_32">
    <defs>
     <path d="M 0 3 
C 0.795609 3 1.55874 2.683901 2.12132 2.12132 
C 2.683901 1.55874 3 0.795609 3 0 
C 3 -0.795609 2.683901 -1.55874 2.12132 -2.12132 
C 1.55874 -2.683901 0.795609 -3 0 -3 
C -0.795609 -3 -1.55874 -2.683901 -2.12132 -2.12132 
C -2.683901 -1.55874 -3 -0.795609 -3 0 
C -3 0.795609 -2.683901 1.55874 -2.12132 2.12132 
C -1.55874 2.683901 -0.795609 3 0 3 
z
" id="m7b79545ea7" style="stroke:#0000ff;"/>
    </defs>
    <g clip-path="url(#p2926aa499a)">
     <use style="fill:#0000ff;stroke:#0000ff;" x="46.757819" xlink:href="#m7b79545ea7" y="114.681788"/>
    </g>
   </g>
   <g id="matplotlib.axis_1">
    <g id="xtick_1">
     <g id="line2d_1">
      <path clip-path="url(#p2926aa499a)" d="M 76.547001 120.98 
L 76.547001 23.83675 
" style="fill:none;stroke:#b0b0b0;stroke-dasharray:2.96,1.28;stroke-dashoffset:0;stroke-width:0.8;"/>
     </g>
     <g id="line2d_2">
      <defs>
       <path d="M 0 0 
L 0 3 
" id="m480abb4af7" style="stroke:#000000;stroke-width:0.8;"/>
      </defs>
      <g>
       <use style="stroke:#000000;stroke-width:0.8;" x="76.547001" xlink:href="#m480abb4af7" y="120.98"/>
      </g>
     </g>
     <g id="text_1">
      <!-- 30 -->
      <defs>
       <path d="M 40.578125 39.3125 
Q 47.65625 37.796875 51.625 33 
Q 55.609375 28.21875 55.609375 21.1875 
Q 55.609375 10.40625 48.1875 4.484375 
Q 40.765625 -1.421875 27.09375 -1.421875 
Q 22.515625 -1.421875 17.65625 -0.515625 
Q 12.796875 0.390625 7.625 2.203125 
L 7.625 11.71875 
Q 11.71875 9.328125 16.59375 8.109375 
Q 21.484375 6.890625 26.8125 6.890625 
Q 36.078125 6.890625 40.9375 10.546875 
Q 45.796875 14.203125 45.796875 21.1875 
Q 45.796875 27.640625 41.28125 31.265625 
Q 36.765625 34.90625 28.71875 34.90625 
L 20.21875 34.90625 
L 20.21875 43.015625 
L 29.109375 43.015625 
Q 36.375 43.015625 40.234375 45.921875 
Q 44.09375 48.828125 44.09375 54.296875 
Q 44.09375 59.90625 40.109375 62.90625 
Q 36.140625 65.921875 28.71875 65.921875 
Q 24.65625 65.921875 20.015625 65.03125 
Q 15.375 64.15625 9.8125 62.3125 
L 9.8125 71.09375 
Q 15.4375 72.65625 20.34375 73.4375 
Q 25.25 74.21875 29.59375 74.21875 
Q 40.828125 74.21875 47.359375 69.109375 
Q 53.90625 64.015625 53.90625 55.328125 
Q 53.90625 49.265625 50.4375 45.09375 
Q 46.96875 40.921875 40.578125 39.3125 
z
" id="DejaVuSans-33"/>
       <path d="M 31.78125 66.40625 
Q 24.171875 66.40625 20.328125 58.90625 
Q 16.5 51.421875 16.5 36.375 
Q 16.5 21.390625 20.328125 13.890625 
Q 24.171875 6.390625 31.78125 6.390625 
Q 39.453125 6.390625 43.28125 13.890625 
Q 47.125 21.390625 47.125 36.375 
Q 47.125 51.421875 43.28125 58.90625 
Q 39.453125 66.40625 31.78125 66.40625 
z
M 31.78125 74.21875 
Q 44.046875 74.21875 50.515625 64.515625 
Q 56.984375 54.828125 56.984375 36.375 
Q 56.984375 17.96875 50.515625 8.265625 
Q 44.046875 -1.421875 31.78125 -1.421875 
Q 19.53125 -1.421875 13.0625 8.265625 
Q 6.59375 17.96875 6.59375 36.375 
Q 6.59375 54.828125 13.0625 64.515625 
Q 19.53125 74.21875 31.78125 74.21875 
z
" id="DejaVuSans-30"/>
      </defs>
      <g transform="translate(73.365751 131.279219)scale(0.05 -0.05)">
       <use xlink:href="#DejaVuSans-33"/>
       <use x="63.623047" xlink:href="#DejaVuSans-30"/>
      </g>
     </g>
    </g>
    <g id="xtick_2">
     <g id="line2d_3">
      <path clip-path="url(#p2926aa499a)" d="M 132.768792 120.98 
L 132.768792 23.83675 
" style="fill:none;stroke:#b0b0b0;stroke-dasharray:2.96,1.28;stroke-dashoffset:0;stroke-width:0.8;"/>
     </g>
     <g id="line2d_4">
      <g>
       <use style="stroke:#000000;stroke-width:0.8;" x="132.768792" xlink:href="#m480abb4af7" y="120.98"/>
      </g>
     </g>
     <g id="text_2">
      <!-- 35 -->
      <defs>
       <path d="M 10.796875 72.90625 
L 49.515625 72.90625 
L 49.515625 64.59375 
L 19.828125 64.59375 
L 19.828125 46.734375 
Q 21.96875 47.46875 24.109375 47.828125 
Q 26.265625 48.1875 28.421875 48.1875 
Q 40.625 48.1875 47.75 41.5 
Q 54.890625 34.8125 54.890625 23.390625 
Q 54.890625 11.625 47.5625 5.09375 
Q 40.234375 -1.421875 26.90625 -1.421875 
Q 22.3125 -1.421875 17.546875 -0.640625 
Q 12.796875 0.140625 7.71875 1.703125 
L 7.71875 11.625 
Q 12.109375 9.234375 16.796875 8.0625 
Q 21.484375 6.890625 26.703125 6.890625 
Q 35.15625 6.890625 40.078125 11.328125 
Q 45.015625 15.765625 45.015625 23.390625 
Q 45.015625 31 40.078125 35.4375 
Q 35.15625 39.890625 26.703125 39.890625 
Q 22.75 39.890625 18.8125 39.015625 
Q 14.890625 38.140625 10.796875 36.28125 
z
" id="DejaVuSans-35"/>
      </defs>
      <g transform="translate(129.587542 131.279219)scale(0.05 -0.05)">
       <use xlink:href="#DejaVuSans-33"/>
       <use x="63.623047" xlink:href="#DejaVuSans-35"/>
      </g>
     </g>
    </g>
    <g id="xtick_3">
     <g id="line2d_5">
      <path clip-path="url(#p2926aa499a)" d="M 188.990582 120.98 
L 188.990582 23.83675 
" style="fill:none;stroke:#b0b0b0;stroke-dasharray:2.96,1.28;stroke-dashoffset:0;stroke-width:0.8;"/>
     </g>
     <g id="line2d_6">
      <g>
       <use style="stroke:#000000;stroke-width:0.8;" x="188.990582" xlink:href="#m480abb4af7" y="120.98"/>
      </g>
     </g>
     <g id="text_3">
      <!-- 40 -->
      <defs>
       <path d="M 37.796875 64.3125 
L 12.890625 25.390625 
L 37.796875 25.390625 
z
M 35.203125 72.90625 
L 47.609375 72.90625 
L 47.609375 25.390625 
L 58.015625 25.390625 
L 58.015625 17.1875 
L 47.609375 17.1875 
L 47.609375 0 
L 37.796875 0 
L 37.796875 17.1875 
L 4.890625 17.1875 
L 4.890625 26.703125 
z
" id="DejaVuSans-34"/>
      </defs>
      <g transform="translate(185.809332 131.279219)scale(0.05 -0.05)">
       <use xlink:href="#DejaVuSans-34"/>
       <use x="63.623047" xlink:href="#DejaVuSans-30"/>
      </g>
     </g>
    </g>
    <g id="text_4">
     <!-- Total Biosorption (nmol) -->
     <defs>
      <path d="M 0.484375 72.90625 
L 67.671875 72.90625 
L 67.671875 58.6875 
L 43.5 58.6875 
L 43.5 0 
L 24.703125 0 
L 24.703125 58.6875 
L 0.484375 58.6875 
z
" id="DejaVuSans-Bold-54"/>
      <path d="M 34.421875 43.5 
Q 28.609375 43.5 25.5625 39.328125 
Q 22.515625 35.15625 22.515625 27.296875 
Q 22.515625 19.4375 25.5625 15.25 
Q 28.609375 11.078125 34.421875 11.078125 
Q 40.140625 11.078125 43.15625 15.25 
Q 46.1875 19.4375 46.1875 27.296875 
Q 46.1875 35.15625 43.15625 39.328125 
Q 40.140625 43.5 34.421875 43.5 
z
M 34.421875 56 
Q 48.53125 56 56.46875 48.375 
Q 64.40625 40.765625 64.40625 27.296875 
Q 64.40625 13.8125 56.46875 6.1875 
Q 48.53125 -1.421875 34.421875 -1.421875 
Q 20.265625 -1.421875 12.28125 6.1875 
Q 4.296875 13.8125 4.296875 27.296875 
Q 4.296875 40.765625 12.28125 48.375 
Q 20.265625 56 34.421875 56 
z
" id="DejaVuSans-Bold-6f"/>
      <path d="M 27.484375 70.21875 
L 27.484375 54.6875 
L 45.515625 54.6875 
L 45.515625 42.1875 
L 27.484375 42.1875 
L 27.484375 19 
Q 27.484375 15.1875 29 13.84375 
Q 30.515625 12.5 35.015625 12.5 
L 44 12.5 
L 44 0 
L 29 0 
Q 18.65625 0 14.328125 4.3125 
Q 10.015625 8.640625 10.015625 19 
L 10.015625 42.1875 
L 1.3125 42.1875 
L 1.3125 54.6875 
L 10.015625 54.6875 
L 10.015625 70.21875 
z
" id="DejaVuSans-Bold-74"/>
      <path d="M 32.90625 24.609375 
Q 27.4375 24.609375 24.671875 22.75 
Q 21.921875 20.90625 21.921875 17.28125 
Q 21.921875 13.96875 24.140625 12.078125 
Q 26.375 10.203125 30.328125 10.203125 
Q 35.25 10.203125 38.625 13.734375 
Q 42 17.28125 42 22.609375 
L 42 24.609375 
z
M 59.625 31.203125 
L 59.625 0 
L 42 0 
L 42 8.109375 
Q 38.484375 3.125 34.078125 0.84375 
Q 29.6875 -1.421875 23.390625 -1.421875 
Q 14.890625 -1.421875 9.59375 3.53125 
Q 4.296875 8.5 4.296875 16.40625 
Q 4.296875 26.03125 10.90625 30.515625 
Q 17.53125 35.015625 31.6875 35.015625 
L 42 35.015625 
L 42 36.375 
Q 42 40.53125 38.71875 42.453125 
Q 35.453125 44.390625 28.515625 44.390625 
Q 22.90625 44.390625 18.0625 43.265625 
Q 13.234375 42.140625 9.078125 39.890625 
L 9.078125 53.21875 
Q 14.703125 54.59375 20.359375 55.296875 
Q 26.03125 56 31.6875 56 
Q 46.484375 56 53.046875 50.171875 
Q 59.625 44.34375 59.625 31.203125 
z
" id="DejaVuSans-Bold-61"/>
      <path d="M 8.40625 75.984375 
L 25.875 75.984375 
L 25.875 0 
L 8.40625 0 
z
" id="DejaVuSans-Bold-6c"/>
      <path id="DejaVuSans-Bold-20"/>
      <path d="M 38.375 44.671875 
Q 42.828125 44.671875 45.109375 46.625 
Q 47.40625 48.578125 47.40625 52.390625 
Q 47.40625 56.15625 45.109375 58.125 
Q 42.828125 60.109375 38.375 60.109375 
L 27.984375 60.109375 
L 27.984375 44.671875 
z
M 39.015625 12.796875 
Q 44.671875 12.796875 47.53125 15.1875 
Q 50.390625 17.578125 50.390625 22.40625 
Q 50.390625 27.15625 47.5625 29.515625 
Q 44.734375 31.890625 39.015625 31.890625 
L 27.984375 31.890625 
L 27.984375 12.796875 
z
M 56.5 39.015625 
Q 62.546875 37.25 65.859375 32.515625 
Q 69.1875 27.78125 69.1875 20.90625 
Q 69.1875 10.359375 62.0625 5.171875 
Q 54.9375 0 40.375 0 
L 9.1875 0 
L 9.1875 72.90625 
L 37.40625 72.90625 
Q 52.59375 72.90625 59.40625 68.3125 
Q 66.21875 63.71875 66.21875 53.609375 
Q 66.21875 48.296875 63.71875 44.5625 
Q 61.234375 40.828125 56.5 39.015625 
z
" id="DejaVuSans-Bold-42"/>
      <path d="M 8.40625 54.6875 
L 25.875 54.6875 
L 25.875 0 
L 8.40625 0 
z
M 8.40625 75.984375 
L 25.875 75.984375 
L 25.875 61.71875 
L 8.40625 61.71875 
z
" id="DejaVuSans-Bold-69"/>
      <path d="M 51.125 52.984375 
L 51.125 39.703125 
Q 45.515625 42.046875 40.28125 43.21875 
Q 35.0625 44.390625 30.421875 44.390625 
Q 25.4375 44.390625 23.015625 43.140625 
Q 20.609375 41.890625 20.609375 39.3125 
Q 20.609375 37.203125 22.4375 36.078125 
Q 24.265625 34.96875 29 34.421875 
L 32.078125 33.984375 
Q 45.515625 32.28125 50.140625 28.375 
Q 54.78125 24.46875 54.78125 16.109375 
Q 54.78125 7.375 48.328125 2.96875 
Q 41.890625 -1.421875 29.109375 -1.421875 
Q 23.6875 -1.421875 17.890625 -0.5625 
Q 12.109375 0.296875 6 2 
L 6 15.28125 
Q 11.234375 12.75 16.71875 11.46875 
Q 22.21875 10.203125 27.875 10.203125 
Q 33.015625 10.203125 35.59375 11.609375 
Q 38.1875 13.03125 38.1875 15.828125 
Q 38.1875 18.171875 36.40625 19.3125 
Q 34.625 20.453125 29.296875 21.09375 
L 26.21875 21.484375 
Q 14.546875 22.953125 9.859375 26.90625 
Q 5.171875 30.859375 5.171875 38.921875 
Q 5.171875 47.609375 11.125 51.796875 
Q 17.09375 56 29.390625 56 
Q 34.234375 56 39.546875 55.265625 
Q 44.875 54.546875 51.125 52.984375 
z
" id="DejaVuSans-Bold-73"/>
      <path d="M 49.03125 39.796875 
Q 46.734375 40.875 44.453125 41.375 
Q 42.1875 41.890625 39.890625 41.890625 
Q 33.15625 41.890625 29.515625 37.5625 
Q 25.875 33.25 25.875 25.203125 
L 25.875 0 
L 8.40625 0 
L 8.40625 54.6875 
L 25.875 54.6875 
L 25.875 45.703125 
Q 29.25 51.078125 33.609375 53.53125 
Q 37.984375 56 44.09375 56 
Q 44.96875 56 45.984375 55.921875 
Q 47.015625 55.859375 48.96875 55.609375 
z
" id="DejaVuSans-Bold-72"/>
      <path d="M 25.875 7.90625 
L 25.875 -20.796875 
L 8.40625 -20.796875 
L 8.40625 54.6875 
L 25.875 54.6875 
L 25.875 46.6875 
Q 29.5 51.46875 33.890625 53.734375 
Q 38.28125 56 44 56 
Q 54.109375 56 60.59375 47.96875 
Q 67.09375 39.9375 67.09375 27.296875 
Q 67.09375 14.65625 60.59375 6.609375 
Q 54.109375 -1.421875 44 -1.421875 
Q 38.28125 -1.421875 33.890625 0.84375 
Q 29.5 3.125 25.875 7.90625 
z
M 37.5 43.3125 
Q 31.890625 43.3125 28.875 39.1875 
Q 25.875 35.0625 25.875 27.296875 
Q 25.875 19.53125 28.875 15.40625 
Q 31.890625 11.28125 37.5 11.28125 
Q 43.109375 11.28125 46.0625 15.375 
Q 49.03125 19.484375 49.03125 27.296875 
Q 49.03125 35.109375 46.0625 39.203125 
Q 43.109375 43.3125 37.5 43.3125 
z
" id="DejaVuSans-Bold-70"/>
      <path d="M 63.375 33.296875 
L 63.375 0 
L 45.796875 0 
L 45.796875 5.421875 
L 45.796875 25.484375 
Q 45.796875 32.5625 45.484375 35.25 
Q 45.171875 37.9375 44.390625 39.203125 
Q 43.359375 40.921875 41.59375 41.875 
Q 39.84375 42.828125 37.59375 42.828125 
Q 32.125 42.828125 29 38.59375 
Q 25.875 34.375 25.875 26.90625 
L 25.875 0 
L 8.40625 0 
L 8.40625 54.6875 
L 25.875 54.6875 
L 25.875 46.6875 
Q 29.828125 51.46875 34.265625 53.734375 
Q 38.71875 56 44.09375 56 
Q 53.5625 56 58.46875 50.1875 
Q 63.375 44.390625 63.375 33.296875 
z
" id="DejaVuSans-Bold-6e"/>
      <path d="M 37.703125 -13.1875 
L 23.1875 -13.1875 
Q 15.71875 -1.125 12.15625 9.734375 
Q 8.59375 20.609375 8.59375 31.296875 
Q 8.59375 42 12.171875 52.953125 
Q 15.765625 63.921875 23.1875 75.875 
L 37.703125 75.875 
Q 31.453125 64.3125 28.328125 53.25 
Q 25.203125 42.1875 25.203125 31.390625 
Q 25.203125 20.609375 28.296875 9.515625 
Q 31.390625 -1.5625 37.703125 -13.1875 
z
" id="DejaVuSans-Bold-28"/>
      <path d="M 59.078125 45.609375 
Q 62.40625 50.6875 66.96875 53.34375 
Q 71.53125 56 77 56 
Q 86.421875 56 91.359375 50.1875 
Q 96.296875 44.390625 96.296875 33.296875 
L 96.296875 0 
L 78.71875 0 
L 78.71875 28.515625 
Q 78.765625 29.15625 78.78125 29.828125 
Q 78.8125 30.515625 78.8125 31.78125 
Q 78.8125 37.59375 77.09375 40.203125 
Q 75.390625 42.828125 71.578125 42.828125 
Q 66.609375 42.828125 63.890625 38.71875 
Q 61.1875 34.625 61.078125 26.859375 
L 61.078125 0 
L 43.5 0 
L 43.5 28.515625 
Q 43.5 37.59375 41.9375 40.203125 
Q 40.375 42.828125 36.375 42.828125 
Q 31.34375 42.828125 28.609375 38.703125 
Q 25.875 34.578125 25.875 26.90625 
L 25.875 0 
L 8.296875 0 
L 8.296875 54.6875 
L 25.875 54.6875 
L 25.875 46.6875 
Q 29.109375 51.3125 33.28125 53.65625 
Q 37.453125 56 42.484375 56 
Q 48.140625 56 52.484375 53.265625 
Q 56.84375 50.53125 59.078125 45.609375 
z
" id="DejaVuSans-Bold-6d"/>
      <path d="M 8.015625 -13.1875 
Q 14.265625 -1.5625 17.390625 9.515625 
Q 20.515625 20.609375 20.515625 31.390625 
Q 20.515625 42.1875 17.390625 53.25 
Q 14.265625 64.3125 8.015625 75.875 
L 22.515625 75.875 
Q 29.9375 63.921875 33.515625 52.953125 
Q 37.109375 42 37.109375 31.296875 
Q 37.109375 20.609375 33.546875 9.734375 
Q 29.984375 -1.125 22.515625 -13.1875 
z
" id="DejaVuSans-Bold-29"/>
     </defs>
     <g transform="translate(75.316034 141.637969)scale(0.07 -0.07)">
      <use xlink:href="#DejaVuSans-Bold-54"/>
      <use x="68.009766" xlink:href="#DejaVuSans-Bold-6f"/>
      <use x="136.710938" xlink:href="#DejaVuSans-Bold-74"/>
      <use x="184.513672" xlink:href="#DejaVuSans-Bold-61"/>
      <use x="251.994141" xlink:href="#DejaVuSans-Bold-6c"/>
      <use x="286.271484" xlink:href="#DejaVuSans-Bold-20"/>
      <use x="321.085938" xlink:href="#DejaVuSans-Bold-42"/>
      <use x="397.306641" xlink:href="#DejaVuSans-Bold-69"/>
      <use x="431.583984" xlink:href="#DejaVuSans-Bold-6f"/>
      <use x="500.285156" xlink:href="#DejaVuSans-Bold-73"/>
      <use x="559.806641" xlink:href="#DejaVuSans-Bold-6f"/>
      <use x="628.507812" xlink:href="#DejaVuSans-Bold-72"/>
      <use x="677.824219" xlink:href="#DejaVuSans-Bold-70"/>
      <use x="749.40625" xlink:href="#DejaVuSans-Bold-74"/>
      <use x="797.208984" xlink:href="#DejaVuSans-Bold-69"/>
      <use x="831.486328" xlink:href="#DejaVuSans-Bold-6f"/>
      <use x="900.1875" xlink:href="#DejaVuSans-Bold-6e"/>
      <use x="971.378906" xlink:href="#DejaVuSans-Bold-20"/>
      <use x="1006.193359" xlink:href="#DejaVuSans-Bold-28"/>
      <use x="1051.896484" xlink:href="#DejaVuSans-Bold-6e"/>
      <use x="1123.087891" xlink:href="#DejaVuSans-Bold-6d"/>
      <use x="1227.287109" xlink:href="#DejaVuSans-Bold-6f"/>
      <use x="1295.988281" xlink:href="#DejaVuSans-Bold-6c"/>
      <use x="1330.265625" xlink:href="#DejaVuSans-Bold-29"/>
     </g>
    </g>
   </g>
   <g id="matplotlib.axis_2">
    <g id="ytick_1">
     <g id="line2d_7">
      <path clip-path="url(#p2926aa499a)" d="M 25.09 104.812483 
L 221.85988 104.812483 
" style="fill:none;stroke:#b0b0b0;stroke-dasharray:2.96,1.28;stroke-dashoffset:0;stroke-width:0.8;"/>
     </g>
     <g id="line2d_8">
      <defs>
       <path d="M 0 0 
L -3 0 
" id="m76a8e11cbb" style="stroke:#000000;stroke-width:0.8;"/>
      </defs>
      <g>
       <use style="stroke:#000000;stroke-width:0.8;" x="25.09" xlink:href="#m76a8e11cbb" y="104.812483"/>
      </g>
     </g>
     <g id="text_5">
      <!-- 10 -->
      <defs>
       <path d="M 12.40625 8.296875 
L 28.515625 8.296875 
L 28.515625 63.921875 
L 10.984375 60.40625 
L 10.984375 69.390625 
L 28.421875 72.90625 
L 38.28125 72.90625 
L 38.28125 8.296875 
L 54.390625 8.296875 
L 54.390625 0 
L 12.40625 0 
z
" id="DejaVuSans-31"/>
      </defs>
      <g transform="translate(12.2275 106.712092)scale(0.05 -0.05)">
       <use xlink:href="#DejaVuSans-31"/>
       <use x="63.623047" xlink:href="#DejaVuSans-30"/>
      </g>
     </g>
    </g>
    <g id="ytick_2">
     <g id="line2d_9">
      <path clip-path="url(#p2926aa499a)" d="M 25.09 76.679507 
L 221.85988 76.679507 
" style="fill:none;stroke:#b0b0b0;stroke-dasharray:2.96,1.28;stroke-dashoffset:0;stroke-width:0.8;"/>
     </g>
     <g id="line2d_10">
      <g>
       <use style="stroke:#000000;stroke-width:0.8;" x="25.09" xlink:href="#m76a8e11cbb" y="76.679507"/>
      </g>
     </g>
     <g id="text_6">
      <!-- 12 -->
      <defs>
       <path d="M 19.1875 8.296875 
L 53.609375 8.296875 
L 53.609375 0 
L 7.328125 0 
L 7.328125 8.296875 
Q 12.9375 14.109375 22.625 23.890625 
Q 32.328125 33.6875 34.8125 36.53125 
Q 39.546875 41.84375 41.421875 45.53125 
Q 43.3125 49.21875 43.3125 52.78125 
Q 43.3125 58.59375 39.234375 62.25 
Q 35.15625 65.921875 28.609375 65.921875 
Q 23.96875 65.921875 18.8125 64.3125 
Q 13.671875 62.703125 7.8125 59.421875 
L 7.8125 69.390625 
Q 13.765625 71.78125 18.9375 73 
Q 24.125 74.21875 28.421875 74.21875 
Q 39.75 74.21875 46.484375 68.546875 
Q 53.21875 62.890625 53.21875 53.421875 
Q 53.21875 48.921875 51.53125 44.890625 
Q 49.859375 40.875 45.40625 35.40625 
Q 44.1875 33.984375 37.640625 27.21875 
Q 31.109375 20.453125 19.1875 8.296875 
z
" id="DejaVuSans-32"/>
      </defs>
      <g transform="translate(12.2275 78.579116)scale(0.05 -0.05)">
       <use xlink:href="#DejaVuSans-31"/>
       <use x="63.623047" xlink:href="#DejaVuSans-32"/>
      </g>
     </g>
    </g>
    <g id="ytick_3">
     <g id="line2d_11">
      <path clip-path="url(#p2926aa499a)" d="M 25.09 48.54653 
L 221.85988 48.54653 
" style="fill:none;stroke:#b0b0b0;stroke-dasharray:2.96,1.28;stroke-dashoffset:0;stroke-width:0.8;"/>
     </g>
     <g id="line2d_12">
      <g>
       <use style="stroke:#000000;stroke-width:0.8;" x="25.09" xlink:href="#m76a8e11cbb" y="48.54653"/>
      </g>
     </g>
     <g id="text_7">
      <!-- 14 -->
      <g transform="translate(12.2275 50.44614)scale(0.05 -0.05)">
       <use xlink:href="#DejaVuSans-31"/>
       <use x="63.623047" xlink:href="#DejaVuSans-34"/>
      </g>
     </g>
    </g>
    <g id="text_8">
     <!-- La biosorption (nmol) -->
     <defs>
      <path d="M 9.1875 72.90625 
L 27.984375 72.90625 
L 27.984375 14.203125 
L 60.984375 14.203125 
L 60.984375 0 
L 9.1875 0 
z
" id="DejaVuSans-Bold-4c"/>
      <path d="M 37.5 11.28125 
Q 43.109375 11.28125 46.0625 15.375 
Q 49.03125 19.484375 49.03125 27.296875 
Q 49.03125 35.109375 46.0625 39.203125 
Q 43.109375 43.3125 37.5 43.3125 
Q 31.890625 43.3125 28.875 39.1875 
Q 25.875 35.0625 25.875 27.296875 
Q 25.875 19.53125 28.875 15.40625 
Q 31.890625 11.28125 37.5 11.28125 
z
M 25.875 46.6875 
Q 29.5 51.46875 33.890625 53.734375 
Q 38.28125 56 44 56 
Q 54.109375 56 60.59375 47.96875 
Q 67.09375 39.9375 67.09375 27.296875 
Q 67.09375 14.65625 60.59375 6.609375 
Q 54.109375 -1.421875 44 -1.421875 
Q 38.28125 -1.421875 33.890625 0.84375 
Q 29.5 3.125 25.875 7.90625 
L 25.875 0 
L 8.40625 0 
L 8.40625 75.984375 
L 25.875 75.984375 
z
" id="DejaVuSans-Bold-62"/>
     </defs>
     <g transform="translate(6.771719 114.977125)rotate(-90)scale(0.07 -0.07)">
      <use xlink:href="#DejaVuSans-Bold-4c"/>
      <use x="63.720703" xlink:href="#DejaVuSans-Bold-61"/>
      <use x="131.201172" xlink:href="#DejaVuSans-Bold-20"/>
      <use x="166.015625" xlink:href="#DejaVuSans-Bold-62"/>
      <use x="237.597656" xlink:href="#DejaVuSans-Bold-69"/>
      <use x="271.875" xlink:href="#DejaVuSans-Bold-6f"/>
      <use x="340.576172" xlink:href="#DejaVuSans-Bold-73"/>
      <use x="400.097656" xlink:href="#DejaVuSans-Bold-6f"/>
      <use x="468.798828" xlink:href="#DejaVuSans-Bold-72"/>
      <use x="518.115234" xlink:href="#DejaVuSans-Bold-70"/>
      <use x="589.697266" xlink:href="#DejaVuSans-Bold-74"/>
      <use x="637.5" xlink:href="#DejaVuSans-Bold-69"/>
      <use x="671.777344" xlink:href="#DejaVuSans-Bold-6f"/>
      <use x="740.478516" xlink:href="#DejaVuSans-Bold-6e"/>
      <use x="811.669922" xlink:href="#DejaVuSans-Bold-20"/>
      <use x="846.484375" xlink:href="#DejaVuSans-Bold-28"/>
      <use x="892.1875" xlink:href="#DejaVuSans-Bold-6e"/>
      <use x="963.378906" xlink:href="#DejaVuSans-Bold-6d"/>
      <use x="1067.578125" xlink:href="#DejaVuSans-Bold-6f"/>
      <use x="1136.279297" xlink:href="#DejaVuSans-Bold-6c"/>
      <use x="1170.556641" xlink:href="#DejaVuSans-Bold-29"/>
     </g>
    </g>
   </g>
   <g id="line2d_13">
    <path clip-path="url(#p2926aa499a)" d="M 74.281962 96.755434 
L 98.749707 87.36359 
" style="fill:none;opacity:0.1;stroke:#000000;stroke-linecap:square;stroke-width:1.5;"/>
   </g>
   <g id="line2d_14">
    <path clip-path="url(#p2926aa499a)" d="M 86.764262 93.072361 
L 86.267407 91.046662 
" style="fill:none;opacity:0.1;stroke:#000000;stroke-linecap:square;stroke-width:1.5;"/>
   </g>
   <g id="line2d_15">
    <path clip-path="url(#p2926aa499a)" d="M 143.992509 69.558372 
L 162.759061 58.473879 
" style="fill:none;opacity:0.1;stroke:#000000;stroke-linecap:square;stroke-width:1.5;"/>
   </g>
   <g id="line2d_16">
    <path clip-path="url(#p2926aa499a)" d="M 154.223123 66.261185 
L 152.528446 61.771067 
" style="fill:none;opacity:0.1;stroke:#000000;stroke-linecap:square;stroke-width:1.5;"/>
   </g>
   <g id="line2d_17">
    <path clip-path="url(#p2926aa499a)" d="M 129.360399 75.90911 
L 142.029148 66.241762 
" style="fill:none;opacity:0.1;stroke:#000000;stroke-linecap:square;stroke-width:1.5;"/>
   </g>
   <g id="line2d_18">
    <path clip-path="url(#p2926aa499a)" d="M 135.702085 71.09043 
L 135.687462 71.060442 
" style="fill:none;opacity:0.1;stroke:#000000;stroke-linecap:square;stroke-width:1.5;"/>
   </g>
   <g id="line2d_19">
    <path clip-path="url(#p2926aa499a)" d="M 80.828335 96.543238 
L 96.184209 90.751985 
" style="fill:none;opacity:0.1;stroke:#000000;stroke-linecap:square;stroke-width:1.5;"/>
   </g>
   <g id="line2d_20">
    <path clip-path="url(#p2926aa499a)" d="M 88.529598 93.744404 
L 88.482946 93.550818 
" style="fill:none;opacity:0.1;stroke:#000000;stroke-linecap:square;stroke-width:1.5;"/>
   </g>
   <g id="line2d_21">
    <path clip-path="url(#p2926aa499a)" d="M 42.792303 115.142054 
L 50.723335 114.221522 
" style="fill:none;opacity:0.1;stroke:#000000;stroke-linecap:square;stroke-width:1.5;"/>
   </g>
   <g id="line2d_22">
    <path clip-path="url(#p2926aa499a)" d="M 46.863557 116.107478 
L 46.652081 113.256098 
" style="fill:none;opacity:0.1;stroke:#000000;stroke-linecap:square;stroke-width:1.5;"/>
   </g>
   <g id="line2d_23">
    <path clip-path="url(#p2926aa499a)" d="M 205.643652 31.607874 
L 212.915794 28.654233 
" style="fill:none;opacity:0.1;stroke:#000000;stroke-linecap:square;stroke-width:1.5;"/>
   </g>
   <g id="line2d_24">
    <path clip-path="url(#p2926aa499a)" d="M 209.719966 31.82734 
L 208.83948 28.434766 
" style="fill:none;opacity:0.1;stroke:#000000;stroke-linecap:square;stroke-width:1.5;"/>
   </g>
   <g id="line2d_25">
    <path clip-path="url(#p2926aa499a)" d="M 149.368611 67.209212 
L 162.688246 63.679944 
" style="fill:none;opacity:0.1;stroke:#000000;stroke-linecap:square;stroke-width:1.5;"/>
   </g>
   <g id="line2d_26">
    <path clip-path="url(#p2926aa499a)" d="M 156.202278 66.47137 
L 155.85458 64.417787 
" style="fill:none;opacity:0.1;stroke:#000000;stroke-linecap:square;stroke-width:1.5;"/>
   </g>
   <g id="line2d_27">
    <path clip-path="url(#p2926aa499a)" d="M 105.346329 88.965689 
L 130.045521 78.197798 
" style="fill:none;opacity:0.1;stroke:#000000;stroke-linecap:square;stroke-width:1.5;"/>
   </g>
   <g id="line2d_28">
    <path clip-path="url(#p2926aa499a)" d="M 117.708878 83.628242 
L 117.682972 83.535246 
" style="fill:none;opacity:0.1;stroke:#000000;stroke-linecap:square;stroke-width:1.5;"/>
   </g>
   <g id="line2d_29">
    <path clip-path="url(#p2926aa499a)" d="M 95.156337 90.975141 
L 112.496841 86.605024 
" style="fill:none;opacity:0.1;stroke:#000000;stroke-linecap:square;stroke-width:1.5;"/>
   </g>
   <g id="line2d_30">
    <path clip-path="url(#p2926aa499a)" d="M 103.880713 89.126174 
L 103.772466 88.453991 
" style="fill:none;opacity:0.1;stroke:#000000;stroke-linecap:square;stroke-width:1.5;"/>
   </g>
   <g id="line2d_31">
    <path clip-path="url(#p2926aa499a)" d="M 57.417923 107.470754 
L 69.238784 103.965394 
" style="fill:none;opacity:0.1;stroke:#000000;stroke-linecap:square;stroke-width:1.5;"/>
   </g>
   <g id="line2d_32">
    <path clip-path="url(#p2926aa499a)" d="M 63.445393 106.335735 
L 63.211314 105.100412 
" style="fill:none;opacity:0.1;stroke:#000000;stroke-linecap:square;stroke-width:1.5;"/>
   </g>
   <g id="line2d_33">
    <path clip-path="url(#p2926aa499a)" d="M 108.838711 81.786604 
L 143.552089 66.537911 
" style="fill:none;opacity:0.1;stroke:#000000;stroke-linecap:square;stroke-width:1.5;"/>
   </g>
   <g id="line2d_34">
    <path clip-path="url(#p2926aa499a)" d="M 126.33903 74.673952 
L 126.05177 73.650563 
" style="fill:none;opacity:0.1;stroke:#000000;stroke-linecap:square;stroke-width:1.5;"/>
   </g>
   <g id="line2d_35">
    <path clip-path="url(#p2926aa499a)" d="M 89.128506 89.382783 
L 99.831807 83.565093 
" style="fill:none;opacity:0.1;stroke:#000000;stroke-linecap:square;stroke-width:1.5;"/>
   </g>
   <g id="line2d_36">
    <path clip-path="url(#p2926aa499a)" d="M 94.677922 87.04334 
L 94.282391 85.904535 
" style="fill:none;opacity:0.1;stroke:#000000;stroke-linecap:square;stroke-width:1.5;"/>
   </g>
   <g id="line2d_37">
    <path clip-path="url(#p2926aa499a)" d="M 90.002056 88.666322 
L 121.235404 74.910473 
" style="fill:none;opacity:0.1;stroke:#000000;stroke-linecap:square;stroke-width:1.5;"/>
   </g>
   <g id="line2d_38">
    <path clip-path="url(#p2926aa499a)" d="M 106.048716 83.316271 
L 105.188744 80.260525 
" style="fill:none;opacity:0.1;stroke:#000000;stroke-linecap:square;stroke-width:1.5;"/>
   </g>
   <g id="line2d_39">
    <path clip-path="url(#p2926aa499a)" d="M 74.620073 95.068391 
L 89.822409 87.359716 
" style="fill:none;opacity:0.1;stroke:#000000;stroke-linecap:square;stroke-width:1.5;"/>
   </g>
   <g id="line2d_40">
    <path clip-path="url(#p2926aa499a)" d="M 82.576564 92.310671 
L 81.865919 90.117436 
" style="fill:none;opacity:0.1;stroke:#000000;stroke-linecap:square;stroke-width:1.5;"/>
   </g>
   <g id="line2d_41">
    <path clip-path="url(#p2926aa499a)" d="M 34.034085 111.396509 
L 66.466955 98.106196 
" style="fill:none;opacity:0.1;stroke:#000000;stroke-linecap:square;stroke-width:1.5;"/>
   </g>
   <g id="line2d_42">
    <path clip-path="url(#p2926aa499a)" d="M 50.452324 105.522047 
L 50.048716 103.980658 
" style="fill:none;opacity:0.1;stroke:#000000;stroke-linecap:square;stroke-width:1.5;"/>
   </g>
   <g id="line2d_43">
    <path clip-path="url(#p2926aa499a)" d="M 50.556667 103.791703 
L 64.301385 100.136687 
" style="fill:none;opacity:0.1;stroke:#000000;stroke-linecap:square;stroke-width:1.5;"/>
   </g>
   <g id="line2d_44">
    <path clip-path="url(#p2926aa499a)" d="M 57.443076 102.046882 
L 57.414976 101.881508 
" style="fill:none;opacity:0.1;stroke:#000000;stroke-linecap:square;stroke-width:1.5;"/>
   </g>
   <g id="line2d_45">
    <path clip-path="url(#p2926aa499a)" d="M 94.584825 83.953524 
L 108.804872 82.07361 
" style="fill:none;opacity:0.1;stroke:#000000;stroke-linecap:square;stroke-width:1.5;"/>
   </g>
   <g id="line2d_46">
    <path clip-path="url(#p2926aa499a)" d="M 101.702904 83.108931 
L 101.686792 82.918203 
" style="fill:none;opacity:0.1;stroke:#000000;stroke-linecap:square;stroke-width:1.5;"/>
   </g>
   <g id="line2d_47">
    <path clip-path="url(#p2926aa499a)" d="M 82.401133 92.167804 
L 83.174201 92.774794 
" style="fill:none;opacity:0.1;stroke:#000000;stroke-linecap:square;stroke-width:1.5;"/>
   </g>
   <g id="line2d_48">
    <path clip-path="url(#p2926aa499a)" d="M 81.144578 95.74621 
L 84.430756 89.196388 
" style="fill:none;opacity:0.1;stroke:#000000;stroke-linecap:square;stroke-width:1.5;"/>
   </g>
   <g id="line2d_49">
    <path clip-path="url(#p2926aa499a)" d="M 82.830328 88.470392 
L 100.789419 81.105537 
" style="fill:none;opacity:0.1;stroke:#000000;stroke-linecap:square;stroke-width:1.5;"/>
   </g>
   <g id="line2d_50">
    <path clip-path="url(#p2926aa499a)" d="M 91.860207 84.980044 
L 91.75954 84.595885 
" style="fill:none;opacity:0.1;stroke:#000000;stroke-linecap:square;stroke-width:1.5;"/>
   </g>
   <g id="line2d_51">
    <path clip-path="url(#p2926aa499a)" d="M 91.050802 87.889364 
L 99.053909 84.88389 
" style="fill:none;opacity:0.1;stroke:#000000;stroke-linecap:square;stroke-width:1.5;"/>
   </g>
   <g id="line2d_52">
    <path clip-path="url(#p2926aa499a)" d="M 95.256272 87.236395 
L 94.848439 85.536859 
" style="fill:none;opacity:0.1;stroke:#000000;stroke-linecap:square;stroke-width:1.5;"/>
   </g>
   <g id="line2d_53">
    <path clip-path="url(#p2926aa499a)" d="M 90.524843 86.272447 
L 97.214151 86.206636 
" style="fill:none;opacity:0.1;stroke:#000000;stroke-linecap:square;stroke-width:1.5;"/>
   </g>
   <g id="line2d_54">
    <path clip-path="url(#p2926aa499a)" d="M 93.872868 86.775699 
L 93.866127 85.703383 
" style="fill:none;opacity:0.1;stroke:#000000;stroke-linecap:square;stroke-width:1.5;"/>
   </g>
   <g id="line2d_55">
    <path clip-path="url(#p2926aa499a)" d="M 167.217939 60.387066 
L 180.587107 56.267572 
" style="fill:none;opacity:0.1;stroke:#000000;stroke-linecap:square;stroke-width:1.5;"/>
   </g>
   <g id="line2d_56">
    <path clip-path="url(#p2926aa499a)" d="M 174.015049 58.898819 
L 173.789997 57.755819 
" style="fill:none;opacity:0.1;stroke:#000000;stroke-linecap:square;stroke-width:1.5;"/>
   </g>
   <g id="line2d_57">
    <path clip-path="url(#p2926aa499a)" d="M 135.896855 73.579412 
L 157.395481 65.540871 
" style="fill:none;opacity:0.1;stroke:#000000;stroke-linecap:square;stroke-width:1.5;"/>
   </g>
   <g id="line2d_58">
    <path clip-path="url(#p2926aa499a)" d="M 146.685658 69.725422 
L 146.606678 69.394861 
" style="fill:none;opacity:0.1;stroke:#000000;stroke-linecap:square;stroke-width:1.5;"/>
   </g>
   <g id="line2d_59">
    <path clip-path="url(#p2926aa499a)" d="M 172.598339 55.524332 
L 197.356823 45.545709 
" style="fill:none;opacity:0.1;stroke:#000000;stroke-linecap:square;stroke-width:1.5;"/>
   </g>
   <g id="line2d_60">
    <path clip-path="url(#p2926aa499a)" d="M 185.099275 51.007547 
L 184.855887 50.062495 
" style="fill:none;opacity:0.1;stroke:#000000;stroke-linecap:square;stroke-width:1.5;"/>
   </g>
   <g id="line2d_61">
    <path clip-path="url(#p2926aa499a)" d="M 127.53106 75.564748 
L 147.735061 66.262173 
" style="fill:none;opacity:0.1;stroke:#000000;stroke-linecap:square;stroke-width:1.5;"/>
   </g>
   <g id="line2d_62">
    <path clip-path="url(#p2926aa499a)" d="M 137.82167 71.554521 
L 137.444451 70.2724 
" style="fill:none;opacity:0.1;stroke:#000000;stroke-linecap:square;stroke-width:1.5;"/>
   </g>
   <g id="line2d_63">
    <path clip-path="url(#p2926aa499a)" d="M 144.420478 70.740991 
L 158.069866 64.070853 
" style="fill:none;opacity:0.1;stroke:#000000;stroke-linecap:square;stroke-width:1.5;"/>
   </g>
   <g id="line2d_64">
    <path clip-path="url(#p2926aa499a)" d="M 151.432913 68.007149 
L 151.057431 66.804694 
" style="fill:none;opacity:0.1;stroke:#000000;stroke-linecap:square;stroke-width:1.5;"/>
   </g>
   <g id="line2d_65">
    <path clip-path="url(#p2926aa499a)" d="M 128.39743 75.747558 
L 142.818428 69.540093 
" style="fill:none;opacity:0.1;stroke:#000000;stroke-linecap:square;stroke-width:1.5;"/>
   </g>
   <g id="line2d_66">
    <path clip-path="url(#p2926aa499a)" d="M 135.720707 73.053848 
L 135.495151 72.233803 
" style="fill:none;opacity:0.1;stroke:#000000;stroke-linecap:square;stroke-width:1.5;"/>
   </g>
   <g id="line2d_67">
    <path clip-path="url(#p2926aa499a)" d="M 119.442054 80.25711 
L 130.731416 75.249848 
" style="fill:none;opacity:0.1;stroke:#000000;stroke-linecap:square;stroke-width:1.5;"/>
   </g>
   <g id="line2d_68">
    <path clip-path="url(#p2926aa499a)" d="M 125.208272 78.182303 
L 124.965198 77.324656 
" style="fill:none;opacity:0.1;stroke:#000000;stroke-linecap:square;stroke-width:1.5;"/>
   </g>
   <g id="line2d_69">
    <path clip-path="url(#p2926aa499a)" d="M 100.256222 86.872164 
L 116.824403 78.724173 
" style="fill:none;opacity:0.1;stroke:#000000;stroke-linecap:square;stroke-width:1.5;"/>
   </g>
   <g id="line2d_70">
    <path clip-path="url(#p2926aa499a)" d="M 108.838511 83.747093 
L 108.242114 81.849245 
" style="fill:none;opacity:0.1;stroke:#000000;stroke-linecap:square;stroke-width:1.5;"/>
   </g>
   <g id="line2d_71">
    <path clip-path="url(#p2926aa499a)" d="M 82.830328 88.470392 
L 100.789419 81.105537 
" style="fill:none;stroke:#ff0000;stroke-linecap:square;stroke-width:1.5;"/>
   </g>
   <g id="line2d_72">
    <path clip-path="url(#p2926aa499a)" d="M 91.860207 84.980044 
L 91.75954 84.595885 
" style="fill:none;stroke:#ff0000;stroke-linecap:square;stroke-width:1.5;"/>
   </g>
   <g id="line2d_73">
    <path clip-path="url(#p2926aa499a)" d="M 205.643652 31.607874 
L 212.915794 28.654233 
" style="fill:none;stroke:#008000;stroke-linecap:square;stroke-width:1.5;"/>
   </g>
   <g id="line2d_74">
    <path clip-path="url(#p2926aa499a)" d="M 209.719966 31.82734 
L 208.83948 28.434766 
" style="fill:none;stroke:#008000;stroke-linecap:square;stroke-width:1.5;"/>
   </g>
   <g id="line2d_75">
    <path clip-path="url(#p2926aa499a)" d="M 42.792303 115.142054 
L 50.723335 114.221522 
" style="fill:none;stroke:#0000ff;stroke-linecap:square;stroke-width:1.5;"/>
   </g>
   <g id="line2d_76">
    <path clip-path="url(#p2926aa499a)" d="M 46.863557 116.107478 
L 46.652081 113.256098 
" style="fill:none;stroke:#0000ff;stroke-linecap:square;stroke-width:1.5;"/>
   </g>
   <g id="line2d_77">
    <path clip-path="url(#p2926aa499a)" d="M 48.972989 105.452783 
L 50.443745 104.879934 
L 51.9145 104.307085 
L 53.385256 103.734237 
L 54.856012 103.161388 
L 56.326767 102.588539 
L 57.797523 102.01569 
L 59.268279 101.442842 
L 60.739035 100.869993 
L 62.20979 100.297144 
L 63.680546 99.724295 
L 65.151302 99.151447 
L 66.622058 98.578598 
L 68.092813 98.005749 
L 69.563569 97.432901 
L 71.034325 96.860052 
L 72.50508 96.287203 
L 73.975836 95.714354 
L 75.446592 95.141506 
L 76.917348 94.568657 
L 78.388103 93.995808 
L 79.858859 93.42296 
L 81.329615 92.850111 
L 82.80037 92.277262 
L 84.271126 91.704413 
L 85.741882 91.131565 
L 87.212638 90.558716 
L 88.683393 89.985867 
L 90.154149 89.413018 
L 91.624905 88.84017 
L 93.09566 88.267321 
L 94.566416 87.694472 
L 96.037172 87.121624 
L 97.507928 86.548775 
L 98.978683 85.975926 
L 100.449439 85.403077 
L 101.920195 84.830229 
L 103.39095 84.25738 
L 104.861706 83.684531 
L 106.332462 83.111683 
L 107.803218 82.538834 
L 109.273973 81.965985 
L 110.744729 81.393136 
L 112.215485 80.820288 
L 113.68624 80.247439 
L 115.156996 79.67459 
L 116.627752 79.101742 
L 118.098508 78.528893 
L 119.569263 77.956044 
L 121.040019 77.383195 
L 122.510775 76.810347 
L 123.981531 76.237498 
L 125.452286 75.664649 
L 126.923042 75.0918 
L 128.393798 74.518952 
L 129.864553 73.946103 
L 131.335309 73.373254 
L 132.806065 72.800406 
L 134.276821 72.227557 
L 135.747576 71.654708 
L 137.218332 71.081859 
L 138.689088 70.509011 
L 140.159843 69.936162 
L 141.630599 69.363313 
L 143.101355 68.790465 
L 144.572111 68.217616 
L 146.042866 67.644767 
L 147.513622 67.071918 
L 148.984378 66.49907 
L 150.455133 65.926221 
L 151.925889 65.353372 
L 153.396645 64.780524 
L 154.867401 64.207675 
L 156.338156 63.634826 
L 157.808912 63.061977 
L 159.279668 62.489129 
L 160.750423 61.91628 
L 162.221179 61.343431 
L 163.691935 60.770582 
L 165.162691 60.197734 
L 166.633446 59.624885 
L 168.104202 59.052036 
L 169.574958 58.479188 
L 171.045713 57.906339 
L 172.516469 57.33349 
L 173.987225 56.760641 
L 175.457981 56.187793 
L 176.928736 55.614944 
L 178.399492 55.042095 
L 179.870248 54.469247 
L 181.341003 53.896398 
L 182.811759 53.323549 
L 184.282515 52.7507 
L 185.753271 52.177852 
L 187.224026 51.605003 
L 188.694782 51.032154 
L 190.165538 50.459306 
L 191.636294 49.886457 
L 193.107049 49.313608 
L 194.577805 48.740759 
" style="fill:none;stroke:#000000;stroke-dasharray:5.55,2.4;stroke-dashoffset:0;stroke-width:1.5;"/>
   </g>
   <g id="patch_3">
    <path d="M 25.09 120.98 
L 25.09 23.83675 
" style="fill:none;stroke:#000000;stroke-linecap:square;stroke-linejoin:miter;stroke-width:0.8;"/>
   </g>
   <g id="patch_4">
    <path d="M 221.85988 120.98 
L 221.85988 23.83675 
" style="fill:none;stroke:#000000;stroke-linecap:square;stroke-linejoin:miter;stroke-width:0.8;"/>
   </g>
   <g id="patch_5">
    <path d="M 25.09 120.98 
L 221.85988 120.98 
" style="fill:none;stroke:#000000;stroke-linecap:square;stroke-linejoin:miter;stroke-width:0.8;"/>
   </g>
   <g id="patch_6">
    <path d="M 25.09 23.83675 
L 221.85988 23.83675 
" style="fill:none;stroke:#000000;stroke-linecap:square;stroke-linejoin:miter;stroke-width:0.8;"/>
   </g>
   <g id="text_9">
    <!-- B: $\delta$pyrD, $\delta$SO_4685, and $\delta$nusA Change Relative Yb -->
    <defs>
     <path d="M 11.1875 54.6875 
L 28.8125 54.6875 
L 28.8125 35.796875 
L 11.1875 35.796875 
z
M 11.1875 18.890625 
L 28.8125 18.890625 
L 28.8125 0 
L 11.1875 0 
z
" id="DejaVuSans-Bold-3a"/>
     <path d="M 54.25 63.328125 
Q 49.953125 66.75 38.28125 66.75 
Q 25.921875 66.75 24.8125 61.03125 
Q 23.921875 56.546875 36.375 54.203125 
Q 46.140625 52.390625 50.828125 46.921875 
Q 56.5 40.328125 53.859375 26.8125 
Q 51.3125 13.875 43.171875 6.25 
Q 34.96875 -1.421875 23.25 -1.421875 
Q 11.578125 -1.421875 6.34375 6.25 
Q 1.125 13.875 3.765625 27.296875 
Q 5.671875 37.25 13.921875 45.3125 
Q 17.140625 48.4375 21.140625 50.203125 
Q 14.265625 54.046875 15.625 60.9375 
Q 18.21875 74.21875 39.75 74.21875 
Q 50.53125 74.21875 55.71875 70.796875 
z
M 27.390625 47.75 
Q 23.828125 46.34375 20.40625 42.78125 
Q 15.140625 37.25 13.234375 27.296875 
Q 11.28125 17.390625 14.359375 11.8125 
Q 17.484375 6.203125 24.75 6.203125 
Q 31.9375 6.203125 37.203125 11.859375 
Q 42.53125 17.53125 44.34375 26.8125 
Q 46.1875 36.53125 42.671875 41.21875 
Q 38.921875 46.234375 32.859375 46.78125 
Q 29.78125 47.078125 27.390625 47.75 
z
" id="DejaVuSans-Oblique-3b4"/>
     <path d="M 1.21875 54.6875 
L 18.703125 54.6875 
L 33.40625 17.578125 
L 45.90625 54.6875 
L 63.375 54.6875 
L 40.375 -5.171875 
Q 36.921875 -14.3125 32.296875 -17.9375 
Q 27.6875 -21.578125 20.125 -21.578125 
L 10.015625 -21.578125 
L 10.015625 -10.109375 
L 15.484375 -10.109375 
Q 19.921875 -10.109375 21.9375 -8.6875 
Q 23.96875 -7.28125 25.09375 -3.609375 
L 25.59375 -2.09375 
z
" id="DejaVuSans-Bold-79"/>
     <path d="M 27.984375 58.6875 
L 27.984375 14.203125 
L 34.71875 14.203125 
Q 46.234375 14.203125 52.3125 19.921875 
Q 58.40625 25.640625 58.40625 36.53125 
Q 58.40625 47.359375 52.34375 53.015625 
Q 46.296875 58.6875 34.71875 58.6875 
z
M 9.1875 72.90625 
L 29 72.90625 
Q 45.609375 72.90625 53.734375 70.53125 
Q 61.859375 68.171875 67.671875 62.5 
Q 72.796875 57.5625 75.28125 51.109375 
Q 77.78125 44.671875 77.78125 36.53125 
Q 77.78125 28.265625 75.28125 21.796875 
Q 72.796875 15.328125 67.671875 10.40625 
Q 61.8125 4.734375 53.609375 2.359375 
Q 45.40625 0 29 0 
L 9.1875 0 
z
" id="DejaVuSans-Bold-44"/>
     <path d="M 10.203125 18.890625 
L 27.78125 18.890625 
L 27.78125 4 
L 15.71875 -14.203125 
L 5.328125 -14.203125 
L 10.203125 4 
z
" id="DejaVuSans-Bold-2c"/>
     <path d="M 59.90625 70.609375 
L 59.90625 55.171875 
Q 53.90625 57.859375 48.1875 59.21875 
Q 42.484375 60.59375 37.40625 60.59375 
Q 30.671875 60.59375 27.4375 58.734375 
Q 24.21875 56.890625 24.21875 52.984375 
Q 24.21875 50.046875 26.390625 48.40625 
Q 28.5625 46.78125 34.28125 45.609375 
L 42.28125 44 
Q 54.4375 41.546875 59.5625 36.5625 
Q 64.703125 31.59375 64.703125 22.40625 
Q 64.703125 10.359375 57.546875 4.46875 
Q 50.390625 -1.421875 35.6875 -1.421875 
Q 28.765625 -1.421875 21.78125 -0.09375 
Q 14.796875 1.21875 7.8125 3.8125 
L 7.8125 19.671875 
Q 14.796875 15.96875 21.3125 14.078125 
Q 27.828125 12.203125 33.890625 12.203125 
Q 40.046875 12.203125 43.3125 14.25 
Q 46.578125 16.3125 46.578125 20.125 
Q 46.578125 23.53125 44.359375 25.390625 
Q 42.140625 27.25 35.5 28.71875 
L 28.21875 30.328125 
Q 17.28125 32.671875 12.21875 37.796875 
Q 7.171875 42.921875 7.171875 51.609375 
Q 7.171875 62.5 14.203125 68.359375 
Q 21.234375 74.21875 34.421875 74.21875 
Q 40.4375 74.21875 46.78125 73.3125 
Q 53.125 72.40625 59.90625 70.609375 
z
" id="DejaVuSans-Bold-53"/>
     <path d="M 42.484375 60.59375 
Q 33.890625 60.59375 29.15625 54.25 
Q 24.421875 47.90625 24.421875 36.375 
Q 24.421875 24.90625 29.15625 18.546875 
Q 33.890625 12.203125 42.484375 12.203125 
Q 51.125 12.203125 55.859375 18.546875 
Q 60.59375 24.90625 60.59375 36.375 
Q 60.59375 47.90625 55.859375 54.25 
Q 51.125 60.59375 42.484375 60.59375 
z
M 42.484375 74.21875 
Q 60.0625 74.21875 70.015625 64.15625 
Q 79.984375 54.109375 79.984375 36.375 
Q 79.984375 18.703125 70.015625 8.640625 
Q 60.0625 -1.421875 42.484375 -1.421875 
Q 24.953125 -1.421875 14.96875 8.640625 
Q 4.984375 18.703125 4.984375 36.375 
Q 4.984375 54.109375 14.96875 64.15625 
Q 24.953125 74.21875 42.484375 74.21875 
z
" id="DejaVuSans-Bold-4f"/>
     <path d="M 50 -14.3125 
L 50 -23.578125 
L 0 -23.578125 
L 0 -14.3125 
z
" id="DejaVuSans-Bold-5f"/>
     <path d="M 36.8125 57.421875 
L 16.21875 26.90625 
L 36.8125 26.90625 
z
M 33.6875 72.90625 
L 54.59375 72.90625 
L 54.59375 26.90625 
L 64.984375 26.90625 
L 64.984375 13.28125 
L 54.59375 13.28125 
L 54.59375 0 
L 36.8125 0 
L 36.8125 13.28125 
L 4.5 13.28125 
L 4.5 29.390625 
z
" id="DejaVuSans-Bold-34"/>
     <path d="M 36.1875 35.984375 
Q 31.25 35.984375 28.78125 32.78125 
Q 26.3125 29.59375 26.3125 23.1875 
Q 26.3125 16.796875 28.78125 13.59375 
Q 31.25 10.40625 36.1875 10.40625 
Q 41.15625 10.40625 43.625 13.59375 
Q 46.09375 16.796875 46.09375 23.1875 
Q 46.09375 29.59375 43.625 32.78125 
Q 41.15625 35.984375 36.1875 35.984375 
z
M 59.421875 71 
L 59.421875 57.515625 
Q 54.78125 59.71875 50.671875 60.765625 
Q 46.578125 61.8125 42.671875 61.8125 
Q 34.28125 61.8125 29.59375 57.140625 
Q 24.90625 52.484375 24.125 43.3125 
Q 27.34375 45.703125 31.09375 46.890625 
Q 34.859375 48.09375 39.3125 48.09375 
Q 50.484375 48.09375 57.34375 41.546875 
Q 64.203125 35.015625 64.203125 24.421875 
Q 64.203125 12.703125 56.53125 5.640625 
Q 48.875 -1.421875 35.984375 -1.421875 
Q 21.78125 -1.421875 13.984375 8.171875 
Q 6.203125 17.78125 6.203125 35.40625 
Q 6.203125 53.46875 15.3125 63.796875 
Q 24.421875 74.125 40.28125 74.125 
Q 45.3125 74.125 50.046875 73.34375 
Q 54.78125 72.5625 59.421875 71 
z
" id="DejaVuSans-Bold-36"/>
     <path d="M 34.8125 32.625 
Q 29.546875 32.625 26.703125 29.734375 
Q 23.875 26.859375 23.875 21.484375 
Q 23.875 16.109375 26.703125 13.25 
Q 29.546875 10.40625 34.8125 10.40625 
Q 40.046875 10.40625 42.828125 13.25 
Q 45.609375 16.109375 45.609375 21.484375 
Q 45.609375 26.90625 42.828125 29.765625 
Q 40.046875 32.625 34.8125 32.625 
z
M 21.09375 38.8125 
Q 14.453125 40.828125 11.078125 44.96875 
Q 7.71875 49.125 7.71875 55.328125 
Q 7.71875 64.546875 14.59375 69.375 
Q 21.484375 74.21875 34.8125 74.21875 
Q 48.046875 74.21875 54.921875 69.40625 
Q 61.8125 64.59375 61.8125 55.328125 
Q 61.8125 49.125 58.421875 44.96875 
Q 55.03125 40.828125 48.390625 38.8125 
Q 55.8125 36.765625 59.59375 32.15625 
Q 63.375 27.546875 63.375 20.515625 
Q 63.375 9.671875 56.171875 4.125 
Q 48.96875 -1.421875 34.8125 -1.421875 
Q 20.609375 -1.421875 13.359375 4.125 
Q 6.109375 9.671875 6.109375 20.515625 
Q 6.109375 27.546875 9.890625 32.15625 
Q 13.671875 36.765625 21.09375 38.8125 
z
M 25.484375 53.421875 
Q 25.484375 49.078125 27.90625 46.734375 
Q 30.328125 44.390625 34.8125 44.390625 
Q 39.203125 44.390625 41.59375 46.734375 
Q 44 49.078125 44 53.421875 
Q 44 57.765625 41.59375 60.078125 
Q 39.203125 62.40625 34.8125 62.40625 
Q 30.328125 62.40625 27.90625 60.0625 
Q 25.484375 57.71875 25.484375 53.421875 
z
" id="DejaVuSans-Bold-38"/>
     <path d="M 10.59375 72.90625 
L 57.328125 72.90625 
L 57.328125 59.078125 
L 25.59375 59.078125 
L 25.59375 47.796875 
Q 27.734375 48.390625 29.90625 48.703125 
Q 32.078125 49.03125 34.421875 49.03125 
Q 47.75 49.03125 55.171875 42.359375 
Q 62.59375 35.6875 62.59375 23.78125 
Q 62.59375 11.96875 54.515625 5.265625 
Q 46.4375 -1.421875 32.078125 -1.421875 
Q 25.875 -1.421875 19.796875 -0.21875 
Q 13.71875 0.984375 7.71875 3.421875 
L 7.71875 18.21875 
Q 13.671875 14.796875 19.015625 13.078125 
Q 24.359375 11.375 29.109375 11.375 
Q 35.9375 11.375 39.859375 14.71875 
Q 43.796875 18.0625 43.796875 23.78125 
Q 43.796875 29.546875 39.859375 32.859375 
Q 35.9375 36.1875 29.109375 36.1875 
Q 25.046875 36.1875 20.453125 35.125 
Q 15.875 34.078125 10.59375 31.890625 
z
" id="DejaVuSans-Bold-35"/>
     <path d="M 45.609375 46.6875 
L 45.609375 75.984375 
L 63.1875 75.984375 
L 63.1875 0 
L 45.609375 0 
L 45.609375 7.90625 
Q 42 3.078125 37.640625 0.828125 
Q 33.296875 -1.421875 27.59375 -1.421875 
Q 17.484375 -1.421875 10.984375 6.609375 
Q 4.5 14.65625 4.5 27.296875 
Q 4.5 39.9375 10.984375 47.96875 
Q 17.484375 56 27.59375 56 
Q 33.25 56 37.625 53.734375 
Q 42 51.46875 45.609375 46.6875 
z
M 34.078125 11.28125 
Q 39.703125 11.28125 42.65625 15.375 
Q 45.609375 19.484375 45.609375 27.296875 
Q 45.609375 35.109375 42.65625 39.203125 
Q 39.703125 43.3125 34.078125 43.3125 
Q 28.515625 43.3125 25.5625 39.203125 
Q 22.609375 35.109375 22.609375 27.296875 
Q 22.609375 19.484375 25.5625 15.375 
Q 28.515625 11.28125 34.078125 11.28125 
z
" id="DejaVuSans-Bold-64"/>
     <path d="M 7.8125 21.296875 
L 7.8125 54.6875 
L 25.390625 54.6875 
L 25.390625 49.21875 
Q 25.390625 44.78125 25.34375 38.0625 
Q 25.296875 31.34375 25.296875 29.109375 
Q 25.296875 22.515625 25.640625 19.609375 
Q 25.984375 16.703125 26.8125 15.375 
Q 27.875 13.671875 29.609375 12.734375 
Q 31.34375 11.8125 33.59375 11.8125 
Q 39.0625 11.8125 42.1875 16.015625 
Q 45.3125 20.21875 45.3125 27.6875 
L 45.3125 54.6875 
L 62.796875 54.6875 
L 62.796875 0 
L 45.3125 0 
L 45.3125 7.90625 
Q 41.359375 3.125 36.9375 0.84375 
Q 32.515625 -1.421875 27.203125 -1.421875 
Q 17.71875 -1.421875 12.765625 4.390625 
Q 7.8125 10.203125 7.8125 21.296875 
z
" id="DejaVuSans-Bold-75"/>
     <path d="M 53.421875 13.28125 
L 24.03125 13.28125 
L 19.390625 0 
L 0.484375 0 
L 27.484375 72.90625 
L 49.90625 72.90625 
L 76.90625 0 
L 58.015625 0 
z
M 28.71875 26.8125 
L 48.6875 26.8125 
L 38.71875 55.8125 
z
" id="DejaVuSans-Bold-41"/>
     <path d="M 67 4 
Q 61.8125 1.3125 56.203125 -0.046875 
Q 50.59375 -1.421875 44.484375 -1.421875 
Q 26.265625 -1.421875 15.625 8.765625 
Q 4.984375 18.953125 4.984375 36.375 
Q 4.984375 53.859375 15.625 64.03125 
Q 26.265625 74.21875 44.484375 74.21875 
Q 50.59375 74.21875 56.203125 72.84375 
Q 61.8125 71.484375 67 68.796875 
L 67 53.71875 
Q 61.765625 57.28125 56.6875 58.9375 
Q 51.609375 60.59375 46 60.59375 
Q 35.9375 60.59375 30.171875 54.140625 
Q 24.421875 47.703125 24.421875 36.375 
Q 24.421875 25.09375 30.171875 18.640625 
Q 35.9375 12.203125 46 12.203125 
Q 51.609375 12.203125 56.6875 13.859375 
Q 61.765625 15.53125 67 19.09375 
z
" id="DejaVuSans-Bold-43"/>
     <path d="M 63.375 33.296875 
L 63.375 0 
L 45.796875 0 
L 45.796875 5.421875 
L 45.796875 25.390625 
Q 45.796875 32.5625 45.484375 35.25 
Q 45.171875 37.9375 44.390625 39.203125 
Q 43.359375 40.921875 41.59375 41.875 
Q 39.84375 42.828125 37.59375 42.828125 
Q 32.125 42.828125 29 38.59375 
Q 25.875 34.375 25.875 26.90625 
L 25.875 0 
L 8.40625 0 
L 8.40625 75.984375 
L 25.875 75.984375 
L 25.875 46.6875 
Q 29.828125 51.46875 34.265625 53.734375 
Q 38.71875 56 44.09375 56 
Q 53.5625 56 58.46875 50.1875 
Q 63.375 44.390625 63.375 33.296875 
z
" id="DejaVuSans-Bold-68"/>
     <path d="M 45.609375 9.28125 
Q 42 4.5 37.640625 2.25 
Q 33.296875 0 27.59375 0 
Q 17.578125 0 11.03125 7.875 
Q 4.5 15.765625 4.5 27.984375 
Q 4.5 40.234375 11.03125 48.0625 
Q 17.578125 55.90625 27.59375 55.90625 
Q 33.296875 55.90625 37.640625 53.65625 
Q 42 51.421875 45.609375 46.578125 
L 45.609375 54.6875 
L 63.1875 54.6875 
L 63.1875 5.515625 
Q 63.1875 -7.671875 54.859375 -14.625 
Q 46.53125 -21.578125 30.71875 -21.578125 
Q 25.59375 -21.578125 20.796875 -20.796875 
Q 16.015625 -20.015625 11.1875 -18.40625 
L 11.1875 -4.78125 
Q 15.765625 -7.421875 20.15625 -8.71875 
Q 24.5625 -10.015625 29 -10.015625 
Q 37.59375 -10.015625 41.59375 -6.25 
Q 45.609375 -2.484375 45.609375 5.515625 
z
M 34.078125 43.3125 
Q 28.65625 43.3125 25.625 39.296875 
Q 22.609375 35.296875 22.609375 27.984375 
Q 22.609375 20.453125 25.53125 16.578125 
Q 28.46875 12.703125 34.078125 12.703125 
Q 39.546875 12.703125 42.578125 16.703125 
Q 45.609375 20.703125 45.609375 27.984375 
Q 45.609375 35.296875 42.578125 39.296875 
Q 39.546875 43.3125 34.078125 43.3125 
z
" id="DejaVuSans-Bold-67"/>
     <path d="M 62.984375 27.484375 
L 62.984375 22.515625 
L 22.125 22.515625 
Q 22.75 16.359375 26.5625 13.28125 
Q 30.375 10.203125 37.203125 10.203125 
Q 42.71875 10.203125 48.5 11.84375 
Q 54.296875 13.484375 60.40625 16.796875 
L 60.40625 3.328125 
Q 54.203125 0.984375 48 -0.21875 
Q 41.796875 -1.421875 35.59375 -1.421875 
Q 20.75 -1.421875 12.515625 6.125 
Q 4.296875 13.671875 4.296875 27.296875 
Q 4.296875 40.671875 12.375 48.328125 
Q 20.453125 56 34.625 56 
Q 47.515625 56 55.25 48.234375 
Q 62.984375 40.484375 62.984375 27.484375 
z
M 45.015625 33.296875 
Q 45.015625 38.28125 42.109375 41.328125 
Q 39.203125 44.390625 34.515625 44.390625 
Q 29.4375 44.390625 26.265625 41.53125 
Q 23.09375 38.671875 22.3125 33.296875 
z
" id="DejaVuSans-Bold-65"/>
     <path d="M 35.890625 40.578125 
Q 41.796875 40.578125 44.359375 42.765625 
Q 46.921875 44.96875 46.921875 50 
Q 46.921875 54.984375 44.359375 57.125 
Q 41.796875 59.28125 35.890625 59.28125 
L 27.984375 59.28125 
L 27.984375 40.578125 
z
M 27.984375 27.59375 
L 27.984375 0 
L 9.1875 0 
L 9.1875 72.90625 
L 37.890625 72.90625 
Q 52.296875 72.90625 59 68.0625 
Q 65.71875 63.234375 65.71875 52.78125 
Q 65.71875 45.5625 62.21875 40.921875 
Q 58.734375 36.28125 51.703125 34.078125 
Q 55.5625 33.203125 58.609375 30.09375 
Q 61.671875 27 64.796875 20.703125 
L 75 0 
L 54.984375 0 
L 46.09375 18.109375 
Q 43.40625 23.578125 40.640625 25.578125 
Q 37.890625 27.59375 33.296875 27.59375 
z
" id="DejaVuSans-Bold-52"/>
     <path d="M 1.515625 54.6875 
L 19 54.6875 
L 32.625 16.890625 
L 46.1875 54.6875 
L 63.71875 54.6875 
L 42.1875 0 
L 23 0 
z
" id="DejaVuSans-Bold-76"/>
     <path d="M -0.984375 72.90625 
L 19.578125 72.90625 
L 36.1875 46.921875 
L 52.78125 72.90625 
L 73.390625 72.90625 
L 45.609375 30.71875 
L 45.609375 0 
L 26.8125 0 
L 26.8125 30.71875 
z
" id="DejaVuSans-Bold-59"/>
    </defs>
    <g transform="translate(22.25494 9.943375)scale(0.07 -0.07)">
     <use transform="translate(0 0.015625)" xlink:href="#DejaVuSans-Bold-42"/>
     <use transform="translate(76.220703 0.015625)" xlink:href="#DejaVuSans-Bold-3a"/>
     <use transform="translate(116.210938 0.015625)" xlink:href="#DejaVuSans-Bold-20"/>
     <use transform="translate(151.025391 0.015625)" xlink:href="#DejaVuSans-Oblique-3b4"/>
     <use transform="translate(212.207031 0.015625)" xlink:href="#DejaVuSans-Bold-70"/>
     <use transform="translate(283.789062 0.015625)" xlink:href="#DejaVuSans-Bold-79"/>
     <use transform="translate(348.974609 0.015625)" xlink:href="#DejaVuSans-Bold-72"/>
     <use transform="translate(398.291016 0.015625)" xlink:href="#DejaVuSans-Bold-44"/>
     <use transform="translate(481.298828 0.015625)" xlink:href="#DejaVuSans-Bold-2c"/>
     <use transform="translate(519.287109 0.015625)" xlink:href="#DejaVuSans-Bold-20"/>
     <use transform="translate(554.101562 0.015625)" xlink:href="#DejaVuSans-Oblique-3b4"/>
     <use transform="translate(615.283203 0.015625)" xlink:href="#DejaVuSans-Bold-53"/>
     <use transform="translate(687.304688 0.015625)" xlink:href="#DejaVuSans-Bold-4f"/>
     <use transform="translate(772.314453 0.015625)" xlink:href="#DejaVuSans-Bold-5f"/>
     <use transform="translate(822.314453 0.015625)" xlink:href="#DejaVuSans-Bold-34"/>
     <use transform="translate(891.894531 0.015625)" xlink:href="#DejaVuSans-Bold-36"/>
     <use transform="translate(961.474609 0.015625)" xlink:href="#DejaVuSans-Bold-38"/>
     <use transform="translate(1031.054688 0.015625)" xlink:href="#DejaVuSans-Bold-35"/>
     <use transform="translate(1100.634766 0.015625)" xlink:href="#DejaVuSans-Bold-2c"/>
     <use transform="translate(1138.623047 0.015625)" xlink:href="#DejaVuSans-Bold-20"/>
     <use transform="translate(1173.4375 0.015625)" xlink:href="#DejaVuSans-Bold-61"/>
     <use transform="translate(1240.917969 0.015625)" xlink:href="#DejaVuSans-Bold-6e"/>
     <use transform="translate(1312.109375 0.015625)" xlink:href="#DejaVuSans-Bold-64"/>
     <use transform="translate(1383.691406 0.015625)" xlink:href="#DejaVuSans-Bold-20"/>
     <use transform="translate(1418.505859 0.015625)" xlink:href="#DejaVuSans-Oblique-3b4"/>
     <use transform="translate(1479.6875 0.015625)" xlink:href="#DejaVuSans-Bold-6e"/>
     <use transform="translate(1550.878906 0.015625)" xlink:href="#DejaVuSans-Bold-75"/>
     <use transform="translate(1622.070312 0.015625)" xlink:href="#DejaVuSans-Bold-73"/>
     <use transform="translate(1681.591797 0.015625)" xlink:href="#DejaVuSans-Bold-41"/>
     <use transform="translate(1758.984375 0.015625)" xlink:href="#DejaVuSans-Bold-20"/>
     <use transform="translate(1793.798828 0.015625)" xlink:href="#DejaVuSans-Bold-43"/>
     <use transform="translate(1867.1875 0.015625)" xlink:href="#DejaVuSans-Bold-68"/>
     <use transform="translate(1938.378906 0.015625)" xlink:href="#DejaVuSans-Bold-61"/>
     <use transform="translate(2005.859375 0.015625)" xlink:href="#DejaVuSans-Bold-6e"/>
     <use transform="translate(2077.050781 0.015625)" xlink:href="#DejaVuSans-Bold-67"/>
     <use transform="translate(2148.632812 0.015625)" xlink:href="#DejaVuSans-Bold-65"/>
     <use transform="translate(2216.455078 0.015625)" xlink:href="#DejaVuSans-Bold-20"/>
     <use transform="translate(2251.269531 0.015625)" xlink:href="#DejaVuSans-Bold-52"/>
     <use transform="translate(2328.271484 0.015625)" xlink:href="#DejaVuSans-Bold-65"/>
     <use transform="translate(2396.09375 0.015625)" xlink:href="#DejaVuSans-Bold-6c"/>
     <use transform="translate(2430.371094 0.015625)" xlink:href="#DejaVuSans-Bold-61"/>
     <use transform="translate(2497.851562 0.015625)" xlink:href="#DejaVuSans-Bold-74"/>
     <use transform="translate(2545.654297 0.015625)" xlink:href="#DejaVuSans-Bold-69"/>
     <use transform="translate(2579.931641 0.015625)" xlink:href="#DejaVuSans-Bold-76"/>
     <use transform="translate(2645.117188 0.015625)" xlink:href="#DejaVuSans-Bold-65"/>
     <use transform="translate(2712.939453 0.015625)" xlink:href="#DejaVuSans-Bold-20"/>
     <use transform="translate(2747.753906 0.015625)" xlink:href="#DejaVuSans-Bold-59"/>
     <use transform="translate(2820.166016 0.015625)" xlink:href="#DejaVuSans-Bold-62"/>
    </g>
    <!--  Affinity at LH -->
    <defs>
     <path d="M 44.390625 75.984375 
L 44.390625 64.5 
L 34.71875 64.5 
Q 31 64.5 29.53125 63.15625 
Q 28.078125 61.8125 28.078125 58.5 
L 28.078125 54.6875 
L 43.015625 54.6875 
L 43.015625 42.1875 
L 28.078125 42.1875 
L 28.078125 0 
L 10.59375 0 
L 10.59375 42.1875 
L 1.90625 42.1875 
L 1.90625 54.6875 
L 10.59375 54.6875 
L 10.59375 58.5 
Q 10.59375 67.4375 15.578125 71.703125 
Q 20.5625 75.984375 31 75.984375 
z
" id="DejaVuSans-Bold-66"/>
     <path d="M 9.1875 72.90625 
L 27.984375 72.90625 
L 27.984375 45.125 
L 55.71875 45.125 
L 55.71875 72.90625 
L 74.515625 72.90625 
L 74.515625 0 
L 55.71875 0 
L 55.71875 30.90625 
L 27.984375 30.90625 
L 27.984375 0 
L 9.1875 0 
z
" id="DejaVuSans-Bold-48"/>
    </defs>
    <g transform="translate(96.02619 18.006062)scale(0.07 -0.07)">
     <use xlink:href="#DejaVuSans-Bold-20"/>
     <use x="34.814453" xlink:href="#DejaVuSans-Bold-41"/>
     <use x="112.207031" xlink:href="#DejaVuSans-Bold-66"/>
     <use x="155.712891" xlink:href="#DejaVuSans-Bold-66"/>
     <use x="199.21875" xlink:href="#DejaVuSans-Bold-69"/>
     <use x="233.496094" xlink:href="#DejaVuSans-Bold-6e"/>
     <use x="304.6875" xlink:href="#DejaVuSans-Bold-69"/>
     <use x="338.964844" xlink:href="#DejaVuSans-Bold-74"/>
     <use x="386.767578" xlink:href="#DejaVuSans-Bold-79"/>
     <use x="451.953125" xlink:href="#DejaVuSans-Bold-20"/>
     <use x="486.767578" xlink:href="#DejaVuSans-Bold-61"/>
     <use x="554.248047" xlink:href="#DejaVuSans-Bold-74"/>
     <use x="602.050781" xlink:href="#DejaVuSans-Bold-20"/>
     <use x="636.865234" xlink:href="#DejaVuSans-Bold-4c"/>
     <use x="700.585938" xlink:href="#DejaVuSans-Bold-48"/>
    </g>
   </g>
   <g id="legend_1">
    <g id="patch_7">
     <path d="M 28.59 57.363313 
L 77.7025 57.363313 
Q 78.7025 57.363313 78.7025 56.363313 
L 78.7025 27.33675 
Q 78.7025 26.33675 77.7025 26.33675 
L 28.59 26.33675 
Q 27.59 26.33675 27.59 27.33675 
L 27.59 56.363313 
Q 27.59 57.363313 28.59 57.363313 
z
" style="fill:#ffffff;opacity:0.8;stroke:#cccccc;stroke-linejoin:miter;"/>
    </g>
    <g id="line2d_78">
     <path d="M 29.59 30.385969 
L 39.59 30.385969 
" style="fill:none;stroke:#000000;stroke-dasharray:5.55,2.4;stroke-dashoffset:0;stroke-width:1.5;"/>
    </g>
    <g id="line2d_79"/>
    <g id="text_10">
     <!-- best fit curve -->
     <defs>
      <path d="M 48.6875 27.296875 
Q 48.6875 37.203125 44.609375 42.84375 
Q 40.53125 48.484375 33.40625 48.484375 
Q 26.265625 48.484375 22.1875 42.84375 
Q 18.109375 37.203125 18.109375 27.296875 
Q 18.109375 17.390625 22.1875 11.75 
Q 26.265625 6.109375 33.40625 6.109375 
Q 40.53125 6.109375 44.609375 11.75 
Q 48.6875 17.390625 48.6875 27.296875 
z
M 18.109375 46.390625 
Q 20.953125 51.265625 25.265625 53.625 
Q 29.59375 56 35.59375 56 
Q 45.5625 56 51.78125 48.09375 
Q 58.015625 40.1875 58.015625 27.296875 
Q 58.015625 14.40625 51.78125 6.484375 
Q 45.5625 -1.421875 35.59375 -1.421875 
Q 29.59375 -1.421875 25.265625 0.953125 
Q 20.953125 3.328125 18.109375 8.203125 
L 18.109375 0 
L 9.078125 0 
L 9.078125 75.984375 
L 18.109375 75.984375 
z
" id="DejaVuSans-62"/>
      <path d="M 56.203125 29.59375 
L 56.203125 25.203125 
L 14.890625 25.203125 
Q 15.484375 15.921875 20.484375 11.0625 
Q 25.484375 6.203125 34.421875 6.203125 
Q 39.59375 6.203125 44.453125 7.46875 
Q 49.3125 8.734375 54.109375 11.28125 
L 54.109375 2.78125 
Q 49.265625 0.734375 44.1875 -0.34375 
Q 39.109375 -1.421875 33.890625 -1.421875 
Q 20.796875 -1.421875 13.15625 6.1875 
Q 5.515625 13.8125 5.515625 26.8125 
Q 5.515625 40.234375 12.765625 48.109375 
Q 20.015625 56 32.328125 56 
Q 43.359375 56 49.78125 48.890625 
Q 56.203125 41.796875 56.203125 29.59375 
z
M 47.21875 32.234375 
Q 47.125 39.59375 43.09375 43.984375 
Q 39.0625 48.390625 32.421875 48.390625 
Q 24.90625 48.390625 20.390625 44.140625 
Q 15.875 39.890625 15.1875 32.171875 
z
" id="DejaVuSans-65"/>
      <path d="M 44.28125 53.078125 
L 44.28125 44.578125 
Q 40.484375 46.53125 36.375 47.5 
Q 32.28125 48.484375 27.875 48.484375 
Q 21.1875 48.484375 17.84375 46.4375 
Q 14.5 44.390625 14.5 40.28125 
Q 14.5 37.15625 16.890625 35.375 
Q 19.28125 33.59375 26.515625 31.984375 
L 29.59375 31.296875 
Q 39.15625 29.25 43.1875 25.515625 
Q 47.21875 21.78125 47.21875 15.09375 
Q 47.21875 7.46875 41.1875 3.015625 
Q 35.15625 -1.421875 24.609375 -1.421875 
Q 20.21875 -1.421875 15.453125 -0.5625 
Q 10.6875 0.296875 5.421875 2 
L 5.421875 11.28125 
Q 10.40625 8.6875 15.234375 7.390625 
Q 20.0625 6.109375 24.8125 6.109375 
Q 31.15625 6.109375 34.5625 8.28125 
Q 37.984375 10.453125 37.984375 14.40625 
Q 37.984375 18.0625 35.515625 20.015625 
Q 33.0625 21.96875 24.703125 23.78125 
L 21.578125 24.515625 
Q 13.234375 26.265625 9.515625 29.90625 
Q 5.8125 33.546875 5.8125 39.890625 
Q 5.8125 47.609375 11.28125 51.796875 
Q 16.75 56 26.8125 56 
Q 31.78125 56 36.171875 55.265625 
Q 40.578125 54.546875 44.28125 53.078125 
z
" id="DejaVuSans-73"/>
      <path d="M 18.3125 70.21875 
L 18.3125 54.6875 
L 36.8125 54.6875 
L 36.8125 47.703125 
L 18.3125 47.703125 
L 18.3125 18.015625 
Q 18.3125 11.328125 20.140625 9.421875 
Q 21.96875 7.515625 27.59375 7.515625 
L 36.8125 7.515625 
L 36.8125 0 
L 27.59375 0 
Q 17.1875 0 13.234375 3.875 
Q 9.28125 7.765625 9.28125 18.015625 
L 9.28125 47.703125 
L 2.6875 47.703125 
L 2.6875 54.6875 
L 9.28125 54.6875 
L 9.28125 70.21875 
z
" id="DejaVuSans-74"/>
      <path id="DejaVuSans-20"/>
      <path d="M 37.109375 75.984375 
L 37.109375 68.5 
L 28.515625 68.5 
Q 23.6875 68.5 21.796875 66.546875 
Q 19.921875 64.59375 19.921875 59.515625 
L 19.921875 54.6875 
L 34.71875 54.6875 
L 34.71875 47.703125 
L 19.921875 47.703125 
L 19.921875 0 
L 10.890625 0 
L 10.890625 47.703125 
L 2.296875 47.703125 
L 2.296875 54.6875 
L 10.890625 54.6875 
L 10.890625 58.5 
Q 10.890625 67.625 15.140625 71.796875 
Q 19.390625 75.984375 28.609375 75.984375 
z
" id="DejaVuSans-66"/>
      <path d="M 9.421875 54.6875 
L 18.40625 54.6875 
L 18.40625 0 
L 9.421875 0 
z
M 9.421875 75.984375 
L 18.40625 75.984375 
L 18.40625 64.59375 
L 9.421875 64.59375 
z
" id="DejaVuSans-69"/>
      <path d="M 48.78125 52.59375 
L 48.78125 44.1875 
Q 44.96875 46.296875 41.140625 47.34375 
Q 37.3125 48.390625 33.40625 48.390625 
Q 24.65625 48.390625 19.8125 42.84375 
Q 14.984375 37.3125 14.984375 27.296875 
Q 14.984375 17.28125 19.8125 11.734375 
Q 24.65625 6.203125 33.40625 6.203125 
Q 37.3125 6.203125 41.140625 7.25 
Q 44.96875 8.296875 48.78125 10.40625 
L 48.78125 2.09375 
Q 45.015625 0.34375 40.984375 -0.53125 
Q 36.96875 -1.421875 32.421875 -1.421875 
Q 20.0625 -1.421875 12.78125 6.34375 
Q 5.515625 14.109375 5.515625 27.296875 
Q 5.515625 40.671875 12.859375 48.328125 
Q 20.21875 56 33.015625 56 
Q 37.15625 56 41.109375 55.140625 
Q 45.0625 54.296875 48.78125 52.59375 
z
" id="DejaVuSans-63"/>
      <path d="M 8.5 21.578125 
L 8.5 54.6875 
L 17.484375 54.6875 
L 17.484375 21.921875 
Q 17.484375 14.15625 20.5 10.265625 
Q 23.53125 6.390625 29.59375 6.390625 
Q 36.859375 6.390625 41.078125 11.03125 
Q 45.3125 15.671875 45.3125 23.6875 
L 45.3125 54.6875 
L 54.296875 54.6875 
L 54.296875 0 
L 45.3125 0 
L 45.3125 8.40625 
Q 42.046875 3.421875 37.71875 1 
Q 33.40625 -1.421875 27.6875 -1.421875 
Q 18.265625 -1.421875 13.375 4.4375 
Q 8.5 10.296875 8.5 21.578125 
z
M 31.109375 56 
z
" id="DejaVuSans-75"/>
      <path d="M 41.109375 46.296875 
Q 39.59375 47.171875 37.8125 47.578125 
Q 36.03125 48 33.890625 48 
Q 26.265625 48 22.1875 43.046875 
Q 18.109375 38.09375 18.109375 28.8125 
L 18.109375 0 
L 9.078125 0 
L 9.078125 54.6875 
L 18.109375 54.6875 
L 18.109375 46.1875 
Q 20.953125 51.171875 25.484375 53.578125 
Q 30.03125 56 36.53125 56 
Q 37.453125 56 38.578125 55.875 
Q 39.703125 55.765625 41.0625 55.515625 
z
" id="DejaVuSans-72"/>
      <path d="M 2.984375 54.6875 
L 12.5 54.6875 
L 29.59375 8.796875 
L 46.6875 54.6875 
L 56.203125 54.6875 
L 35.6875 0 
L 23.484375 0 
z
" id="DejaVuSans-76"/>
     </defs>
     <g transform="translate(43.59 32.135969)scale(0.05 -0.05)">
      <use xlink:href="#DejaVuSans-62"/>
      <use x="63.476562" xlink:href="#DejaVuSans-65"/>
      <use x="125" xlink:href="#DejaVuSans-73"/>
      <use x="177.099609" xlink:href="#DejaVuSans-74"/>
      <use x="216.308594" xlink:href="#DejaVuSans-20"/>
      <use x="248.095703" xlink:href="#DejaVuSans-66"/>
      <use x="283.300781" xlink:href="#DejaVuSans-69"/>
      <use x="311.083984" xlink:href="#DejaVuSans-74"/>
      <use x="350.292969" xlink:href="#DejaVuSans-20"/>
      <use x="382.080078" xlink:href="#DejaVuSans-63"/>
      <use x="437.060547" xlink:href="#DejaVuSans-75"/>
      <use x="500.439453" xlink:href="#DejaVuSans-72"/>
      <use x="541.552734" xlink:href="#DejaVuSans-76"/>
      <use x="600.732422" xlink:href="#DejaVuSans-65"/>
     </g>
    </g>
    <g id="PathCollection_33">
     <g>
      <use style="fill:#ff0000;stroke:#ff0000;" x="34.59" xlink:href="#m4f5124dc35" y="38.162531"/>
     </g>
    </g>
    <g id="text_11">
     <!-- $\delta$pyrD -->
     <defs>
      <path d="M 18.109375 8.203125 
L 18.109375 -20.796875 
L 9.078125 -20.796875 
L 9.078125 54.6875 
L 18.109375 54.6875 
L 18.109375 46.390625 
Q 20.953125 51.265625 25.265625 53.625 
Q 29.59375 56 35.59375 56 
Q 45.5625 56 51.78125 48.09375 
Q 58.015625 40.1875 58.015625 27.296875 
Q 58.015625 14.40625 51.78125 6.484375 
Q 45.5625 -1.421875 35.59375 -1.421875 
Q 29.59375 -1.421875 25.265625 0.953125 
Q 20.953125 3.328125 18.109375 8.203125 
z
M 48.6875 27.296875 
Q 48.6875 37.203125 44.609375 42.84375 
Q 40.53125 48.484375 33.40625 48.484375 
Q 26.265625 48.484375 22.1875 42.84375 
Q 18.109375 37.203125 18.109375 27.296875 
Q 18.109375 17.390625 22.1875 11.75 
Q 26.265625 6.109375 33.40625 6.109375 
Q 40.53125 6.109375 44.609375 11.75 
Q 48.6875 17.390625 48.6875 27.296875 
z
" id="DejaVuSans-70"/>
      <path d="M 32.171875 -5.078125 
Q 28.375 -14.84375 24.75 -17.8125 
Q 21.140625 -20.796875 15.09375 -20.796875 
L 7.90625 -20.796875 
L 7.90625 -13.28125 
L 13.1875 -13.28125 
Q 16.890625 -13.28125 18.9375 -11.515625 
Q 21 -9.765625 23.484375 -3.21875 
L 25.09375 0.875 
L 2.984375 54.6875 
L 12.5 54.6875 
L 29.59375 11.921875 
L 46.6875 54.6875 
L 56.203125 54.6875 
z
" id="DejaVuSans-79"/>
      <path d="M 19.671875 64.796875 
L 19.671875 8.109375 
L 31.59375 8.109375 
Q 46.6875 8.109375 53.6875 14.9375 
Q 60.6875 21.78125 60.6875 36.53125 
Q 60.6875 51.171875 53.6875 57.984375 
Q 46.6875 64.796875 31.59375 64.796875 
z
M 9.8125 72.90625 
L 30.078125 72.90625 
Q 51.265625 72.90625 61.171875 64.09375 
Q 71.09375 55.28125 71.09375 36.53125 
Q 71.09375 17.671875 61.125 8.828125 
Q 51.171875 0 30.078125 0 
L 9.8125 0 
z
" id="DejaVuSans-44"/>
     </defs>
     <g transform="translate(43.59 39.475031)scale(0.05 -0.05)">
      <use transform="translate(0 0.78125)" xlink:href="#DejaVuSans-Oblique-3b4"/>
      <use transform="translate(61.181641 0.78125)" xlink:href="#DejaVuSans-70"/>
      <use transform="translate(124.658203 0.78125)" xlink:href="#DejaVuSans-79"/>
      <use transform="translate(183.837891 0.78125)" xlink:href="#DejaVuSans-72"/>
      <use transform="translate(224.951172 0.78125)" xlink:href="#DejaVuSans-44"/>
     </g>
    </g>
    <g id="PathCollection_34">
     <g>
      <use style="fill:#008000;stroke:#008000;" x="34.59" xlink:href="#m6c7463d048" y="45.51175"/>
     </g>
    </g>
    <g id="text_12">
     <!-- $\delta$SO_4685 -->
     <defs>
      <path d="M 53.515625 70.515625 
L 53.515625 60.890625 
Q 47.90625 63.578125 42.921875 64.890625 
Q 37.9375 66.21875 33.296875 66.21875 
Q 25.25 66.21875 20.875 63.09375 
Q 16.5 59.96875 16.5 54.203125 
Q 16.5 49.359375 19.40625 46.890625 
Q 22.3125 44.4375 30.421875 42.921875 
L 36.375 41.703125 
Q 47.40625 39.59375 52.65625 34.296875 
Q 57.90625 29 57.90625 20.125 
Q 57.90625 9.515625 50.796875 4.046875 
Q 43.703125 -1.421875 29.984375 -1.421875 
Q 24.8125 -1.421875 18.96875 -0.25 
Q 13.140625 0.921875 6.890625 3.21875 
L 6.890625 13.375 
Q 12.890625 10.015625 18.65625 8.296875 
Q 24.421875 6.59375 29.984375 6.59375 
Q 38.421875 6.59375 43.015625 9.90625 
Q 47.609375 13.234375 47.609375 19.390625 
Q 47.609375 24.75 44.3125 27.78125 
Q 41.015625 30.8125 33.5 32.328125 
L 27.484375 33.5 
Q 16.453125 35.6875 11.515625 40.375 
Q 6.59375 45.0625 6.59375 53.421875 
Q 6.59375 63.09375 13.40625 68.65625 
Q 20.21875 74.21875 32.171875 74.21875 
Q 37.3125 74.21875 42.625 73.28125 
Q 47.953125 72.359375 53.515625 70.515625 
z
" id="DejaVuSans-53"/>
      <path d="M 39.40625 66.21875 
Q 28.65625 66.21875 22.328125 58.203125 
Q 16.015625 50.203125 16.015625 36.375 
Q 16.015625 22.609375 22.328125 14.59375 
Q 28.65625 6.59375 39.40625 6.59375 
Q 50.140625 6.59375 56.421875 14.59375 
Q 62.703125 22.609375 62.703125 36.375 
Q 62.703125 50.203125 56.421875 58.203125 
Q 50.140625 66.21875 39.40625 66.21875 
z
M 39.40625 74.21875 
Q 54.734375 74.21875 63.90625 63.9375 
Q 73.09375 53.65625 73.09375 36.375 
Q 73.09375 19.140625 63.90625 8.859375 
Q 54.734375 -1.421875 39.40625 -1.421875 
Q 24.03125 -1.421875 14.8125 8.828125 
Q 5.609375 19.09375 5.609375 36.375 
Q 5.609375 53.65625 14.8125 63.9375 
Q 24.03125 74.21875 39.40625 74.21875 
z
" id="DejaVuSans-4f"/>
      <path d="M 50.984375 -16.609375 
L 50.984375 -23.578125 
L -0.984375 -23.578125 
L -0.984375 -16.609375 
z
" id="DejaVuSans-5f"/>
      <path d="M 33.015625 40.375 
Q 26.375 40.375 22.484375 35.828125 
Q 18.609375 31.296875 18.609375 23.390625 
Q 18.609375 15.53125 22.484375 10.953125 
Q 26.375 6.390625 33.015625 6.390625 
Q 39.65625 6.390625 43.53125 10.953125 
Q 47.40625 15.53125 47.40625 23.390625 
Q 47.40625 31.296875 43.53125 35.828125 
Q 39.65625 40.375 33.015625 40.375 
z
M 52.59375 71.296875 
L 52.59375 62.3125 
Q 48.875 64.0625 45.09375 64.984375 
Q 41.3125 65.921875 37.59375 65.921875 
Q 27.828125 65.921875 22.671875 59.328125 
Q 17.53125 52.734375 16.796875 39.40625 
Q 19.671875 43.65625 24.015625 45.921875 
Q 28.375 48.1875 33.59375 48.1875 
Q 44.578125 48.1875 50.953125 41.515625 
Q 57.328125 34.859375 57.328125 23.390625 
Q 57.328125 12.15625 50.6875 5.359375 
Q 44.046875 -1.421875 33.015625 -1.421875 
Q 20.359375 -1.421875 13.671875 8.265625 
Q 6.984375 17.96875 6.984375 36.375 
Q 6.984375 53.65625 15.1875 63.9375 
Q 23.390625 74.21875 37.203125 74.21875 
Q 40.921875 74.21875 44.703125 73.484375 
Q 48.484375 72.75 52.59375 71.296875 
z
" id="DejaVuSans-36"/>
      <path d="M 31.78125 34.625 
Q 24.75 34.625 20.71875 30.859375 
Q 16.703125 27.09375 16.703125 20.515625 
Q 16.703125 13.921875 20.71875 10.15625 
Q 24.75 6.390625 31.78125 6.390625 
Q 38.8125 6.390625 42.859375 10.171875 
Q 46.921875 13.96875 46.921875 20.515625 
Q 46.921875 27.09375 42.890625 30.859375 
Q 38.875 34.625 31.78125 34.625 
z
M 21.921875 38.8125 
Q 15.578125 40.375 12.03125 44.71875 
Q 8.5 49.078125 8.5 55.328125 
Q 8.5 64.0625 14.71875 69.140625 
Q 20.953125 74.21875 31.78125 74.21875 
Q 42.671875 74.21875 48.875 69.140625 
Q 55.078125 64.0625 55.078125 55.328125 
Q 55.078125 49.078125 51.53125 44.71875 
Q 48 40.375 41.703125 38.8125 
Q 48.828125 37.15625 52.796875 32.3125 
Q 56.78125 27.484375 56.78125 20.515625 
Q 56.78125 9.90625 50.3125 4.234375 
Q 43.84375 -1.421875 31.78125 -1.421875 
Q 19.734375 -1.421875 13.25 4.234375 
Q 6.78125 9.90625 6.78125 20.515625 
Q 6.78125 27.484375 10.78125 32.3125 
Q 14.796875 37.15625 21.921875 38.8125 
z
M 18.3125 54.390625 
Q 18.3125 48.734375 21.84375 45.5625 
Q 25.390625 42.390625 31.78125 42.390625 
Q 38.140625 42.390625 41.71875 45.5625 
Q 45.3125 48.734375 45.3125 54.390625 
Q 45.3125 60.0625 41.71875 63.234375 
Q 38.140625 66.40625 31.78125 66.40625 
Q 25.390625 66.40625 21.84375 63.234375 
Q 18.3125 60.0625 18.3125 54.390625 
z
" id="DejaVuSans-38"/>
     </defs>
     <g transform="translate(43.59 46.82425)scale(0.05 -0.05)">
      <use transform="translate(0 0.78125)" xlink:href="#DejaVuSans-Oblique-3b4"/>
      <use transform="translate(61.181641 0.78125)" xlink:href="#DejaVuSans-53"/>
      <use transform="translate(124.658203 0.78125)" xlink:href="#DejaVuSans-4f"/>
      <use transform="translate(203.369141 0.78125)" xlink:href="#DejaVuSans-5f"/>
      <use transform="translate(253.369141 0.78125)" xlink:href="#DejaVuSans-34"/>
      <use transform="translate(316.992188 0.78125)" xlink:href="#DejaVuSans-36"/>
      <use transform="translate(380.615234 0.78125)" xlink:href="#DejaVuSans-38"/>
      <use transform="translate(444.238281 0.78125)" xlink:href="#DejaVuSans-35"/>
     </g>
    </g>
    <g id="PathCollection_35">
     <g>
      <use style="fill:#0000ff;stroke:#0000ff;" x="34.59" xlink:href="#m7b79545ea7" y="53.010969"/>
     </g>
    </g>
    <g id="text_13">
     <!-- $\delta$nusA -->
     <defs>
      <path d="M 54.890625 33.015625 
L 54.890625 0 
L 45.90625 0 
L 45.90625 32.71875 
Q 45.90625 40.484375 42.875 44.328125 
Q 39.84375 48.1875 33.796875 48.1875 
Q 26.515625 48.1875 22.3125 43.546875 
Q 18.109375 38.921875 18.109375 30.90625 
L 18.109375 0 
L 9.078125 0 
L 9.078125 54.6875 
L 18.109375 54.6875 
L 18.109375 46.1875 
Q 21.34375 51.125 25.703125 53.5625 
Q 30.078125 56 35.796875 56 
Q 45.21875 56 50.046875 50.171875 
Q 54.890625 44.34375 54.890625 33.015625 
z
" id="DejaVuSans-6e"/>
      <path d="M 34.1875 63.1875 
L 20.796875 26.90625 
L 47.609375 26.90625 
z
M 28.609375 72.90625 
L 39.796875 72.90625 
L 67.578125 0 
L 57.328125 0 
L 50.6875 18.703125 
L 17.828125 18.703125 
L 11.1875 0 
L 0.78125 0 
z
" id="DejaVuSans-41"/>
     </defs>
     <g transform="translate(43.59 54.323469)scale(0.05 -0.05)">
      <use transform="translate(0 0.78125)" xlink:href="#DejaVuSans-Oblique-3b4"/>
      <use transform="translate(61.181641 0.78125)" xlink:href="#DejaVuSans-6e"/>
      <use transform="translate(124.560547 0.78125)" xlink:href="#DejaVuSans-75"/>
      <use transform="translate(187.939453 0.78125)" xlink:href="#DejaVuSans-73"/>
      <use transform="translate(240.039062 0.78125)" xlink:href="#DejaVuSans-41"/>
     </g>
    </g>
   </g>
  </g>
 </g>
 <defs>
  <clipPath id="p2926aa499a">
   <rect height="97.14325" width="196.76988" x="25.09" y="23.83675"/>
  </clipPath>
 </defs>
</svg>
