<?xml version="1.0" encoding="utf-8" standalone="no"?>
<!DOCTYPE svg PUBLIC "-//W3C//DTD SVG 1.1//EN"
  "http://www.w3.org/Graphics/SVG/1.1/DTD/svg11.dtd">
<!-- Created with matplotlib (http://matplotlib.org/) -->
<svg height="144pt" version="1.1" viewBox="0 0 234 144" width="234pt" xmlns="http://www.w3.org/2000/svg" xmlns:xlink="http://www.w3.org/1999/xlink">
 <defs>
  <style type="text/css">
*{stroke-linecap:butt;stroke-linejoin:round;}
  </style>
 </defs>
 <g id="figure_1">
  <g id="patch_1">
   <path d="M 0 144 
L 234 144 
L 234 0 
L 0 0 
z
" style="fill:none;opacity:0;"/>
  </g>
  <g id="axes_1">
   <g id="patch_2">
    <path d="M 25.09 120.98 
L 216.25983 120.98 
L 216.25983 23.83675 
L 25.09 23.83675 
z
" style="fill:#ffffff;"/>
   </g>
   <g id="PathCollection_1">
    <defs>
     <path d="M 0 3 
C 0.795609 3 1.55874 2.683901 2.12132 2.12132 
C 2.683901 1.55874 3 0.795609 3 0 
C 3 -0.795609 2.683901 -1.55874 2.12132 -2.12132 
C 1.55874 -2.683901 0.795609 -3 0 -3 
C -0.795609 -3 -1.55874 -2.683901 -2.12132 -2.12132 
C -2.683901 -1.55874 -3 -0.795609 -3 0 
C -3 0.795609 -2.683901 1.55874 -2.12132 2.12132 
C -1.55874 2.683901 -0.795609 3 0 3 
z
" id="m069dcd5888" style="stroke:#000000;stroke-opacity:0.1;"/>
    </defs>
    <g clip-path="url(#p65df052991)">
     <use style="fill-opacity:0.1;stroke:#000000;stroke-opacity:0.1;" x="94.754187" xlink:href="#m069dcd5888" y="92.075913"/>
    </g>
   </g>
   <g id="PathCollection_2">
    <g clip-path="url(#p65df052991)">
     <use style="fill-opacity:0.1;stroke:#000000;stroke-opacity:0.1;" x="153.677773" xlink:href="#m069dcd5888" y="64.053243"/>
    </g>
   </g>
   <g id="PathCollection_3">
    <g clip-path="url(#p65df052991)">
     <use style="fill-opacity:0.1;stroke:#000000;stroke-opacity:0.1;" x="139.337248" xlink:href="#m069dcd5888" y="71.107338"/>
    </g>
   </g>
   <g id="PathCollection_4">
    <g clip-path="url(#p65df052991)">
     <use style="fill-opacity:0.1;stroke:#000000;stroke-opacity:0.1;" x="91.274867" xlink:href="#m069dcd5888" y="93.662839"/>
    </g>
   </g>
   <g id="PathCollection_5">
    <g clip-path="url(#p65df052991)">
     <use style="fill-opacity:0.1;stroke:#000000;stroke-opacity:0.1;" x="61.347988" xlink:href="#m069dcd5888" y="114.681478"/>
    </g>
   </g>
   <g id="PathCollection_6">
    <g clip-path="url(#p65df052991)">
     <use style="fill-opacity:0.1;stroke:#000000;stroke-opacity:0.1;" x="195.638501" xlink:href="#m069dcd5888" y="30.193201"/>
    </g>
   </g>
   <g id="PathCollection_7">
    <g clip-path="url(#p65df052991)">
     <use style="fill-opacity:0.1;stroke:#000000;stroke-opacity:0.1;" x="167.94516" xlink:href="#m069dcd5888" y="65.48064"/>
    </g>
   </g>
   <g id="PathCollection_8">
    <g clip-path="url(#p65df052991)">
     <use style="fill-opacity:0.1;stroke:#000000;stroke-opacity:0.1;" x="126.417265" xlink:href="#m069dcd5888" y="83.604408"/>
    </g>
   </g>
   <g id="PathCollection_9">
    <g clip-path="url(#p65df052991)">
     <use style="fill-opacity:0.1;stroke:#000000;stroke-opacity:0.1;" x="113.430391" xlink:href="#m069dcd5888" y="88.808899"/>
    </g>
   </g>
   <g id="PathCollection_10">
    <g clip-path="url(#p65df052991)">
     <use style="fill-opacity:0.1;stroke:#000000;stroke-opacity:0.1;" x="72.804695" xlink:href="#m069dcd5888" y="105.724385"/>
    </g>
   </g>
   <g id="PathCollection_11">
    <g clip-path="url(#p65df052991)">
     <use style="fill-opacity:0.1;stroke:#000000;stroke-opacity:0.1;" x="130.912879" xlink:href="#m069dcd5888" y="74.191879"/>
    </g>
   </g>
   <g id="PathCollection_12">
    <g clip-path="url(#p65df052991)">
     <use style="fill-opacity:0.1;stroke:#000000;stroke-opacity:0.1;" x="98.913745" xlink:href="#m069dcd5888" y="86.494465"/>
    </g>
   </g>
   <g id="PathCollection_13">
    <g clip-path="url(#p65df052991)">
     <use style="fill-opacity:0.1;stroke:#000000;stroke-opacity:0.1;" x="113.113544" xlink:href="#m069dcd5888" y="81.812386"/>
    </g>
   </g>
   <g id="PathCollection_14">
    <g clip-path="url(#p65df052991)">
     <use style="fill-opacity:0.1;stroke:#000000;stroke-opacity:0.1;" x="86.89065" xlink:href="#m069dcd5888" y="91.231079"/>
    </g>
   </g>
   <g id="PathCollection_15">
    <g clip-path="url(#p65df052991)">
     <use style="fill-opacity:0.1;stroke:#000000;stroke-opacity:0.1;" x="52.769378" xlink:href="#m069dcd5888" y="104.758378"/>
    </g>
   </g>
   <g id="PathCollection_16">
    <g clip-path="url(#p65df052991)">
     <use style="fill-opacity:0.1;stroke:#000000;stroke-opacity:0.1;" x="65.205442" xlink:href="#m069dcd5888" y="101.973279"/>
    </g>
   </g>
   <g id="PathCollection_17">
    <g clip-path="url(#p65df052991)">
     <use style="fill-opacity:0.1;stroke:#000000;stroke-opacity:0.1;" x="103.527582" xlink:href="#m069dcd5888" y="83.036651"/>
    </g>
   </g>
   <g id="PathCollection_18">
    <g clip-path="url(#p65df052991)">
     <use style="fill-opacity:0.1;stroke:#000000;stroke-opacity:0.1;" x="85.796042" xlink:href="#m069dcd5888" y="92.487396"/>
    </g>
   </g>
   <g id="PathCollection_19">
    <g clip-path="url(#p65df052991)">
     <use style="fill-opacity:0.1;stroke:#000000;stroke-opacity:0.1;" x="92.419416" xlink:href="#m069dcd5888" y="84.809737"/>
    </g>
   </g>
   <g id="PathCollection_20">
    <g clip-path="url(#p65df052991)">
     <use style="fill-opacity:0.1;stroke:#000000;stroke-opacity:0.1;" x="97.989148" xlink:href="#m069dcd5888" y="86.407219"/>
    </g>
   </g>
   <g id="PathCollection_21">
    <g clip-path="url(#p65df052991)">
     <use style="fill-opacity:0.1;stroke:#000000;stroke-opacity:0.1;" x="95.916533" xlink:href="#m069dcd5888" y="86.260242"/>
    </g>
   </g>
   <g id="PathCollection_22">
    <g clip-path="url(#p65df052991)">
     <use style="fill-opacity:0.1;stroke:#000000;stroke-opacity:0.1;" x="187.686721" xlink:href="#m069dcd5888" y="58.368639"/>
    </g>
   </g>
   <g id="PathCollection_23">
    <g clip-path="url(#p65df052991)">
     <use style="fill-opacity:0.1;stroke:#000000;stroke-opacity:0.1;" x="157.622347" xlink:href="#m069dcd5888" y="69.593163"/>
    </g>
   </g>
   <g id="PathCollection_24">
    <g clip-path="url(#p65df052991)">
     <use style="fill-opacity:0.1;stroke:#000000;stroke-opacity:0.1;" x="193.290955" xlink:href="#m069dcd5888" y="50.582096"/>
    </g>
   </g>
   <g id="PathCollection_25">
    <g clip-path="url(#p65df052991)">
     <use style="fill-opacity:0.1;stroke:#000000;stroke-opacity:0.1;" x="145.303268" xlink:href="#m069dcd5888" y="70.945482"/>
    </g>
   </g>
   <g id="PathCollection_26">
    <g clip-path="url(#p65df052991)">
     <use style="fill-opacity:0.1;stroke:#000000;stroke-opacity:0.1;" x="165.273344" xlink:href="#m069dcd5888" y="67.440535"/>
    </g>
   </g>
   <g id="PathCollection_27">
    <g clip-path="url(#p65df052991)">
     <use style="fill-opacity:0.1;stroke:#000000;stroke-opacity:0.1;" x="143.9839" xlink:href="#m069dcd5888" y="72.674569"/>
    </g>
   </g>
   <g id="PathCollection_28">
    <g clip-path="url(#p65df052991)">
     <use style="fill-opacity:0.1;stroke:#000000;stroke-opacity:0.1;" x="136.948344" xlink:href="#m069dcd5888" y="77.780448"/>
    </g>
   </g>
   <g id="PathCollection_29">
    <g clip-path="url(#p65df052991)">
     <use style="fill-opacity:0.1;stroke:#000000;stroke-opacity:0.1;" x="116.209819" xlink:href="#m069dcd5888" y="82.821411"/>
    </g>
   </g>
   <g id="PathCollection_30">
    <defs>
     <path d="M 0 3 
C 0.795609 3 1.55874 2.683901 2.12132 2.12132 
C 2.683901 1.55874 3 0.795609 3 0 
C 3 -0.795609 2.683901 -1.55874 2.12132 -2.12132 
C 1.55874 -2.683901 0.795609 -3 0 -3 
C -0.795609 -3 -1.55874 -2.683901 -2.12132 -2.12132 
C -2.683901 -1.55874 -3 -0.795609 -3 0 
C -3 0.795609 -2.683901 1.55874 -2.12132 2.12132 
C -1.55874 2.683901 -0.795609 3 0 3 
z
" id="m185c4048dd" style="stroke:#ff0000;"/>
    </defs>
    <g clip-path="url(#p65df052991)">
     <use style="fill:#ff0000;stroke:#ff0000;" x="92.419416" xlink:href="#m185c4048dd" y="84.809737"/>
    </g>
   </g>
   <g id="PathCollection_31">
    <defs>
     <path d="M 0 3 
C 0.795609 3 1.55874 2.683901 2.12132 2.12132 
C 2.683901 1.55874 3 0.795609 3 0 
C 3 -0.795609 2.683901 -1.55874 2.12132 -2.12132 
C 1.55874 -2.683901 0.795609 -3 0 -3 
C -0.795609 -3 -1.55874 -2.683901 -2.12132 -2.12132 
C -2.683901 -1.55874 -3 -0.795609 -3 0 
C -3 0.795609 -2.683901 1.55874 -2.12132 2.12132 
C -1.55874 2.683901 -0.795609 3 0 3 
z
" id="m9b38f6748b" style="stroke:#008000;"/>
    </defs>
    <g clip-path="url(#p65df052991)">
     <use style="fill:#008000;stroke:#008000;" x="195.638501" xlink:href="#m9b38f6748b" y="30.193201"/>
    </g>
   </g>
   <g id="PathCollection_32">
    <defs>
     <path d="M 0 3 
C 0.795609 3 1.55874 2.683901 2.12132 2.12132 
C 2.683901 1.55874 3 0.795609 3 0 
C 3 -0.795609 2.683901 -1.55874 2.12132 -2.12132 
C 1.55874 -2.683901 0.795609 -3 0 -3 
C -0.795609 -3 -1.55874 -2.683901 -2.12132 -2.12132 
C -2.683901 -1.55874 -3 -0.795609 -3 0 
C -3 0.795609 -2.683901 1.55874 -2.12132 2.12132 
C -1.55874 2.683901 -0.795609 3 0 3 
z
" id="m3f7326187f" style="stroke:#0000ff;"/>
    </defs>
    <g clip-path="url(#p65df052991)">
     <use style="fill:#0000ff;stroke:#0000ff;" x="61.347988" xlink:href="#m3f7326187f" y="114.681478"/>
    </g>
   </g>
   <g id="matplotlib.axis_1">
    <g id="xtick_1">
     <g id="line2d_1">
      <path clip-path="url(#p65df052991)" d="M 37.411004 120.98 
L 37.411004 23.83675 
" style="fill:none;stroke:#b0b0b0;stroke-dasharray:2.96,1.28;stroke-dashoffset:0;stroke-width:0.8;"/>
     </g>
     <g id="line2d_2">
      <defs>
       <path d="M 0 0 
L 0 3 
" id="me898d1911a" style="stroke:#000000;stroke-width:0.8;"/>
      </defs>
      <g>
       <use style="stroke:#000000;stroke-width:0.8;" x="37.411004" xlink:href="#me898d1911a" y="120.98"/>
      </g>
     </g>
     <g id="text_1">
      <!-- 6 -->
      <defs>
       <path d="M 33.015625 40.375 
Q 26.375 40.375 22.484375 35.828125 
Q 18.609375 31.296875 18.609375 23.390625 
Q 18.609375 15.53125 22.484375 10.953125 
Q 26.375 6.390625 33.015625 6.390625 
Q 39.65625 6.390625 43.53125 10.953125 
Q 47.40625 15.53125 47.40625 23.390625 
Q 47.40625 31.296875 43.53125 35.828125 
Q 39.65625 40.375 33.015625 40.375 
z
M 52.59375 71.296875 
L 52.59375 62.3125 
Q 48.875 64.0625 45.09375 64.984375 
Q 41.3125 65.921875 37.59375 65.921875 
Q 27.828125 65.921875 22.671875 59.328125 
Q 17.53125 52.734375 16.796875 39.40625 
Q 19.671875 43.65625 24.015625 45.921875 
Q 28.375 48.1875 33.59375 48.1875 
Q 44.578125 48.1875 50.953125 41.515625 
Q 57.328125 34.859375 57.328125 23.390625 
Q 57.328125 12.15625 50.6875 5.359375 
Q 44.046875 -1.421875 33.015625 -1.421875 
Q 20.359375 -1.421875 13.671875 8.265625 
Q 6.984375 17.96875 6.984375 36.375 
Q 6.984375 53.65625 15.1875 63.9375 
Q 23.390625 74.21875 37.203125 74.21875 
Q 40.921875 74.21875 44.703125 73.484375 
Q 48.484375 72.75 52.59375 71.296875 
z
" id="DejaVuSans-36"/>
      </defs>
      <g transform="translate(35.820379 131.279219)scale(0.05 -0.05)">
       <use xlink:href="#DejaVuSans-36"/>
      </g>
     </g>
    </g>
    <g id="xtick_2">
     <g id="line2d_3">
      <path clip-path="url(#p65df052991)" d="M 73.208802 120.98 
L 73.208802 23.83675 
" style="fill:none;stroke:#b0b0b0;stroke-dasharray:2.96,1.28;stroke-dashoffset:0;stroke-width:0.8;"/>
     </g>
     <g id="line2d_4">
      <g>
       <use style="stroke:#000000;stroke-width:0.8;" x="73.208802" xlink:href="#me898d1911a" y="120.98"/>
      </g>
     </g>
     <g id="text_2">
      <!-- 7 -->
      <defs>
       <path d="M 8.203125 72.90625 
L 55.078125 72.90625 
L 55.078125 68.703125 
L 28.609375 0 
L 18.3125 0 
L 43.21875 64.59375 
L 8.203125 64.59375 
z
" id="DejaVuSans-37"/>
      </defs>
      <g transform="translate(71.618177 131.279219)scale(0.05 -0.05)">
       <use xlink:href="#DejaVuSans-37"/>
      </g>
     </g>
    </g>
    <g id="xtick_3">
     <g id="line2d_5">
      <path clip-path="url(#p65df052991)" d="M 109.006599 120.98 
L 109.006599 23.83675 
" style="fill:none;stroke:#b0b0b0;stroke-dasharray:2.96,1.28;stroke-dashoffset:0;stroke-width:0.8;"/>
     </g>
     <g id="line2d_6">
      <g>
       <use style="stroke:#000000;stroke-width:0.8;" x="109.006599" xlink:href="#me898d1911a" y="120.98"/>
      </g>
     </g>
     <g id="text_3">
      <!-- 8 -->
      <defs>
       <path d="M 31.78125 34.625 
Q 24.75 34.625 20.71875 30.859375 
Q 16.703125 27.09375 16.703125 20.515625 
Q 16.703125 13.921875 20.71875 10.15625 
Q 24.75 6.390625 31.78125 6.390625 
Q 38.8125 6.390625 42.859375 10.171875 
Q 46.921875 13.96875 46.921875 20.515625 
Q 46.921875 27.09375 42.890625 30.859375 
Q 38.875 34.625 31.78125 34.625 
z
M 21.921875 38.8125 
Q 15.578125 40.375 12.03125 44.71875 
Q 8.5 49.078125 8.5 55.328125 
Q 8.5 64.0625 14.71875 69.140625 
Q 20.953125 74.21875 31.78125 74.21875 
Q 42.671875 74.21875 48.875 69.140625 
Q 55.078125 64.0625 55.078125 55.328125 
Q 55.078125 49.078125 51.53125 44.71875 
Q 48 40.375 41.703125 38.8125 
Q 48.828125 37.15625 52.796875 32.3125 
Q 56.78125 27.484375 56.78125 20.515625 
Q 56.78125 9.90625 50.3125 4.234375 
Q 43.84375 -1.421875 31.78125 -1.421875 
Q 19.734375 -1.421875 13.25 4.234375 
Q 6.78125 9.90625 6.78125 20.515625 
Q 6.78125 27.484375 10.78125 32.3125 
Q 14.796875 37.15625 21.921875 38.8125 
z
M 18.3125 54.390625 
Q 18.3125 48.734375 21.84375 45.5625 
Q 25.390625 42.390625 31.78125 42.390625 
Q 38.140625 42.390625 41.71875 45.5625 
Q 45.3125 48.734375 45.3125 54.390625 
Q 45.3125 60.0625 41.71875 63.234375 
Q 38.140625 66.40625 31.78125 66.40625 
Q 25.390625 66.40625 21.84375 63.234375 
Q 18.3125 60.0625 18.3125 54.390625 
z
" id="DejaVuSans-38"/>
      </defs>
      <g transform="translate(107.415974 131.279219)scale(0.05 -0.05)">
       <use xlink:href="#DejaVuSans-38"/>
      </g>
     </g>
    </g>
    <g id="xtick_4">
     <g id="line2d_7">
      <path clip-path="url(#p65df052991)" d="M 144.804397 120.98 
L 144.804397 23.83675 
" style="fill:none;stroke:#b0b0b0;stroke-dasharray:2.96,1.28;stroke-dashoffset:0;stroke-width:0.8;"/>
     </g>
     <g id="line2d_8">
      <g>
       <use style="stroke:#000000;stroke-width:0.8;" x="144.804397" xlink:href="#me898d1911a" y="120.98"/>
      </g>
     </g>
     <g id="text_4">
      <!-- 9 -->
      <defs>
       <path d="M 10.984375 1.515625 
L 10.984375 10.5 
Q 14.703125 8.734375 18.5 7.8125 
Q 22.3125 6.890625 25.984375 6.890625 
Q 35.75 6.890625 40.890625 13.453125 
Q 46.046875 20.015625 46.78125 33.40625 
Q 43.953125 29.203125 39.59375 26.953125 
Q 35.25 24.703125 29.984375 24.703125 
Q 19.046875 24.703125 12.671875 31.3125 
Q 6.296875 37.9375 6.296875 49.421875 
Q 6.296875 60.640625 12.9375 67.421875 
Q 19.578125 74.21875 30.609375 74.21875 
Q 43.265625 74.21875 49.921875 64.515625 
Q 56.59375 54.828125 56.59375 36.375 
Q 56.59375 19.140625 48.40625 8.859375 
Q 40.234375 -1.421875 26.421875 -1.421875 
Q 22.703125 -1.421875 18.890625 -0.6875 
Q 15.09375 0.046875 10.984375 1.515625 
z
M 30.609375 32.421875 
Q 37.25 32.421875 41.125 36.953125 
Q 45.015625 41.5 45.015625 49.421875 
Q 45.015625 57.28125 41.125 61.84375 
Q 37.25 66.40625 30.609375 66.40625 
Q 23.96875 66.40625 20.09375 61.84375 
Q 16.21875 57.28125 16.21875 49.421875 
Q 16.21875 41.5 20.09375 36.953125 
Q 23.96875 32.421875 30.609375 32.421875 
z
" id="DejaVuSans-39"/>
      </defs>
      <g transform="translate(143.213772 131.279219)scale(0.05 -0.05)">
       <use xlink:href="#DejaVuSans-39"/>
      </g>
     </g>
    </g>
    <g id="xtick_5">
     <g id="line2d_9">
      <path clip-path="url(#p65df052991)" d="M 180.602194 120.98 
L 180.602194 23.83675 
" style="fill:none;stroke:#b0b0b0;stroke-dasharray:2.96,1.28;stroke-dashoffset:0;stroke-width:0.8;"/>
     </g>
     <g id="line2d_10">
      <g>
       <use style="stroke:#000000;stroke-width:0.8;" x="180.602194" xlink:href="#me898d1911a" y="120.98"/>
      </g>
     </g>
     <g id="text_5">
      <!-- 10 -->
      <defs>
       <path d="M 12.40625 8.296875 
L 28.515625 8.296875 
L 28.515625 63.921875 
L 10.984375 60.40625 
L 10.984375 69.390625 
L 28.421875 72.90625 
L 38.28125 72.90625 
L 38.28125 8.296875 
L 54.390625 8.296875 
L 54.390625 0 
L 12.40625 0 
z
" id="DejaVuSans-31"/>
       <path d="M 31.78125 66.40625 
Q 24.171875 66.40625 20.328125 58.90625 
Q 16.5 51.421875 16.5 36.375 
Q 16.5 21.390625 20.328125 13.890625 
Q 24.171875 6.390625 31.78125 6.390625 
Q 39.453125 6.390625 43.28125 13.890625 
Q 47.125 21.390625 47.125 36.375 
Q 47.125 51.421875 43.28125 58.90625 
Q 39.453125 66.40625 31.78125 66.40625 
z
M 31.78125 74.21875 
Q 44.046875 74.21875 50.515625 64.515625 
Q 56.984375 54.828125 56.984375 36.375 
Q 56.984375 17.96875 50.515625 8.265625 
Q 44.046875 -1.421875 31.78125 -1.421875 
Q 19.53125 -1.421875 13.0625 8.265625 
Q 6.59375 17.96875 6.59375 36.375 
Q 6.59375 54.828125 13.0625 64.515625 
Q 19.53125 74.21875 31.78125 74.21875 
z
" id="DejaVuSans-30"/>
      </defs>
      <g transform="translate(177.420944 131.279219)scale(0.05 -0.05)">
       <use xlink:href="#DejaVuSans-31"/>
       <use x="63.623047" xlink:href="#DejaVuSans-30"/>
      </g>
     </g>
    </g>
    <g id="xtick_6">
     <g id="line2d_11">
      <path clip-path="url(#p65df052991)" d="M 216.399992 120.98 
L 216.399992 23.83675 
" style="fill:none;stroke:#b0b0b0;stroke-dasharray:2.96,1.28;stroke-dashoffset:0;stroke-width:0.8;"/>
     </g>
     <g id="line2d_12">
      <g>
       <use style="stroke:#000000;stroke-width:0.8;" x="216.399992" xlink:href="#me898d1911a" y="120.98"/>
      </g>
     </g>
     <g id="text_6">
      <!-- 11 -->
      <g transform="translate(213.218742 131.279219)scale(0.05 -0.05)">
       <use xlink:href="#DejaVuSans-31"/>
       <use x="63.623047" xlink:href="#DejaVuSans-31"/>
      </g>
     </g>
    </g>
    <g id="text_7">
     <!-- La Biosorption (nmol) -->
     <defs>
      <path d="M 9.1875 72.90625 
L 27.984375 72.90625 
L 27.984375 14.203125 
L 60.984375 14.203125 
L 60.984375 0 
L 9.1875 0 
z
" id="DejaVuSans-Bold-4c"/>
      <path d="M 32.90625 24.609375 
Q 27.4375 24.609375 24.671875 22.75 
Q 21.921875 20.90625 21.921875 17.28125 
Q 21.921875 13.96875 24.140625 12.078125 
Q 26.375 10.203125 30.328125 10.203125 
Q 35.25 10.203125 38.625 13.734375 
Q 42 17.28125 42 22.609375 
L 42 24.609375 
z
M 59.625 31.203125 
L 59.625 0 
L 42 0 
L 42 8.109375 
Q 38.484375 3.125 34.078125 0.84375 
Q 29.6875 -1.421875 23.390625 -1.421875 
Q 14.890625 -1.421875 9.59375 3.53125 
Q 4.296875 8.5 4.296875 16.40625 
Q 4.296875 26.03125 10.90625 30.515625 
Q 17.53125 35.015625 31.6875 35.015625 
L 42 35.015625 
L 42 36.375 
Q 42 40.53125 38.71875 42.453125 
Q 35.453125 44.390625 28.515625 44.390625 
Q 22.90625 44.390625 18.0625 43.265625 
Q 13.234375 42.140625 9.078125 39.890625 
L 9.078125 53.21875 
Q 14.703125 54.59375 20.359375 55.296875 
Q 26.03125 56 31.6875 56 
Q 46.484375 56 53.046875 50.171875 
Q 59.625 44.34375 59.625 31.203125 
z
" id="DejaVuSans-Bold-61"/>
      <path id="DejaVuSans-Bold-20"/>
      <path d="M 38.375 44.671875 
Q 42.828125 44.671875 45.109375 46.625 
Q 47.40625 48.578125 47.40625 52.390625 
Q 47.40625 56.15625 45.109375 58.125 
Q 42.828125 60.109375 38.375 60.109375 
L 27.984375 60.109375 
L 27.984375 44.671875 
z
M 39.015625 12.796875 
Q 44.671875 12.796875 47.53125 15.1875 
Q 50.390625 17.578125 50.390625 22.40625 
Q 50.390625 27.15625 47.5625 29.515625 
Q 44.734375 31.890625 39.015625 31.890625 
L 27.984375 31.890625 
L 27.984375 12.796875 
z
M 56.5 39.015625 
Q 62.546875 37.25 65.859375 32.515625 
Q 69.1875 27.78125 69.1875 20.90625 
Q 69.1875 10.359375 62.0625 5.171875 
Q 54.9375 0 40.375 0 
L 9.1875 0 
L 9.1875 72.90625 
L 37.40625 72.90625 
Q 52.59375 72.90625 59.40625 68.3125 
Q 66.21875 63.71875 66.21875 53.609375 
Q 66.21875 48.296875 63.71875 44.5625 
Q 61.234375 40.828125 56.5 39.015625 
z
" id="DejaVuSans-Bold-42"/>
      <path d="M 8.40625 54.6875 
L 25.875 54.6875 
L 25.875 0 
L 8.40625 0 
z
M 8.40625 75.984375 
L 25.875 75.984375 
L 25.875 61.71875 
L 8.40625 61.71875 
z
" id="DejaVuSans-Bold-69"/>
      <path d="M 34.421875 43.5 
Q 28.609375 43.5 25.5625 39.328125 
Q 22.515625 35.15625 22.515625 27.296875 
Q 22.515625 19.4375 25.5625 15.25 
Q 28.609375 11.078125 34.421875 11.078125 
Q 40.140625 11.078125 43.15625 15.25 
Q 46.1875 19.4375 46.1875 27.296875 
Q 46.1875 35.15625 43.15625 39.328125 
Q 40.140625 43.5 34.421875 43.5 
z
M 34.421875 56 
Q 48.53125 56 56.46875 48.375 
Q 64.40625 40.765625 64.40625 27.296875 
Q 64.40625 13.8125 56.46875 6.1875 
Q 48.53125 -1.421875 34.421875 -1.421875 
Q 20.265625 -1.421875 12.28125 6.1875 
Q 4.296875 13.8125 4.296875 27.296875 
Q 4.296875 40.765625 12.28125 48.375 
Q 20.265625 56 34.421875 56 
z
" id="DejaVuSans-Bold-6f"/>
      <path d="M 51.125 52.984375 
L 51.125 39.703125 
Q 45.515625 42.046875 40.28125 43.21875 
Q 35.0625 44.390625 30.421875 44.390625 
Q 25.4375 44.390625 23.015625 43.140625 
Q 20.609375 41.890625 20.609375 39.3125 
Q 20.609375 37.203125 22.4375 36.078125 
Q 24.265625 34.96875 29 34.421875 
L 32.078125 33.984375 
Q 45.515625 32.28125 50.140625 28.375 
Q 54.78125 24.46875 54.78125 16.109375 
Q 54.78125 7.375 48.328125 2.96875 
Q 41.890625 -1.421875 29.109375 -1.421875 
Q 23.6875 -1.421875 17.890625 -0.5625 
Q 12.109375 0.296875 6 2 
L 6 15.28125 
Q 11.234375 12.75 16.71875 11.46875 
Q 22.21875 10.203125 27.875 10.203125 
Q 33.015625 10.203125 35.59375 11.609375 
Q 38.1875 13.03125 38.1875 15.828125 
Q 38.1875 18.171875 36.40625 19.3125 
Q 34.625 20.453125 29.296875 21.09375 
L 26.21875 21.484375 
Q 14.546875 22.953125 9.859375 26.90625 
Q 5.171875 30.859375 5.171875 38.921875 
Q 5.171875 47.609375 11.125 51.796875 
Q 17.09375 56 29.390625 56 
Q 34.234375 56 39.546875 55.265625 
Q 44.875 54.546875 51.125 52.984375 
z
" id="DejaVuSans-Bold-73"/>
      <path d="M 49.03125 39.796875 
Q 46.734375 40.875 44.453125 41.375 
Q 42.1875 41.890625 39.890625 41.890625 
Q 33.15625 41.890625 29.515625 37.5625 
Q 25.875 33.25 25.875 25.203125 
L 25.875 0 
L 8.40625 0 
L 8.40625 54.6875 
L 25.875 54.6875 
L 25.875 45.703125 
Q 29.25 51.078125 33.609375 53.53125 
Q 37.984375 56 44.09375 56 
Q 44.96875 56 45.984375 55.921875 
Q 47.015625 55.859375 48.96875 55.609375 
z
" id="DejaVuSans-Bold-72"/>
      <path d="M 25.875 7.90625 
L 25.875 -20.796875 
L 8.40625 -20.796875 
L 8.40625 54.6875 
L 25.875 54.6875 
L 25.875 46.6875 
Q 29.5 51.46875 33.890625 53.734375 
Q 38.28125 56 44 56 
Q 54.109375 56 60.59375 47.96875 
Q 67.09375 39.9375 67.09375 27.296875 
Q 67.09375 14.65625 60.59375 6.609375 
Q 54.109375 -1.421875 44 -1.421875 
Q 38.28125 -1.421875 33.890625 0.84375 
Q 29.5 3.125 25.875 7.90625 
z
M 37.5 43.3125 
Q 31.890625 43.3125 28.875 39.1875 
Q 25.875 35.0625 25.875 27.296875 
Q 25.875 19.53125 28.875 15.40625 
Q 31.890625 11.28125 37.5 11.28125 
Q 43.109375 11.28125 46.0625 15.375 
Q 49.03125 19.484375 49.03125 27.296875 
Q 49.03125 35.109375 46.0625 39.203125 
Q 43.109375 43.3125 37.5 43.3125 
z
" id="DejaVuSans-Bold-70"/>
      <path d="M 27.484375 70.21875 
L 27.484375 54.6875 
L 45.515625 54.6875 
L 45.515625 42.1875 
L 27.484375 42.1875 
L 27.484375 19 
Q 27.484375 15.1875 29 13.84375 
Q 30.515625 12.5 35.015625 12.5 
L 44 12.5 
L 44 0 
L 29 0 
Q 18.65625 0 14.328125 4.3125 
Q 10.015625 8.640625 10.015625 19 
L 10.015625 42.1875 
L 1.3125 42.1875 
L 1.3125 54.6875 
L 10.015625 54.6875 
L 10.015625 70.21875 
z
" id="DejaVuSans-Bold-74"/>
      <path d="M 63.375 33.296875 
L 63.375 0 
L 45.796875 0 
L 45.796875 5.421875 
L 45.796875 25.484375 
Q 45.796875 32.5625 45.484375 35.25 
Q 45.171875 37.9375 44.390625 39.203125 
Q 43.359375 40.921875 41.59375 41.875 
Q 39.84375 42.828125 37.59375 42.828125 
Q 32.125 42.828125 29 38.59375 
Q 25.875 34.375 25.875 26.90625 
L 25.875 0 
L 8.40625 0 
L 8.40625 54.6875 
L 25.875 54.6875 
L 25.875 46.6875 
Q 29.828125 51.46875 34.265625 53.734375 
Q 38.71875 56 44.09375 56 
Q 53.5625 56 58.46875 50.1875 
Q 63.375 44.390625 63.375 33.296875 
z
" id="DejaVuSans-Bold-6e"/>
      <path d="M 37.703125 -13.1875 
L 23.1875 -13.1875 
Q 15.71875 -1.125 12.15625 9.734375 
Q 8.59375 20.609375 8.59375 31.296875 
Q 8.59375 42 12.171875 52.953125 
Q 15.765625 63.921875 23.1875 75.875 
L 37.703125 75.875 
Q 31.453125 64.3125 28.328125 53.25 
Q 25.203125 42.1875 25.203125 31.390625 
Q 25.203125 20.609375 28.296875 9.515625 
Q 31.390625 -1.5625 37.703125 -13.1875 
z
" id="DejaVuSans-Bold-28"/>
      <path d="M 59.078125 45.609375 
Q 62.40625 50.6875 66.96875 53.34375 
Q 71.53125 56 77 56 
Q 86.421875 56 91.359375 50.1875 
Q 96.296875 44.390625 96.296875 33.296875 
L 96.296875 0 
L 78.71875 0 
L 78.71875 28.515625 
Q 78.765625 29.15625 78.78125 29.828125 
Q 78.8125 30.515625 78.8125 31.78125 
Q 78.8125 37.59375 77.09375 40.203125 
Q 75.390625 42.828125 71.578125 42.828125 
Q 66.609375 42.828125 63.890625 38.71875 
Q 61.1875 34.625 61.078125 26.859375 
L 61.078125 0 
L 43.5 0 
L 43.5 28.515625 
Q 43.5 37.59375 41.9375 40.203125 
Q 40.375 42.828125 36.375 42.828125 
Q 31.34375 42.828125 28.609375 38.703125 
Q 25.875 34.578125 25.875 26.90625 
L 25.875 0 
L 8.296875 0 
L 8.296875 54.6875 
L 25.875 54.6875 
L 25.875 46.6875 
Q 29.109375 51.3125 33.28125 53.65625 
Q 37.453125 56 42.484375 56 
Q 48.140625 56 52.484375 53.265625 
Q 56.84375 50.53125 59.078125 45.609375 
z
" id="DejaVuSans-Bold-6d"/>
      <path d="M 8.40625 75.984375 
L 25.875 75.984375 
L 25.875 0 
L 8.40625 0 
z
" id="DejaVuSans-Bold-6c"/>
      <path d="M 8.015625 -13.1875 
Q 14.265625 -1.5625 17.390625 9.515625 
Q 20.515625 20.609375 20.515625 31.390625 
Q 20.515625 42.1875 17.390625 53.25 
Q 14.265625 64.3125 8.015625 75.875 
L 22.515625 75.875 
Q 29.9375 63.921875 33.515625 52.953125 
Q 37.109375 42 37.109375 31.296875 
Q 37.109375 20.609375 33.546875 9.734375 
Q 29.984375 -1.125 22.515625 -13.1875 
z
" id="DejaVuSans-Bold-29"/>
     </defs>
     <g transform="translate(77.943743 141.637969)scale(0.07 -0.07)">
      <use xlink:href="#DejaVuSans-Bold-4c"/>
      <use x="63.720703" xlink:href="#DejaVuSans-Bold-61"/>
      <use x="131.201172" xlink:href="#DejaVuSans-Bold-20"/>
      <use x="166.015625" xlink:href="#DejaVuSans-Bold-42"/>
      <use x="242.236328" xlink:href="#DejaVuSans-Bold-69"/>
      <use x="276.513672" xlink:href="#DejaVuSans-Bold-6f"/>
      <use x="345.214844" xlink:href="#DejaVuSans-Bold-73"/>
      <use x="404.736328" xlink:href="#DejaVuSans-Bold-6f"/>
      <use x="473.4375" xlink:href="#DejaVuSans-Bold-72"/>
      <use x="522.753906" xlink:href="#DejaVuSans-Bold-70"/>
      <use x="594.335938" xlink:href="#DejaVuSans-Bold-74"/>
      <use x="642.138672" xlink:href="#DejaVuSans-Bold-69"/>
      <use x="676.416016" xlink:href="#DejaVuSans-Bold-6f"/>
      <use x="745.117188" xlink:href="#DejaVuSans-Bold-6e"/>
      <use x="816.308594" xlink:href="#DejaVuSans-Bold-20"/>
      <use x="851.123047" xlink:href="#DejaVuSans-Bold-28"/>
      <use x="896.826172" xlink:href="#DejaVuSans-Bold-6e"/>
      <use x="968.017578" xlink:href="#DejaVuSans-Bold-6d"/>
      <use x="1072.216797" xlink:href="#DejaVuSans-Bold-6f"/>
      <use x="1140.917969" xlink:href="#DejaVuSans-Bold-6c"/>
      <use x="1175.195312" xlink:href="#DejaVuSans-Bold-29"/>
     </g>
    </g>
   </g>
   <g id="matplotlib.axis_2">
    <g id="ytick_1">
     <g id="line2d_13">
      <path clip-path="url(#p65df052991)" d="M 25.09 104.819463 
L 216.25983 104.819463 
" style="fill:none;stroke:#b0b0b0;stroke-dasharray:2.96,1.28;stroke-dashoffset:0;stroke-width:0.8;"/>
     </g>
     <g id="line2d_14">
      <defs>
       <path d="M 0 0 
L -3 0 
" id="mffef4e4bce" style="stroke:#000000;stroke-width:0.8;"/>
      </defs>
      <g>
       <use style="stroke:#000000;stroke-width:0.8;" x="25.09" xlink:href="#mffef4e4bce" y="104.819463"/>
      </g>
     </g>
     <g id="text_8">
      <!-- 10 -->
      <g transform="translate(12.2275 106.719072)scale(0.05 -0.05)">
       <use xlink:href="#DejaVuSans-31"/>
       <use x="63.623047" xlink:href="#DejaVuSans-30"/>
      </g>
     </g>
    </g>
    <g id="ytick_2">
     <g id="line2d_15">
      <path clip-path="url(#p65df052991)" d="M 25.09 76.707269 
L 216.25983 76.707269 
" style="fill:none;stroke:#b0b0b0;stroke-dasharray:2.96,1.28;stroke-dashoffset:0;stroke-width:0.8;"/>
     </g>
     <g id="line2d_16">
      <g>
       <use style="stroke:#000000;stroke-width:0.8;" x="25.09" xlink:href="#mffef4e4bce" y="76.707269"/>
      </g>
     </g>
     <g id="text_9">
      <!-- 12 -->
      <defs>
       <path d="M 19.1875 8.296875 
L 53.609375 8.296875 
L 53.609375 0 
L 7.328125 0 
L 7.328125 8.296875 
Q 12.9375 14.109375 22.625 23.890625 
Q 32.328125 33.6875 34.8125 36.53125 
Q 39.546875 41.84375 41.421875 45.53125 
Q 43.3125 49.21875 43.3125 52.78125 
Q 43.3125 58.59375 39.234375 62.25 
Q 35.15625 65.921875 28.609375 65.921875 
Q 23.96875 65.921875 18.8125 64.3125 
Q 13.671875 62.703125 7.8125 59.421875 
L 7.8125 69.390625 
Q 13.765625 71.78125 18.9375 73 
Q 24.125 74.21875 28.421875 74.21875 
Q 39.75 74.21875 46.484375 68.546875 
Q 53.21875 62.890625 53.21875 53.421875 
Q 53.21875 48.921875 51.53125 44.890625 
Q 49.859375 40.875 45.40625 35.40625 
Q 44.1875 33.984375 37.640625 27.21875 
Q 31.109375 20.453125 19.1875 8.296875 
z
" id="DejaVuSans-32"/>
      </defs>
      <g transform="translate(12.2275 78.606878)scale(0.05 -0.05)">
       <use xlink:href="#DejaVuSans-31"/>
       <use x="63.623047" xlink:href="#DejaVuSans-32"/>
      </g>
     </g>
    </g>
    <g id="ytick_3">
     <g id="line2d_17">
      <path clip-path="url(#p65df052991)" d="M 25.09 48.595075 
L 216.25983 48.595075 
" style="fill:none;stroke:#b0b0b0;stroke-dasharray:2.96,1.28;stroke-dashoffset:0;stroke-width:0.8;"/>
     </g>
     <g id="line2d_18">
      <g>
       <use style="stroke:#000000;stroke-width:0.8;" x="25.09" xlink:href="#mffef4e4bce" y="48.595075"/>
      </g>
     </g>
     <g id="text_10">
      <!-- 14 -->
      <defs>
       <path d="M 37.796875 64.3125 
L 12.890625 25.390625 
L 37.796875 25.390625 
z
M 35.203125 72.90625 
L 47.609375 72.90625 
L 47.609375 25.390625 
L 58.015625 25.390625 
L 58.015625 17.1875 
L 47.609375 17.1875 
L 47.609375 0 
L 37.796875 0 
L 37.796875 17.1875 
L 4.890625 17.1875 
L 4.890625 26.703125 
z
" id="DejaVuSans-34"/>
      </defs>
      <g transform="translate(12.2275 50.494684)scale(0.05 -0.05)">
       <use xlink:href="#DejaVuSans-31"/>
       <use x="63.623047" xlink:href="#DejaVuSans-34"/>
      </g>
     </g>
    </g>
    <g id="text_11">
     <!-- Yb biosorption (nmol) -->
     <defs>
      <path d="M -0.984375 72.90625 
L 19.578125 72.90625 
L 36.1875 46.921875 
L 52.78125 72.90625 
L 73.390625 72.90625 
L 45.609375 30.71875 
L 45.609375 0 
L 26.8125 0 
L 26.8125 30.71875 
z
" id="DejaVuSans-Bold-59"/>
      <path d="M 37.5 11.28125 
Q 43.109375 11.28125 46.0625 15.375 
Q 49.03125 19.484375 49.03125 27.296875 
Q 49.03125 35.109375 46.0625 39.203125 
Q 43.109375 43.3125 37.5 43.3125 
Q 31.890625 43.3125 28.875 39.1875 
Q 25.875 35.0625 25.875 27.296875 
Q 25.875 19.53125 28.875 15.40625 
Q 31.890625 11.28125 37.5 11.28125 
z
M 25.875 46.6875 
Q 29.5 51.46875 33.890625 53.734375 
Q 38.28125 56 44 56 
Q 54.109375 56 60.59375 47.96875 
Q 67.09375 39.9375 67.09375 27.296875 
Q 67.09375 14.65625 60.59375 6.609375 
Q 54.109375 -1.421875 44 -1.421875 
Q 38.28125 -1.421875 33.890625 0.84375 
Q 29.5 3.125 25.875 7.90625 
L 25.875 0 
L 8.40625 0 
L 8.40625 75.984375 
L 25.875 75.984375 
z
" id="DejaVuSans-Bold-62"/>
     </defs>
     <g transform="translate(6.771719 115.424469)rotate(-90)scale(0.07 -0.07)">
      <use xlink:href="#DejaVuSans-Bold-59"/>
      <use x="72.412109" xlink:href="#DejaVuSans-Bold-62"/>
      <use x="143.994141" xlink:href="#DejaVuSans-Bold-20"/>
      <use x="178.808594" xlink:href="#DejaVuSans-Bold-62"/>
      <use x="250.390625" xlink:href="#DejaVuSans-Bold-69"/>
      <use x="284.667969" xlink:href="#DejaVuSans-Bold-6f"/>
      <use x="353.369141" xlink:href="#DejaVuSans-Bold-73"/>
      <use x="412.890625" xlink:href="#DejaVuSans-Bold-6f"/>
      <use x="481.591797" xlink:href="#DejaVuSans-Bold-72"/>
      <use x="530.908203" xlink:href="#DejaVuSans-Bold-70"/>
      <use x="602.490234" xlink:href="#DejaVuSans-Bold-74"/>
      <use x="650.292969" xlink:href="#DejaVuSans-Bold-69"/>
      <use x="684.570312" xlink:href="#DejaVuSans-Bold-6f"/>
      <use x="753.271484" xlink:href="#DejaVuSans-Bold-6e"/>
      <use x="824.462891" xlink:href="#DejaVuSans-Bold-20"/>
      <use x="859.277344" xlink:href="#DejaVuSans-Bold-28"/>
      <use x="904.980469" xlink:href="#DejaVuSans-Bold-6e"/>
      <use x="976.171875" xlink:href="#DejaVuSans-Bold-6d"/>
      <use x="1080.371094" xlink:href="#DejaVuSans-Bold-6f"/>
      <use x="1149.072266" xlink:href="#DejaVuSans-Bold-6c"/>
      <use x="1183.349609" xlink:href="#DejaVuSans-Bold-29"/>
     </g>
    </g>
   </g>
   <g id="line2d_19">
    <path clip-path="url(#p65df052991)" d="M 93.172096 91.483021 
L 96.336278 92.668804 
" style="fill:none;opacity:0.1;stroke:#000000;stroke-linecap:square;stroke-width:1.5;"/>
   </g>
   <g id="line2d_20">
    <path clip-path="url(#p65df052991)" d="M 83.175406 96.839519 
L 106.332969 87.312307 
" style="fill:none;opacity:0.1;stroke:#000000;stroke-linecap:square;stroke-width:1.5;"/>
   </g>
   <g id="line2d_21">
    <path clip-path="url(#p65df052991)" d="M 146.4799 62.989514 
L 160.875646 65.116972 
" style="fill:none;opacity:0.1;stroke:#000000;stroke-linecap:square;stroke-width:1.5;"/>
   </g>
   <g id="line2d_22">
    <path clip-path="url(#p65df052991)" d="M 148.04172 69.933077 
L 159.313827 58.173408 
" style="fill:none;opacity:0.1;stroke:#000000;stroke-linecap:square;stroke-width:1.5;"/>
   </g>
   <g id="line2d_23">
    <path clip-path="url(#p65df052991)" d="M 138.711885 71.058177 
L 139.962612 71.156499 
" style="fill:none;opacity:0.1;stroke:#000000;stroke-linecap:square;stroke-width:1.5;"/>
   </g>
   <g id="line2d_24">
    <path clip-path="url(#p65df052991)" d="M 136.87457 75.937215 
L 141.799927 66.277462 
" style="fill:none;opacity:0.1;stroke:#000000;stroke-linecap:square;stroke-width:1.5;"/>
   </g>
   <g id="line2d_25">
    <path clip-path="url(#p65df052991)" d="M 83.308651 96.50823 
L 99.241083 90.817448 
" style="fill:none;opacity:0.1;stroke:#000000;stroke-linecap:square;stroke-width:1.5;"/>
   </g>
   <g id="line2d_26">
    <path clip-path="url(#p65df052991)" d="M 92.512469 94.197044 
L 90.037266 93.128634 
" style="fill:none;opacity:0.1;stroke:#000000;stroke-linecap:square;stroke-width:1.5;"/>
   </g>
   <g id="line2d_27">
    <path clip-path="url(#p65df052991)" d="M 55.437567 115.089093 
L 67.25841 114.273862 
" style="fill:none;opacity:0.1;stroke:#000000;stroke-linecap:square;stroke-width:1.5;"/>
   </g>
   <g id="line2d_28">
    <path clip-path="url(#p65df052991)" d="M 61.992338 116.121954 
L 60.703639 113.241002 
" style="fill:none;opacity:0.1;stroke:#000000;stroke-linecap:square;stroke-width:1.5;"/>
   </g>
   <g id="line2d_29">
    <path clip-path="url(#p65df052991)" d="M 186.005807 29.060054 
L 205.271195 31.326349 
" style="fill:none;opacity:0.1;stroke:#000000;stroke-linecap:square;stroke-width:1.5;"/>
   </g>
   <g id="line2d_30">
    <path clip-path="url(#p65df052991)" d="M 194.157643 32.13405 
L 197.119359 28.252352 
" style="fill:none;opacity:0.1;stroke:#000000;stroke-linecap:square;stroke-width:1.5;"/>
   </g>
   <g id="line2d_31">
    <path clip-path="url(#p65df052991)" d="M 158.652385 66.971322 
L 177.237935 63.989958 
" style="fill:none;opacity:0.1;stroke:#000000;stroke-linecap:square;stroke-width:1.5;"/>
   </g>
   <g id="line2d_32">
    <path clip-path="url(#p65df052991)" d="M 169.394324 66.873459 
L 166.495996 64.087821 
" style="fill:none;opacity:0.1;stroke:#000000;stroke-linecap:square;stroke-width:1.5;"/>
   </g>
   <g id="line2d_33">
    <path clip-path="url(#p65df052991)" d="M 125.085435 83.122078 
L 127.749095 84.086737 
" style="fill:none;opacity:0.1;stroke:#000000;stroke-linecap:square;stroke-width:1.5;"/>
   </g>
   <g id="line2d_34">
    <path clip-path="url(#p65df052991)" d="M 113.83028 88.962913 
L 139.004251 78.245902 
" style="fill:none;opacity:0.1;stroke:#000000;stroke-linecap:square;stroke-width:1.5;"/>
   </g>
   <g id="line2d_35">
    <path clip-path="url(#p65df052991)" d="M 101.900245 90.946481 
L 124.960536 86.671317 
" style="fill:none;opacity:0.1;stroke:#000000;stroke-linecap:square;stroke-width:1.5;"/>
   </g>
   <g id="line2d_36">
    <path clip-path="url(#p65df052991)" d="M 114.10093 89.366538 
L 112.759851 88.25126 
" style="fill:none;opacity:0.1;stroke:#000000;stroke-linecap:square;stroke-width:1.5;"/>
   </g>
   <g id="line2d_37">
    <path clip-path="url(#p65df052991)" d="M 64.692398 107.319684 
L 80.916993 104.129086 
" style="fill:none;opacity:0.1;stroke:#000000;stroke-linecap:square;stroke-width:1.5;"/>
   </g>
   <g id="line2d_38">
    <path clip-path="url(#p65df052991)" d="M 74.016969 106.674813 
L 71.592422 104.773957 
" style="fill:none;opacity:0.1;stroke:#000000;stroke-linecap:square;stroke-width:1.5;"/>
   </g>
   <g id="line2d_39">
    <path clip-path="url(#p65df052991)" d="M 111.419785 81.817777 
L 150.405973 66.565982 
" style="fill:none;opacity:0.1;stroke:#000000;stroke-linecap:square;stroke-width:1.5;"/>
   </g>
   <g id="line2d_40">
    <path clip-path="url(#p65df052991)" d="M 131.901951 74.581673 
L 129.923807 73.802086 
" style="fill:none;opacity:0.1;stroke:#000000;stroke-linecap:square;stroke-width:1.5;"/>
   </g>
   <g id="line2d_41">
    <path clip-path="url(#p65df052991)" d="M 97.086031 86.054018 
L 100.741459 86.934913 
" style="fill:none;opacity:0.1;stroke:#000000;stroke-linecap:square;stroke-width:1.5;"/>
   </g>
   <g id="line2d_42">
    <path clip-path="url(#p65df052991)" d="M 94.335722 89.423395 
L 103.491769 83.565535 
" style="fill:none;opacity:0.1;stroke:#000000;stroke-linecap:square;stroke-width:1.5;"/>
   </g>
   <g id="line2d_43">
    <path clip-path="url(#p65df052991)" d="M 108.480182 80.296853 
L 117.746905 83.327919 
" style="fill:none;opacity:0.1;stroke:#000000;stroke-linecap:square;stroke-width:1.5;"/>
   </g>
   <g id="line2d_44">
    <path clip-path="url(#p65df052991)" d="M 98.527227 88.687711 
L 127.699861 74.937061 
" style="fill:none;opacity:0.1;stroke:#000000;stroke-linecap:square;stroke-width:1.5;"/>
   </g>
   <g id="line2d_45">
    <path clip-path="url(#p65df052991)" d="M 85.583396 90.902213 
L 88.197904 91.559945 
" style="fill:none;opacity:0.1;stroke:#000000;stroke-linecap:square;stroke-width:1.5;"/>
   </g>
   <g id="line2d_46">
    <path clip-path="url(#p65df052991)" d="M 80.378813 95.221896 
L 93.402487 87.240262 
" style="fill:none;opacity:0.1;stroke:#000000;stroke-linecap:square;stroke-width:1.5;"/>
   </g>
   <g id="line2d_47">
    <path clip-path="url(#p65df052991)" d="M 33.779538 111.409286 
L 71.759218 98.10747 
" style="fill:none;opacity:0.1;stroke:#000000;stroke-linecap:square;stroke-width:1.5;"/>
   </g>
   <g id="line2d_48">
    <path clip-path="url(#p65df052991)" d="M 54.295624 105.430242 
L 51.243132 104.086513 
" style="fill:none;opacity:0.1;stroke:#000000;stroke-linecap:square;stroke-width:1.5;"/>
   </g>
   <g id="line2d_49">
    <path clip-path="url(#p65df052991)" d="M 57.547444 103.798596 
L 72.863441 100.147962 
" style="fill:none;opacity:0.1;stroke:#000000;stroke-linecap:square;stroke-width:1.5;"/>
   </g>
   <g id="line2d_50">
    <path clip-path="url(#p65df052991)" d="M 65.35926 102.072774 
L 65.051624 101.873785 
" style="fill:none;opacity:0.1;stroke:#000000;stroke-linecap:square;stroke-width:1.5;"/>
   </g>
   <g id="line2d_51">
    <path clip-path="url(#p65df052991)" d="M 94.817905 83.980633 
L 112.237259 82.092668 
" style="fill:none;opacity:0.1;stroke:#000000;stroke-linecap:square;stroke-width:1.5;"/>
   </g>
   <g id="line2d_52">
    <path clip-path="url(#p65df052991)" d="M 103.537299 83.050472 
L 103.517866 83.022829 
" style="fill:none;opacity:0.1;stroke:#000000;stroke-linecap:square;stroke-width:1.5;"/>
   </g>
   <g id="line2d_53">
    <path clip-path="url(#p65df052991)" d="M 85.246197 92.54599 
L 86.345886 92.428802 
" style="fill:none;opacity:0.1;stroke:#000000;stroke-linecap:square;stroke-width:1.5;"/>
   </g>
   <g id="line2d_54">
    <path clip-path="url(#p65df052991)" d="M 88.067268 95.773388 
L 83.524815 89.201404 
" style="fill:none;opacity:0.1;stroke:#000000;stroke-linecap:square;stroke-width:1.5;"/>
   </g>
   <g id="line2d_55">
    <path clip-path="url(#p65df052991)" d="M 83.022131 88.494428 
L 101.816701 81.125046 
" style="fill:none;opacity:0.1;stroke:#000000;stroke-linecap:square;stroke-width:1.5;"/>
   </g>
   <g id="line2d_56">
    <path clip-path="url(#p65df052991)" d="M 92.44954 84.821582 
L 92.389292 84.797892 
" style="fill:none;opacity:0.1;stroke:#000000;stroke-linecap:square;stroke-width:1.5;"/>
   </g>
   <g id="line2d_57">
    <path clip-path="url(#p65df052991)" d="M 91.09001 87.994502 
L 104.888286 84.819935 
" style="fill:none;opacity:0.1;stroke:#000000;stroke-linecap:square;stroke-width:1.5;"/>
   </g>
   <g id="line2d_58">
    <path clip-path="url(#p65df052991)" d="M 98.997336 87.082833 
L 96.98096 85.731604 
" style="fill:none;opacity:0.1;stroke:#000000;stroke-linecap:square;stroke-width:1.5;"/>
   </g>
   <g id="line2d_59">
    <path clip-path="url(#p65df052991)" d="M 90.999518 86.214151 
L 100.833548 86.306333 
" style="fill:none;opacity:0.1;stroke:#000000;stroke-linecap:square;stroke-width:1.5;"/>
   </g>
   <g id="line2d_60">
    <path clip-path="url(#p65df052991)" d="M 95.884019 86.795029 
L 95.949048 85.725454 
" style="fill:none;opacity:0.1;stroke:#000000;stroke-linecap:square;stroke-width:1.5;"/>
   </g>
   <g id="line2d_61">
    <path clip-path="url(#p65df052991)" d="M 178.682873 60.290372 
L 196.690568 56.446905 
" style="fill:none;opacity:0.1;stroke:#000000;stroke-linecap:square;stroke-width:1.5;"/>
   </g>
   <g id="line2d_62">
    <path clip-path="url(#p65df052991)" d="M 188.97749 59.301034 
L 186.395952 57.436243 
" style="fill:none;opacity:0.1;stroke:#000000;stroke-linecap:square;stroke-width:1.5;"/>
   </g>
   <g id="line2d_63">
    <path clip-path="url(#p65df052991)" d="M 146.02633 73.574452 
L 169.218364 65.611874 
" style="fill:none;opacity:0.1;stroke:#000000;stroke-linecap:square;stroke-width:1.5;"/>
   </g>
   <g id="line2d_64">
    <path clip-path="url(#p65df052991)" d="M 158.856805 70.147506 
L 156.387889 69.03882 
" style="fill:none;opacity:0.1;stroke:#000000;stroke-linecap:square;stroke-width:1.5;"/>
   </g>
   <g id="line2d_65">
    <path clip-path="url(#p65df052991)" d="M 179.011619 55.552131 
L 207.570292 45.612061 
" style="fill:none;opacity:0.1;stroke:#000000;stroke-linecap:square;stroke-width:1.5;"/>
   </g>
   <g id="line2d_66">
    <path clip-path="url(#p65df052991)" d="M 194.679235 51.19705 
L 191.902676 49.967143 
" style="fill:none;opacity:0.1;stroke:#000000;stroke-linecap:square;stroke-width:1.5;"/>
   </g>
   <g id="line2d_67">
    <path clip-path="url(#p65df052991)" d="M 144.330042 70.647744 
L 146.276494 71.243221 
" style="fill:none;opacity:0.1;stroke:#000000;stroke-linecap:square;stroke-width:1.5;"/>
   </g>
   <g id="line2d_68">
    <path clip-path="url(#p65df052991)" d="M 136.012174 75.627813 
L 154.594361 66.263151 
" style="fill:none;opacity:0.1;stroke:#000000;stroke-linecap:square;stroke-width:1.5;"/>
   </g>
   <g id="line2d_69">
    <path clip-path="url(#p65df052991)" d="M 164.467951 67.153852 
L 166.078738 67.727217 
" style="fill:none;opacity:0.1;stroke:#000000;stroke-linecap:square;stroke-width:1.5;"/>
   </g>
   <g id="line2d_70">
    <path clip-path="url(#p65df052991)" d="M 157.483244 70.814703 
L 173.063445 64.066366 
" style="fill:none;opacity:0.1;stroke:#000000;stroke-linecap:square;stroke-width:1.5;"/>
   </g>
   <g id="line2d_71">
    <path clip-path="url(#p65df052991)" d="M 134.907058 75.723059 
L 153.060742 69.62608 
" style="fill:none;opacity:0.1;stroke:#000000;stroke-linecap:square;stroke-width:1.5;"/>
   </g>
   <g id="line2d_72">
    <path clip-path="url(#p65df052991)" d="M 145.514216 73.377072 
L 142.453584 71.972066 
" style="fill:none;opacity:0.1;stroke:#000000;stroke-linecap:square;stroke-width:1.5;"/>
   </g>
   <g id="line2d_73">
    <path clip-path="url(#p65df052991)" d="M 135.442016 77.298459 
L 138.454673 78.262437 
" style="fill:none;opacity:0.1;stroke:#000000;stroke-linecap:square;stroke-width:1.5;"/>
   </g>
   <g id="line2d_74">
    <path clip-path="url(#p65df052991)" d="M 131.776396 80.272479 
L 142.120293 75.288418 
" style="fill:none;opacity:0.1;stroke:#000000;stroke-linecap:square;stroke-width:1.5;"/>
   </g>
   <g id="line2d_75">
    <path clip-path="url(#p65df052991)" d="M 114.205361 82.18226 
L 118.214278 83.460562 
" style="fill:none;opacity:0.1;stroke:#000000;stroke-linecap:square;stroke-width:1.5;"/>
   </g>
   <g id="line2d_76">
    <path clip-path="url(#p65df052991)" d="M 107.666551 86.952215 
L 124.753088 78.690608 
" style="fill:none;opacity:0.1;stroke:#000000;stroke-linecap:square;stroke-width:1.5;"/>
   </g>
   <g id="line2d_77">
    <path clip-path="url(#p65df052991)" d="M 83.022131 88.494428 
L 101.816701 81.125046 
" style="fill:none;stroke:#ff0000;stroke-linecap:square;stroke-width:1.5;"/>
   </g>
   <g id="line2d_78">
    <path clip-path="url(#p65df052991)" d="M 92.44954 84.821582 
L 92.389292 84.797892 
" style="fill:none;stroke:#ff0000;stroke-linecap:square;stroke-width:1.5;"/>
   </g>
   <g id="line2d_79">
    <path clip-path="url(#p65df052991)" d="M 186.005807 29.060054 
L 205.271195 31.326349 
" style="fill:none;stroke:#008000;stroke-linecap:square;stroke-width:1.5;"/>
   </g>
   <g id="line2d_80">
    <path clip-path="url(#p65df052991)" d="M 194.157643 32.13405 
L 197.119359 28.252352 
" style="fill:none;stroke:#008000;stroke-linecap:square;stroke-width:1.5;"/>
   </g>
   <g id="line2d_81">
    <path clip-path="url(#p65df052991)" d="M 55.437567 115.089093 
L 67.25841 114.273862 
" style="fill:none;stroke:#0000ff;stroke-linecap:square;stroke-width:1.5;"/>
   </g>
   <g id="line2d_82">
    <path clip-path="url(#p65df052991)" d="M 61.992338 116.121954 
L 60.703639 113.241002 
" style="fill:none;stroke:#0000ff;stroke-linecap:square;stroke-width:1.5;"/>
   </g>
   <g id="line2d_83">
    <path clip-path="url(#p65df052991)" d="M 56.499432 103.077845 
L 58.012587 102.539409 
L 59.525742 102.000972 
L 61.038898 101.462535 
L 62.552053 100.924098 
L 64.065208 100.385661 
L 65.578363 99.847225 
L 67.091518 99.308788 
L 68.604673 98.770351 
L 70.117828 98.231914 
L 71.630983 97.693477 
L 73.144138 97.155041 
L 74.657293 96.616604 
L 76.170448 96.078167 
L 77.683603 95.53973 
L 79.196758 95.001293 
L 80.709914 94.462856 
L 82.223069 93.92442 
L 83.736224 93.385983 
L 85.249379 92.847546 
L 86.762534 92.309109 
L 88.275689 91.770672 
L 89.788844 91.232236 
L 91.301999 90.693799 
L 92.815154 90.155362 
L 94.328309 89.616925 
L 95.841464 89.078488 
L 97.354619 88.540052 
L 98.867775 88.001615 
L 100.38093 87.463178 
L 101.894085 86.924741 
L 103.40724 86.386304 
L 104.920395 85.847867 
L 106.43355 85.309431 
L 107.946705 84.770994 
L 109.45986 84.232557 
L 110.973015 83.69412 
L 112.48617 83.155683 
L 113.999325 82.617247 
L 115.51248 82.07881 
L 117.025635 81.540373 
L 118.538791 81.001936 
L 120.051946 80.463499 
L 121.565101 79.925063 
L 123.078256 79.386626 
L 124.591411 78.848189 
L 126.104566 78.309752 
L 127.617721 77.771315 
L 129.130876 77.232879 
L 130.644031 76.694442 
L 132.157186 76.156005 
L 133.670341 75.617568 
L 135.183496 75.079131 
L 136.696651 74.540694 
L 138.209807 74.002258 
L 139.722962 73.463821 
L 141.236117 72.925384 
L 142.749272 72.386947 
L 144.262427 71.84851 
L 145.775582 71.310074 
L 147.288737 70.771637 
L 148.801892 70.2332 
L 150.315047 69.694763 
L 151.828202 69.156326 
L 153.341357 68.61789 
L 154.854512 68.079453 
L 156.367668 67.541016 
L 157.880823 67.002579 
L 159.393978 66.464142 
L 160.907133 65.925705 
L 162.420288 65.387269 
L 163.933443 64.848832 
L 165.446598 64.310395 
L 166.959753 63.771958 
L 168.472908 63.233521 
L 169.986063 62.695085 
L 171.499218 62.156648 
L 173.012373 61.618211 
L 174.525528 61.079774 
L 176.038684 60.541337 
L 177.551839 60.002901 
L 179.064994 59.464464 
L 180.578149 58.926027 
L 182.091304 58.38759 
L 183.604459 57.849153 
L 185.117614 57.310717 
L 186.630769 56.77228 
L 188.143924 56.233843 
L 189.657079 55.695406 
L 191.170234 55.156969 
L 192.683389 54.618532 
L 194.196545 54.080096 
L 195.7097 53.541659 
L 197.222855 53.003222 
L 198.73601 52.464785 
L 200.249165 51.926348 
L 201.76232 51.387912 
L 203.275475 50.849475 
L 204.78863 50.311038 
L 206.301785 49.772601 
" style="fill:none;stroke:#000000;stroke-dasharray:5.55,2.4;stroke-dashoffset:0;stroke-width:1.5;"/>
   </g>
   <g id="patch_3">
    <path d="M 25.09 120.98 
L 25.09 23.83675 
" style="fill:none;stroke:#000000;stroke-linecap:square;stroke-linejoin:miter;stroke-width:0.8;"/>
   </g>
   <g id="patch_4">
    <path d="M 216.25983 120.98 
L 216.25983 23.83675 
" style="fill:none;stroke:#000000;stroke-linecap:square;stroke-linejoin:miter;stroke-width:0.8;"/>
   </g>
   <g id="patch_5">
    <path d="M 25.09 120.98 
L 216.25983 120.98 
" style="fill:none;stroke:#000000;stroke-linecap:square;stroke-linejoin:miter;stroke-width:0.8;"/>
   </g>
   <g id="patch_6">
    <path d="M 25.09 23.83675 
L 216.25983 23.83675 
" style="fill:none;stroke:#000000;stroke-linecap:square;stroke-linejoin:miter;stroke-width:0.8;"/>
   </g>
   <g id="text_12">
    <!-- C: $\delta$pyrD, $\delta$SO_4685, and $\delta$nusA Change Relative Yb/La -->
    <defs>
     <path d="M 67 4 
Q 61.8125 1.3125 56.203125 -0.046875 
Q 50.59375 -1.421875 44.484375 -1.421875 
Q 26.265625 -1.421875 15.625 8.765625 
Q 4.984375 18.953125 4.984375 36.375 
Q 4.984375 53.859375 15.625 64.03125 
Q 26.265625 74.21875 44.484375 74.21875 
Q 50.59375 74.21875 56.203125 72.84375 
Q 61.8125 71.484375 67 68.796875 
L 67 53.71875 
Q 61.765625 57.28125 56.6875 58.9375 
Q 51.609375 60.59375 46 60.59375 
Q 35.9375 60.59375 30.171875 54.140625 
Q 24.421875 47.703125 24.421875 36.375 
Q 24.421875 25.09375 30.171875 18.640625 
Q 35.9375 12.203125 46 12.203125 
Q 51.609375 12.203125 56.6875 13.859375 
Q 61.765625 15.53125 67 19.09375 
z
" id="DejaVuSans-Bold-43"/>
     <path d="M 11.1875 54.6875 
L 28.8125 54.6875 
L 28.8125 35.796875 
L 11.1875 35.796875 
z
M 11.1875 18.890625 
L 28.8125 18.890625 
L 28.8125 0 
L 11.1875 0 
z
" id="DejaVuSans-Bold-3a"/>
     <path d="M 54.25 63.328125 
Q 49.953125 66.75 38.28125 66.75 
Q 25.921875 66.75 24.8125 61.03125 
Q 23.921875 56.546875 36.375 54.203125 
Q 46.140625 52.390625 50.828125 46.921875 
Q 56.5 40.328125 53.859375 26.8125 
Q 51.3125 13.875 43.171875 6.25 
Q 34.96875 -1.421875 23.25 -1.421875 
Q 11.578125 -1.421875 6.34375 6.25 
Q 1.125 13.875 3.765625 27.296875 
Q 5.671875 37.25 13.921875 45.3125 
Q 17.140625 48.4375 21.140625 50.203125 
Q 14.265625 54.046875 15.625 60.9375 
Q 18.21875 74.21875 39.75 74.21875 
Q 50.53125 74.21875 55.71875 70.796875 
z
M 27.390625 47.75 
Q 23.828125 46.34375 20.40625 42.78125 
Q 15.140625 37.25 13.234375 27.296875 
Q 11.28125 17.390625 14.359375 11.8125 
Q 17.484375 6.203125 24.75 6.203125 
Q 31.9375 6.203125 37.203125 11.859375 
Q 42.53125 17.53125 44.34375 26.8125 
Q 46.1875 36.53125 42.671875 41.21875 
Q 38.921875 46.234375 32.859375 46.78125 
Q 29.78125 47.078125 27.390625 47.75 
z
" id="DejaVuSans-Oblique-3b4"/>
     <path d="M 1.21875 54.6875 
L 18.703125 54.6875 
L 33.40625 17.578125 
L 45.90625 54.6875 
L 63.375 54.6875 
L 40.375 -5.171875 
Q 36.921875 -14.3125 32.296875 -17.9375 
Q 27.6875 -21.578125 20.125 -21.578125 
L 10.015625 -21.578125 
L 10.015625 -10.109375 
L 15.484375 -10.109375 
Q 19.921875 -10.109375 21.9375 -8.6875 
Q 23.96875 -7.28125 25.09375 -3.609375 
L 25.59375 -2.09375 
z
" id="DejaVuSans-Bold-79"/>
     <path d="M 27.984375 58.6875 
L 27.984375 14.203125 
L 34.71875 14.203125 
Q 46.234375 14.203125 52.3125 19.921875 
Q 58.40625 25.640625 58.40625 36.53125 
Q 58.40625 47.359375 52.34375 53.015625 
Q 46.296875 58.6875 34.71875 58.6875 
z
M 9.1875 72.90625 
L 29 72.90625 
Q 45.609375 72.90625 53.734375 70.53125 
Q 61.859375 68.171875 67.671875 62.5 
Q 72.796875 57.5625 75.28125 51.109375 
Q 77.78125 44.671875 77.78125 36.53125 
Q 77.78125 28.265625 75.28125 21.796875 
Q 72.796875 15.328125 67.671875 10.40625 
Q 61.8125 4.734375 53.609375 2.359375 
Q 45.40625 0 29 0 
L 9.1875 0 
z
" id="DejaVuSans-Bold-44"/>
     <path d="M 10.203125 18.890625 
L 27.78125 18.890625 
L 27.78125 4 
L 15.71875 -14.203125 
L 5.328125 -14.203125 
L 10.203125 4 
z
" id="DejaVuSans-Bold-2c"/>
     <path d="M 59.90625 70.609375 
L 59.90625 55.171875 
Q 53.90625 57.859375 48.1875 59.21875 
Q 42.484375 60.59375 37.40625 60.59375 
Q 30.671875 60.59375 27.4375 58.734375 
Q 24.21875 56.890625 24.21875 52.984375 
Q 24.21875 50.046875 26.390625 48.40625 
Q 28.5625 46.78125 34.28125 45.609375 
L 42.28125 44 
Q 54.4375 41.546875 59.5625 36.5625 
Q 64.703125 31.59375 64.703125 22.40625 
Q 64.703125 10.359375 57.546875 4.46875 
Q 50.390625 -1.421875 35.6875 -1.421875 
Q 28.765625 -1.421875 21.78125 -0.09375 
Q 14.796875 1.21875 7.8125 3.8125 
L 7.8125 19.671875 
Q 14.796875 15.96875 21.3125 14.078125 
Q 27.828125 12.203125 33.890625 12.203125 
Q 40.046875 12.203125 43.3125 14.25 
Q 46.578125 16.3125 46.578125 20.125 
Q 46.578125 23.53125 44.359375 25.390625 
Q 42.140625 27.25 35.5 28.71875 
L 28.21875 30.328125 
Q 17.28125 32.671875 12.21875 37.796875 
Q 7.171875 42.921875 7.171875 51.609375 
Q 7.171875 62.5 14.203125 68.359375 
Q 21.234375 74.21875 34.421875 74.21875 
Q 40.4375 74.21875 46.78125 73.3125 
Q 53.125 72.40625 59.90625 70.609375 
z
" id="DejaVuSans-Bold-53"/>
     <path d="M 42.484375 60.59375 
Q 33.890625 60.59375 29.15625 54.25 
Q 24.421875 47.90625 24.421875 36.375 
Q 24.421875 24.90625 29.15625 18.546875 
Q 33.890625 12.203125 42.484375 12.203125 
Q 51.125 12.203125 55.859375 18.546875 
Q 60.59375 24.90625 60.59375 36.375 
Q 60.59375 47.90625 55.859375 54.25 
Q 51.125 60.59375 42.484375 60.59375 
z
M 42.484375 74.21875 
Q 60.0625 74.21875 70.015625 64.15625 
Q 79.984375 54.109375 79.984375 36.375 
Q 79.984375 18.703125 70.015625 8.640625 
Q 60.0625 -1.421875 42.484375 -1.421875 
Q 24.953125 -1.421875 14.96875 8.640625 
Q 4.984375 18.703125 4.984375 36.375 
Q 4.984375 54.109375 14.96875 64.15625 
Q 24.953125 74.21875 42.484375 74.21875 
z
" id="DejaVuSans-Bold-4f"/>
     <path d="M 50 -14.3125 
L 50 -23.578125 
L 0 -23.578125 
L 0 -14.3125 
z
" id="DejaVuSans-Bold-5f"/>
     <path d="M 36.8125 57.421875 
L 16.21875 26.90625 
L 36.8125 26.90625 
z
M 33.6875 72.90625 
L 54.59375 72.90625 
L 54.59375 26.90625 
L 64.984375 26.90625 
L 64.984375 13.28125 
L 54.59375 13.28125 
L 54.59375 0 
L 36.8125 0 
L 36.8125 13.28125 
L 4.5 13.28125 
L 4.5 29.390625 
z
" id="DejaVuSans-Bold-34"/>
     <path d="M 36.1875 35.984375 
Q 31.25 35.984375 28.78125 32.78125 
Q 26.3125 29.59375 26.3125 23.1875 
Q 26.3125 16.796875 28.78125 13.59375 
Q 31.25 10.40625 36.1875 10.40625 
Q 41.15625 10.40625 43.625 13.59375 
Q 46.09375 16.796875 46.09375 23.1875 
Q 46.09375 29.59375 43.625 32.78125 
Q 41.15625 35.984375 36.1875 35.984375 
z
M 59.421875 71 
L 59.421875 57.515625 
Q 54.78125 59.71875 50.671875 60.765625 
Q 46.578125 61.8125 42.671875 61.8125 
Q 34.28125 61.8125 29.59375 57.140625 
Q 24.90625 52.484375 24.125 43.3125 
Q 27.34375 45.703125 31.09375 46.890625 
Q 34.859375 48.09375 39.3125 48.09375 
Q 50.484375 48.09375 57.34375 41.546875 
Q 64.203125 35.015625 64.203125 24.421875 
Q 64.203125 12.703125 56.53125 5.640625 
Q 48.875 -1.421875 35.984375 -1.421875 
Q 21.78125 -1.421875 13.984375 8.171875 
Q 6.203125 17.78125 6.203125 35.40625 
Q 6.203125 53.46875 15.3125 63.796875 
Q 24.421875 74.125 40.28125 74.125 
Q 45.3125 74.125 50.046875 73.34375 
Q 54.78125 72.5625 59.421875 71 
z
" id="DejaVuSans-Bold-36"/>
     <path d="M 34.8125 32.625 
Q 29.546875 32.625 26.703125 29.734375 
Q 23.875 26.859375 23.875 21.484375 
Q 23.875 16.109375 26.703125 13.25 
Q 29.546875 10.40625 34.8125 10.40625 
Q 40.046875 10.40625 42.828125 13.25 
Q 45.609375 16.109375 45.609375 21.484375 
Q 45.609375 26.90625 42.828125 29.765625 
Q 40.046875 32.625 34.8125 32.625 
z
M 21.09375 38.8125 
Q 14.453125 40.828125 11.078125 44.96875 
Q 7.71875 49.125 7.71875 55.328125 
Q 7.71875 64.546875 14.59375 69.375 
Q 21.484375 74.21875 34.8125 74.21875 
Q 48.046875 74.21875 54.921875 69.40625 
Q 61.8125 64.59375 61.8125 55.328125 
Q 61.8125 49.125 58.421875 44.96875 
Q 55.03125 40.828125 48.390625 38.8125 
Q 55.8125 36.765625 59.59375 32.15625 
Q 63.375 27.546875 63.375 20.515625 
Q 63.375 9.671875 56.171875 4.125 
Q 48.96875 -1.421875 34.8125 -1.421875 
Q 20.609375 -1.421875 13.359375 4.125 
Q 6.109375 9.671875 6.109375 20.515625 
Q 6.109375 27.546875 9.890625 32.15625 
Q 13.671875 36.765625 21.09375 38.8125 
z
M 25.484375 53.421875 
Q 25.484375 49.078125 27.90625 46.734375 
Q 30.328125 44.390625 34.8125 44.390625 
Q 39.203125 44.390625 41.59375 46.734375 
Q 44 49.078125 44 53.421875 
Q 44 57.765625 41.59375 60.078125 
Q 39.203125 62.40625 34.8125 62.40625 
Q 30.328125 62.40625 27.90625 60.0625 
Q 25.484375 57.71875 25.484375 53.421875 
z
" id="DejaVuSans-Bold-38"/>
     <path d="M 10.59375 72.90625 
L 57.328125 72.90625 
L 57.328125 59.078125 
L 25.59375 59.078125 
L 25.59375 47.796875 
Q 27.734375 48.390625 29.90625 48.703125 
Q 32.078125 49.03125 34.421875 49.03125 
Q 47.75 49.03125 55.171875 42.359375 
Q 62.59375 35.6875 62.59375 23.78125 
Q 62.59375 11.96875 54.515625 5.265625 
Q 46.4375 -1.421875 32.078125 -1.421875 
Q 25.875 -1.421875 19.796875 -0.21875 
Q 13.71875 0.984375 7.71875 3.421875 
L 7.71875 18.21875 
Q 13.671875 14.796875 19.015625 13.078125 
Q 24.359375 11.375 29.109375 11.375 
Q 35.9375 11.375 39.859375 14.71875 
Q 43.796875 18.0625 43.796875 23.78125 
Q 43.796875 29.546875 39.859375 32.859375 
Q 35.9375 36.1875 29.109375 36.1875 
Q 25.046875 36.1875 20.453125 35.125 
Q 15.875 34.078125 10.59375 31.890625 
z
" id="DejaVuSans-Bold-35"/>
     <path d="M 45.609375 46.6875 
L 45.609375 75.984375 
L 63.1875 75.984375 
L 63.1875 0 
L 45.609375 0 
L 45.609375 7.90625 
Q 42 3.078125 37.640625 0.828125 
Q 33.296875 -1.421875 27.59375 -1.421875 
Q 17.484375 -1.421875 10.984375 6.609375 
Q 4.5 14.65625 4.5 27.296875 
Q 4.5 39.9375 10.984375 47.96875 
Q 17.484375 56 27.59375 56 
Q 33.25 56 37.625 53.734375 
Q 42 51.46875 45.609375 46.6875 
z
M 34.078125 11.28125 
Q 39.703125 11.28125 42.65625 15.375 
Q 45.609375 19.484375 45.609375 27.296875 
Q 45.609375 35.109375 42.65625 39.203125 
Q 39.703125 43.3125 34.078125 43.3125 
Q 28.515625 43.3125 25.5625 39.203125 
Q 22.609375 35.109375 22.609375 27.296875 
Q 22.609375 19.484375 25.5625 15.375 
Q 28.515625 11.28125 34.078125 11.28125 
z
" id="DejaVuSans-Bold-64"/>
     <path d="M 7.8125 21.296875 
L 7.8125 54.6875 
L 25.390625 54.6875 
L 25.390625 49.21875 
Q 25.390625 44.78125 25.34375 38.0625 
Q 25.296875 31.34375 25.296875 29.109375 
Q 25.296875 22.515625 25.640625 19.609375 
Q 25.984375 16.703125 26.8125 15.375 
Q 27.875 13.671875 29.609375 12.734375 
Q 31.34375 11.8125 33.59375 11.8125 
Q 39.0625 11.8125 42.1875 16.015625 
Q 45.3125 20.21875 45.3125 27.6875 
L 45.3125 54.6875 
L 62.796875 54.6875 
L 62.796875 0 
L 45.3125 0 
L 45.3125 7.90625 
Q 41.359375 3.125 36.9375 0.84375 
Q 32.515625 -1.421875 27.203125 -1.421875 
Q 17.71875 -1.421875 12.765625 4.390625 
Q 7.8125 10.203125 7.8125 21.296875 
z
" id="DejaVuSans-Bold-75"/>
     <path d="M 53.421875 13.28125 
L 24.03125 13.28125 
L 19.390625 0 
L 0.484375 0 
L 27.484375 72.90625 
L 49.90625 72.90625 
L 76.90625 0 
L 58.015625 0 
z
M 28.71875 26.8125 
L 48.6875 26.8125 
L 38.71875 55.8125 
z
" id="DejaVuSans-Bold-41"/>
     <path d="M 63.375 33.296875 
L 63.375 0 
L 45.796875 0 
L 45.796875 5.421875 
L 45.796875 25.390625 
Q 45.796875 32.5625 45.484375 35.25 
Q 45.171875 37.9375 44.390625 39.203125 
Q 43.359375 40.921875 41.59375 41.875 
Q 39.84375 42.828125 37.59375 42.828125 
Q 32.125 42.828125 29 38.59375 
Q 25.875 34.375 25.875 26.90625 
L 25.875 0 
L 8.40625 0 
L 8.40625 75.984375 
L 25.875 75.984375 
L 25.875 46.6875 
Q 29.828125 51.46875 34.265625 53.734375 
Q 38.71875 56 44.09375 56 
Q 53.5625 56 58.46875 50.1875 
Q 63.375 44.390625 63.375 33.296875 
z
" id="DejaVuSans-Bold-68"/>
     <path d="M 45.609375 9.28125 
Q 42 4.5 37.640625 2.25 
Q 33.296875 0 27.59375 0 
Q 17.578125 0 11.03125 7.875 
Q 4.5 15.765625 4.5 27.984375 
Q 4.5 40.234375 11.03125 48.0625 
Q 17.578125 55.90625 27.59375 55.90625 
Q 33.296875 55.90625 37.640625 53.65625 
Q 42 51.421875 45.609375 46.578125 
L 45.609375 54.6875 
L 63.1875 54.6875 
L 63.1875 5.515625 
Q 63.1875 -7.671875 54.859375 -14.625 
Q 46.53125 -21.578125 30.71875 -21.578125 
Q 25.59375 -21.578125 20.796875 -20.796875 
Q 16.015625 -20.015625 11.1875 -18.40625 
L 11.1875 -4.78125 
Q 15.765625 -7.421875 20.15625 -8.71875 
Q 24.5625 -10.015625 29 -10.015625 
Q 37.59375 -10.015625 41.59375 -6.25 
Q 45.609375 -2.484375 45.609375 5.515625 
z
M 34.078125 43.3125 
Q 28.65625 43.3125 25.625 39.296875 
Q 22.609375 35.296875 22.609375 27.984375 
Q 22.609375 20.453125 25.53125 16.578125 
Q 28.46875 12.703125 34.078125 12.703125 
Q 39.546875 12.703125 42.578125 16.703125 
Q 45.609375 20.703125 45.609375 27.984375 
Q 45.609375 35.296875 42.578125 39.296875 
Q 39.546875 43.3125 34.078125 43.3125 
z
" id="DejaVuSans-Bold-67"/>
     <path d="M 62.984375 27.484375 
L 62.984375 22.515625 
L 22.125 22.515625 
Q 22.75 16.359375 26.5625 13.28125 
Q 30.375 10.203125 37.203125 10.203125 
Q 42.71875 10.203125 48.5 11.84375 
Q 54.296875 13.484375 60.40625 16.796875 
L 60.40625 3.328125 
Q 54.203125 0.984375 48 -0.21875 
Q 41.796875 -1.421875 35.59375 -1.421875 
Q 20.75 -1.421875 12.515625 6.125 
Q 4.296875 13.671875 4.296875 27.296875 
Q 4.296875 40.671875 12.375 48.328125 
Q 20.453125 56 34.625 56 
Q 47.515625 56 55.25 48.234375 
Q 62.984375 40.484375 62.984375 27.484375 
z
M 45.015625 33.296875 
Q 45.015625 38.28125 42.109375 41.328125 
Q 39.203125 44.390625 34.515625 44.390625 
Q 29.4375 44.390625 26.265625 41.53125 
Q 23.09375 38.671875 22.3125 33.296875 
z
" id="DejaVuSans-Bold-65"/>
     <path d="M 35.890625 40.578125 
Q 41.796875 40.578125 44.359375 42.765625 
Q 46.921875 44.96875 46.921875 50 
Q 46.921875 54.984375 44.359375 57.125 
Q 41.796875 59.28125 35.890625 59.28125 
L 27.984375 59.28125 
L 27.984375 40.578125 
z
M 27.984375 27.59375 
L 27.984375 0 
L 9.1875 0 
L 9.1875 72.90625 
L 37.890625 72.90625 
Q 52.296875 72.90625 59 68.0625 
Q 65.71875 63.234375 65.71875 52.78125 
Q 65.71875 45.5625 62.21875 40.921875 
Q 58.734375 36.28125 51.703125 34.078125 
Q 55.5625 33.203125 58.609375 30.09375 
Q 61.671875 27 64.796875 20.703125 
L 75 0 
L 54.984375 0 
L 46.09375 18.109375 
Q 43.40625 23.578125 40.640625 25.578125 
Q 37.890625 27.59375 33.296875 27.59375 
z
" id="DejaVuSans-Bold-52"/>
     <path d="M 1.515625 54.6875 
L 19 54.6875 
L 32.625 16.890625 
L 46.1875 54.6875 
L 63.71875 54.6875 
L 42.1875 0 
L 23 0 
z
" id="DejaVuSans-Bold-76"/>
     <path d="M 25.6875 72.90625 
L 36.53125 72.90625 
L 10.796875 -9.28125 
L 0 -9.28125 
z
" id="DejaVuSans-Bold-2f"/>
    </defs>
    <g transform="translate(13.679915 9.943375)scale(0.07 -0.07)">
     <use transform="translate(0 0.015625)" xlink:href="#DejaVuSans-Bold-43"/>
     <use transform="translate(73.388672 0.015625)" xlink:href="#DejaVuSans-Bold-3a"/>
     <use transform="translate(113.378906 0.015625)" xlink:href="#DejaVuSans-Bold-20"/>
     <use transform="translate(148.193359 0.015625)" xlink:href="#DejaVuSans-Oblique-3b4"/>
     <use transform="translate(209.375 0.015625)" xlink:href="#DejaVuSans-Bold-70"/>
     <use transform="translate(280.957031 0.015625)" xlink:href="#DejaVuSans-Bold-79"/>
     <use transform="translate(346.142578 0.015625)" xlink:href="#DejaVuSans-Bold-72"/>
     <use transform="translate(395.458984 0.015625)" xlink:href="#DejaVuSans-Bold-44"/>
     <use transform="translate(478.466797 0.015625)" xlink:href="#DejaVuSans-Bold-2c"/>
     <use transform="translate(516.455078 0.015625)" xlink:href="#DejaVuSans-Bold-20"/>
     <use transform="translate(551.269531 0.015625)" xlink:href="#DejaVuSans-Oblique-3b4"/>
     <use transform="translate(612.451172 0.015625)" xlink:href="#DejaVuSans-Bold-53"/>
     <use transform="translate(684.472656 0.015625)" xlink:href="#DejaVuSans-Bold-4f"/>
     <use transform="translate(769.482422 0.015625)" xlink:href="#DejaVuSans-Bold-5f"/>
     <use transform="translate(819.482422 0.015625)" xlink:href="#DejaVuSans-Bold-34"/>
     <use transform="translate(889.0625 0.015625)" xlink:href="#DejaVuSans-Bold-36"/>
     <use transform="translate(958.642578 0.015625)" xlink:href="#DejaVuSans-Bold-38"/>
     <use transform="translate(1028.222656 0.015625)" xlink:href="#DejaVuSans-Bold-35"/>
     <use transform="translate(1097.802734 0.015625)" xlink:href="#DejaVuSans-Bold-2c"/>
     <use transform="translate(1135.791016 0.015625)" xlink:href="#DejaVuSans-Bold-20"/>
     <use transform="translate(1170.605469 0.015625)" xlink:href="#DejaVuSans-Bold-61"/>
     <use transform="translate(1238.085938 0.015625)" xlink:href="#DejaVuSans-Bold-6e"/>
     <use transform="translate(1309.277344 0.015625)" xlink:href="#DejaVuSans-Bold-64"/>
     <use transform="translate(1380.859375 0.015625)" xlink:href="#DejaVuSans-Bold-20"/>
     <use transform="translate(1415.673828 0.015625)" xlink:href="#DejaVuSans-Oblique-3b4"/>
     <use transform="translate(1476.855469 0.015625)" xlink:href="#DejaVuSans-Bold-6e"/>
     <use transform="translate(1548.046875 0.015625)" xlink:href="#DejaVuSans-Bold-75"/>
     <use transform="translate(1619.238281 0.015625)" xlink:href="#DejaVuSans-Bold-73"/>
     <use transform="translate(1678.759766 0.015625)" xlink:href="#DejaVuSans-Bold-41"/>
     <use transform="translate(1756.152344 0.015625)" xlink:href="#DejaVuSans-Bold-20"/>
     <use transform="translate(1790.966797 0.015625)" xlink:href="#DejaVuSans-Bold-43"/>
     <use transform="translate(1864.355469 0.015625)" xlink:href="#DejaVuSans-Bold-68"/>
     <use transform="translate(1935.546875 0.015625)" xlink:href="#DejaVuSans-Bold-61"/>
     <use transform="translate(2003.027344 0.015625)" xlink:href="#DejaVuSans-Bold-6e"/>
     <use transform="translate(2074.21875 0.015625)" xlink:href="#DejaVuSans-Bold-67"/>
     <use transform="translate(2145.800781 0.015625)" xlink:href="#DejaVuSans-Bold-65"/>
     <use transform="translate(2213.623047 0.015625)" xlink:href="#DejaVuSans-Bold-20"/>
     <use transform="translate(2248.4375 0.015625)" xlink:href="#DejaVuSans-Bold-52"/>
     <use transform="translate(2325.439453 0.015625)" xlink:href="#DejaVuSans-Bold-65"/>
     <use transform="translate(2393.261719 0.015625)" xlink:href="#DejaVuSans-Bold-6c"/>
     <use transform="translate(2427.539062 0.015625)" xlink:href="#DejaVuSans-Bold-61"/>
     <use transform="translate(2495.019531 0.015625)" xlink:href="#DejaVuSans-Bold-74"/>
     <use transform="translate(2542.822266 0.015625)" xlink:href="#DejaVuSans-Bold-69"/>
     <use transform="translate(2577.099609 0.015625)" xlink:href="#DejaVuSans-Bold-76"/>
     <use transform="translate(2642.285156 0.015625)" xlink:href="#DejaVuSans-Bold-65"/>
     <use transform="translate(2710.107422 0.015625)" xlink:href="#DejaVuSans-Bold-20"/>
     <use transform="translate(2744.921875 0.015625)" xlink:href="#DejaVuSans-Bold-59"/>
     <use transform="translate(2817.333984 0.015625)" xlink:href="#DejaVuSans-Bold-62"/>
     <use transform="translate(2888.916016 0.015625)" xlink:href="#DejaVuSans-Bold-2f"/>
     <use transform="translate(2925.439453 0.015625)" xlink:href="#DejaVuSans-Bold-4c"/>
     <use transform="translate(2989.160156 0.015625)" xlink:href="#DejaVuSans-Bold-61"/>
    </g>
    <!--  Affinity at LH -->
    <defs>
     <path d="M 44.390625 75.984375 
L 44.390625 64.5 
L 34.71875 64.5 
Q 31 64.5 29.53125 63.15625 
Q 28.078125 61.8125 28.078125 58.5 
L 28.078125 54.6875 
L 43.015625 54.6875 
L 43.015625 42.1875 
L 28.078125 42.1875 
L 28.078125 0 
L 10.59375 0 
L 10.59375 42.1875 
L 1.90625 42.1875 
L 1.90625 54.6875 
L 10.59375 54.6875 
L 10.59375 58.5 
Q 10.59375 67.4375 15.578125 71.703125 
Q 20.5625 75.984375 31 75.984375 
z
" id="DejaVuSans-Bold-66"/>
     <path d="M 9.1875 72.90625 
L 27.984375 72.90625 
L 27.984375 45.125 
L 55.71875 45.125 
L 55.71875 72.90625 
L 74.515625 72.90625 
L 74.515625 0 
L 55.71875 0 
L 55.71875 30.90625 
L 27.984375 30.90625 
L 27.984375 0 
L 9.1875 0 
z
" id="DejaVuSans-Bold-48"/>
    </defs>
    <g transform="translate(93.226165 18.006062)scale(0.07 -0.07)">
     <use xlink:href="#DejaVuSans-Bold-20"/>
     <use x="34.814453" xlink:href="#DejaVuSans-Bold-41"/>
     <use x="112.207031" xlink:href="#DejaVuSans-Bold-66"/>
     <use x="155.712891" xlink:href="#DejaVuSans-Bold-66"/>
     <use x="199.21875" xlink:href="#DejaVuSans-Bold-69"/>
     <use x="233.496094" xlink:href="#DejaVuSans-Bold-6e"/>
     <use x="304.6875" xlink:href="#DejaVuSans-Bold-69"/>
     <use x="338.964844" xlink:href="#DejaVuSans-Bold-74"/>
     <use x="386.767578" xlink:href="#DejaVuSans-Bold-79"/>
     <use x="451.953125" xlink:href="#DejaVuSans-Bold-20"/>
     <use x="486.767578" xlink:href="#DejaVuSans-Bold-61"/>
     <use x="554.248047" xlink:href="#DejaVuSans-Bold-74"/>
     <use x="602.050781" xlink:href="#DejaVuSans-Bold-20"/>
     <use x="636.865234" xlink:href="#DejaVuSans-Bold-4c"/>
     <use x="700.585938" xlink:href="#DejaVuSans-Bold-48"/>
    </g>
   </g>
   <g id="legend_1">
    <g id="patch_7">
     <path d="M 28.59 57.363313 
L 77.7025 57.363313 
Q 78.7025 57.363313 78.7025 56.363313 
L 78.7025 27.33675 
Q 78.7025 26.33675 77.7025 26.33675 
L 28.59 26.33675 
Q 27.59 26.33675 27.59 27.33675 
L 27.59 56.363313 
Q 27.59 57.363313 28.59 57.363313 
z
" style="fill:#ffffff;opacity:0.8;stroke:#cccccc;stroke-linejoin:miter;"/>
    </g>
    <g id="line2d_84">
     <path d="M 29.59 30.385969 
L 39.59 30.385969 
" style="fill:none;stroke:#000000;stroke-dasharray:5.55,2.4;stroke-dashoffset:0;stroke-width:1.5;"/>
    </g>
    <g id="line2d_85"/>
    <g id="text_13">
     <!-- best fit curve -->
     <defs>
      <path d="M 48.6875 27.296875 
Q 48.6875 37.203125 44.609375 42.84375 
Q 40.53125 48.484375 33.40625 48.484375 
Q 26.265625 48.484375 22.1875 42.84375 
Q 18.109375 37.203125 18.109375 27.296875 
Q 18.109375 17.390625 22.1875 11.75 
Q 26.265625 6.109375 33.40625 6.109375 
Q 40.53125 6.109375 44.609375 11.75 
Q 48.6875 17.390625 48.6875 27.296875 
z
M 18.109375 46.390625 
Q 20.953125 51.265625 25.265625 53.625 
Q 29.59375 56 35.59375 56 
Q 45.5625 56 51.78125 48.09375 
Q 58.015625 40.1875 58.015625 27.296875 
Q 58.015625 14.40625 51.78125 6.484375 
Q 45.5625 -1.421875 35.59375 -1.421875 
Q 29.59375 -1.421875 25.265625 0.953125 
Q 20.953125 3.328125 18.109375 8.203125 
L 18.109375 0 
L 9.078125 0 
L 9.078125 75.984375 
L 18.109375 75.984375 
z
" id="DejaVuSans-62"/>
      <path d="M 56.203125 29.59375 
L 56.203125 25.203125 
L 14.890625 25.203125 
Q 15.484375 15.921875 20.484375 11.0625 
Q 25.484375 6.203125 34.421875 6.203125 
Q 39.59375 6.203125 44.453125 7.46875 
Q 49.3125 8.734375 54.109375 11.28125 
L 54.109375 2.78125 
Q 49.265625 0.734375 44.1875 -0.34375 
Q 39.109375 -1.421875 33.890625 -1.421875 
Q 20.796875 -1.421875 13.15625 6.1875 
Q 5.515625 13.8125 5.515625 26.8125 
Q 5.515625 40.234375 12.765625 48.109375 
Q 20.015625 56 32.328125 56 
Q 43.359375 56 49.78125 48.890625 
Q 56.203125 41.796875 56.203125 29.59375 
z
M 47.21875 32.234375 
Q 47.125 39.59375 43.09375 43.984375 
Q 39.0625 48.390625 32.421875 48.390625 
Q 24.90625 48.390625 20.390625 44.140625 
Q 15.875 39.890625 15.1875 32.171875 
z
" id="DejaVuSans-65"/>
      <path d="M 44.28125 53.078125 
L 44.28125 44.578125 
Q 40.484375 46.53125 36.375 47.5 
Q 32.28125 48.484375 27.875 48.484375 
Q 21.1875 48.484375 17.84375 46.4375 
Q 14.5 44.390625 14.5 40.28125 
Q 14.5 37.15625 16.890625 35.375 
Q 19.28125 33.59375 26.515625 31.984375 
L 29.59375 31.296875 
Q 39.15625 29.25 43.1875 25.515625 
Q 47.21875 21.78125 47.21875 15.09375 
Q 47.21875 7.46875 41.1875 3.015625 
Q 35.15625 -1.421875 24.609375 -1.421875 
Q 20.21875 -1.421875 15.453125 -0.5625 
Q 10.6875 0.296875 5.421875 2 
L 5.421875 11.28125 
Q 10.40625 8.6875 15.234375 7.390625 
Q 20.0625 6.109375 24.8125 6.109375 
Q 31.15625 6.109375 34.5625 8.28125 
Q 37.984375 10.453125 37.984375 14.40625 
Q 37.984375 18.0625 35.515625 20.015625 
Q 33.0625 21.96875 24.703125 23.78125 
L 21.578125 24.515625 
Q 13.234375 26.265625 9.515625 29.90625 
Q 5.8125 33.546875 5.8125 39.890625 
Q 5.8125 47.609375 11.28125 51.796875 
Q 16.75 56 26.8125 56 
Q 31.78125 56 36.171875 55.265625 
Q 40.578125 54.546875 44.28125 53.078125 
z
" id="DejaVuSans-73"/>
      <path d="M 18.3125 70.21875 
L 18.3125 54.6875 
L 36.8125 54.6875 
L 36.8125 47.703125 
L 18.3125 47.703125 
L 18.3125 18.015625 
Q 18.3125 11.328125 20.140625 9.421875 
Q 21.96875 7.515625 27.59375 7.515625 
L 36.8125 7.515625 
L 36.8125 0 
L 27.59375 0 
Q 17.1875 0 13.234375 3.875 
Q 9.28125 7.765625 9.28125 18.015625 
L 9.28125 47.703125 
L 2.6875 47.703125 
L 2.6875 54.6875 
L 9.28125 54.6875 
L 9.28125 70.21875 
z
" id="DejaVuSans-74"/>
      <path id="DejaVuSans-20"/>
      <path d="M 37.109375 75.984375 
L 37.109375 68.5 
L 28.515625 68.5 
Q 23.6875 68.5 21.796875 66.546875 
Q 19.921875 64.59375 19.921875 59.515625 
L 19.921875 54.6875 
L 34.71875 54.6875 
L 34.71875 47.703125 
L 19.921875 47.703125 
L 19.921875 0 
L 10.890625 0 
L 10.890625 47.703125 
L 2.296875 47.703125 
L 2.296875 54.6875 
L 10.890625 54.6875 
L 10.890625 58.5 
Q 10.890625 67.625 15.140625 71.796875 
Q 19.390625 75.984375 28.609375 75.984375 
z
" id="DejaVuSans-66"/>
      <path d="M 9.421875 54.6875 
L 18.40625 54.6875 
L 18.40625 0 
L 9.421875 0 
z
M 9.421875 75.984375 
L 18.40625 75.984375 
L 18.40625 64.59375 
L 9.421875 64.59375 
z
" id="DejaVuSans-69"/>
      <path d="M 48.78125 52.59375 
L 48.78125 44.1875 
Q 44.96875 46.296875 41.140625 47.34375 
Q 37.3125 48.390625 33.40625 48.390625 
Q 24.65625 48.390625 19.8125 42.84375 
Q 14.984375 37.3125 14.984375 27.296875 
Q 14.984375 17.28125 19.8125 11.734375 
Q 24.65625 6.203125 33.40625 6.203125 
Q 37.3125 6.203125 41.140625 7.25 
Q 44.96875 8.296875 48.78125 10.40625 
L 48.78125 2.09375 
Q 45.015625 0.34375 40.984375 -0.53125 
Q 36.96875 -1.421875 32.421875 -1.421875 
Q 20.0625 -1.421875 12.78125 6.34375 
Q 5.515625 14.109375 5.515625 27.296875 
Q 5.515625 40.671875 12.859375 48.328125 
Q 20.21875 56 33.015625 56 
Q 37.15625 56 41.109375 55.140625 
Q 45.0625 54.296875 48.78125 52.59375 
z
" id="DejaVuSans-63"/>
      <path d="M 8.5 21.578125 
L 8.5 54.6875 
L 17.484375 54.6875 
L 17.484375 21.921875 
Q 17.484375 14.15625 20.5 10.265625 
Q 23.53125 6.390625 29.59375 6.390625 
Q 36.859375 6.390625 41.078125 11.03125 
Q 45.3125 15.671875 45.3125 23.6875 
L 45.3125 54.6875 
L 54.296875 54.6875 
L 54.296875 0 
L 45.3125 0 
L 45.3125 8.40625 
Q 42.046875 3.421875 37.71875 1 
Q 33.40625 -1.421875 27.6875 -1.421875 
Q 18.265625 -1.421875 13.375 4.4375 
Q 8.5 10.296875 8.5 21.578125 
z
M 31.109375 56 
z
" id="DejaVuSans-75"/>
      <path d="M 41.109375 46.296875 
Q 39.59375 47.171875 37.8125 47.578125 
Q 36.03125 48 33.890625 48 
Q 26.265625 48 22.1875 43.046875 
Q 18.109375 38.09375 18.109375 28.8125 
L 18.109375 0 
L 9.078125 0 
L 9.078125 54.6875 
L 18.109375 54.6875 
L 18.109375 46.1875 
Q 20.953125 51.171875 25.484375 53.578125 
Q 30.03125 56 36.53125 56 
Q 37.453125 56 38.578125 55.875 
Q 39.703125 55.765625 41.0625 55.515625 
z
" id="DejaVuSans-72"/>
      <path d="M 2.984375 54.6875 
L 12.5 54.6875 
L 29.59375 8.796875 
L 46.6875 54.6875 
L 56.203125 54.6875 
L 35.6875 0 
L 23.484375 0 
z
" id="DejaVuSans-76"/>
     </defs>
     <g transform="translate(43.59 32.135969)scale(0.05 -0.05)">
      <use xlink:href="#DejaVuSans-62"/>
      <use x="63.476562" xlink:href="#DejaVuSans-65"/>
      <use x="125" xlink:href="#DejaVuSans-73"/>
      <use x="177.099609" xlink:href="#DejaVuSans-74"/>
      <use x="216.308594" xlink:href="#DejaVuSans-20"/>
      <use x="248.095703" xlink:href="#DejaVuSans-66"/>
      <use x="283.300781" xlink:href="#DejaVuSans-69"/>
      <use x="311.083984" xlink:href="#DejaVuSans-74"/>
      <use x="350.292969" xlink:href="#DejaVuSans-20"/>
      <use x="382.080078" xlink:href="#DejaVuSans-63"/>
      <use x="437.060547" xlink:href="#DejaVuSans-75"/>
      <use x="500.439453" xlink:href="#DejaVuSans-72"/>
      <use x="541.552734" xlink:href="#DejaVuSans-76"/>
      <use x="600.732422" xlink:href="#DejaVuSans-65"/>
     </g>
    </g>
    <g id="PathCollection_33">
     <g>
      <use style="fill:#ff0000;stroke:#ff0000;" x="34.59" xlink:href="#m185c4048dd" y="38.162531"/>
     </g>
    </g>
    <g id="text_14">
     <!-- $\delta$pyrD -->
     <defs>
      <path d="M 18.109375 8.203125 
L 18.109375 -20.796875 
L 9.078125 -20.796875 
L 9.078125 54.6875 
L 18.109375 54.6875 
L 18.109375 46.390625 
Q 20.953125 51.265625 25.265625 53.625 
Q 29.59375 56 35.59375 56 
Q 45.5625 56 51.78125 48.09375 
Q 58.015625 40.1875 58.015625 27.296875 
Q 58.015625 14.40625 51.78125 6.484375 
Q 45.5625 -1.421875 35.59375 -1.421875 
Q 29.59375 -1.421875 25.265625 0.953125 
Q 20.953125 3.328125 18.109375 8.203125 
z
M 48.6875 27.296875 
Q 48.6875 37.203125 44.609375 42.84375 
Q 40.53125 48.484375 33.40625 48.484375 
Q 26.265625 48.484375 22.1875 42.84375 
Q 18.109375 37.203125 18.109375 27.296875 
Q 18.109375 17.390625 22.1875 11.75 
Q 26.265625 6.109375 33.40625 6.109375 
Q 40.53125 6.109375 44.609375 11.75 
Q 48.6875 17.390625 48.6875 27.296875 
z
" id="DejaVuSans-70"/>
      <path d="M 32.171875 -5.078125 
Q 28.375 -14.84375 24.75 -17.8125 
Q 21.140625 -20.796875 15.09375 -20.796875 
L 7.90625 -20.796875 
L 7.90625 -13.28125 
L 13.1875 -13.28125 
Q 16.890625 -13.28125 18.9375 -11.515625 
Q 21 -9.765625 23.484375 -3.21875 
L 25.09375 0.875 
L 2.984375 54.6875 
L 12.5 54.6875 
L 29.59375 11.921875 
L 46.6875 54.6875 
L 56.203125 54.6875 
z
" id="DejaVuSans-79"/>
      <path d="M 19.671875 64.796875 
L 19.671875 8.109375 
L 31.59375 8.109375 
Q 46.6875 8.109375 53.6875 14.9375 
Q 60.6875 21.78125 60.6875 36.53125 
Q 60.6875 51.171875 53.6875 57.984375 
Q 46.6875 64.796875 31.59375 64.796875 
z
M 9.8125 72.90625 
L 30.078125 72.90625 
Q 51.265625 72.90625 61.171875 64.09375 
Q 71.09375 55.28125 71.09375 36.53125 
Q 71.09375 17.671875 61.125 8.828125 
Q 51.171875 0 30.078125 0 
L 9.8125 0 
z
" id="DejaVuSans-44"/>
     </defs>
     <g transform="translate(43.59 39.475031)scale(0.05 -0.05)">
      <use transform="translate(0 0.78125)" xlink:href="#DejaVuSans-Oblique-3b4"/>
      <use transform="translate(61.181641 0.78125)" xlink:href="#DejaVuSans-70"/>
      <use transform="translate(124.658203 0.78125)" xlink:href="#DejaVuSans-79"/>
      <use transform="translate(183.837891 0.78125)" xlink:href="#DejaVuSans-72"/>
      <use transform="translate(224.951172 0.78125)" xlink:href="#DejaVuSans-44"/>
     </g>
    </g>
    <g id="PathCollection_34">
     <g>
      <use style="fill:#008000;stroke:#008000;" x="34.59" xlink:href="#m9b38f6748b" y="45.51175"/>
     </g>
    </g>
    <g id="text_15">
     <!-- $\delta$SO_4685 -->
     <defs>
      <path d="M 53.515625 70.515625 
L 53.515625 60.890625 
Q 47.90625 63.578125 42.921875 64.890625 
Q 37.9375 66.21875 33.296875 66.21875 
Q 25.25 66.21875 20.875 63.09375 
Q 16.5 59.96875 16.5 54.203125 
Q 16.5 49.359375 19.40625 46.890625 
Q 22.3125 44.4375 30.421875 42.921875 
L 36.375 41.703125 
Q 47.40625 39.59375 52.65625 34.296875 
Q 57.90625 29 57.90625 20.125 
Q 57.90625 9.515625 50.796875 4.046875 
Q 43.703125 -1.421875 29.984375 -1.421875 
Q 24.8125 -1.421875 18.96875 -0.25 
Q 13.140625 0.921875 6.890625 3.21875 
L 6.890625 13.375 
Q 12.890625 10.015625 18.65625 8.296875 
Q 24.421875 6.59375 29.984375 6.59375 
Q 38.421875 6.59375 43.015625 9.90625 
Q 47.609375 13.234375 47.609375 19.390625 
Q 47.609375 24.75 44.3125 27.78125 
Q 41.015625 30.8125 33.5 32.328125 
L 27.484375 33.5 
Q 16.453125 35.6875 11.515625 40.375 
Q 6.59375 45.0625 6.59375 53.421875 
Q 6.59375 63.09375 13.40625 68.65625 
Q 20.21875 74.21875 32.171875 74.21875 
Q 37.3125 74.21875 42.625 73.28125 
Q 47.953125 72.359375 53.515625 70.515625 
z
" id="DejaVuSans-53"/>
      <path d="M 39.40625 66.21875 
Q 28.65625 66.21875 22.328125 58.203125 
Q 16.015625 50.203125 16.015625 36.375 
Q 16.015625 22.609375 22.328125 14.59375 
Q 28.65625 6.59375 39.40625 6.59375 
Q 50.140625 6.59375 56.421875 14.59375 
Q 62.703125 22.609375 62.703125 36.375 
Q 62.703125 50.203125 56.421875 58.203125 
Q 50.140625 66.21875 39.40625 66.21875 
z
M 39.40625 74.21875 
Q 54.734375 74.21875 63.90625 63.9375 
Q 73.09375 53.65625 73.09375 36.375 
Q 73.09375 19.140625 63.90625 8.859375 
Q 54.734375 -1.421875 39.40625 -1.421875 
Q 24.03125 -1.421875 14.8125 8.828125 
Q 5.609375 19.09375 5.609375 36.375 
Q 5.609375 53.65625 14.8125 63.9375 
Q 24.03125 74.21875 39.40625 74.21875 
z
" id="DejaVuSans-4f"/>
      <path d="M 50.984375 -16.609375 
L 50.984375 -23.578125 
L -0.984375 -23.578125 
L -0.984375 -16.609375 
z
" id="DejaVuSans-5f"/>
      <path d="M 10.796875 72.90625 
L 49.515625 72.90625 
L 49.515625 64.59375 
L 19.828125 64.59375 
L 19.828125 46.734375 
Q 21.96875 47.46875 24.109375 47.828125 
Q 26.265625 48.1875 28.421875 48.1875 
Q 40.625 48.1875 47.75 41.5 
Q 54.890625 34.8125 54.890625 23.390625 
Q 54.890625 11.625 47.5625 5.09375 
Q 40.234375 -1.421875 26.90625 -1.421875 
Q 22.3125 -1.421875 17.546875 -0.640625 
Q 12.796875 0.140625 7.71875 1.703125 
L 7.71875 11.625 
Q 12.109375 9.234375 16.796875 8.0625 
Q 21.484375 6.890625 26.703125 6.890625 
Q 35.15625 6.890625 40.078125 11.328125 
Q 45.015625 15.765625 45.015625 23.390625 
Q 45.015625 31 40.078125 35.4375 
Q 35.15625 39.890625 26.703125 39.890625 
Q 22.75 39.890625 18.8125 39.015625 
Q 14.890625 38.140625 10.796875 36.28125 
z
" id="DejaVuSans-35"/>
     </defs>
     <g transform="translate(43.59 46.82425)scale(0.05 -0.05)">
      <use transform="translate(0 0.78125)" xlink:href="#DejaVuSans-Oblique-3b4"/>
      <use transform="translate(61.181641 0.78125)" xlink:href="#DejaVuSans-53"/>
      <use transform="translate(124.658203 0.78125)" xlink:href="#DejaVuSans-4f"/>
      <use transform="translate(203.369141 0.78125)" xlink:href="#DejaVuSans-5f"/>
      <use transform="translate(253.369141 0.78125)" xlink:href="#DejaVuSans-34"/>
      <use transform="translate(316.992188 0.78125)" xlink:href="#DejaVuSans-36"/>
      <use transform="translate(380.615234 0.78125)" xlink:href="#DejaVuSans-38"/>
      <use transform="translate(444.238281 0.78125)" xlink:href="#DejaVuSans-35"/>
     </g>
    </g>
    <g id="PathCollection_35">
     <g>
      <use style="fill:#0000ff;stroke:#0000ff;" x="34.59" xlink:href="#m3f7326187f" y="53.010969"/>
     </g>
    </g>
    <g id="text_16">
     <!-- $\delta$nusA -->
     <defs>
      <path d="M 54.890625 33.015625 
L 54.890625 0 
L 45.90625 0 
L 45.90625 32.71875 
Q 45.90625 40.484375 42.875 44.328125 
Q 39.84375 48.1875 33.796875 48.1875 
Q 26.515625 48.1875 22.3125 43.546875 
Q 18.109375 38.921875 18.109375 30.90625 
L 18.109375 0 
L 9.078125 0 
L 9.078125 54.6875 
L 18.109375 54.6875 
L 18.109375 46.1875 
Q 21.34375 51.125 25.703125 53.5625 
Q 30.078125 56 35.796875 56 
Q 45.21875 56 50.046875 50.171875 
Q 54.890625 44.34375 54.890625 33.015625 
z
" id="DejaVuSans-6e"/>
      <path d="M 34.1875 63.1875 
L 20.796875 26.90625 
L 47.609375 26.90625 
z
M 28.609375 72.90625 
L 39.796875 72.90625 
L 67.578125 0 
L 57.328125 0 
L 50.6875 18.703125 
L 17.828125 18.703125 
L 11.1875 0 
L 0.78125 0 
z
" id="DejaVuSans-41"/>
     </defs>
     <g transform="translate(43.59 54.323469)scale(0.05 -0.05)">
      <use transform="translate(0 0.78125)" xlink:href="#DejaVuSans-Oblique-3b4"/>
      <use transform="translate(61.181641 0.78125)" xlink:href="#DejaVuSans-6e"/>
      <use transform="translate(124.560547 0.78125)" xlink:href="#DejaVuSans-75"/>
      <use transform="translate(187.939453 0.78125)" xlink:href="#DejaVuSans-73"/>
      <use transform="translate(240.039062 0.78125)" xlink:href="#DejaVuSans-41"/>
     </g>
    </g>
   </g>
  </g>
 </g>
 <defs>
  <clipPath id="p65df052991">
   <rect height="97.14325" width="191.16983" x="25.09" y="23.83675"/>
  </clipPath>
 </defs>
</svg>
